{
	"asset":{
		"generator":"Khronos glTF Blender I/O v4.2.69",
		"version":"2.0"
	},
	"scene":0,
	"scenes":[
		{
			"name":"Scene",
			"nodes":[
				0,
				1
			]
		}
	],
	"nodes":[
		{
			"mesh":0,
			"name":"Cube",
			"scale":[
				1.1417535543441772,
				1.1417535543441772,
				1.1417535543441772
			]
		},
		{
			"mesh":1,
			"name":"Cube.001"
		}
	],
	"materials":[
		{
			"doubleSided":true,
			"name":"Wood",
			"pbrMetallicRoughness":{
				"baseColorFactor":[
					0.8000000715255737,
					0.3131576478481293,
					0.05313275754451752,
					1
				],
				"metallicFactor":0,
				"roughnessFactor":0.5
			}
		},
		{
			"doubleSided":true,
			"name":"Beton",
			"pbrMetallicRoughness":{
				"baseColorFactor":[
					0.800000011920929,
					0.800000011920929,
					0.800000011920929,
					1
				],
				"metallicFactor":0,
				"roughnessFactor":0.5
			}
		},
		{
			"doubleSided":true,
			"name":"Human",
			"pbrMetallicRoughness":{
				"metallicFactor":0,
				"roughnessFactor":0.5
			}
		}
	],
	"meshes":[
		{
			"name":"Cube.001",
			"primitives":[
				{
					"attributes":{
						"POSITION":0,
						"NORMAL":1,
						"TEXCOORD_0":2,
						"TANGENT":3
					},
					"indices":4,
					"material":0
				},
				{
					"attributes":{
						"POSITION":5,
						"NORMAL":6,
						"TEXCOORD_0":7,
						"TANGENT":8
					},
					"indices":9,
					"material":1
				}
			]
		},
		{
			"name":"Cube.002",
			"primitives":[
				{
					"attributes":{
						"POSITION":10,
						"NORMAL":11,
						"TEXCOORD_0":12,
						"TANGENT":13
					},
					"indices":14,
					"material":2
				}
			]
		}
	],
	"accessors":[
		{
			"bufferView":0,
			"componentType":5126,
			"count":312,
			"max":[
				1.3301527500152588,
				0.47858312726020813,
				0.3578404486179352
			],
			"min":[
				-1.3301527500152588,
				0.45401203632354736,
				-0.3578404486179352
			],
			"type":"VEC3"
		},
		{
			"bufferView":1,
			"componentType":5126,
			"count":312,
			"type":"VEC3"
		},
		{
			"bufferView":2,
			"componentType":5126,
			"count":312,
			"type":"VEC2"
		},
		{
			"bufferView":3,
			"componentType":5126,
			"count":312,
			"type":"VEC4"
		},
		{
			"bufferView":4,
			"componentType":5123,
			"count":468,
			"type":"SCALAR"
		},
		{
			"bufferView":5,
			"componentType":5126,
			"count":64,
			"max":[
				1.2916631698608398,
				0.465556263923645,
				0.3440910279750824
			],
			"min":[
				-1.2916631698608398,
				-0.00491674616932869,
				-0.3440910279750824
			],
			"type":"VEC3"
		},
		{
			"bufferView":6,
			"componentType":5126,
			"count":64,
			"type":"VEC3"
		},
		{
			"bufferView":7,
			"componentType":5126,
			"count":64,
			"type":"VEC2"
		},
		{
			"bufferView":8,
			"componentType":5126,
			"count":64,
			"type":"VEC4"
		},
		{
			"bufferView":9,
			"componentType":5123,
			"count":96,
			"type":"SCALAR"
		},
		{
			"bufferView":10,
			"componentType":5126,
			"count":20,
			"max":[
				0.351531982421875,
				1.7931721210479736,
				0.1593373864889145
			],
			"min":[
				-0.3515317440032959,
				0.00682753324508667,
				-0.1593373864889145
			],
			"type":"VEC3"
		},
		{
			"bufferView":11,
			"componentType":5126,
			"count":20,
			"type":"VEC3"
		},
		{
			"bufferView":12,
			"componentType":5126,
			"count":20,
			"type":"VEC2"
		},
		{
			"bufferView":13,
			"componentType":5126,
			"count":20,
			"type":"VEC4"
		},
		{
			"bufferView":14,
			"componentType":5123,
			"count":30,
			"type":"SCALAR"
		}
	],
	"bufferViews":[
		{
			"buffer":0,
			"byteLength":3744,
			"byteOffset":0,
			"target":34962
		},
		{
			"buffer":0,
			"byteLength":3744,
			"byteOffset":3744,
			"target":34962
		},
		{
			"buffer":0,
			"byteLength":2496,
			"byteOffset":7488,
			"target":34962
		},
		{
			"buffer":0,
			"byteLength":4992,
			"byteOffset":9984,
			"target":34962
		},
		{
			"buffer":0,
			"byteLength":936,
			"byteOffset":14976,
			"target":34963
		},
		{
			"buffer":0,
			"byteLength":768,
			"byteOffset":15912,
			"target":34962
		},
		{
			"buffer":0,
			"byteLength":768,
			"byteOffset":16680,
			"target":34962
		},
		{
			"buffer":0,
			"byteLength":512,
			"byteOffset":17448,
			"target":34962
		},
		{
			"buffer":0,
			"byteLength":1024,
			"byteOffset":17960,
			"target":34962
		},
		{
			"buffer":0,
			"byteLength":192,
			"byteOffset":18984,
			"target":34963
		},
		{
			"buffer":0,
			"byteLength":240,
			"byteOffset":19176,
			"target":34962
		},
		{
			"buffer":0,
			"byteLength":240,
			"byteOffset":19416,
			"target":34962
		},
		{
			"buffer":0,
			"byteLength":160,
			"byteOffset":19656,
			"target":34962
		},
		{
			"buffer":0,
			"byteLength":320,
			"byteOffset":19816,
			"target":34962
		},
		{
			"buffer":0,
			"byteLength":60,
			"byteOffset":20136,
			"target":34963
		}
	],
	"buffers":[
		{
			"byteLength":20196,
			"uri":"Bench-2a1fbaba9f095d0c5fed302fd6271123.bin"
		}
	]
}
