{
	"asset":{
		"generator":"Khronos glTF Blender I/O v4.2.69",
		"version":"2.0"
	},
	"scene":0,
	"scenes":[
		{
			"name":"Scene",
			"nodes":[
				0,
				1,
				2,
				3
			]
		}
	],
	"nodes":[
		{
			"mesh":0,
			"name":"Cube",
			"rotation":[
				0,
				-1,
				0,
				1.6292068494294654e-07
			]
		},
		{
			"mesh":1,
			"name":"Plane.001",
			"rotation":[
				0.7071068286895752,
				0,
				0,
				0.7071068286895752
			],
			"translation":[
				-1.775275468826294,
				0,
				0
			]
		},
		{
			"mesh":2,
			"name":"Plane.002",
			"rotation":[
				0.7071068286895752,
				0,
				0,
				0.7071068286895752
			],
			"translation":[
				-1.775275468826294,
				0,
				0
			]
		},
		{
			"mesh":3,
			"name":"Cube.001",
			"rotation":[
				0,
				-1,
				0,
				1.6292068494294654e-07
			]
		}
	],
	"materials":[
		{
			"doubleSided":true,
			"name":"Rubber",
			"pbrMetallicRoughness":{
				"baseColorFactor":[
					0.01221696101129055,
					0.01221696101129055,
					0.01221696101129055,
					1
				],
				"metallicFactor":0,
				"roughnessFactor":0.5
			}
		},
		{
			"doubleSided":true,
			"name":"Metal",
			"pbrMetallicRoughness":{
				"baseColorFactor":[
					0.3031981587409973,
					0.3031981587409973,
					0.3031981587409973,
					1
				],
				"metallicFactor":0,
				"roughnessFactor":0.5
			}
		},
		{
			"doubleSided":true,
			"name":"Wood",
			"pbrMetallicRoughness":{
				"baseColorFactor":[
					0.5772650241851807,
					0.6738489866256714,
					0.5220500230789185,
					1
				],
				"metallicFactor":0,
				"roughnessFactor":0.5
			}
		},
		{
			"doubleSided":true,
			"name":"Steel-Brown",
			"pbrMetallicRoughness":{
				"baseColorFactor":[
					0.06072000041604042,
					0.05048099905252457,
					0.03175399824976921,
					1
				],
				"metallicFactor":0,
				"roughnessFactor":0.5
			}
		},
		{
			"doubleSided":true,
			"name":"Steel-Shiny",
			"pbrMetallicRoughness":{
				"baseColorFactor":[
					0.3108130097389221,
					0.3108130097389221,
					0.3108130097389221,
					1
				],
				"metallicFactor":0,
				"roughnessFactor":0.5
			}
		},
		{
			"doubleSided":true,
			"name":"Gravel",
			"pbrMetallicRoughness":{
				"baseColorFactor":[
					0.12370999902486801,
					0.12370999902486801,
					0.12370999902486801,
					1
				],
				"metallicFactor":0,
				"roughnessFactor":0.5
			}
		},
		{
			"doubleSided":true,
			"name":"WhiteMetal",
			"pbrMetallicRoughness":{
				"baseColorFactor":[
					0.800000011920929,
					0.800000011920929,
					0.800000011920929,
					1
				],
				"metallicFactor":0,
				"roughnessFactor":0.5
			}
		},
		{
			"doubleSided":true,
			"name":"RedMetal",
			"pbrMetallicRoughness":{
				"baseColorFactor":[
					0.8000000715255737,
					0.002702136756852269,
					0.007335172966122627,
					1
				],
				"metallicFactor":0,
				"roughnessFactor":0.5
			}
		}
	],
	"meshes":[
		{
			"name":"Cube",
			"primitives":[
				{
					"attributes":{
						"POSITION":0,
						"NORMAL":1,
						"TEXCOORD_0":2,
						"TANGENT":3
					},
					"indices":4,
					"material":0
				},
				{
					"attributes":{
						"POSITION":5,
						"NORMAL":6,
						"TEXCOORD_0":7,
						"TANGENT":8
					},
					"indices":9,
					"material":1
				}
			]
		},
		{
			"name":"Plane.001",
			"primitives":[
				{
					"attributes":{
						"POSITION":10,
						"NORMAL":11,
						"TEXCOORD_0":12,
						"TANGENT":13
					},
					"indices":14,
					"material":2
				},
				{
					"attributes":{
						"POSITION":15,
						"NORMAL":16,
						"TEXCOORD_0":17,
						"TANGENT":18
					},
					"indices":19,
					"material":3
				},
				{
					"attributes":{
						"POSITION":20,
						"NORMAL":21,
						"TEXCOORD_0":22,
						"TANGENT":23
					},
					"indices":24,
					"material":4
				}
			]
		},
		{
			"name":"Plane.002",
			"primitives":[
				{
					"attributes":{
						"POSITION":25,
						"NORMAL":26,
						"TEXCOORD_0":27,
						"TANGENT":28
					},
					"indices":29,
					"material":5
				}
			]
		},
		{
			"name":"Cube.002",
			"primitives":[
				{
					"attributes":{
						"POSITION":30,
						"NORMAL":31,
						"TEXCOORD_0":32,
						"TANGENT":33
					},
					"indices":34,
					"material":6
				},
				{
					"attributes":{
						"POSITION":35,
						"NORMAL":36,
						"TEXCOORD_0":37,
						"TANGENT":38
					},
					"indices":39,
					"material":7
				},
				{
					"attributes":{
						"POSITION":40,
						"NORMAL":41,
						"TEXCOORD_0":42,
						"TANGENT":43
					},
					"indices":44,
					"material":1
				}
			]
		}
	],
	"accessors":[
		{
			"bufferView":0,
			"componentType":5126,
			"count":88,
			"max":[
				1.3292099237442017,
				1.2439320087432861,
				0.8821097612380981
			],
			"min":[
				1.3013993501663208,
				0.8093199729919434,
				-0.8821097612380981
			],
			"type":"VEC3"
		},
		{
			"bufferView":1,
			"componentType":5126,
			"count":88,
			"type":"VEC3"
		},
		{
			"bufferView":2,
			"componentType":5126,
			"count":88,
			"type":"VEC2"
		},
		{
			"bufferView":3,
			"componentType":5126,
			"count":88,
			"type":"VEC4"
		},
		{
			"bufferView":4,
			"componentType":5123,
			"count":180,
			"type":"SCALAR"
		},
		{
			"bufferView":5,
			"componentType":5126,
			"count":816,
			"max":[
				1.3057531118392944,
				1.2808948755264282,
				0.9669293165206909
			],
			"min":[
				-1.2132461071014404,
				-0.23390117287635803,
				-0.9669293165206909
			],
			"type":"VEC3"
		},
		{
			"bufferView":6,
			"componentType":5126,
			"count":816,
			"type":"VEC3"
		},
		{
			"bufferView":7,
			"componentType":5126,
			"count":816,
			"type":"VEC2"
		},
		{
			"bufferView":8,
			"componentType":5126,
			"count":816,
			"type":"VEC4"
		},
		{
			"bufferView":9,
			"componentType":5123,
			"count":1440,
			"type":"SCALAR"
		},
		{
			"bufferView":10,
			"componentType":5126,
			"count":200,
			"max":[
				9.681197166442871,
				1.1837069988250732,
				0.2535359859466553
			],
			"min":[
				0.30650201439857483,
				-1.1837069988250732,
				0.15890899300575256
			],
			"type":"VEC3"
		},
		{
			"bufferView":11,
			"componentType":5126,
			"count":200,
			"type":"VEC3"
		},
		{
			"bufferView":12,
			"componentType":5126,
			"count":200,
			"type":"VEC2"
		},
		{
			"bufferView":13,
			"componentType":5126,
			"count":200,
			"type":"VEC4"
		},
		{
			"bufferView":14,
			"componentType":5123,
			"count":300,
			"type":"SCALAR"
		},
		{
			"bufferView":15,
			"componentType":5126,
			"count":640,
			"max":[
				9.99384880065918,
				0.8348010182380676,
				0.1638679951429367
			],
			"min":[
				-0.006151000037789345,
				-0.8348010182380676,
				0.0010580000234767795
			],
			"type":"VEC3"
		},
		{
			"bufferView":16,
			"componentType":5126,
			"count":640,
			"type":"VEC3"
		},
		{
			"bufferView":17,
			"componentType":5126,
			"count":640,
			"type":"VEC2"
		},
		{
			"bufferView":18,
			"componentType":5126,
			"count":640,
			"type":"VEC4"
		},
		{
			"bufferView":19,
			"componentType":5123,
			"count":960,
			"type":"SCALAR"
		},
		{
			"bufferView":20,
			"componentType":5126,
			"count":80,
			"max":[
				9.99384880065918,
				0.748308002948761,
				0.0023300000466406345
			],
			"min":[
				-0.006151000037789345,
				-0.748308002948761,
				0.0010580000234767795
			],
			"type":"VEC3"
		},
		{
			"bufferView":21,
			"componentType":5126,
			"count":80,
			"type":"VEC3"
		},
		{
			"bufferView":22,
			"componentType":5126,
			"count":80,
			"type":"VEC2"
		},
		{
			"bufferView":23,
			"componentType":5126,
			"count":80,
			"type":"VEC4"
		},
		{
			"bufferView":24,
			"componentType":5123,
			"count":120,
			"type":"SCALAR"
		},
		{
			"bufferView":25,
			"componentType":5126,
			"count":1440,
			"max":[
				10.250349998474121,
				2.1615560054779053,
				0.7628300189971924
			],
			"min":[
				-0.23906700313091278,
				-2.1615560054779053,
				0.17090199887752533
			],
			"type":"VEC3"
		},
		{
			"bufferView":26,
			"componentType":5126,
			"count":1440,
			"type":"VEC3"
		},
		{
			"bufferView":27,
			"componentType":5126,
			"count":1440,
			"type":"VEC2"
		},
		{
			"bufferView":28,
			"componentType":5126,
			"count":1440,
			"type":"VEC4"
		},
		{
			"bufferView":29,
			"componentType":5123,
			"count":2160,
			"type":"SCALAR"
		},
		{
			"bufferView":30,
			"componentType":5126,
			"count":8,
			"max":[
				0.8640719056129456,
				1.7157173156738281,
				-0.23698890209197998
			],
			"min":[
				0.8640719056129456,
				1.2722342014312744,
				-0.9525929689407349
			],
			"type":"VEC3"
		},
		{
			"bufferView":31,
			"componentType":5126,
			"count":8,
			"type":"VEC3"
		},
		{
			"bufferView":32,
			"componentType":5126,
			"count":8,
			"type":"VEC2"
		},
		{
			"bufferView":33,
			"componentType":5126,
			"count":8,
			"type":"VEC4"
		},
		{
			"bufferView":34,
			"componentType":5123,
			"count":24,
			"type":"SCALAR"
		},
		{
			"bufferView":35,
			"componentType":5126,
			"count":4,
			"max":[
				0.8640719056129456,
				1.6717476844787598,
				-0.28831496834754944
			],
			"min":[
				0.8640719056129456,
				1.3162038326263428,
				-0.9012669324874878
			],
			"type":"VEC3"
		},
		{
			"bufferView":36,
			"componentType":5126,
			"count":4,
			"type":"VEC3"
		},
		{
			"bufferView":37,
			"componentType":5126,
			"count":4,
			"type":"VEC2"
		},
		{
			"bufferView":38,
			"componentType":5126,
			"count":4,
			"type":"VEC4"
		},
		{
			"bufferView":39,
			"componentType":5123,
			"count":6,
			"type":"SCALAR"
		},
		{
			"bufferView":40,
			"componentType":5126,
			"count":168,
			"max":[
				0.8640719056129456,
				1.7157173156738281,
				0.6629697680473328
			],
			"min":[
				-0.86379474401474,
				0.05831906944513321,
				-0.9525929689407349
			],
			"type":"VEC3"
		},
		{
			"bufferView":41,
			"componentType":5126,
			"count":168,
			"type":"VEC3"
		},
		{
			"bufferView":42,
			"componentType":5126,
			"count":168,
			"type":"VEC2"
		},
		{
			"bufferView":43,
			"componentType":5126,
			"count":168,
			"type":"VEC4"
		},
		{
			"bufferView":44,
			"componentType":5123,
			"count":318,
			"type":"SCALAR"
		}
	],
	"bufferViews":[
		{
			"buffer":0,
			"byteLength":1056,
			"byteOffset":0,
			"target":34962
		},
		{
			"buffer":0,
			"byteLength":1056,
			"byteOffset":1056,
			"target":34962
		},
		{
			"buffer":0,
			"byteLength":704,
			"byteOffset":2112,
			"target":34962
		},
		{
			"buffer":0,
			"byteLength":1408,
			"byteOffset":2816,
			"target":34962
		},
		{
			"buffer":0,
			"byteLength":360,
			"byteOffset":4224,
			"target":34963
		},
		{
			"buffer":0,
			"byteLength":9792,
			"byteOffset":4584,
			"target":34962
		},
		{
			"buffer":0,
			"byteLength":9792,
			"byteOffset":14376,
			"target":34962
		},
		{
			"buffer":0,
			"byteLength":6528,
			"byteOffset":24168,
			"target":34962
		},
		{
			"buffer":0,
			"byteLength":13056,
			"byteOffset":30696,
			"target":34962
		},
		{
			"buffer":0,
			"byteLength":2880,
			"byteOffset":43752,
			"target":34963
		},
		{
			"buffer":0,
			"byteLength":2400,
			"byteOffset":46632,
			"target":34962
		},
		{
			"buffer":0,
			"byteLength":2400,
			"byteOffset":49032,
			"target":34962
		},
		{
			"buffer":0,
			"byteLength":1600,
			"byteOffset":51432,
			"target":34962
		},
		{
			"buffer":0,
			"byteLength":3200,
			"byteOffset":53032,
			"target":34962
		},
		{
			"buffer":0,
			"byteLength":600,
			"byteOffset":56232,
			"target":34963
		},
		{
			"buffer":0,
			"byteLength":7680,
			"byteOffset":56832,
			"target":34962
		},
		{
			"buffer":0,
			"byteLength":7680,
			"byteOffset":64512,
			"target":34962
		},
		{
			"buffer":0,
			"byteLength":5120,
			"byteOffset":72192,
			"target":34962
		},
		{
			"buffer":0,
			"byteLength":10240,
			"byteOffset":77312,
			"target":34962
		},
		{
			"buffer":0,
			"byteLength":1920,
			"byteOffset":87552,
			"target":34963
		},
		{
			"buffer":0,
			"byteLength":960,
			"byteOffset":89472,
			"target":34962
		},
		{
			"buffer":0,
			"byteLength":960,
			"byteOffset":90432,
			"target":34962
		},
		{
			"buffer":0,
			"byteLength":640,
			"byteOffset":91392,
			"target":34962
		},
		{
			"buffer":0,
			"byteLength":1280,
			"byteOffset":92032,
			"target":34962
		},
		{
			"buffer":0,
			"byteLength":240,
			"byteOffset":93312,
			"target":34963
		},
		{
			"buffer":0,
			"byteLength":17280,
			"byteOffset":93552,
			"target":34962
		},
		{
			"buffer":0,
			"byteLength":17280,
			"byteOffset":110832,
			"target":34962
		},
		{
			"buffer":0,
			"byteLength":11520,
			"byteOffset":128112,
			"target":34962
		},
		{
			"buffer":0,
			"byteLength":23040,
			"byteOffset":139632,
			"target":34962
		},
		{
			"buffer":0,
			"byteLength":4320,
			"byteOffset":162672,
			"target":34963
		},
		{
			"buffer":0,
			"byteLength":96,
			"byteOffset":166992,
			"target":34962
		},
		{
			"buffer":0,
			"byteLength":96,
			"byteOffset":167088,
			"target":34962
		},
		{
			"buffer":0,
			"byteLength":64,
			"byteOffset":167184,
			"target":34962
		},
		{
			"buffer":0,
			"byteLength":128,
			"byteOffset":167248,
			"target":34962
		},
		{
			"buffer":0,
			"byteLength":48,
			"byteOffset":167376,
			"target":34963
		},
		{
			"buffer":0,
			"byteLength":48,
			"byteOffset":167424,
			"target":34962
		},
		{
			"buffer":0,
			"byteLength":48,
			"byteOffset":167472,
			"target":34962
		},
		{
			"buffer":0,
			"byteLength":32,
			"byteOffset":167520,
			"target":34962
		},
		{
			"buffer":0,
			"byteLength":64,
			"byteOffset":167552,
			"target":34962
		},
		{
			"buffer":0,
			"byteLength":12,
			"byteOffset":167616,
			"target":34963
		},
		{
			"buffer":0,
			"byteLength":2016,
			"byteOffset":167628,
			"target":34962
		},
		{
			"buffer":0,
			"byteLength":2016,
			"byteOffset":169644,
			"target":34962
		},
		{
			"buffer":0,
			"byteLength":1344,
			"byteOffset":171660,
			"target":34962
		},
		{
			"buffer":0,
			"byteLength":2688,
			"byteOffset":173004,
			"target":34962
		},
		{
			"buffer":0,
			"byteLength":636,
			"byteOffset":175692,
			"target":34963
		}
	],
	"buffers":[
		{
			"byteLength":176328,
			"uri":"bumper-cae6076c8ea5726a51189cf1fc302174.bin"
		}
	]
}
