{
	"asset":{
		"generator":"Khronos glTF Blender I/O v4.2.69",
		"version":"2.0"
	},
	"scene":0,
	"scenes":[
		{
			"name":"Scene",
			"nodes":[
				0
			]
		}
	],
	"nodes":[
		{
			"mesh":0,
			"name":"Cylinder.001",
			"rotation":[
				0.7071068286895752,
				0,
				0,
				0.7071068286895752
			]
		}
	],
	"materials":[
		{
			"doubleSided":true,
			"name":"Metal",
			"pbrMetallicRoughness":{
				"baseColorFactor":[
					0.800000011920929,
					0.800000011920929,
					0.800000011920929,
					1
				],
				"metallicFactor":0,
				"roughnessFactor":0.5
			}
		},
		{
			"doubleSided":true,
			"name":"BlackPlatic",
			"pbrMetallicRoughness":{
				"baseColorFactor":[
					0.800000011920929,
					0.800000011920929,
					0.800000011920929,
					1
				],
				"metallicFactor":0,
				"roughnessFactor":0.5
			}
		}
	],
	"meshes":[
		{
			"name":"Cylinder.001",
			"primitives":[
				{
					"attributes":{
						"POSITION":0,
						"NORMAL":1,
						"TEXCOORD_0":2
					},
					"indices":3,
					"material":0
				},
				{
					"attributes":{
						"POSITION":4,
						"NORMAL":5,
						"TEXCOORD_0":6
					},
					"indices":7,
					"material":1
				}
			]
		}
	],
	"accessors":[
		{
			"bufferView":0,
			"componentType":5126,
			"count":66,
			"max":[
				0.0077822767198085785,
				0.008349710144102573,
				-0.06090080738067627
			],
			"min":[
				-0.008277895860373974,
				-0.007710859179496765,
				-0.1241631880402565
			],
			"type":"VEC3"
		},
		{
			"bufferView":1,
			"componentType":5126,
			"count":66,
			"type":"VEC3"
		},
		{
			"bufferView":2,
			"componentType":5126,
			"count":66,
			"type":"VEC2"
		},
		{
			"bufferView":3,
			"componentType":5123,
			"count":192,
			"type":"SCALAR"
		},
		{
			"bufferView":4,
			"componentType":5126,
			"count":470,
			"max":[
				0.07663009315729141,
				0.014301939867436886,
				0.07663024961948395
			],
			"min":[
				-0.07663009315729141,
				-0.013663262128829956,
				-0.1499721258878708
			],
			"type":"VEC3"
		},
		{
			"bufferView":5,
			"componentType":5126,
			"count":470,
			"type":"VEC3"
		},
		{
			"bufferView":6,
			"componentType":5126,
			"count":470,
			"type":"VEC2"
		},
		{
			"bufferView":7,
			"componentType":5123,
			"count":1902,
			"type":"SCALAR"
		}
	],
	"bufferViews":[
		{
			"buffer":0,
			"byteLength":792,
			"byteOffset":0,
			"target":34962
		},
		{
			"buffer":0,
			"byteLength":792,
			"byteOffset":792,
			"target":34962
		},
		{
			"buffer":0,
			"byteLength":528,
			"byteOffset":1584,
			"target":34962
		},
		{
			"buffer":0,
			"byteLength":384,
			"byteOffset":2112,
			"target":34963
		},
		{
			"buffer":0,
			"byteLength":5640,
			"byteOffset":2496,
			"target":34962
		},
		{
			"buffer":0,
			"byteLength":5640,
			"byteOffset":8136,
			"target":34962
		},
		{
			"buffer":0,
			"byteLength":3760,
			"byteOffset":13776,
			"target":34962
		},
		{
			"buffer":0,
			"byteLength":3804,
			"byteOffset":17536,
			"target":34963
		}
	],
	"buffers":[
		{
			"byteLength":21340,
			"uri":"Control-Roll-ce3153b26344525c4d401f21a086dff7.bin"
		}
	]
}
