{
	"asset":{
		"generator":"Khronos glTF Blender I/O v4.2.69",
		"version":"2.0"
	},
	"scene":0,
	"scenes":[
		{
			"name":"Scene",
			"nodes":[
				0
			]
		}
	],
	"nodes":[
		{
			"mesh":0,
			"name":"Cube"
		}
	],
	"materials":[
		{
			"doubleSided":true,
			"name":"Metal",
			"pbrMetallicRoughness":{
				"baseColorFactor":[
					0.1679491102695465,
					0.15376320481300354,
					0.10538735240697861,
					1
				],
				"metallicFactor":0,
				"roughnessFactor":0.5
			}
		},
		{
			"doubleSided":true,
			"name":"Display",
			"pbrMetallicRoughness":{
				"baseColorFactor":[
					0.07279261946678162,
					0.0787162259221077,
					0.8000000715255737,
					1
				],
				"metallicFactor":0,
				"roughnessFactor":0.5
			}
		}
	],
	"meshes":[
		{
			"name":"Cube.001",
			"primitives":[
				{
					"attributes":{
						"POSITION":0,
						"NORMAL":1,
						"TEXCOORD_0":2,
						"TANGENT":3
					},
					"indices":4,
					"material":0
				},
				{
					"attributes":{
						"POSITION":5,
						"NORMAL":6,
						"TEXCOORD_0":7,
						"TANGENT":8
					},
					"indices":9,
					"material":1
				}
			]
		}
	],
	"accessors":[
		{
			"bufferView":0,
			"componentType":5126,
			"count":328,
			"max":[
				0.15000000596046448,
				0.874333918094635,
				1
			],
			"min":[
				-0.15000000596046448,
				-0.30000001192092896,
				-1
			],
			"type":"VEC3"
		},
		{
			"bufferView":1,
			"componentType":5126,
			"count":328,
			"type":"VEC3"
		},
		{
			"bufferView":2,
			"componentType":5126,
			"count":328,
			"type":"VEC2"
		},
		{
			"bufferView":3,
			"componentType":5126,
			"count":328,
			"type":"VEC4"
		},
		{
			"bufferView":4,
			"componentType":5123,
			"count":600,
			"type":"SCALAR"
		},
		{
			"bufferView":5,
			"componentType":5126,
			"count":48,
			"max":[
				0.12710349261760712,
				0.24499082565307617,
				0.9449908137321472
			],
			"min":[
				-0.12710349261760712,
				-0.24499082565307617,
				-0.9449908137321472
			],
			"type":"VEC3"
		},
		{
			"bufferView":6,
			"componentType":5126,
			"count":48,
			"type":"VEC3"
		},
		{
			"bufferView":7,
			"componentType":5126,
			"count":48,
			"type":"VEC2"
		},
		{
			"bufferView":8,
			"componentType":5126,
			"count":48,
			"type":"VEC4"
		},
		{
			"bufferView":9,
			"componentType":5123,
			"count":144,
			"type":"SCALAR"
		}
	],
	"bufferViews":[
		{
			"buffer":0,
			"byteLength":3936,
			"byteOffset":0,
			"target":34962
		},
		{
			"buffer":0,
			"byteLength":3936,
			"byteOffset":3936,
			"target":34962
		},
		{
			"buffer":0,
			"byteLength":2624,
			"byteOffset":7872,
			"target":34962
		},
		{
			"buffer":0,
			"byteLength":5248,
			"byteOffset":10496,
			"target":34962
		},
		{
			"buffer":0,
			"byteLength":1200,
			"byteOffset":15744,
			"target":34963
		},
		{
			"buffer":0,
			"byteLength":576,
			"byteOffset":16944,
			"target":34962
		},
		{
			"buffer":0,
			"byteLength":576,
			"byteOffset":17520,
			"target":34962
		},
		{
			"buffer":0,
			"byteLength":384,
			"byteOffset":18096,
			"target":34962
		},
		{
			"buffer":0,
			"byteLength":768,
			"byteOffset":18480,
			"target":34962
		},
		{
			"buffer":0,
			"byteLength":288,
			"byteOffset":19248,
			"target":34963
		}
	],
	"buffers":[
		{
			"byteLength":19536,
			"uri":"DestinationSignFromUp-1acf138c3d221ff6e07ed323d806fab8.bin"
		}
	]
}
