{
	"asset":{
		"generator":"Khronos glTF Blender I/O v4.2.69",
		"version":"2.0"
	},
	"scene":0,
	"scenes":[
		{
			"name":"Scene",
			"nodes":[
				0,
				1
			]
		}
	],
	"nodes":[
		{
			"mesh":0,
			"name":"Donut"
		},
		{
			"mesh":1,
			"name":"Icing",
			"scale":[
				0.9951615333557129,
				0.9951615333557129,
				0.9951615333557129
			]
		}
	],
	"meshes":[
		{
			"name":"Torus",
			"primitives":[
				{
					"attributes":{
						"POSITION":0,
						"NORMAL":1,
						"TEXCOORD_0":2,
						"TANGENT":3
					},
					"indices":4
				}
			]
		},
		{
			"name":"Torus.001",
			"primitives":[
				{
					"attributes":{
						"POSITION":5,
						"NORMAL":6,
						"TEXCOORD_0":7,
						"TANGENT":8
					},
					"indices":9
				}
			]
		}
	],
	"accessors":[
		{
			"bufferView":0,
			"componentType":5126,
			"count":1075,
			"max":[
				0.0735042467713356,
				0.029148215427994728,
				0.07561751455068588
			],
			"min":[
				-0.07476632297039032,
				-0.025043146684765816,
				-0.07365907728672028
			],
			"type":"VEC3"
		},
		{
			"bufferView":1,
			"componentType":5126,
			"count":1075,
			"type":"VEC3"
		},
		{
			"bufferView":2,
			"componentType":5126,
			"count":1075,
			"type":"VEC2"
		},
		{
			"bufferView":3,
			"componentType":5126,
			"count":1075,
			"type":"VEC4"
		},
		{
			"bufferView":4,
			"componentType":5123,
			"count":6048,
			"type":"SCALAR"
		},
		{
			"bufferView":5,
			"componentType":5126,
			"count":4633,
			"max":[
				0.07524387538433075,
				0.031131723895668983,
				0.07623375207185745
			],
			"min":[
				-0.07684968411922455,
				-0.007514359895139933,
				-0.07466576993465424
			],
			"type":"VEC3"
		},
		{
			"bufferView":6,
			"componentType":5126,
			"count":4633,
			"type":"VEC3"
		},
		{
			"bufferView":7,
			"componentType":5126,
			"count":4633,
			"type":"VEC2"
		},
		{
			"bufferView":8,
			"componentType":5126,
			"count":4633,
			"type":"VEC4"
		},
		{
			"bufferView":9,
			"componentType":5123,
			"count":26208,
			"type":"SCALAR"
		}
	],
	"bufferViews":[
		{
			"buffer":0,
			"byteLength":12900,
			"byteOffset":0,
			"target":34962
		},
		{
			"buffer":0,
			"byteLength":12900,
			"byteOffset":12900,
			"target":34962
		},
		{
			"buffer":0,
			"byteLength":8600,
			"byteOffset":25800,
			"target":34962
		},
		{
			"buffer":0,
			"byteLength":17200,
			"byteOffset":34400,
			"target":34962
		},
		{
			"buffer":0,
			"byteLength":12096,
			"byteOffset":51600,
			"target":34963
		},
		{
			"buffer":0,
			"byteLength":55596,
			"byteOffset":63696,
			"target":34962
		},
		{
			"buffer":0,
			"byteLength":55596,
			"byteOffset":119292,
			"target":34962
		},
		{
			"buffer":0,
			"byteLength":37064,
			"byteOffset":174888,
			"target":34962
		},
		{
			"buffer":0,
			"byteLength":74128,
			"byteOffset":211952,
			"target":34962
		},
		{
			"buffer":0,
			"byteLength":52416,
			"byteOffset":286080,
			"target":34963
		}
	],
	"buffers":[
		{
			"byteLength":338496,
			"uri":"Donut-110613c53b8aa88c2f89db4cb9534a76.bin"
		}
	]
}
