{
	"asset":{
		"generator":"Khronos glTF Blender I/O v4.2.69",
		"version":"2.0"
	},
	"scene":0,
	"scenes":[
		{
			"name":"Scene",
			"nodes":[
				6
			]
		}
	],
	"nodes":[
		{
			"name":"lowerLight",
			"rotation":[
				-0.7071067690849304,
				-2.9145342276858447e-16,
				-2.9145342276858447e-16,
				0.7071067690849304
			],
			"translation":[
				-4.006956854924452e-16,
				1.7960083484649658,
				0.27853259444236755
			]
		},
		{
			"name":"upperLight",
			"rotation":[
				0.7071067690849304,
				7.277346867340384e-07,
				7.277346867340384e-07,
				0.7071067690849304
			],
			"translation":[
				-4.995527684175966e-16,
				2.2686898708343506,
				0.35695332288742065
			]
		},
		{
			"name":"disk",
			"rotation":[
				-0.5,
				0.5,
				0.5,
				0.5
			],
			"translation":[
				0.111704982817173,
				2.9112040996551514,
				0.3161211311817169
			]
		},
		{
			"name":"arrow",
			"rotation":[
				2.973131358885439e-06,
				-3.37980463882559e-06,
				0.7071067690849304,
				0.7071067690849304
			],
			"scale":[
				0.9999998807907104,
				0.9999997615814209,
				0.9999999403953552
			],
			"translation":[
				-0.02539883553981781,
				1.8573017120361328,
				0.3145591914653778
			]
		},
		{
			"name":"mast"
		},
		{
			"mesh":0,
			"name":"formsignal_vo",
			"skin":0
		},
		{
			"children":[
				5,
				0,
				1,
				2,
				3,
				4
			],
			"name":"Armature"
		}
	],
	"materials":[
		{
			"doubleSided":true,
			"name":"Combined",
			"pbrMetallicRoughness":{
				"baseColorTexture":{
					"index":0
				},
				"metallicFactor":0,
				"roughnessFactor":0.5
			}
		}
	],
	"meshes":[
		{
			"name":"Cube.003",
			"primitives":[
				{
					"attributes":{
						"POSITION":0,
						"NORMAL":1,
						"TEXCOORD_0":2,
						"JOINTS_0":3,
						"WEIGHTS_0":4
					},
					"indices":5,
					"material":0
				}
			]
		}
	],
	"textures":[
		{
			"sampler":0,
			"source":0
		}
	],
	"images":[
		{
			"mimeType":"image/png",
			"name":"formsignal_vo.png",
			"uri":"../../Resources/SignalTypes/Vo/Form/formsignal_vo.png"
		}
	],
	"skins":[
		{
			"inverseBindMatrices":6,
			"joints":[
				0,
				1,
				2,
				3,
				4
			],
			"name":"Armature"
		}
	],
	"accessors":[
		{
			"bufferView":0,
			"componentType":5126,
			"count":546,
			"max":[
				0.4269603490829468,
				3.307849884033203,
				0.7147076725959778
			],
			"min":[
				-0.20952929556369781,
				-1.3301047086715698,
				-0.07697761058807373
			],
			"type":"VEC3"
		},
		{
			"bufferView":1,
			"componentType":5126,
			"count":546,
			"type":"VEC3"
		},
		{
			"bufferView":2,
			"componentType":5126,
			"count":546,
			"type":"VEC2"
		},
		{
			"bufferView":3,
			"componentType":5121,
			"count":546,
			"type":"VEC4"
		},
		{
			"bufferView":4,
			"componentType":5126,
			"count":546,
			"type":"VEC4"
		},
		{
			"bufferView":5,
			"componentType":5123,
			"count":1344,
			"type":"SCALAR"
		},
		{
			"bufferView":6,
			"componentType":5126,
			"count":5,
			"type":"MAT4"
		}
	],
	"bufferViews":[
		{
			"buffer":0,
			"byteLength":6552,
			"byteOffset":0,
			"target":34962
		},
		{
			"buffer":0,
			"byteLength":6552,
			"byteOffset":6552,
			"target":34962
		},
		{
			"buffer":0,
			"byteLength":4368,
			"byteOffset":13104,
			"target":34962
		},
		{
			"buffer":0,
			"byteLength":2184,
			"byteOffset":17472,
			"target":34962
		},
		{
			"buffer":0,
			"byteLength":8736,
			"byteOffset":19656,
			"target":34962
		},
		{
			"buffer":0,
			"byteLength":2688,
			"byteOffset":28392,
			"target":34963
		},
		{
			"buffer":0,
			"byteLength":320,
			"byteOffset":31080
		}
	],
	"samplers":[
		{
			"magFilter":9729,
			"minFilter":9987
		}
	],
	"buffers":[
		{
			"byteLength":31400,
			"uri":"formsignal_vo-cf51a03366f4ef5b5f3e6bb38ea408a0.bin"
		}
	]
}
