{
	"asset":{
		"generator":"Khronos glTF Blender I/O v4.2.69",
		"version":"2.0"
	},
	"scene":0,
	"scenes":[
		{
			"name":"Scene",
			"nodes":[
				6
			]
		}
	],
	"nodes":[
		{
			"name":"lowerLight",
			"rotation":[
				0.7071067690849304,
				6.434409556277387e-07,
				6.434409556277387e-07,
				0.7071067690849304
			],
			"translation":[
				-9.88147895113038e-16,
				4.451539993286133,
				0.4583258032798767
			]
		},
		{
			"name":"upperLight",
			"rotation":[
				0.7071067690849304,
				-3.90559847573968e-07,
				-3.90559847573968e-07,
				0.7071067690849304
			],
			"translation":[
				-1.341717446747112e-15,
				6.0382080078125,
				0.4526072144508362
			]
		},
		{
			"name":"lowerWing",
			"rotation":[
				-2.980232594040899e-08,
				-1.1920926112907182e-07,
				2.2339948044627886e-17,
				1
			],
			"scale":[
				1,
				0.9999999403953552,
				0.9999999403953552
			],
			"translation":[
				-1.0298078341952014e-15,
				4.637842178344727,
				0.30224037170410156
			]
		},
		{
			"name":"upperWing",
			"rotation":[
				0.7071067690849304,
				-4.352363703219453e-06,
				-4.352363703219453e-06,
				0.7071067690849304
			],
			"translation":[
				-1.388287212308035e-15,
				6.255378723144531,
				0.2989538908004761
			]
		},
		{
			"name":"mast"
		},
		{
			"mesh":0,
			"name":"FormHpSignal",
			"skin":0
		},
		{
			"children":[
				5,
				0,
				1,
				2,
				3,
				4
			],
			"name":"Armature"
		}
	],
	"materials":[
		{
			"doubleSided":true,
			"name":"CombinedMat",
			"pbrMetallicRoughness":{
				"baseColorFactor":[
					0.800000011920929,
					0.800000011920929,
					0.800000011920929,
					1
				],
				"metallicFactor":0,
				"roughnessFactor":0.5
			}
		}
	],
	"meshes":[
		{
			"name":"Cube.002",
			"primitives":[
				{
					"attributes":{
						"POSITION":0,
						"NORMAL":1,
						"TEXCOORD_0":2,
						"JOINTS_0":3,
						"WEIGHTS_0":4
					},
					"indices":5,
					"material":0
				}
			]
		}
	],
	"skins":[
		{
			"inverseBindMatrices":6,
			"joints":[
				0,
				1,
				2,
				3,
				4
			],
			"name":"Armature"
		}
	],
	"accessors":[
		{
			"bufferView":0,
			"componentType":5126,
			"count":716,
			"max":[
				0.42720985412597656,
				6.643161773681641,
				1.6840133666992188
			],
			"min":[
				-0.2167682647705078,
				-1.3291716575622559,
				-0.01814734935760498
			],
			"type":"VEC3"
		},
		{
			"bufferView":1,
			"componentType":5126,
			"count":716,
			"type":"VEC3"
		},
		{
			"bufferView":2,
			"componentType":5126,
			"count":716,
			"type":"VEC2"
		},
		{
			"bufferView":3,
			"componentType":5121,
			"count":716,
			"type":"VEC4"
		},
		{
			"bufferView":4,
			"componentType":5126,
			"count":716,
			"type":"VEC4"
		},
		{
			"bufferView":5,
			"componentType":5123,
			"count":1770,
			"type":"SCALAR"
		},
		{
			"bufferView":6,
			"componentType":5126,
			"count":5,
			"type":"MAT4"
		}
	],
	"bufferViews":[
		{
			"buffer":0,
			"byteLength":8592,
			"byteOffset":0,
			"target":34962
		},
		{
			"buffer":0,
			"byteLength":8592,
			"byteOffset":8592,
			"target":34962
		},
		{
			"buffer":0,
			"byteLength":5728,
			"byteOffset":17184,
			"target":34962
		},
		{
			"buffer":0,
			"byteLength":2864,
			"byteOffset":22912,
			"target":34962
		},
		{
			"buffer":0,
			"byteLength":11456,
			"byteOffset":25776,
			"target":34962
		},
		{
			"buffer":0,
			"byteLength":3540,
			"byteOffset":37232,
			"target":34963
		},
		{
			"buffer":0,
			"byteLength":320,
			"byteOffset":40772
		}
	],
	"buffers":[
		{
			"byteLength":41092,
			"uri":"formsignal_hp-976d03f6270c7dafec547ffa801b4776.bin"
		}
	]
}
