{
	"asset":{
		"generator":"Khronos glTF Blender I/O v4.2.69",
		"version":"2.0"
	},
	"scene":0,
	"scenes":[
		{
			"name":"Scene",
			"nodes":[
				0
			]
		}
	],
	"nodes":[
		{
			"mesh":0,
			"name":"Cube",
			"scale":[
				1.4303652048110962,
				1.4303652048110962,
				1.4303652048110962
			],
			"translation":[
				0,
				0.1637835055589676,
				0
			]
		}
	],
	"materials":[
		{
			"doubleSided":true,
			"name":"Material",
			"pbrMetallicRoughness":{
				"baseColorFactor":[
					0.1788620799779892,
					0.1788620799779892,
					0.1788620799779892,
					1
				],
				"metallicFactor":0,
				"roughnessFactor":0.4000000059604645
			}
		},
		{
			"doubleSided":true,
			"name":"OrangeMetal",
			"pbrMetallicRoughness":{
				"baseColorFactor":[
					0.570470929145813,
					0.28683507442474365,
					0.012771009467542171,
					1
				],
				"metallicFactor":0,
				"roughnessFactor":0.5
			}
		}
	],
	"meshes":[
		{
			"name":"Cube",
			"primitives":[
				{
					"attributes":{
						"POSITION":0,
						"NORMAL":1,
						"TEXCOORD_0":2,
						"TANGENT":3
					},
					"indices":4,
					"material":0
				},
				{
					"attributes":{
						"POSITION":5,
						"NORMAL":6,
						"TEXCOORD_0":7,
						"TANGENT":8
					},
					"indices":9,
					"material":1
				}
			]
		}
	],
	"accessors":[
		{
			"bufferView":0,
			"componentType":5126,
			"count":24,
			"max":[
				0.09196247905492783,
				0.5,
				-0.14983461797237396
			],
			"min":[
				-0.09196247905492783,
				-0.19323158264160156,
				-0.16925080120563507
			],
			"type":"VEC3"
		},
		{
			"bufferView":1,
			"componentType":5126,
			"count":24,
			"type":"VEC3"
		},
		{
			"bufferView":2,
			"componentType":5126,
			"count":24,
			"type":"VEC2"
		},
		{
			"bufferView":3,
			"componentType":5126,
			"count":24,
			"type":"VEC4"
		},
		{
			"bufferView":4,
			"componentType":5123,
			"count":36,
			"type":"SCALAR"
		},
		{
			"bufferView":5,
			"componentType":5126,
			"count":444,
			"max":[
				0.16206422448158264,
				0.5136452913284302,
				0.16206422448158264
			],
			"min":[
				-0.16206422448158264,
				0.06104947626590729,
				-0.16206422448158264
			],
			"type":"VEC3"
		},
		{
			"bufferView":6,
			"componentType":5126,
			"count":444,
			"type":"VEC3"
		},
		{
			"bufferView":7,
			"componentType":5126,
			"count":444,
			"type":"VEC2"
		},
		{
			"bufferView":8,
			"componentType":5126,
			"count":444,
			"type":"VEC4"
		},
		{
			"bufferView":9,
			"componentType":5123,
			"count":732,
			"type":"SCALAR"
		}
	],
	"bufferViews":[
		{
			"buffer":0,
			"byteLength":288,
			"byteOffset":0,
			"target":34962
		},
		{
			"buffer":0,
			"byteLength":288,
			"byteOffset":288,
			"target":34962
		},
		{
			"buffer":0,
			"byteLength":192,
			"byteOffset":576,
			"target":34962
		},
		{
			"buffer":0,
			"byteLength":384,
			"byteOffset":768,
			"target":34962
		},
		{
			"buffer":0,
			"byteLength":72,
			"byteOffset":1152,
			"target":34963
		},
		{
			"buffer":0,
			"byteLength":5328,
			"byteOffset":1224,
			"target":34962
		},
		{
			"buffer":0,
			"byteLength":5328,
			"byteOffset":6552,
			"target":34962
		},
		{
			"buffer":0,
			"byteLength":3552,
			"byteOffset":11880,
			"target":34962
		},
		{
			"buffer":0,
			"byteLength":7104,
			"byteOffset":15432,
			"target":34962
		},
		{
			"buffer":0,
			"byteLength":1464,
			"byteOffset":22536,
			"target":34963
		}
	],
	"buffers":[
		{
			"byteLength":24000,
			"uri":"Garbage-a6972941e7cc35b2acdfae6f63811361.bin"
		}
	]
}
