{
	"asset":{
		"generator":"Khronos glTF Blender I/O v4.2.69",
		"version":"2.0"
	},
	"scene":0,
	"scenes":[
		{
			"name":"Scene",
			"nodes":[
				0
			]
		}
	],
	"nodes":[
		{
			"mesh":0,
			"name":"Hektometertafel"
		}
	],
	"materials":[
		{
			"doubleSided":true,
			"name":"Hektometertafel",
			"pbrMetallicRoughness":{
				"baseColorFactor":[
					0.800000011920929,
					0.800000011920929,
					0.800000011920929,
					1
				],
				"metallicFactor":0,
				"roughnessFactor":0.5
			}
		},
		{
			"doubleSided":true,
			"name":"Schild",
			"pbrMetallicRoughness":{
				"baseColorFactor":[
					0.8000000715255737,
					0.08476458489894867,
					0.06195124611258507,
					1
				],
				"metallicFactor":0,
				"roughnessFactor":0.5
			}
		}
	],
	"meshes":[
		{
			"name":"Cylinder",
			"primitives":[
				{
					"attributes":{
						"POSITION":0,
						"NORMAL":1,
						"TEXCOORD_0":2
					},
					"indices":3,
					"material":0
				},
				{
					"attributes":{
						"POSITION":4,
						"NORMAL":5,
						"TEXCOORD_0":6
					},
					"indices":7,
					"material":1
				}
			]
		}
	],
	"accessors":[
		{
			"bufferView":0,
			"componentType":5126,
			"count":60,
			"max":[
				0.050000011920928955,
				2.0040502548217773,
				0.5928144454956055
			],
			"min":[
				-0.08580907434225082,
				-1,
				0.007185518741607666
			],
			"type":"VEC3"
		},
		{
			"bufferView":1,
			"componentType":5126,
			"count":60,
			"type":"VEC3"
		},
		{
			"bufferView":2,
			"componentType":5126,
			"count":60,
			"type":"VEC2"
		},
		{
			"bufferView":3,
			"componentType":5123,
			"count":114,
			"type":"SCALAR"
		},
		{
			"bufferView":4,
			"componentType":5126,
			"count":4,
			"max":[
				-0.08580907434225082,
				2.0040502548217773,
				0.5928144454956055
			],
			"min":[
				-0.08580907434225082,
				1.1256065368652344,
				0.007185518741607666
			],
			"type":"VEC3"
		},
		{
			"bufferView":5,
			"componentType":5126,
			"count":4,
			"type":"VEC3"
		},
		{
			"bufferView":6,
			"componentType":5126,
			"count":4,
			"type":"VEC2"
		},
		{
			"bufferView":7,
			"componentType":5123,
			"count":6,
			"type":"SCALAR"
		}
	],
	"bufferViews":[
		{
			"buffer":0,
			"byteLength":720,
			"byteOffset":0,
			"target":34962
		},
		{
			"buffer":0,
			"byteLength":720,
			"byteOffset":720,
			"target":34962
		},
		{
			"buffer":0,
			"byteLength":480,
			"byteOffset":1440,
			"target":34962
		},
		{
			"buffer":0,
			"byteLength":228,
			"byteOffset":1920,
			"target":34963
		},
		{
			"buffer":0,
			"byteLength":48,
			"byteOffset":2148,
			"target":34962
		},
		{
			"buffer":0,
			"byteLength":48,
			"byteOffset":2196,
			"target":34962
		},
		{
			"buffer":0,
			"byteLength":32,
			"byteOffset":2244,
			"target":34962
		},
		{
			"buffer":0,
			"byteLength":12,
			"byteOffset":2276,
			"target":34963
		}
	],
	"buffers":[
		{
			"byteLength":2288,
			"uri":"hektometertafel-1cd99bb3eb0b7eb7ca928ae94276d9ec.bin"
		}
	]
}
