{
	"asset":{
		"generator":"Khronos glTF Blender I/O v4.2.69",
		"version":"2.0"
	},
	"scene":0,
	"scenes":[
		{
			"name":"Scene",
			"nodes":[
				0,
				1,
				2
			]
		}
	],
	"nodes":[
		{
			"mesh":0,
			"name":"Plane",
			"translation":[
				-9,
				3.7206461429595947,
				23
			]
		},
		{
			"mesh":1,
			"name":"Plane.001"
		},
		{
			"mesh":2,
			"name":"Plane.002",
			"translation":[
				9,
				3.7206461429595947,
				23
			]
		}
	],
	"materials":[
		{
			"doubleSided":true,
			"name":"Asphalt",
			"pbrMetallicRoughness":{
				"baseColorFactor":[
					0.08353149890899658,
					0.08353149890899658,
					0.08353149890899658,
					1
				],
				"metallicFactor":0,
				"roughnessFactor":0.5
			}
		},
		{
			"doubleSided":true,
			"name":"Metal1",
			"pbrMetallicRoughness":{
				"baseColorFactor":[
					0.710553765296936,
					0.6083463430404663,
					0.6700553894042969,
					1
				],
				"metallicFactor":0,
				"roughnessFactor":0.5
			}
		},
		{
			"doubleSided":true,
			"name":"Metal2",
			"pbrMetallicRoughness":{
				"baseColorFactor":[
					0.410938560962677,
					0.03669293224811554,
					0.05985452979803085,
					1
				],
				"metallicFactor":0,
				"roughnessFactor":0.5
			}
		},
		{
			"doubleSided":true,
			"name":"Beton2",
			"pbrMetallicRoughness":{
				"baseColorFactor":[
					0.4200241267681122,
					0.4200241267681122,
					0.4200241267681122,
					1
				],
				"metallicFactor":0,
				"roughnessFactor":0.5
			}
		},
		{
			"doubleSided":true,
			"name":"Beton1",
			"pbrMetallicRoughness":{
				"baseColorFactor":[
					0.5277187824249268,
					0.5277187824249268,
					0.5277187824249268,
					1
				],
				"metallicFactor":0,
				"roughnessFactor":0.5
			}
		},
		{
			"doubleSided":true,
			"name":"Grass",
			"pbrMetallicRoughness":{
				"baseColorFactor":[
					0.017174694687128067,
					0.0946258008480072,
					0.008192942477762699,
					1
				],
				"metallicFactor":0,
				"roughnessFactor":0.5
			}
		},
		{
			"doubleSided":true,
			"name":"Beton3",
			"pbrMetallicRoughness":{
				"baseColorFactor":[
					0.2475622594356537,
					0.17289628088474274,
					0.3031977415084839,
					1
				],
				"metallicFactor":0,
				"roughnessFactor":0.5
			}
		}
	],
	"meshes":[
		{
			"name":"Plane",
			"primitives":[
				{
					"attributes":{
						"POSITION":0,
						"NORMAL":1,
						"TEXCOORD_0":2,
						"TANGENT":3
					},
					"indices":4,
					"material":0
				},
				{
					"attributes":{
						"POSITION":5,
						"NORMAL":6,
						"TEXCOORD_0":7,
						"TANGENT":8
					},
					"indices":9,
					"material":1
				},
				{
					"attributes":{
						"POSITION":10,
						"NORMAL":11,
						"TEXCOORD_0":12,
						"TANGENT":13
					},
					"indices":14,
					"material":2
				},
				{
					"attributes":{
						"POSITION":15,
						"NORMAL":16,
						"TEXCOORD_0":17,
						"TANGENT":18
					},
					"indices":19,
					"material":3
				}
			]
		},
		{
			"name":"Plane.001",
			"primitives":[
				{
					"attributes":{
						"POSITION":20,
						"NORMAL":21,
						"TEXCOORD_0":22,
						"TANGENT":23
					},
					"indices":24,
					"material":0
				},
				{
					"attributes":{
						"POSITION":25,
						"NORMAL":26,
						"TEXCOORD_0":27,
						"TANGENT":28
					},
					"indices":29,
					"material":4
				},
				{
					"attributes":{
						"POSITION":30,
						"NORMAL":31,
						"TEXCOORD_0":32,
						"TANGENT":33
					},
					"indices":34,
					"material":5
				},
				{
					"attributes":{
						"POSITION":35,
						"NORMAL":36,
						"TEXCOORD_0":37,
						"TANGENT":38
					},
					"indices":39,
					"material":6
				}
			]
		},
		{
			"name":"Plane",
			"primitives":[
				{
					"attributes":{
						"POSITION":40,
						"NORMAL":41,
						"TEXCOORD_0":42,
						"TANGENT":43
					},
					"indices":4,
					"material":0
				},
				{
					"attributes":{
						"POSITION":44,
						"NORMAL":45,
						"TEXCOORD_0":46,
						"TANGENT":47
					},
					"indices":9,
					"material":1
				},
				{
					"attributes":{
						"POSITION":48,
						"NORMAL":49,
						"TEXCOORD_0":50,
						"TANGENT":51
					},
					"indices":14,
					"material":2
				},
				{
					"attributes":{
						"POSITION":52,
						"NORMAL":53,
						"TEXCOORD_0":54,
						"TANGENT":55
					},
					"indices":19,
					"material":3
				}
			]
		}
	],
	"accessors":[
		{
			"bufferView":0,
			"componentType":5126,
			"count":200,
			"max":[
				7.816591262817383,
				5.712887287139893,
				2
			],
			"min":[
				-7.816591262817383,
				5.655218601226807,
				-48
			],
			"type":"VEC3"
		},
		{
			"bufferView":1,
			"componentType":5126,
			"count":200,
			"type":"VEC3"
		},
		{
			"bufferView":2,
			"componentType":5126,
			"count":200,
			"type":"VEC2"
		},
		{
			"bufferView":3,
			"componentType":5126,
			"count":200,
			"type":"VEC4"
		},
		{
			"bufferView":4,
			"componentType":5123,
			"count":300,
			"type":"SCALAR"
		},
		{
			"bufferView":5,
			"componentType":5126,
			"count":6200,
			"max":[
				8.520368576049805,
				9.671316146850586,
				2
			],
			"min":[
				-8.520368576049805,
				5.872844219207764,
				-48
			],
			"type":"VEC3"
		},
		{
			"bufferView":6,
			"componentType":5126,
			"count":6200,
			"type":"VEC3"
		},
		{
			"bufferView":7,
			"componentType":5126,
			"count":6200,
			"type":"VEC2"
		},
		{
			"bufferView":8,
			"componentType":5126,
			"count":6200,
			"type":"VEC4"
		},
		{
			"bufferView":9,
			"componentType":5123,
			"count":9600,
			"type":"SCALAR"
		},
		{
			"bufferView":10,
			"componentType":5126,
			"count":800,
			"max":[
				8.49553108215332,
				9.60697078704834,
				2
			],
			"min":[
				-8.49553108215332,
				5.988636493682861,
				-48
			],
			"type":"VEC3"
		},
		{
			"bufferView":11,
			"componentType":5126,
			"count":800,
			"type":"VEC3"
		},
		{
			"bufferView":12,
			"componentType":5126,
			"count":800,
			"type":"VEC2"
		},
		{
			"bufferView":13,
			"componentType":5126,
			"count":800,
			"type":"VEC4"
		},
		{
			"bufferView":14,
			"componentType":5123,
			"count":1200,
			"type":"SCALAR"
		},
		{
			"bufferView":15,
			"componentType":5126,
			"count":1600,
			"max":[
				8.597585678100586,
				5.9209160804748535,
				2
			],
			"min":[
				-8.597585678100586,
				4.624452590942383,
				-48
			],
			"type":"VEC3"
		},
		{
			"bufferView":16,
			"componentType":5126,
			"count":1600,
			"type":"VEC3"
		},
		{
			"bufferView":17,
			"componentType":5126,
			"count":1600,
			"type":"VEC2"
		},
		{
			"bufferView":18,
			"componentType":5126,
			"count":1600,
			"type":"VEC4"
		},
		{
			"bufferView":19,
			"componentType":5123,
			"count":2400,
			"type":"SCALAR"
		},
		{
			"bufferView":20,
			"componentType":5126,
			"count":32,
			"max":[
				16.83487319946289,
				9.43958854675293,
				170.0582733154297
			],
			"min":[
				-16.83487319946289,
				-1.1047003269195557,
				-170.0582733154297
			],
			"type":"VEC3"
		},
		{
			"bufferView":21,
			"componentType":5126,
			"count":32,
			"type":"VEC3"
		},
		{
			"bufferView":22,
			"componentType":5126,
			"count":32,
			"type":"VEC2"
		},
		{
			"bufferView":23,
			"componentType":5126,
			"count":32,
			"type":"VEC4"
		},
		{
			"bufferView":24,
			"componentType":5123,
			"count":48,
			"type":"SCALAR"
		},
		{
			"bufferView":25,
			"componentType":5126,
			"count":196,
			"max":[
				22.871782302856445,
				9.663936614990234,
				170.0788116455078
			],
			"min":[
				-22.871782302856445,
				-1.1047003269195557,
				-170.0788116455078
			],
			"type":"VEC3"
		},
		{
			"bufferView":26,
			"componentType":5126,
			"count":196,
			"type":"VEC3"
		},
		{
			"bufferView":27,
			"componentType":5126,
			"count":196,
			"type":"VEC2"
		},
		{
			"bufferView":28,
			"componentType":5126,
			"count":196,
			"type":"VEC4"
		},
		{
			"bufferView":29,
			"componentType":5123,
			"count":288,
			"type":"SCALAR"
		},
		{
			"bufferView":30,
			"componentType":5126,
			"count":16,
			"max":[
				22.871782302856445,
				9.391828536987305,
				170.0582733154297
			],
			"min":[
				-22.871782302856445,
				-1.1047003269195557,
				-170.0582733154297
			],
			"type":"VEC3"
		},
		{
			"bufferView":31,
			"componentType":5126,
			"count":16,
			"type":"VEC3"
		},
		{
			"bufferView":32,
			"componentType":5126,
			"count":16,
			"type":"VEC2"
		},
		{
			"bufferView":33,
			"componentType":5126,
			"count":16,
			"type":"VEC4"
		},
		{
			"bufferView":34,
			"componentType":5123,
			"count":24,
			"type":"SCALAR"
		},
		{
			"bufferView":35,
			"componentType":5126,
			"count":224,
			"max":[
				15.846090316772461,
				8.577655792236328,
				19.79995346069336
			],
			"min":[
				-15.846090316772461,
				-1,
				-19.79995346069336
			],
			"type":"VEC3"
		},
		{
			"bufferView":36,
			"componentType":5126,
			"count":224,
			"type":"VEC3"
		},
		{
			"bufferView":37,
			"componentType":5126,
			"count":224,
			"type":"VEC2"
		},
		{
			"bufferView":38,
			"componentType":5126,
			"count":224,
			"type":"VEC4"
		},
		{
			"bufferView":39,
			"componentType":5123,
			"count":360,
			"type":"SCALAR"
		},
		{
			"bufferView":40,
			"componentType":5126,
			"count":200,
			"max":[
				7.816591262817383,
				5.712887287139893,
				2
			],
			"min":[
				-7.816591262817383,
				5.655218601226807,
				-48
			],
			"type":"VEC3"
		},
		{
			"bufferView":41,
			"componentType":5126,
			"count":200,
			"type":"VEC3"
		},
		{
			"bufferView":42,
			"componentType":5126,
			"count":200,
			"type":"VEC2"
		},
		{
			"bufferView":43,
			"componentType":5126,
			"count":200,
			"type":"VEC4"
		},
		{
			"bufferView":44,
			"componentType":5126,
			"count":6200,
			"max":[
				8.520368576049805,
				9.671316146850586,
				2
			],
			"min":[
				-8.520368576049805,
				5.872844219207764,
				-48
			],
			"type":"VEC3"
		},
		{
			"bufferView":45,
			"componentType":5126,
			"count":6200,
			"type":"VEC3"
		},
		{
			"bufferView":46,
			"componentType":5126,
			"count":6200,
			"type":"VEC2"
		},
		{
			"bufferView":47,
			"componentType":5126,
			"count":6200,
			"type":"VEC4"
		},
		{
			"bufferView":48,
			"componentType":5126,
			"count":800,
			"max":[
				8.49553108215332,
				9.60697078704834,
				2
			],
			"min":[
				-8.49553108215332,
				5.988636493682861,
				-48
			],
			"type":"VEC3"
		},
		{
			"bufferView":49,
			"componentType":5126,
			"count":800,
			"type":"VEC3"
		},
		{
			"bufferView":50,
			"componentType":5126,
			"count":800,
			"type":"VEC2"
		},
		{
			"bufferView":51,
			"componentType":5126,
			"count":800,
			"type":"VEC4"
		},
		{
			"bufferView":52,
			"componentType":5126,
			"count":1600,
			"max":[
				8.597585678100586,
				5.9209160804748535,
				2
			],
			"min":[
				-8.597585678100586,
				4.624452590942383,
				-48
			],
			"type":"VEC3"
		},
		{
			"bufferView":53,
			"componentType":5126,
			"count":1600,
			"type":"VEC3"
		},
		{
			"bufferView":54,
			"componentType":5126,
			"count":1600,
			"type":"VEC2"
		},
		{
			"bufferView":55,
			"componentType":5126,
			"count":1600,
			"type":"VEC4"
		}
	],
	"bufferViews":[
		{
			"buffer":0,
			"byteLength":2400,
			"byteOffset":0,
			"target":34962
		},
		{
			"buffer":0,
			"byteLength":2400,
			"byteOffset":2400,
			"target":34962
		},
		{
			"buffer":0,
			"byteLength":1600,
			"byteOffset":4800,
			"target":34962
		},
		{
			"buffer":0,
			"byteLength":3200,
			"byteOffset":6400,
			"target":34962
		},
		{
			"buffer":0,
			"byteLength":600,
			"byteOffset":9600,
			"target":34963
		},
		{
			"buffer":0,
			"byteLength":74400,
			"byteOffset":10200,
			"target":34962
		},
		{
			"buffer":0,
			"byteLength":74400,
			"byteOffset":84600,
			"target":34962
		},
		{
			"buffer":0,
			"byteLength":49600,
			"byteOffset":159000,
			"target":34962
		},
		{
			"buffer":0,
			"byteLength":99200,
			"byteOffset":208600,
			"target":34962
		},
		{
			"buffer":0,
			"byteLength":19200,
			"byteOffset":307800,
			"target":34963
		},
		{
			"buffer":0,
			"byteLength":9600,
			"byteOffset":327000,
			"target":34962
		},
		{
			"buffer":0,
			"byteLength":9600,
			"byteOffset":336600,
			"target":34962
		},
		{
			"buffer":0,
			"byteLength":6400,
			"byteOffset":346200,
			"target":34962
		},
		{
			"buffer":0,
			"byteLength":12800,
			"byteOffset":352600,
			"target":34962
		},
		{
			"buffer":0,
			"byteLength":2400,
			"byteOffset":365400,
			"target":34963
		},
		{
			"buffer":0,
			"byteLength":19200,
			"byteOffset":367800,
			"target":34962
		},
		{
			"buffer":0,
			"byteLength":19200,
			"byteOffset":387000,
			"target":34962
		},
		{
			"buffer":0,
			"byteLength":12800,
			"byteOffset":406200,
			"target":34962
		},
		{
			"buffer":0,
			"byteLength":25600,
			"byteOffset":419000,
			"target":34962
		},
		{
			"buffer":0,
			"byteLength":4800,
			"byteOffset":444600,
			"target":34963
		},
		{
			"buffer":0,
			"byteLength":384,
			"byteOffset":449400,
			"target":34962
		},
		{
			"buffer":0,
			"byteLength":384,
			"byteOffset":449784,
			"target":34962
		},
		{
			"buffer":0,
			"byteLength":256,
			"byteOffset":450168,
			"target":34962
		},
		{
			"buffer":0,
			"byteLength":512,
			"byteOffset":450424,
			"target":34962
		},
		{
			"buffer":0,
			"byteLength":96,
			"byteOffset":450936,
			"target":34963
		},
		{
			"buffer":0,
			"byteLength":2352,
			"byteOffset":451032,
			"target":34962
		},
		{
			"buffer":0,
			"byteLength":2352,
			"byteOffset":453384,
			"target":34962
		},
		{
			"buffer":0,
			"byteLength":1568,
			"byteOffset":455736,
			"target":34962
		},
		{
			"buffer":0,
			"byteLength":3136,
			"byteOffset":457304,
			"target":34962
		},
		{
			"buffer":0,
			"byteLength":576,
			"byteOffset":460440,
			"target":34963
		},
		{
			"buffer":0,
			"byteLength":192,
			"byteOffset":461016,
			"target":34962
		},
		{
			"buffer":0,
			"byteLength":192,
			"byteOffset":461208,
			"target":34962
		},
		{
			"buffer":0,
			"byteLength":128,
			"byteOffset":461400,
			"target":34962
		},
		{
			"buffer":0,
			"byteLength":256,
			"byteOffset":461528,
			"target":34962
		},
		{
			"buffer":0,
			"byteLength":48,
			"byteOffset":461784,
			"target":34963
		},
		{
			"buffer":0,
			"byteLength":2688,
			"byteOffset":461832,
			"target":34962
		},
		{
			"buffer":0,
			"byteLength":2688,
			"byteOffset":464520,
			"target":34962
		},
		{
			"buffer":0,
			"byteLength":1792,
			"byteOffset":467208,
			"target":34962
		},
		{
			"buffer":0,
			"byteLength":3584,
			"byteOffset":469000,
			"target":34962
		},
		{
			"buffer":0,
			"byteLength":720,
			"byteOffset":472584,
			"target":34963
		},
		{
			"buffer":0,
			"byteLength":2400,
			"byteOffset":473304,
			"target":34962
		},
		{
			"buffer":0,
			"byteLength":2400,
			"byteOffset":475704,
			"target":34962
		},
		{
			"buffer":0,
			"byteLength":1600,
			"byteOffset":478104,
			"target":34962
		},
		{
			"buffer":0,
			"byteLength":3200,
			"byteOffset":479704,
			"target":34962
		},
		{
			"buffer":0,
			"byteLength":74400,
			"byteOffset":482904,
			"target":34962
		},
		{
			"buffer":0,
			"byteLength":74400,
			"byteOffset":557304,
			"target":34962
		},
		{
			"buffer":0,
			"byteLength":49600,
			"byteOffset":631704,
			"target":34962
		},
		{
			"buffer":0,
			"byteLength":99200,
			"byteOffset":681304,
			"target":34962
		},
		{
			"buffer":0,
			"byteLength":9600,
			"byteOffset":780504,
			"target":34962
		},
		{
			"buffer":0,
			"byteLength":9600,
			"byteOffset":790104,
			"target":34962
		},
		{
			"buffer":0,
			"byteLength":6400,
			"byteOffset":799704,
			"target":34962
		},
		{
			"buffer":0,
			"byteLength":12800,
			"byteOffset":806104,
			"target":34962
		},
		{
			"buffer":0,
			"byteLength":19200,
			"byteOffset":818904,
			"target":34962
		},
		{
			"buffer":0,
			"byteLength":19200,
			"byteOffset":838104,
			"target":34962
		},
		{
			"buffer":0,
			"byteLength":12800,
			"byteOffset":857304,
			"target":34962
		},
		{
			"buffer":0,
			"byteLength":25600,
			"byteOffset":870104,
			"target":34962
		}
	],
	"buffers":[
		{
			"byteLength":895704,
			"uri":"highway_bridge-bdb5c0cb34d4160877c7ec0380aa8f81.bin"
		}
	]
}
