{
	"asset":{
		"generator":"Khronos glTF Blender I/O v4.2.69",
		"version":"2.0"
	},
	"scene":0,
	"scenes":[
		{
			"name":"Scene",
			"nodes":[
				0,
				1,
				2
			]
		}
	],
	"nodes":[
		{
			"mesh":0,
			"name":"WindowBackUp",
			"scale":[
				1.1667307615280151,
				1.1667307615280151,
				1.1667307615280151
			],
			"translation":[
				0.2690267562866211,
				-0.03094571828842163,
				0.0008795480243861675
			]
		},
		{
			"mesh":1,
			"name":"Cube.001",
			"scale":[
				1.1667307615280151,
				1.1667307615280151,
				1.1667307615280151
			],
			"translation":[
				0.2690267562866211,
				-0.03094571828842163,
				0.0008795480243861675
			]
		},
		{
			"mesh":2,
			"name":"Windows",
			"scale":[
				1.1667307615280151,
				1.1667307615280151,
				1.1667307615280151
			],
			"translation":[
				-5.378671646118164,
				0.6187002062797546,
				-0.017584867775440216
			]
		}
	],
	"materials":[
		{
			"doubleSided":true,
			"name":"Glass",
			"pbrMetallicRoughness":{
				"baseColorFactor":[
					0.0007508835406042635,
					0,
					0.8000000715255737,
					1
				],
				"metallicFactor":0,
				"roughnessFactor":0.5
			}
		},
		{
			"doubleSided":true,
			"name":"FensterRahmen",
			"pbrMetallicRoughness":{
				"baseColorFactor":[
					0.5173344612121582,
					0.5173344612121582,
					0.5173344612121582,
					1
				],
				"metallicFactor":0,
				"roughnessFactor":0.5
			}
		},
		{
			"doubleSided":true,
			"name":"RoofTop",
			"pbrMetallicRoughness":{
				"baseColorFactor":[
					0.012217002920806408,
					0.012217002920806408,
					0.012217002920806408,
					1
				],
				"metallicFactor":0,
				"roughnessFactor":0.5
			}
		},
		{
			"doubleSided":true,
			"name":"Walls",
			"pbrMetallicRoughness":{
				"baseColorFactor":[
					0.8000000715255737,
					0,
					0.008575117215514183,
					1
				],
				"metallicFactor":0,
				"roughnessFactor":0.5
			}
		},
		{
			"doubleSided":true,
			"name":"RoodWood",
			"pbrMetallicRoughness":{
				"baseColorFactor":[
					0.05496913194656372,
					0.030421404168009758,
					0,
					1
				],
				"metallicFactor":0,
				"roughnessFactor":0.5
			}
		}
	],
	"meshes":[
		{
			"name":"Plane.001",
			"primitives":[
				{
					"attributes":{
						"POSITION":0,
						"NORMAL":1,
						"TEXCOORD_0":2,
						"TANGENT":3
					},
					"indices":4,
					"material":0
				},
				{
					"attributes":{
						"POSITION":5,
						"NORMAL":6,
						"TEXCOORD_0":7,
						"TANGENT":8
					},
					"indices":9,
					"material":1
				}
			]
		},
		{
			"name":"Cube",
			"primitives":[
				{
					"attributes":{
						"POSITION":10,
						"NORMAL":11,
						"TEXCOORD_0":12,
						"TANGENT":13
					},
					"indices":14,
					"material":2
				},
				{
					"attributes":{
						"POSITION":15,
						"NORMAL":16,
						"TEXCOORD_0":17,
						"TANGENT":18
					},
					"indices":19,
					"material":3
				},
				{
					"attributes":{
						"POSITION":20,
						"NORMAL":21,
						"TEXCOORD_0":22,
						"TANGENT":23
					},
					"indices":24,
					"material":4
				}
			]
		},
		{
			"name":"Plane.002",
			"primitives":[
				{
					"attributes":{
						"POSITION":25,
						"NORMAL":26,
						"TEXCOORD_0":27,
						"TANGENT":28
					},
					"indices":29,
					"material":0
				},
				{
					"attributes":{
						"POSITION":30,
						"NORMAL":31,
						"TEXCOORD_0":32,
						"TANGENT":33
					},
					"indices":34,
					"material":1
				}
			]
		}
	],
	"accessors":[
		{
			"bufferView":0,
			"componentType":5126,
			"count":16,
			"max":[
				0.34999990463256836,
				0.5,
				4.371138828673793e-08
			],
			"min":[
				-0.34999990463256836,
				-0.5,
				-4.371138828673793e-08
			],
			"type":"VEC3"
		},
		{
			"bufferView":1,
			"componentType":5126,
			"count":16,
			"type":"VEC3"
		},
		{
			"bufferView":2,
			"componentType":5126,
			"count":16,
			"type":"VEC2"
		},
		{
			"bufferView":3,
			"componentType":5126,
			"count":16,
			"type":"VEC4"
		},
		{
			"bufferView":4,
			"componentType":5123,
			"count":24,
			"type":"SCALAR"
		},
		{
			"bufferView":5,
			"componentType":5126,
			"count":104,
			"max":[
				0.34999990463256836,
				0.5,
				0.04322183132171631
			],
			"min":[
				-0.34999990463256836,
				-0.5,
				-0.031361088156700134
			],
			"type":"VEC3"
		},
		{
			"bufferView":6,
			"componentType":5126,
			"count":104,
			"type":"VEC3"
		},
		{
			"bufferView":7,
			"componentType":5126,
			"count":104,
			"type":"VEC2"
		},
		{
			"bufferView":8,
			"componentType":5126,
			"count":104,
			"type":"VEC4"
		},
		{
			"bufferView":9,
			"componentType":5123,
			"count":192,
			"type":"SCALAR"
		},
		{
			"bufferView":10,
			"componentType":5126,
			"count":48,
			"max":[
				7.1728081703186035,
				8.409725189208984,
				5.410830974578857
			],
			"min":[
				-7.1728081703186035,
				4.526885032653809,
				-5.410830974578857
			],
			"type":"VEC3"
		},
		{
			"bufferView":11,
			"componentType":5126,
			"count":48,
			"type":"VEC3"
		},
		{
			"bufferView":12,
			"componentType":5126,
			"count":48,
			"type":"VEC2"
		},
		{
			"bufferView":13,
			"componentType":5126,
			"count":48,
			"type":"VEC4"
		},
		{
			"bufferView":14,
			"componentType":5123,
			"count":96,
			"type":"SCALAR"
		},
		{
			"bufferView":15,
			"componentType":5126,
			"count":36,
			"max":[
				6.5,
				8.198055267333984,
				5
			],
			"min":[
				-6.5,
				-0.9999998807907104,
				-5
			],
			"type":"VEC3"
		},
		{
			"bufferView":16,
			"componentType":5126,
			"count":36,
			"type":"VEC3"
		},
		{
			"bufferView":17,
			"componentType":5126,
			"count":36,
			"type":"VEC2"
		},
		{
			"bufferView":18,
			"componentType":5126,
			"count":36,
			"type":"VEC4"
		},
		{
			"bufferView":19,
			"componentType":5123,
			"count":60,
			"type":"SCALAR"
		},
		{
			"bufferView":20,
			"componentType":5126,
			"count":104,
			"max":[
				7.1728081703186035,
				8.409725189208984,
				5.410830974578857
			],
			"min":[
				-7.1728081703186035,
				4.315215110778809,
				-5.410830974578857
			],
			"type":"VEC3"
		},
		{
			"bufferView":21,
			"componentType":5126,
			"count":104,
			"type":"VEC3"
		},
		{
			"bufferView":22,
			"componentType":5126,
			"count":104,
			"type":"VEC2"
		},
		{
			"bufferView":23,
			"componentType":5126,
			"count":104,
			"type":"VEC4"
		},
		{
			"bufferView":24,
			"componentType":5123,
			"count":216,
			"type":"SCALAR"
		},
		{
			"bufferView":25,
			"componentType":5126,
			"count":832,
			"max":[
				11.372520446777344,
				5.992851257324219,
				5.0446295738220215
			],
			"min":[
				-1.6720199584960938,
				0.17534387111663818,
				-5.013344764709473
			],
			"type":"VEC3"
		},
		{
			"bufferView":26,
			"componentType":5126,
			"count":832,
			"type":"VEC3"
		},
		{
			"bufferView":27,
			"componentType":5126,
			"count":832,
			"type":"VEC2"
		},
		{
			"bufferView":28,
			"componentType":5126,
			"count":832,
			"type":"VEC4"
		},
		{
			"bufferView":29,
			"componentType":5123,
			"count":1248,
			"type":"SCALAR"
		},
		{
			"bufferView":30,
			"componentType":5126,
			"count":5408,
			"max":[
				11.403882026672363,
				5.992851257324219,
				5.075990676879883
			],
			"min":[
				-1.703381061553955,
				0.17534387111663818,
				-5.044705867767334
			],
			"type":"VEC3"
		},
		{
			"bufferView":31,
			"componentType":5126,
			"count":5408,
			"type":"VEC3"
		},
		{
			"bufferView":32,
			"componentType":5126,
			"count":5408,
			"type":"VEC2"
		},
		{
			"bufferView":33,
			"componentType":5126,
			"count":5408,
			"type":"VEC4"
		},
		{
			"bufferView":34,
			"componentType":5123,
			"count":9984,
			"type":"SCALAR"
		}
	],
	"bufferViews":[
		{
			"buffer":0,
			"byteLength":192,
			"byteOffset":0,
			"target":34962
		},
		{
			"buffer":0,
			"byteLength":192,
			"byteOffset":192,
			"target":34962
		},
		{
			"buffer":0,
			"byteLength":128,
			"byteOffset":384,
			"target":34962
		},
		{
			"buffer":0,
			"byteLength":256,
			"byteOffset":512,
			"target":34962
		},
		{
			"buffer":0,
			"byteLength":48,
			"byteOffset":768,
			"target":34963
		},
		{
			"buffer":0,
			"byteLength":1248,
			"byteOffset":816,
			"target":34962
		},
		{
			"buffer":0,
			"byteLength":1248,
			"byteOffset":2064,
			"target":34962
		},
		{
			"buffer":0,
			"byteLength":832,
			"byteOffset":3312,
			"target":34962
		},
		{
			"buffer":0,
			"byteLength":1664,
			"byteOffset":4144,
			"target":34962
		},
		{
			"buffer":0,
			"byteLength":384,
			"byteOffset":5808,
			"target":34963
		},
		{
			"buffer":0,
			"byteLength":576,
			"byteOffset":6192,
			"target":34962
		},
		{
			"buffer":0,
			"byteLength":576,
			"byteOffset":6768,
			"target":34962
		},
		{
			"buffer":0,
			"byteLength":384,
			"byteOffset":7344,
			"target":34962
		},
		{
			"buffer":0,
			"byteLength":768,
			"byteOffset":7728,
			"target":34962
		},
		{
			"buffer":0,
			"byteLength":192,
			"byteOffset":8496,
			"target":34963
		},
		{
			"buffer":0,
			"byteLength":432,
			"byteOffset":8688,
			"target":34962
		},
		{
			"buffer":0,
			"byteLength":432,
			"byteOffset":9120,
			"target":34962
		},
		{
			"buffer":0,
			"byteLength":288,
			"byteOffset":9552,
			"target":34962
		},
		{
			"buffer":0,
			"byteLength":576,
			"byteOffset":9840,
			"target":34962
		},
		{
			"buffer":0,
			"byteLength":120,
			"byteOffset":10416,
			"target":34963
		},
		{
			"buffer":0,
			"byteLength":1248,
			"byteOffset":10536,
			"target":34962
		},
		{
			"buffer":0,
			"byteLength":1248,
			"byteOffset":11784,
			"target":34962
		},
		{
			"buffer":0,
			"byteLength":832,
			"byteOffset":13032,
			"target":34962
		},
		{
			"buffer":0,
			"byteLength":1664,
			"byteOffset":13864,
			"target":34962
		},
		{
			"buffer":0,
			"byteLength":432,
			"byteOffset":15528,
			"target":34963
		},
		{
			"buffer":0,
			"byteLength":9984,
			"byteOffset":15960,
			"target":34962
		},
		{
			"buffer":0,
			"byteLength":9984,
			"byteOffset":25944,
			"target":34962
		},
		{
			"buffer":0,
			"byteLength":6656,
			"byteOffset":35928,
			"target":34962
		},
		{
			"buffer":0,
			"byteLength":13312,
			"byteOffset":42584,
			"target":34962
		},
		{
			"buffer":0,
			"byteLength":2496,
			"byteOffset":55896,
			"target":34963
		},
		{
			"buffer":0,
			"byteLength":64896,
			"byteOffset":58392,
			"target":34962
		},
		{
			"buffer":0,
			"byteLength":64896,
			"byteOffset":123288,
			"target":34962
		},
		{
			"buffer":0,
			"byteLength":43264,
			"byteOffset":188184,
			"target":34962
		},
		{
			"buffer":0,
			"byteLength":86528,
			"byteOffset":231448,
			"target":34962
		},
		{
			"buffer":0,
			"byteLength":19968,
			"byteOffset":317976,
			"target":34963
		}
	],
	"buffers":[
		{
			"byteLength":337944,
			"uri":"House1-71bb472aead6cf5158630599beced702.bin"
		}
	]
}
