{
	"asset":{
		"generator":"Khronos glTF Blender I/O v4.2.69",
		"version":"2.0"
	},
	"scene":0,
	"scenes":[
		{
			"name":"Scene",
			"nodes":[
				0,
				1,
				2,
				3,
				4
			]
		}
	],
	"nodes":[
		{
			"mesh":0,
			"name":"Cube",
			"scale":[
				1.1612160205841064,
				1.1612160205841064,
				1.1612160205841064
			],
			"translation":[
				0,
				-1.551924467086792,
				0
			]
		},
		{
			"mesh":1,
			"name":"Cube.001_Cube",
			"rotation":[
				0.7071068286895752,
				0,
				0,
				0.7071068286895752
			],
			"translation":[
				-47.028263092041016,
				0,
				0
			]
		},
		{
			"mesh":2,
			"name":"Windows_Plane.002",
			"rotation":[
				0.7071068286895752,
				0,
				0,
				0.7071068286895752
			],
			"translation":[
				-47.028263092041016,
				0,
				0
			]
		},
		{
			"mesh":3,
			"name":"Windows_Plane.001",
			"rotation":[
				0.7071068286895752,
				0,
				0,
				0.7071068286895752
			],
			"translation":[
				-47.028263092041016,
				0,
				0
			]
		},
		{
			"mesh":4,
			"name":"Windows_Plane.003",
			"rotation":[
				0.7071068286895752,
				0,
				0,
				0.7071068286895752
			],
			"scale":[
				1.1612160205841064,
				1.1612160205841064,
				1.1612160205841064
			],
			"translation":[
				0,
				-1.551924467086792,
				0
			]
		}
	],
	"materials":[
		{
			"doubleSided":true,
			"name":"Roof",
			"pbrMetallicRoughness":{
				"baseColorFactor":[
					0.8000000715255737,
					0.057456985116004944,
					0.057456985116004944,
					1
				],
				"metallicFactor":0,
				"roughnessFactor":0.5
			}
		},
		{
			"doubleSided":true,
			"name":"Wall",
			"pbrMetallicRoughness":{
				"baseColorFactor":[
					0.800000011920929,
					0.800000011920929,
					0.800000011920929,
					1
				],
				"metallicFactor":0,
				"roughnessFactor":0.5
			}
		},
		{
			"doubleSided":true,
			"name":"Balkony",
			"pbrMetallicRoughness":{
				"baseColorFactor":[
					0.1062026396393776,
					0.21051587164402008,
					0.8000000715255737,
					1
				],
				"metallicFactor":0,
				"roughnessFactor":0.5
			}
		},
		{
			"doubleSided":true,
			"name":"Roof2",
			"pbrMetallicRoughness":{
				"baseColorFactor":[
					0.162642240524292,
					0.09598728269338608,
					0.022110622376203537,
					1
				],
				"metallicFactor":0,
				"roughnessFactor":0.5
			}
		},
		{
			"doubleSided":true,
			"name":"RoofTop",
			"pbrMetallicRoughness":{
				"baseColorFactor":[
					0.012217000126838684,
					0.012217000126838684,
					0.012217000126838684,
					1
				],
				"metallicFactor":0,
				"roughnessFactor":0.5
			}
		},
		{
			"doubleSided":true,
			"name":"Walls",
			"pbrMetallicRoughness":{
				"baseColorFactor":[
					0.800000011920929,
					0,
					0.008574999868869781,
					1
				],
				"metallicFactor":0,
				"roughnessFactor":0.5
			}
		},
		{
			"doubleSided":true,
			"name":"RoodWood",
			"pbrMetallicRoughness":{
				"baseColorFactor":[
					0.054969001561403275,
					0.030420999974012375,
					0,
					1
				],
				"metallicFactor":0,
				"roughnessFactor":0.5
			}
		},
		{
			"doubleSided":true,
			"name":"Glass",
			"pbrMetallicRoughness":{
				"baseColorFactor":[
					0.0007510000141337514,
					0,
					0.800000011920929,
					1
				],
				"metallicFactor":0,
				"roughnessFactor":0.5
			}
		},
		{
			"doubleSided":true,
			"name":"FensterRahmen",
			"pbrMetallicRoughness":{
				"baseColorFactor":[
					0.517333984375,
					0.517333984375,
					0.517333984375,
					1
				],
				"metallicFactor":0,
				"roughnessFactor":0.5
			}
		}
	],
	"meshes":[
		{
			"name":"Cube.001",
			"primitives":[
				{
					"attributes":{
						"POSITION":0,
						"NORMAL":1,
						"TEXCOORD_0":2,
						"TANGENT":3
					},
					"indices":4,
					"material":0
				},
				{
					"attributes":{
						"POSITION":5,
						"NORMAL":6,
						"TEXCOORD_0":7,
						"TANGENT":8
					},
					"indices":9,
					"material":1
				},
				{
					"attributes":{
						"POSITION":10,
						"NORMAL":11,
						"TEXCOORD_0":12,
						"TANGENT":13
					},
					"indices":14,
					"material":2
				},
				{
					"attributes":{
						"POSITION":15,
						"NORMAL":16,
						"TEXCOORD_0":17,
						"TANGENT":18
					},
					"indices":19,
					"material":3
				}
			]
		},
		{
			"name":"Cube.001_Cube",
			"primitives":[
				{
					"attributes":{
						"POSITION":20,
						"NORMAL":21,
						"TEXCOORD_0":22,
						"TANGENT":23
					},
					"indices":24,
					"material":4
				},
				{
					"attributes":{
						"POSITION":25,
						"NORMAL":26,
						"TEXCOORD_0":27,
						"TANGENT":28
					},
					"indices":29,
					"material":5
				},
				{
					"attributes":{
						"POSITION":30,
						"NORMAL":31,
						"TEXCOORD_0":32,
						"TANGENT":33
					},
					"indices":34,
					"material":6
				}
			]
		},
		{
			"name":"Windows_Plane.002",
			"primitives":[
				{
					"attributes":{
						"POSITION":35,
						"NORMAL":36,
						"TEXCOORD_0":37,
						"TANGENT":38
					},
					"indices":39,
					"material":7
				},
				{
					"attributes":{
						"POSITION":40,
						"NORMAL":41,
						"TEXCOORD_0":42,
						"TANGENT":43
					},
					"indices":44,
					"material":8
				}
			]
		},
		{
			"name":"Windows_Plane.001",
			"primitives":[
				{
					"attributes":{
						"POSITION":45,
						"NORMAL":46,
						"TEXCOORD_0":47,
						"TANGENT":48
					},
					"indices":49,
					"material":7
				},
				{
					"attributes":{
						"POSITION":50,
						"NORMAL":51,
						"TEXCOORD_0":52,
						"TANGENT":53
					},
					"indices":54,
					"material":8
				}
			]
		},
		{
			"name":"Windows_Plane.003",
			"primitives":[
				{
					"attributes":{
						"POSITION":55,
						"NORMAL":56,
						"TEXCOORD_0":57,
						"TANGENT":58
					},
					"indices":59,
					"material":7
				},
				{
					"attributes":{
						"POSITION":60,
						"NORMAL":61,
						"TEXCOORD_0":62,
						"TANGENT":63
					},
					"indices":64,
					"material":8
				}
			]
		}
	],
	"accessors":[
		{
			"bufferView":0,
			"componentType":5126,
			"count":360,
			"max":[
				7.766885757446289,
				20.736629486083984,
				12.823397636413574
			],
			"min":[
				-7.766885757446289,
				14.336228370666504,
				-12.823397636413574
			],
			"type":"VEC3"
		},
		{
			"bufferView":1,
			"componentType":5126,
			"count":360,
			"type":"VEC3"
		},
		{
			"bufferView":2,
			"componentType":5126,
			"count":360,
			"type":"VEC2"
		},
		{
			"bufferView":3,
			"componentType":5126,
			"count":360,
			"type":"VEC4"
		},
		{
			"bufferView":4,
			"componentType":5123,
			"count":720,
			"type":"SCALAR"
		},
		{
			"bufferView":5,
			"componentType":5126,
			"count":208,
			"max":[
				7.2191667556762695,
				20.52614402770996,
				12.350309371948242
			],
			"min":[
				-7.2191667556762695,
				-2.8576273918151855,
				-12.350309371948242
			],
			"type":"VEC3"
		},
		{
			"bufferView":6,
			"componentType":5126,
			"count":208,
			"type":"VEC3"
		},
		{
			"bufferView":7,
			"componentType":5126,
			"count":208,
			"type":"VEC2"
		},
		{
			"bufferView":8,
			"componentType":5126,
			"count":208,
			"type":"VEC4"
		},
		{
			"bufferView":9,
			"componentType":5123,
			"count":360,
			"type":"SCALAR"
		},
		{
			"bufferView":10,
			"componentType":5126,
			"count":720,
			"max":[
				8.395896911621094,
				12.112958908081055,
				10.84005355834961
			],
			"min":[
				-8.395896911621094,
				4.929855823516846,
				-10.84005355834961
			],
			"type":"VEC3"
		},
		{
			"bufferView":11,
			"componentType":5126,
			"count":720,
			"type":"VEC3"
		},
		{
			"bufferView":12,
			"componentType":5126,
			"count":720,
			"type":"VEC2"
		},
		{
			"bufferView":13,
			"componentType":5126,
			"count":720,
			"type":"VEC4"
		},
		{
			"bufferView":14,
			"componentType":5123,
			"count":1224,
			"type":"SCALAR"
		},
		{
			"bufferView":15,
			"componentType":5126,
			"count":928,
			"max":[
				7.766885757446289,
				20.736629486083984,
				12.823397636413574
			],
			"min":[
				-7.766885757446289,
				14.12574291229248,
				-12.823397636413574
			],
			"type":"VEC3"
		},
		{
			"bufferView":16,
			"componentType":5126,
			"count":928,
			"type":"VEC3"
		},
		{
			"bufferView":17,
			"componentType":5126,
			"count":928,
			"type":"VEC2"
		},
		{
			"bufferView":18,
			"componentType":5126,
			"count":928,
			"type":"VEC4"
		},
		{
			"bufferView":19,
			"componentType":5123,
			"count":1944,
			"type":"SCALAR"
		},
		{
			"bufferView":20,
			"componentType":5126,
			"count":48,
			"max":[
				7.1728081703186035,
				5.410830974578857,
				-4.526885032653809
			],
			"min":[
				-7.1728081703186035,
				-5.410830974578857,
				-8.409725189208984
			],
			"type":"VEC3"
		},
		{
			"bufferView":21,
			"componentType":5126,
			"count":48,
			"type":"VEC3"
		},
		{
			"bufferView":22,
			"componentType":5126,
			"count":48,
			"type":"VEC2"
		},
		{
			"bufferView":23,
			"componentType":5126,
			"count":48,
			"type":"VEC4"
		},
		{
			"bufferView":24,
			"componentType":5123,
			"count":96,
			"type":"SCALAR"
		},
		{
			"bufferView":25,
			"componentType":5126,
			"count":36,
			"max":[
				6.5,
				5,
				1
			],
			"min":[
				-6.5,
				-5,
				-8.198055267333984
			],
			"type":"VEC3"
		},
		{
			"bufferView":26,
			"componentType":5126,
			"count":36,
			"type":"VEC3"
		},
		{
			"bufferView":27,
			"componentType":5126,
			"count":36,
			"type":"VEC2"
		},
		{
			"bufferView":28,
			"componentType":5126,
			"count":36,
			"type":"VEC4"
		},
		{
			"bufferView":29,
			"componentType":5123,
			"count":60,
			"type":"SCALAR"
		},
		{
			"bufferView":30,
			"componentType":5126,
			"count":104,
			"max":[
				7.1728081703186035,
				5.410830974578857,
				-4.315215110778809
			],
			"min":[
				-7.1728081703186035,
				-5.410830974578857,
				-8.409725189208984
			],
			"type":"VEC3"
		},
		{
			"bufferView":31,
			"componentType":5126,
			"count":104,
			"type":"VEC3"
		},
		{
			"bufferView":32,
			"componentType":5126,
			"count":104,
			"type":"VEC2"
		},
		{
			"bufferView":33,
			"componentType":5126,
			"count":104,
			"type":"VEC4"
		},
		{
			"bufferView":34,
			"componentType":5123,
			"count":216,
			"type":"SCALAR"
		},
		{
			"bufferView":35,
			"componentType":5126,
			"count":820,
			"max":[
				6.531901836395264,
				5.028803825378418,
				-0.7321529984474182
			],
			"min":[
				-6.512639045715332,
				-5.029170989990234,
				-6.5496602058410645
			],
			"type":"VEC3"
		},
		{
			"bufferView":36,
			"componentType":5126,
			"count":820,
			"type":"VEC3"
		},
		{
			"bufferView":37,
			"componentType":5126,
			"count":820,
			"type":"VEC2"
		},
		{
			"bufferView":38,
			"componentType":5126,
			"count":820,
			"type":"VEC4"
		},
		{
			"bufferView":39,
			"componentType":5123,
			"count":1230,
			"type":"SCALAR"
		},
		{
			"bufferView":40,
			"componentType":5126,
			"count":5404,
			"max":[
				6.563262939453125,
				5.060164928436279,
				0.25
			],
			"min":[
				-6.544000148773193,
				-5.060532093048096,
				-6.5496602058410645
			],
			"type":"VEC3"
		},
		{
			"bufferView":41,
			"componentType":5126,
			"count":5404,
			"type":"VEC3"
		},
		{
			"bufferView":42,
			"componentType":5126,
			"count":5404,
			"type":"VEC2"
		},
		{
			"bufferView":43,
			"componentType":5126,
			"count":5404,
			"type":"VEC4"
		},
		{
			"bufferView":44,
			"componentType":5123,
			"count":9942,
			"type":"SCALAR"
		},
		{
			"bufferView":45,
			"componentType":5126,
			"count":4,
			"max":[
				-0.004265785217285156,
				0.4331223964691162,
				0.559438943862915
			],
			"min":[
				-0.004265785217285156,
				-0.4331231117248535,
				-0.44056105613708496
			],
			"type":"VEC3"
		},
		{
			"bufferView":46,
			"componentType":5126,
			"count":4,
			"type":"VEC3"
		},
		{
			"bufferView":47,
			"componentType":5126,
			"count":4,
			"type":"VEC2"
		},
		{
			"bufferView":48,
			"componentType":5126,
			"count":4,
			"type":"VEC4"
		},
		{
			"bufferView":49,
			"componentType":5123,
			"count":6,
			"type":"SCALAR"
		},
		{
			"bufferView":50,
			"componentType":5126,
			"count":93,
			"max":[
				0.027093887329101562,
				0.4331223964691162,
				0.559438943862915
			],
			"min":[
				-0.047489166259765625,
				-0.4331231117248535,
				-0.44056105613708496
			],
			"type":"VEC3"
		},
		{
			"bufferView":51,
			"componentType":5126,
			"count":93,
			"type":"VEC3"
		},
		{
			"bufferView":52,
			"componentType":5126,
			"count":93,
			"type":"VEC2"
		},
		{
			"bufferView":53,
			"componentType":5126,
			"count":93,
			"type":"VEC4"
		},
		{
			"bufferView":54,
			"componentType":5123,
			"count":150,
			"type":"SCALAR"
		},
		{
			"bufferView":55,
			"componentType":5126,
			"count":464,
			"max":[
				7.26585578918457,
				12.386877059936523,
				-2.1057345867156982
			],
			"min":[
				-7.26585578918457,
				-12.386877059936523,
				-17.800201416015625
			],
			"type":"VEC3"
		},
		{
			"bufferView":56,
			"componentType":5126,
			"count":464,
			"type":"VEC3"
		},
		{
			"bufferView":57,
			"componentType":5126,
			"count":464,
			"type":"VEC2"
		},
		{
			"bufferView":58,
			"componentType":5126,
			"count":464,
			"type":"VEC4"
		},
		{
			"bufferView":59,
			"componentType":5123,
			"count":696,
			"type":"SCALAR"
		},
		{
			"bufferView":60,
			"componentType":5126,
			"count":10870,
			"max":[
				7.30303955078125,
				12.424060821533203,
				-2.1057345867156982
			],
			"min":[
				-7.30303955078125,
				-12.424060821533203,
				-17.800201416015625
			],
			"type":"VEC3"
		},
		{
			"bufferView":61,
			"componentType":5126,
			"count":10870,
			"type":"VEC3"
		},
		{
			"bufferView":62,
			"componentType":5126,
			"count":10870,
			"type":"VEC2"
		},
		{
			"bufferView":63,
			"componentType":5126,
			"count":10870,
			"type":"VEC4"
		},
		{
			"bufferView":64,
			"componentType":5123,
			"count":17400,
			"type":"SCALAR"
		}
	],
	"bufferViews":[
		{
			"buffer":0,
			"byteLength":4320,
			"byteOffset":0,
			"target":34962
		},
		{
			"buffer":0,
			"byteLength":4320,
			"byteOffset":4320,
			"target":34962
		},
		{
			"buffer":0,
			"byteLength":2880,
			"byteOffset":8640,
			"target":34962
		},
		{
			"buffer":0,
			"byteLength":5760,
			"byteOffset":11520,
			"target":34962
		},
		{
			"buffer":0,
			"byteLength":1440,
			"byteOffset":17280,
			"target":34963
		},
		{
			"buffer":0,
			"byteLength":2496,
			"byteOffset":18720,
			"target":34962
		},
		{
			"buffer":0,
			"byteLength":2496,
			"byteOffset":21216,
			"target":34962
		},
		{
			"buffer":0,
			"byteLength":1664,
			"byteOffset":23712,
			"target":34962
		},
		{
			"buffer":0,
			"byteLength":3328,
			"byteOffset":25376,
			"target":34962
		},
		{
			"buffer":0,
			"byteLength":720,
			"byteOffset":28704,
			"target":34963
		},
		{
			"buffer":0,
			"byteLength":8640,
			"byteOffset":29424,
			"target":34962
		},
		{
			"buffer":0,
			"byteLength":8640,
			"byteOffset":38064,
			"target":34962
		},
		{
			"buffer":0,
			"byteLength":5760,
			"byteOffset":46704,
			"target":34962
		},
		{
			"buffer":0,
			"byteLength":11520,
			"byteOffset":52464,
			"target":34962
		},
		{
			"buffer":0,
			"byteLength":2448,
			"byteOffset":63984,
			"target":34963
		},
		{
			"buffer":0,
			"byteLength":11136,
			"byteOffset":66432,
			"target":34962
		},
		{
			"buffer":0,
			"byteLength":11136,
			"byteOffset":77568,
			"target":34962
		},
		{
			"buffer":0,
			"byteLength":7424,
			"byteOffset":88704,
			"target":34962
		},
		{
			"buffer":0,
			"byteLength":14848,
			"byteOffset":96128,
			"target":34962
		},
		{
			"buffer":0,
			"byteLength":3888,
			"byteOffset":110976,
			"target":34963
		},
		{
			"buffer":0,
			"byteLength":576,
			"byteOffset":114864,
			"target":34962
		},
		{
			"buffer":0,
			"byteLength":576,
			"byteOffset":115440,
			"target":34962
		},
		{
			"buffer":0,
			"byteLength":384,
			"byteOffset":116016,
			"target":34962
		},
		{
			"buffer":0,
			"byteLength":768,
			"byteOffset":116400,
			"target":34962
		},
		{
			"buffer":0,
			"byteLength":192,
			"byteOffset":117168,
			"target":34963
		},
		{
			"buffer":0,
			"byteLength":432,
			"byteOffset":117360,
			"target":34962
		},
		{
			"buffer":0,
			"byteLength":432,
			"byteOffset":117792,
			"target":34962
		},
		{
			"buffer":0,
			"byteLength":288,
			"byteOffset":118224,
			"target":34962
		},
		{
			"buffer":0,
			"byteLength":576,
			"byteOffset":118512,
			"target":34962
		},
		{
			"buffer":0,
			"byteLength":120,
			"byteOffset":119088,
			"target":34963
		},
		{
			"buffer":0,
			"byteLength":1248,
			"byteOffset":119208,
			"target":34962
		},
		{
			"buffer":0,
			"byteLength":1248,
			"byteOffset":120456,
			"target":34962
		},
		{
			"buffer":0,
			"byteLength":832,
			"byteOffset":121704,
			"target":34962
		},
		{
			"buffer":0,
			"byteLength":1664,
			"byteOffset":122536,
			"target":34962
		},
		{
			"buffer":0,
			"byteLength":432,
			"byteOffset":124200,
			"target":34963
		},
		{
			"buffer":0,
			"byteLength":9840,
			"byteOffset":124632,
			"target":34962
		},
		{
			"buffer":0,
			"byteLength":9840,
			"byteOffset":134472,
			"target":34962
		},
		{
			"buffer":0,
			"byteLength":6560,
			"byteOffset":144312,
			"target":34962
		},
		{
			"buffer":0,
			"byteLength":13120,
			"byteOffset":150872,
			"target":34962
		},
		{
			"buffer":0,
			"byteLength":2460,
			"byteOffset":163992,
			"target":34963
		},
		{
			"buffer":0,
			"byteLength":64848,
			"byteOffset":166452,
			"target":34962
		},
		{
			"buffer":0,
			"byteLength":64848,
			"byteOffset":231300,
			"target":34962
		},
		{
			"buffer":0,
			"byteLength":43232,
			"byteOffset":296148,
			"target":34962
		},
		{
			"buffer":0,
			"byteLength":86464,
			"byteOffset":339380,
			"target":34962
		},
		{
			"buffer":0,
			"byteLength":19884,
			"byteOffset":425844,
			"target":34963
		},
		{
			"buffer":0,
			"byteLength":48,
			"byteOffset":445728,
			"target":34962
		},
		{
			"buffer":0,
			"byteLength":48,
			"byteOffset":445776,
			"target":34962
		},
		{
			"buffer":0,
			"byteLength":32,
			"byteOffset":445824,
			"target":34962
		},
		{
			"buffer":0,
			"byteLength":64,
			"byteOffset":445856,
			"target":34962
		},
		{
			"buffer":0,
			"byteLength":12,
			"byteOffset":445920,
			"target":34963
		},
		{
			"buffer":0,
			"byteLength":1116,
			"byteOffset":445932,
			"target":34962
		},
		{
			"buffer":0,
			"byteLength":1116,
			"byteOffset":447048,
			"target":34962
		},
		{
			"buffer":0,
			"byteLength":744,
			"byteOffset":448164,
			"target":34962
		},
		{
			"buffer":0,
			"byteLength":1488,
			"byteOffset":448908,
			"target":34962
		},
		{
			"buffer":0,
			"byteLength":300,
			"byteOffset":450396,
			"target":34963
		},
		{
			"buffer":0,
			"byteLength":5568,
			"byteOffset":450696,
			"target":34962
		},
		{
			"buffer":0,
			"byteLength":5568,
			"byteOffset":456264,
			"target":34962
		},
		{
			"buffer":0,
			"byteLength":3712,
			"byteOffset":461832,
			"target":34962
		},
		{
			"buffer":0,
			"byteLength":7424,
			"byteOffset":465544,
			"target":34962
		},
		{
			"buffer":0,
			"byteLength":1392,
			"byteOffset":472968,
			"target":34963
		},
		{
			"buffer":0,
			"byteLength":130440,
			"byteOffset":474360,
			"target":34962
		},
		{
			"buffer":0,
			"byteLength":130440,
			"byteOffset":604800,
			"target":34962
		},
		{
			"buffer":0,
			"byteLength":86960,
			"byteOffset":735240,
			"target":34962
		},
		{
			"buffer":0,
			"byteLength":173920,
			"byteOffset":822200,
			"target":34962
		},
		{
			"buffer":0,
			"byteLength":34800,
			"byteOffset":996120,
			"target":34963
		}
	],
	"buffers":[
		{
			"byteLength":1030920,
			"uri":"house2-0d52ea92c7d1ff0b453e844099df5383.bin"
		}
	]
}
