{
	"asset":{
		"generator":"Khronos glTF Blender I/O v4.2.69",
		"version":"2.0"
	},
	"scene":0,
	"scenes":[
		{
			"name":"Scene",
			"nodes":[
				0,
				1,
				2,
				3,
				4
			]
		}
	],
	"nodes":[
		{
			"name":"Empty",
			"rotation":[
				0.5,
				0.5,
				-0.4999999403953552,
				0.5000000596046448
			],
			"translation":[
				0,
				-2.101909875869751,
				7.940961837768555
			]
		},
		{
			"mesh":0,
			"name":"Signal"
		},
		{
			"mesh":1,
			"name":"HpTafel",
			"scale":[
				0.8999999761581421,
				0.8999999761581421,
				0.8999999761581421
			],
			"translation":[
				-0.00198359414935112,
				2.0756845474243164,
				0.31003981828689575
			]
		},
		{
			"mesh":2,
			"name":"KsTafel",
			"scale":[
				0.8999999761581421,
				0.9900000095367432,
				0.8999999761581421
			],
			"translation":[
				-0.00198359414935112,
				1.1045277118682861,
				0.31003981828689575
			]
		},
		{
			"mesh":3,
			"name":"VoTafel",
			"scale":[
				1,
				1,
				0.9149795174598694
			],
			"translation":[
				-0.00198359414935112,
				1.0413436889648438,
				0.31003981828689575
			]
		}
	],
	"materials":[
		{
			"doubleSided":true,
			"name":"KS-Signal",
			"pbrMetallicRoughness":{
				"metallicFactor":0,
				"roughnessFactor":0.5
			}
		},
		{
			"doubleSided":true,
			"name":"KS-Signal.001",
			"pbrMetallicRoughness":{
				"metallicFactor":0,
				"roughnessFactor":0.5
			}
		}
	],
	"meshes":[
		{
			"name":"Cube.001",
			"primitives":[
				{
					"attributes":{
						"POSITION":0,
						"NORMAL":1,
						"TEXCOORD_0":2
					},
					"indices":3,
					"material":0
				},
				{
					"attributes":{
						"POSITION":4,
						"NORMAL":5,
						"TEXCOORD_0":6
					},
					"indices":7,
					"material":1
				}
			]
		},
		{
			"name":"Cube",
			"primitives":[
				{
					"attributes":{
						"POSITION":8,
						"NORMAL":9,
						"TEXCOORD_0":10,
						"TANGENT":11
					},
					"indices":12
				}
			]
		},
		{
			"name":"Cube.002",
			"primitives":[
				{
					"attributes":{
						"POSITION":13,
						"NORMAL":14,
						"TEXCOORD_0":15,
						"TANGENT":16
					},
					"indices":12
				}
			]
		},
		{
			"name":"Cube.003",
			"primitives":[
				{
					"attributes":{
						"POSITION":17,
						"NORMAL":18,
						"TEXCOORD_0":19,
						"TANGENT":20
					},
					"indices":12
				}
			]
		}
	],
	"accessors":[
		{
			"bufferView":0,
			"componentType":5126,
			"count":799,
			"max":[
				0.6933667659759521,
				4.421208381652832,
				0.6344980001449585
			],
			"min":[
				-0.37802985310554504,
				-1.3325111865997314,
				-0.014076083898544312
			],
			"type":"VEC3"
		},
		{
			"bufferView":1,
			"componentType":5126,
			"count":799,
			"type":"VEC3"
		},
		{
			"bufferView":2,
			"componentType":5126,
			"count":799,
			"type":"VEC2"
		},
		{
			"bufferView":3,
			"componentType":5123,
			"count":1377,
			"type":"SCALAR"
		},
		{
			"bufferView":4,
			"componentType":5126,
			"count":136,
			"max":[
				0.7237452268600464,
				3.826606035232544,
				0.6106796860694885
			],
			"min":[
				0.30130884051322937,
				3.0853593349456787,
				-0.007543206214904785
			],
			"type":"VEC3"
		},
		{
			"bufferView":5,
			"componentType":5126,
			"count":136,
			"type":"VEC3"
		},
		{
			"bufferView":6,
			"componentType":5126,
			"count":136,
			"type":"VEC2"
		},
		{
			"bufferView":7,
			"componentType":5123,
			"count":240,
			"type":"SCALAR"
		},
		{
			"bufferView":8,
			"componentType":5126,
			"count":24,
			"max":[
				0.009999990463256836,
				0.6191601157188416,
				0.14820080995559692
			],
			"min":[
				-0.009999990463256836,
				-0.6191601753234863,
				-0.14820078015327454
			],
			"type":"VEC3"
		},
		{
			"bufferView":9,
			"componentType":5126,
			"count":24,
			"type":"VEC3"
		},
		{
			"bufferView":10,
			"componentType":5126,
			"count":24,
			"type":"VEC2"
		},
		{
			"bufferView":11,
			"componentType":5126,
			"count":24,
			"type":"VEC4"
		},
		{
			"bufferView":12,
			"componentType":5123,
			"count":36,
			"type":"SCALAR"
		},
		{
			"bufferView":13,
			"componentType":5126,
			"count":24,
			"max":[
				0.009999990463256836,
				0.40015795826911926,
				0.14820080995559692
			],
			"min":[
				-0.009999990463256836,
				-0.40015798807144165,
				-0.14820078015327454
			],
			"type":"VEC3"
		},
		{
			"bufferView":14,
			"componentType":5126,
			"count":24,
			"type":"VEC3"
		},
		{
			"bufferView":15,
			"componentType":5126,
			"count":24,
			"type":"VEC2"
		},
		{
			"bufferView":16,
			"componentType":5126,
			"count":24,
			"type":"VEC4"
		},
		{
			"bufferView":17,
			"componentType":5126,
			"count":24,
			"max":[
				0.009999990463256836,
				0.40015795826911926,
				0.3278762400150299
			],
			"min":[
				-0.009999990463256836,
				-0.40015798807144165,
				-0.32787618041038513
			],
			"type":"VEC3"
		},
		{
			"bufferView":18,
			"componentType":5126,
			"count":24,
			"type":"VEC3"
		},
		{
			"bufferView":19,
			"componentType":5126,
			"count":24,
			"type":"VEC2"
		},
		{
			"bufferView":20,
			"componentType":5126,
			"count":24,
			"type":"VEC4"
		}
	],
	"bufferViews":[
		{
			"buffer":0,
			"byteLength":9588,
			"byteOffset":0,
			"target":34962
		},
		{
			"buffer":0,
			"byteLength":9588,
			"byteOffset":9588,
			"target":34962
		},
		{
			"buffer":0,
			"byteLength":6392,
			"byteOffset":19176,
			"target":34962
		},
		{
			"buffer":0,
			"byteLength":2754,
			"byteOffset":25568,
			"target":34963
		},
		{
			"buffer":0,
			"byteLength":1632,
			"byteOffset":28324,
			"target":34962
		},
		{
			"buffer":0,
			"byteLength":1632,
			"byteOffset":29956,
			"target":34962
		},
		{
			"buffer":0,
			"byteLength":1088,
			"byteOffset":31588,
			"target":34962
		},
		{
			"buffer":0,
			"byteLength":480,
			"byteOffset":32676,
			"target":34963
		},
		{
			"buffer":0,
			"byteLength":288,
			"byteOffset":33156,
			"target":34962
		},
		{
			"buffer":0,
			"byteLength":288,
			"byteOffset":33444,
			"target":34962
		},
		{
			"buffer":0,
			"byteLength":192,
			"byteOffset":33732,
			"target":34962
		},
		{
			"buffer":0,
			"byteLength":384,
			"byteOffset":33924,
			"target":34962
		},
		{
			"buffer":0,
			"byteLength":72,
			"byteOffset":34308,
			"target":34963
		},
		{
			"buffer":0,
			"byteLength":288,
			"byteOffset":34380,
			"target":34962
		},
		{
			"buffer":0,
			"byteLength":288,
			"byteOffset":34668,
			"target":34962
		},
		{
			"buffer":0,
			"byteLength":192,
			"byteOffset":34956,
			"target":34962
		},
		{
			"buffer":0,
			"byteLength":384,
			"byteOffset":35148,
			"target":34962
		},
		{
			"buffer":0,
			"byteLength":288,
			"byteOffset":35532,
			"target":34962
		},
		{
			"buffer":0,
			"byteLength":288,
			"byteOffset":35820,
			"target":34962
		},
		{
			"buffer":0,
			"byteLength":192,
			"byteOffset":36108,
			"target":34962
		},
		{
			"buffer":0,
			"byteLength":384,
			"byteOffset":36300,
			"target":34962
		}
	],
	"buffers":[
		{
			"byteLength":36684,
			"uri":"Hp-Sig-aaf087cae9624d396080c89a99c014a6.bin"
		}
	]
}
