{
	"asset":{
		"generator":"Khronos glTF Blender I/O v4.2.69",
		"version":"2.0"
	},
	"scene":0,
	"scenes":[
		{
			"name":"Scene",
			"nodes":[
				0,
				1,
				2,
				3,
				4
			]
		}
	],
	"nodes":[
		{
			"mesh":0,
			"name":"Cube.001"
		},
		{
			"name":"Empty",
			"rotation":[
				0,
				-0.7071068286895752,
				0.7071068286895752,
				3.090862321641907e-08
			],
			"translation":[
				-2.5631208419799805,
				0.9561010003089905,
				0
			]
		},
		{
			"camera":0,
			"name":"Camera",
			"rotation":[
				-0.01670783758163452,
				0.7046502232551575,
				0.014802124351263046,
				0.7092036604881287
			],
			"translation":[
				0.47621554136276245,
				3.0915632247924805,
				0
			]
		},
		{
			"mesh":1,
			"name":"Cube"
		},
		{
			"mesh":2,
			"name":"Cube.002"
		}
	],
	"cameras":[
		{
			"name":"Camera",
			"perspective":{
				"aspectRatio":1.7777777777777777,
				"yfov":0.39959652046304894,
				"zfar":1000,
				"znear":0.10000000149011612
			},
			"type":"perspective"
		}
	],
	"materials":[
		{
			"doubleSided":true,
			"name":"WhitePlastic",
			"pbrMetallicRoughness":{
				"metallicFactor":0,
				"roughnessFactor":0.5
			}
		},
		{
			"doubleSided":true,
			"name":"DarkBlue_Plastic",
			"pbrMetallicRoughness":{
				"metallicFactor":0,
				"roughnessFactor":0.5
			}
		},
		{
			"doubleSided":true,
			"name":"LightBlue_Plastic",
			"pbrMetallicRoughness":{
				"metallicFactor":0,
				"roughnessFactor":0.5
			}
		},
		{
			"doubleSided":true,
			"name":"Screen",
			"pbrMetallicRoughness":{
				"baseColorFactor":[
					0.800000011920929,
					0.800000011920929,
					0.800000011920929,
					1
				],
				"metallicFactor":0,
				"roughnessFactor":0.5
			}
		},
		{
			"doubleSided":true,
			"name":"BlackPlatic",
			"pbrMetallicRoughness":{
				"baseColorFactor":[
					0.800000011920929,
					0.800000011920929,
					0.800000011920929,
					1
				],
				"metallicFactor":0,
				"roughnessFactor":0.5
			}
		}
	],
	"meshes":[
		{
			"name":"Cube",
			"primitives":[
				{
					"attributes":{
						"POSITION":0,
						"NORMAL":1,
						"TEXCOORD_0":2,
						"TANGENT":3
					},
					"indices":4,
					"material":0
				},
				{
					"attributes":{
						"POSITION":5,
						"NORMAL":6,
						"TEXCOORD_0":7,
						"TANGENT":8
					},
					"indices":9,
					"material":1
				},
				{
					"attributes":{
						"POSITION":10,
						"NORMAL":11,
						"TEXCOORD_0":12,
						"TANGENT":13
					},
					"indices":14,
					"material":2
				}
			]
		},
		{
			"name":"Cube.001",
			"primitives":[
				{
					"attributes":{
						"POSITION":15,
						"NORMAL":16,
						"TEXCOORD_0":17,
						"TANGENT":18
					},
					"indices":19,
					"material":3
				}
			]
		},
		{
			"name":"Cube.002",
			"primitives":[
				{
					"attributes":{
						"POSITION":20,
						"NORMAL":21,
						"TEXCOORD_0":22,
						"TANGENT":23
					},
					"indices":24,
					"material":4
				}
			]
		}
	],
	"accessors":[
		{
			"bufferView":0,
			"componentType":5126,
			"count":14461,
			"max":[
				2.0014898777008057,
				4.346623420715332,
				1.4573522806167603
			],
			"min":[
				-5.233309745788574,
				0.3533521890640259,
				-1.4573522806167603
			],
			"type":"VEC3"
		},
		{
			"bufferView":1,
			"componentType":5126,
			"count":14461,
			"type":"VEC3"
		},
		{
			"bufferView":2,
			"componentType":5126,
			"count":14461,
			"type":"VEC2"
		},
		{
			"bufferView":3,
			"componentType":5126,
			"count":14461,
			"type":"VEC4"
		},
		{
			"bufferView":4,
			"componentType":5123,
			"count":27354,
			"type":"SCALAR"
		},
		{
			"bufferView":5,
			"componentType":5126,
			"count":312,
			"max":[
				-1.1940261125564575,
				2.8368399143218994,
				1.2090833187103271
			],
			"min":[
				-2.3284544944763184,
				2.5111420154571533,
				-1.2090833187103271
			],
			"type":"VEC3"
		},
		{
			"bufferView":6,
			"componentType":5126,
			"count":312,
			"type":"VEC3"
		},
		{
			"bufferView":7,
			"componentType":5126,
			"count":312,
			"type":"VEC2"
		},
		{
			"bufferView":8,
			"componentType":5126,
			"count":312,
			"type":"VEC4"
		},
		{
			"bufferView":9,
			"componentType":5123,
			"count":480,
			"type":"SCALAR"
		},
		{
			"bufferView":10,
			"componentType":5126,
			"count":428,
			"max":[
				-1.0273761749267578,
				2.514862298965454,
				1.2162853479385376
			],
			"min":[
				-1.9799259901046753,
				1.1564136743545532,
				-1.2162853479385376
			],
			"type":"VEC3"
		},
		{
			"bufferView":11,
			"componentType":5126,
			"count":428,
			"type":"VEC3"
		},
		{
			"bufferView":12,
			"componentType":5126,
			"count":428,
			"type":"VEC2"
		},
		{
			"bufferView":13,
			"componentType":5126,
			"count":428,
			"type":"VEC4"
		},
		{
			"bufferView":14,
			"componentType":5123,
			"count":1026,
			"type":"SCALAR"
		},
		{
			"bufferView":15,
			"componentType":5126,
			"count":24,
			"max":[
				-1.814264178276062,
				2.764063835144043,
				-0.34567826986312866
			],
			"min":[
				-2.1623401641845703,
				2.5160653591156006,
				-0.8133386373519897
			],
			"type":"VEC3"
		},
		{
			"bufferView":16,
			"componentType":5126,
			"count":24,
			"type":"VEC3"
		},
		{
			"bufferView":17,
			"componentType":5126,
			"count":24,
			"type":"VEC2"
		},
		{
			"bufferView":18,
			"componentType":5126,
			"count":24,
			"type":"VEC4"
		},
		{
			"bufferView":19,
			"componentType":5123,
			"count":36,
			"type":"SCALAR"
		},
		{
			"bufferView":20,
			"componentType":5126,
			"count":176,
			"max":[
				-1.8234186172485352,
				3.5832345485687256,
				0.8394982814788818
			],
			"min":[
				-3.8939144611358643,
				2.4947288036346436,
				-0.2123657464981079
			],
			"type":"VEC3"
		},
		{
			"bufferView":21,
			"componentType":5126,
			"count":176,
			"type":"VEC3"
		},
		{
			"bufferView":22,
			"componentType":5126,
			"count":176,
			"type":"VEC2"
		},
		{
			"bufferView":23,
			"componentType":5126,
			"count":176,
			"type":"VEC4"
		},
		{
			"bufferView":24,
			"componentType":5123,
			"count":264,
			"type":"SCALAR"
		}
	],
	"bufferViews":[
		{
			"buffer":0,
			"byteLength":173532,
			"byteOffset":0,
			"target":34962
		},
		{
			"buffer":0,
			"byteLength":173532,
			"byteOffset":173532,
			"target":34962
		},
		{
			"buffer":0,
			"byteLength":115688,
			"byteOffset":347064,
			"target":34962
		},
		{
			"buffer":0,
			"byteLength":231376,
			"byteOffset":462752,
			"target":34962
		},
		{
			"buffer":0,
			"byteLength":54708,
			"byteOffset":694128,
			"target":34963
		},
		{
			"buffer":0,
			"byteLength":3744,
			"byteOffset":748836,
			"target":34962
		},
		{
			"buffer":0,
			"byteLength":3744,
			"byteOffset":752580,
			"target":34962
		},
		{
			"buffer":0,
			"byteLength":2496,
			"byteOffset":756324,
			"target":34962
		},
		{
			"buffer":0,
			"byteLength":4992,
			"byteOffset":758820,
			"target":34962
		},
		{
			"buffer":0,
			"byteLength":960,
			"byteOffset":763812,
			"target":34963
		},
		{
			"buffer":0,
			"byteLength":5136,
			"byteOffset":764772,
			"target":34962
		},
		{
			"buffer":0,
			"byteLength":5136,
			"byteOffset":769908,
			"target":34962
		},
		{
			"buffer":0,
			"byteLength":3424,
			"byteOffset":775044,
			"target":34962
		},
		{
			"buffer":0,
			"byteLength":6848,
			"byteOffset":778468,
			"target":34962
		},
		{
			"buffer":0,
			"byteLength":2052,
			"byteOffset":785316,
			"target":34963
		},
		{
			"buffer":0,
			"byteLength":288,
			"byteOffset":787368,
			"target":34962
		},
		{
			"buffer":0,
			"byteLength":288,
			"byteOffset":787656,
			"target":34962
		},
		{
			"buffer":0,
			"byteLength":192,
			"byteOffset":787944,
			"target":34962
		},
		{
			"buffer":0,
			"byteLength":384,
			"byteOffset":788136,
			"target":34962
		},
		{
			"buffer":0,
			"byteLength":72,
			"byteOffset":788520,
			"target":34963
		},
		{
			"buffer":0,
			"byteLength":2112,
			"byteOffset":788592,
			"target":34962
		},
		{
			"buffer":0,
			"byteLength":2112,
			"byteOffset":790704,
			"target":34962
		},
		{
			"buffer":0,
			"byteLength":1408,
			"byteOffset":792816,
			"target":34962
		},
		{
			"buffer":0,
			"byteLength":2816,
			"byteOffset":794224,
			"target":34962
		},
		{
			"buffer":0,
			"byteLength":528,
			"byteOffset":797040,
			"target":34963
		}
	],
	"buffers":[
		{
			"byteLength":797568,
			"uri":"ICE4_1-799c523bf37d4f38c26d32e713640a22.bin"
		}
	]
}
