{
	"asset":{
		"generator":"Khronos glTF Blender I/O v4.2.69",
		"version":"2.0"
	},
	"extensionsUsed":[
		"KHR_texture_transform"
	],
	"extensionsRequired":[
		"KHR_texture_transform"
	],
	"scene":0,
	"scenes":[
		{
			"extras":{
				"BakeLabProps":{
					"show_map_settings":0,
					"compute_device":1,
					"bake_state":0,
					"baking_map_index":4,
					"baking_obj_index":1,
					"baking_map_count":4,
					"baking_obj_count":1,
					"baking_obj_name":"Cube.001",
					"baking_map_type":"Metallic(Custom Pass)",
					"baking_map_name":"Cube.001_metal.001",
					"baking_map_size":"2048x2048"
				},
				"BakeLabMaps":[
					{
						"type":0,
						"width":4096,
						"height":4096,
						"image_scale":1.0,
						"float_depth":0,
						"file_format":0,
						"png_channels":1,
						"png_depth":0,
						"png_compression":15,
						"jpg_channels":1,
						"jpg_quality":90,
						"exr_channels":0,
						"exr_depth":1,
						"exr_codec_32":2,
						"exr_codec_16":2,
						"img_name":"*_albedo",
						"samples":4,
						"target_width":4096,
						"target_height":4096,
						"final_aa":1
					},
					{
						"type":3,
						"width":2048,
						"height":2048,
						"image_scale":1.0,
						"float_depth":0,
						"file_format":0,
						"png_channels":1,
						"png_depth":0,
						"png_compression":15,
						"jpg_channels":1,
						"jpg_quality":90,
						"exr_channels":0,
						"exr_depth":1,
						"exr_codec_32":2,
						"exr_codec_16":2,
						"img_name":"*_rough",
						"samples":4,
						"color_space":1,
						"target_width":2048,
						"target_height":2048,
						"final_aa":1
					},
					{
						"type":14,
						"width":2048,
						"height":2048,
						"image_scale":1.0,
						"float_depth":0,
						"file_format":0,
						"png_channels":1,
						"png_depth":0,
						"png_compression":15,
						"jpg_channels":1,
						"jpg_quality":90,
						"exr_channels":0,
						"exr_depth":1,
						"exr_codec_32":2,
						"exr_codec_16":2,
						"img_name":"*_ao",
						"samples":256,
						"color_space":1,
						"target_width":2048,
						"target_height":2048,
						"final_aa":1
					},
					{
						"type":13,
						"width":2048,
						"height":2048,
						"image_scale":1.0,
						"float_depth":0,
						"file_format":0,
						"png_channels":1,
						"png_depth":0,
						"png_compression":15,
						"jpg_channels":1,
						"jpg_quality":90,
						"exr_channels":0,
						"exr_depth":1,
						"exr_codec_32":2,
						"exr_codec_16":2,
						"img_name":"*_metal",
						"samples":4,
						"color_space":1,
						"pass_name":"Metallic",
						"target_width":2048,
						"target_height":2048,
						"final_aa":1
					}
				],
				"BakeLabMapIndex":3,
				"BakeLab_Data":[]
			},
			"name":"Scene",
			"nodes":[
				0,
				1,
				2,
				3,
				4,
				5
			]
		}
	],
	"nodes":[
		{
			"mesh":0,
			"name":"Cube.001"
		},
		{
			"name":"Empty",
			"rotation":[
				0,
				-0.7071068286895752,
				0.7071068286895752,
				3.090862321641907e-08
			],
			"translation":[
				-2.5631208419799805,
				0.9561010003089905,
				0
			]
		},
		{
			"camera":0,
			"name":"Camera",
			"rotation":[
				-0.01670783758163452,
				0.7046502232551575,
				0.014802124351263046,
				0.7092036604881287
			],
			"translation":[
				0.47621554136276245,
				3.0915632247924805,
				0
			]
		},
		{
			"mesh":1,
			"name":"Cube"
		},
		{
			"mesh":2,
			"name":"Cube.002"
		},
		{
			"mesh":3,
			"name":"Cube.003"
		}
	],
	"cameras":[
		{
			"name":"Camera",
			"perspective":{
				"aspectRatio":1.7777777777777777,
				"yfov":0.39959652046304894,
				"zfar":1000,
				"znear":0.10000000149011612
			},
			"type":"perspective"
		}
	],
	"materials":[
		{
			"doubleSided":true,
			"name":"WhitePlastic",
			"pbrMetallicRoughness":{
				"baseColorFactor":[
					0.05448029935359955,
					0.05126946419477463,
					0.052860669791698456,
					1
				],
				"baseColorTexture":{
					"extensions":{
						"KHR_texture_transform":{
							"offset":[
								0,
								-9
							],
							"scale":[
								10,
								10
							]
						}
					},
					"index":0
				},
				"metallicFactor":0.4099999964237213,
				"roughnessFactor":0.8199999928474426
			}
		},
		{
			"doubleSided":true,
			"name":"DarkBlue_Plastic",
			"pbrMetallicRoughness":{
				"baseColorFactor":[
					0.7011022567749023,
					0.6653875112533569,
					1,
					1
				],
				"baseColorTexture":{
					"extensions":{
						"KHR_texture_transform":{
							"offset":[
								0,
								-19
							],
							"scale":[
								20,
								20
							]
						}
					},
					"index":1
				},
				"metallicFactor":0,
				"roughnessFactor":0.8500000238418579
			}
		},
		{
			"doubleSided":true,
			"name":"LightBlue_Plastic",
			"pbrMetallicRoughness":{
				"baseColorFactor":[
					0.577580451965332,
					0.5775806307792664,
					0.5775805711746216,
					1
				],
				"baseColorTexture":{
					"extensions":{
						"KHR_texture_transform":{
							"offset":[
								0,
								-19
							],
							"scale":[
								20,
								20
							]
						}
					},
					"index":2
				},
				"metallicFactor":0
			}
		},
		{
			"doubleSided":true,
			"name":"Screen",
			"pbrMetallicRoughness":{
				"baseColorFactor":[
					0.800000011920929,
					0.800000011920929,
					0.800000011920929,
					1
				],
				"metallicFactor":0,
				"roughnessFactor":0.5
			}
		},
		{
			"doubleSided":true,
			"name":"BlackPlatic",
			"pbrMetallicRoughness":{
				"baseColorFactor":[
					0.800000011920929,
					0.800000011920929,
					0.800000011920929,
					1
				],
				"metallicFactor":0,
				"roughnessFactor":0.5
			}
		},
		{
			"doubleSided":true,
			"name":"Baked",
			"pbrMetallicRoughness":{
				"baseColorTexture":{
					"index":3
				}
			}
		}
	],
	"meshes":[
		{
			"name":"Cube",
			"primitives":[
				{
					"attributes":{
						"POSITION":0,
						"NORMAL":1,
						"TEXCOORD_0":2
					},
					"indices":3,
					"material":0
				},
				{
					"attributes":{
						"POSITION":4,
						"NORMAL":5,
						"TEXCOORD_0":6
					},
					"indices":7,
					"material":1
				},
				{
					"attributes":{
						"POSITION":8,
						"NORMAL":9,
						"TEXCOORD_0":10
					},
					"indices":11,
					"material":2
				}
			]
		},
		{
			"name":"Cube.001",
			"primitives":[
				{
					"attributes":{
						"POSITION":12,
						"NORMAL":13,
						"TEXCOORD_0":14,
						"TANGENT":15
					},
					"indices":16,
					"material":3
				}
			]
		},
		{
			"name":"Cube.002",
			"primitives":[
				{
					"attributes":{
						"POSITION":17,
						"NORMAL":18,
						"TEXCOORD_0":19,
						"TANGENT":20
					},
					"indices":21,
					"material":4
				}
			]
		},
		{
			"name":"Cube.003",
			"primitives":[
				{
					"attributes":{
						"POSITION":22,
						"NORMAL":23,
						"TEXCOORD_0":24
					},
					"indices":25,
					"material":5
				}
			]
		}
	],
	"textures":[
		{
			"sampler":0,
			"source":0
		},
		{
			"sampler":0,
			"source":1
		},
		{
			"sampler":0,
			"source":0
		},
		{
			"sampler":0,
			"source":2
		}
	],
	"images":[
		{
			"mimeType":"image/png",
			"name":"LightBlue_Plastic.png.001",
			"uri":"../../Resources/Textures/LightBlue_Plastic.png"
		},
		{
			"mimeType":"image/png",
			"name":"Dark_Blue_Plastic.png.001",
			"uri":"../../Resources/Textures/Dark_Blue_Plastic.png"
		},
		{
			"mimeType":"image/png",
			"name":"Cube.001_albedo",
			"uri":"../../Resources/Textures/Cabin_albedo.png"
		}
	],
	"accessors":[
		{
			"bufferView":0,
			"componentType":5126,
			"count":14077,
			"max":[
				2.0014898777008057,
				4.346623420715332,
				1.4573522806167603
			],
			"min":[
				-5.233309745788574,
				0.3533521890640259,
				-1.4573522806167603
			],
			"type":"VEC3"
		},
		{
			"bufferView":1,
			"componentType":5126,
			"count":14077,
			"type":"VEC3"
		},
		{
			"bufferView":2,
			"componentType":5126,
			"count":14077,
			"type":"VEC2"
		},
		{
			"bufferView":3,
			"componentType":5123,
			"count":27354,
			"type":"SCALAR"
		},
		{
			"bufferView":4,
			"componentType":5126,
			"count":322,
			"max":[
				-1.1940261125564575,
				2.8368399143218994,
				1.2162853479385376
			],
			"min":[
				-2.3284544944763184,
				2.5111420154571533,
				-1.2162853479385376
			],
			"type":"VEC3"
		},
		{
			"bufferView":5,
			"componentType":5126,
			"count":322,
			"type":"VEC3"
		},
		{
			"bufferView":6,
			"componentType":5126,
			"count":322,
			"type":"VEC2"
		},
		{
			"bufferView":7,
			"componentType":5123,
			"count":516,
			"type":"SCALAR"
		},
		{
			"bufferView":8,
			"componentType":5126,
			"count":419,
			"max":[
				-1.0273761749267578,
				2.514862298965454,
				1.2162853479385376
			],
			"min":[
				-1.9799259901046753,
				1.1564136743545532,
				-1.2162853479385376
			],
			"type":"VEC3"
		},
		{
			"bufferView":9,
			"componentType":5126,
			"count":419,
			"type":"VEC3"
		},
		{
			"bufferView":10,
			"componentType":5126,
			"count":419,
			"type":"VEC2"
		},
		{
			"bufferView":11,
			"componentType":5123,
			"count":1050,
			"type":"SCALAR"
		},
		{
			"bufferView":12,
			"componentType":5126,
			"count":24,
			"max":[
				-1.814264178276062,
				2.764063835144043,
				-0.34567826986312866
			],
			"min":[
				-2.1623401641845703,
				2.5160653591156006,
				-0.8133386373519897
			],
			"type":"VEC3"
		},
		{
			"bufferView":13,
			"componentType":5126,
			"count":24,
			"type":"VEC3"
		},
		{
			"bufferView":14,
			"componentType":5126,
			"count":24,
			"type":"VEC2"
		},
		{
			"bufferView":15,
			"componentType":5126,
			"count":24,
			"type":"VEC4"
		},
		{
			"bufferView":16,
			"componentType":5123,
			"count":36,
			"type":"SCALAR"
		},
		{
			"bufferView":17,
			"componentType":5126,
			"count":176,
			"max":[
				-1.8234186172485352,
				3.5832345485687256,
				0.8394982814788818
			],
			"min":[
				-3.8939144611358643,
				2.4947288036346436,
				-0.2123657464981079
			],
			"type":"VEC3"
		},
		{
			"bufferView":18,
			"componentType":5126,
			"count":176,
			"type":"VEC3"
		},
		{
			"bufferView":19,
			"componentType":5126,
			"count":176,
			"type":"VEC2"
		},
		{
			"bufferView":20,
			"componentType":5126,
			"count":176,
			"type":"VEC4"
		},
		{
			"bufferView":21,
			"componentType":5123,
			"count":264,
			"type":"SCALAR"
		},
		{
			"bufferView":22,
			"componentType":5126,
			"count":14818,
			"max":[
				2.0014898777008057,
				4.346623420715332,
				1.4573522806167603
			],
			"min":[
				-5.233309745788574,
				0.3533521890640259,
				-1.4573522806167603
			],
			"type":"VEC3"
		},
		{
			"bufferView":23,
			"componentType":5126,
			"count":14818,
			"type":"VEC3"
		},
		{
			"bufferView":24,
			"componentType":5126,
			"count":14818,
			"type":"VEC2"
		},
		{
			"bufferView":25,
			"componentType":5123,
			"count":28920,
			"type":"SCALAR"
		}
	],
	"bufferViews":[
		{
			"buffer":0,
			"byteLength":168924,
			"byteOffset":0,
			"target":34962
		},
		{
			"buffer":0,
			"byteLength":168924,
			"byteOffset":168924,
			"target":34962
		},
		{
			"buffer":0,
			"byteLength":112616,
			"byteOffset":337848,
			"target":34962
		},
		{
			"buffer":0,
			"byteLength":54708,
			"byteOffset":450464,
			"target":34963
		},
		{
			"buffer":0,
			"byteLength":3864,
			"byteOffset":505172,
			"target":34962
		},
		{
			"buffer":0,
			"byteLength":3864,
			"byteOffset":509036,
			"target":34962
		},
		{
			"buffer":0,
			"byteLength":2576,
			"byteOffset":512900,
			"target":34962
		},
		{
			"buffer":0,
			"byteLength":1032,
			"byteOffset":515476,
			"target":34963
		},
		{
			"buffer":0,
			"byteLength":5028,
			"byteOffset":516508,
			"target":34962
		},
		{
			"buffer":0,
			"byteLength":5028,
			"byteOffset":521536,
			"target":34962
		},
		{
			"buffer":0,
			"byteLength":3352,
			"byteOffset":526564,
			"target":34962
		},
		{
			"buffer":0,
			"byteLength":2100,
			"byteOffset":529916,
			"target":34963
		},
		{
			"buffer":0,
			"byteLength":288,
			"byteOffset":532016,
			"target":34962
		},
		{
			"buffer":0,
			"byteLength":288,
			"byteOffset":532304,
			"target":34962
		},
		{
			"buffer":0,
			"byteLength":192,
			"byteOffset":532592,
			"target":34962
		},
		{
			"buffer":0,
			"byteLength":384,
			"byteOffset":532784,
			"target":34962
		},
		{
			"buffer":0,
			"byteLength":72,
			"byteOffset":533168,
			"target":34963
		},
		{
			"buffer":0,
			"byteLength":2112,
			"byteOffset":533240,
			"target":34962
		},
		{
			"buffer":0,
			"byteLength":2112,
			"byteOffset":535352,
			"target":34962
		},
		{
			"buffer":0,
			"byteLength":1408,
			"byteOffset":537464,
			"target":34962
		},
		{
			"buffer":0,
			"byteLength":2816,
			"byteOffset":538872,
			"target":34962
		},
		{
			"buffer":0,
			"byteLength":528,
			"byteOffset":541688,
			"target":34963
		},
		{
			"buffer":0,
			"byteLength":177816,
			"byteOffset":542216,
			"target":34962
		},
		{
			"buffer":0,
			"byteLength":177816,
			"byteOffset":720032,
			"target":34962
		},
		{
			"buffer":0,
			"byteLength":118544,
			"byteOffset":897848,
			"target":34962
		},
		{
			"buffer":0,
			"byteLength":57840,
			"byteOffset":1016392,
			"target":34963
		}
	],
	"samplers":[
		{
			"magFilter":9729,
			"minFilter":9987
		}
	],
	"buffers":[
		{
			"byteLength":1074232,
			"uri":"ICE4_1-d24ada9e92d1a868b6e6af540115df60.bin"
		}
	]
}
