{
	"asset":{
		"generator":"Khronos glTF Blender I/O v4.2.69",
		"version":"2.0"
	},
	"scene":0,
	"scenes":[
		{
			"name":"Scene",
			"nodes":[
				0,
				1,
				2
			]
		}
	],
	"nodes":[
		{
			"mesh":0,
			"name":"Cube"
		},
		{
			"mesh":1,
			"name":"Cube.001"
		},
		{
			"name":"Empty",
			"rotation":[
				0,
				-0.7071068286895752,
				0.7071068286895752,
				3.090862321641907e-08
			],
			"translation":[
				-2.5631208419799805,
				0.9561010003089905,
				0
			]
		}
	],
	"materials":[
		{
			"doubleSided":true,
			"name":"Material.001",
			"pbrMetallicRoughness":{
				"metallicFactor":0,
				"roughnessFactor":0.5
			}
		}
	],
	"meshes":[
		{
			"name":"Cube.001",
			"primitives":[
				{
					"attributes":{
						"POSITION":0,
						"NORMAL":1,
						"TEXCOORD_0":2
					},
					"indices":3,
					"material":0
				}
			]
		},
		{
			"name":"Cube",
			"primitives":[
				{
					"attributes":{
						"POSITION":4,
						"NORMAL":5,
						"TEXCOORD_0":6,
						"TANGENT":7
					},
					"indices":8
				}
			]
		}
	],
	"accessors":[
		{
			"bufferView":0,
			"componentType":5126,
			"count":104,
			"max":[
				1,
				1,
				1.234378457069397
			],
			"min":[
				-2.4809160232543945,
				-1,
				-1.234378457069397
			],
			"type":"VEC3"
		},
		{
			"bufferView":1,
			"componentType":5126,
			"count":104,
			"type":"VEC3"
		},
		{
			"bufferView":2,
			"componentType":5126,
			"count":104,
			"type":"VEC2"
		},
		{
			"bufferView":3,
			"componentType":5123,
			"count":186,
			"type":"SCALAR"
		},
		{
			"bufferView":4,
			"componentType":5126,
			"count":14148,
			"max":[
				2.0014898777008057,
				4.346622943878174,
				1.4573522806167603
			],
			"min":[
				-5.233310222625732,
				0.3533521890640259,
				-1.4573522806167603
			],
			"type":"VEC3"
		},
		{
			"bufferView":5,
			"componentType":5126,
			"count":14148,
			"type":"VEC3"
		},
		{
			"bufferView":6,
			"componentType":5126,
			"count":14148,
			"type":"VEC2"
		},
		{
			"bufferView":7,
			"componentType":5126,
			"count":14148,
			"type":"VEC4"
		},
		{
			"bufferView":8,
			"componentType":5123,
			"count":24768,
			"type":"SCALAR"
		}
	],
	"bufferViews":[
		{
			"buffer":0,
			"byteLength":1248,
			"byteOffset":0,
			"target":34962
		},
		{
			"buffer":0,
			"byteLength":1248,
			"byteOffset":1248,
			"target":34962
		},
		{
			"buffer":0,
			"byteLength":832,
			"byteOffset":2496,
			"target":34962
		},
		{
			"buffer":0,
			"byteLength":372,
			"byteOffset":3328,
			"target":34963
		},
		{
			"buffer":0,
			"byteLength":169776,
			"byteOffset":3700,
			"target":34962
		},
		{
			"buffer":0,
			"byteLength":169776,
			"byteOffset":173476,
			"target":34962
		},
		{
			"buffer":0,
			"byteLength":113184,
			"byteOffset":343252,
			"target":34962
		},
		{
			"buffer":0,
			"byteLength":226368,
			"byteOffset":456436,
			"target":34962
		},
		{
			"buffer":0,
			"byteLength":49536,
			"byteOffset":682804,
			"target":34963
		}
	],
	"buffers":[
		{
			"byteLength":732340,
			"uri":"ICE4-fda3c44afd40d52e9032870e37e8b7c4.bin"
		}
	]
}
