{
	"asset":{
		"generator":"Khronos glTF Blender I/O v4.2.69",
		"version":"2.0"
	},
	"scene":0,
	"scenes":[
		{
			"name":"Scene",
			"nodes":[
				0,
				1,
				2,
				3,
				4
			]
		}
	],
	"nodes":[
		{
			"name":"Empty",
			"rotation":[
				0.5,
				0.5,
				-0.4999999403953552,
				0.5000000596046448
			],
			"translation":[
				0,
				-2.101909875869751,
				7.940961837768555
			]
		},
		{
			"mesh":0,
			"name":"Signal"
		},
		{
			"mesh":1,
			"name":"HpTafel",
			"scale":[
				0.8999999761581421,
				0.8999999761581421,
				0.8999999761581421
			],
			"translation":[
				-0.00198359414935112,
				2.0756845474243164,
				0.31003981828689575
			]
		},
		{
			"mesh":2,
			"name":"KsTafel",
			"scale":[
				0.8999999761581421,
				0.9900000095367432,
				0.8999999761581421
			],
			"translation":[
				-0.00198359414935112,
				1.1045277118682861,
				0.31003981828689575
			]
		},
		{
			"mesh":3,
			"name":"VoTafel",
			"scale":[
				1,
				1,
				0.9149795174598694
			],
			"translation":[
				-0.00198359414935112,
				1.0413436889648438,
				0.31003981828689575
			]
		}
	],
	"materials":[
		{
			"doubleSided":true,
			"name":"KS-Signal",
			"pbrMetallicRoughness":{
				"metallicFactor":0,
				"roughnessFactor":0.5
			}
		}
	],
	"meshes":[
		{
			"name":"Cube.001",
			"primitives":[
				{
					"attributes":{
						"POSITION":0,
						"NORMAL":1,
						"TEXCOORD_0":2
					},
					"indices":3,
					"material":0
				}
			]
		},
		{
			"name":"Cube",
			"primitives":[
				{
					"attributes":{
						"POSITION":4,
						"NORMAL":5,
						"TEXCOORD_0":6,
						"TANGENT":7
					},
					"indices":8
				}
			]
		},
		{
			"name":"Cube.002",
			"primitives":[
				{
					"attributes":{
						"POSITION":9,
						"NORMAL":10,
						"TEXCOORD_0":11,
						"TANGENT":12
					},
					"indices":8
				}
			]
		},
		{
			"name":"Cube.003",
			"primitives":[
				{
					"attributes":{
						"POSITION":13,
						"NORMAL":14,
						"TEXCOORD_0":15,
						"TANGENT":16
					},
					"indices":8
				}
			]
		}
	],
	"accessors":[
		{
			"bufferView":0,
			"componentType":5126,
			"count":1203,
			"max":[
				0.8239303827285767,
				5.0535888671875,
				0.7785364389419556
			],
			"min":[
				-0.6221932172775269,
				-1.3325111865997314,
				-0.21302908658981323
			],
			"type":"VEC3"
		},
		{
			"bufferView":1,
			"componentType":5126,
			"count":1203,
			"type":"VEC3"
		},
		{
			"bufferView":2,
			"componentType":5126,
			"count":1203,
			"type":"VEC2"
		},
		{
			"bufferView":3,
			"componentType":5123,
			"count":2025,
			"type":"SCALAR"
		},
		{
			"bufferView":4,
			"componentType":5126,
			"count":24,
			"max":[
				0.009999990463256836,
				0.6191601157188416,
				0.14820080995559692
			],
			"min":[
				-0.009999990463256836,
				-0.6191601753234863,
				-0.14820078015327454
			],
			"type":"VEC3"
		},
		{
			"bufferView":5,
			"componentType":5126,
			"count":24,
			"type":"VEC3"
		},
		{
			"bufferView":6,
			"componentType":5126,
			"count":24,
			"type":"VEC2"
		},
		{
			"bufferView":7,
			"componentType":5126,
			"count":24,
			"type":"VEC4"
		},
		{
			"bufferView":8,
			"componentType":5123,
			"count":36,
			"type":"SCALAR"
		},
		{
			"bufferView":9,
			"componentType":5126,
			"count":24,
			"max":[
				0.009999990463256836,
				0.40015795826911926,
				0.14820080995559692
			],
			"min":[
				-0.009999990463256836,
				-0.40015798807144165,
				-0.14820078015327454
			],
			"type":"VEC3"
		},
		{
			"bufferView":10,
			"componentType":5126,
			"count":24,
			"type":"VEC3"
		},
		{
			"bufferView":11,
			"componentType":5126,
			"count":24,
			"type":"VEC2"
		},
		{
			"bufferView":12,
			"componentType":5126,
			"count":24,
			"type":"VEC4"
		},
		{
			"bufferView":13,
			"componentType":5126,
			"count":24,
			"max":[
				0.009999990463256836,
				0.40015795826911926,
				0.3278762400150299
			],
			"min":[
				-0.009999990463256836,
				-0.40015798807144165,
				-0.32787618041038513
			],
			"type":"VEC3"
		},
		{
			"bufferView":14,
			"componentType":5126,
			"count":24,
			"type":"VEC3"
		},
		{
			"bufferView":15,
			"componentType":5126,
			"count":24,
			"type":"VEC2"
		},
		{
			"bufferView":16,
			"componentType":5126,
			"count":24,
			"type":"VEC4"
		}
	],
	"bufferViews":[
		{
			"buffer":0,
			"byteLength":14436,
			"byteOffset":0,
			"target":34962
		},
		{
			"buffer":0,
			"byteLength":14436,
			"byteOffset":14436,
			"target":34962
		},
		{
			"buffer":0,
			"byteLength":9624,
			"byteOffset":28872,
			"target":34962
		},
		{
			"buffer":0,
			"byteLength":4050,
			"byteOffset":38496,
			"target":34963
		},
		{
			"buffer":0,
			"byteLength":288,
			"byteOffset":42548,
			"target":34962
		},
		{
			"buffer":0,
			"byteLength":288,
			"byteOffset":42836,
			"target":34962
		},
		{
			"buffer":0,
			"byteLength":192,
			"byteOffset":43124,
			"target":34962
		},
		{
			"buffer":0,
			"byteLength":384,
			"byteOffset":43316,
			"target":34962
		},
		{
			"buffer":0,
			"byteLength":72,
			"byteOffset":43700,
			"target":34963
		},
		{
			"buffer":0,
			"byteLength":288,
			"byteOffset":43772,
			"target":34962
		},
		{
			"buffer":0,
			"byteLength":288,
			"byteOffset":44060,
			"target":34962
		},
		{
			"buffer":0,
			"byteLength":192,
			"byteOffset":44348,
			"target":34962
		},
		{
			"buffer":0,
			"byteLength":384,
			"byteOffset":44540,
			"target":34962
		},
		{
			"buffer":0,
			"byteLength":288,
			"byteOffset":44924,
			"target":34962
		},
		{
			"buffer":0,
			"byteLength":288,
			"byteOffset":45212,
			"target":34962
		},
		{
			"buffer":0,
			"byteLength":192,
			"byteOffset":45500,
			"target":34962
		},
		{
			"buffer":0,
			"byteLength":384,
			"byteOffset":45692,
			"target":34962
		}
	],
	"buffers":[
		{
			"byteLength":46076,
			"uri":"KS-Sig-68be0519687eb54217b4747bb019ec15.bin"
		}
	]
}
