{
	"asset":{
		"generator":"Khronos glTF Blender I/O v4.2.69",
		"version":"2.0"
	},
	"scene":0,
	"scenes":[
		{
			"name":"Scene",
			"nodes":[
				0,
				1,
				2
			]
		}
	],
	"nodes":[
		{
			"mesh":0,
			"name":"Human Dummy",
			"rotation":[
				0.7071068286895752,
				0,
				0,
				0.7071068286895752
			],
			"translation":[
				0,
				0,
				-2.111192464828491
			]
		},
		{
			"mesh":1,
			"name":"BackUpWithMirror"
		},
		{
			"mesh":2,
			"name":"BackUpWithMirror.001"
		}
	],
	"materials":[
		{
			"doubleSided":true,
			"name":"Human",
			"pbrMetallicRoughness":{
				"metallicFactor":0,
				"roughnessFactor":0.5
			}
		},
		{
			"doubleSided":true,
			"name":"Beton",
			"pbrMetallicRoughness":{
				"baseColorFactor":[
					0.8000000715255737,
					0.6609824895858765,
					0.2601884603500366,
					1
				],
				"metallicFactor":0,
				"roughnessFactor":0.5
			}
		},
		{
			"doubleSided":true,
			"name":"Metal",
			"pbrMetallicRoughness":{
				"baseColorFactor":[
					0.0908379852771759,
					0.0908379852771759,
					0.0908379852771759,
					1
				],
				"metallicFactor":0,
				"roughnessFactor":0.5
			}
		},
		{
			"doubleSided":true,
			"name":"Glass",
			"pbrMetallicRoughness":{
				"baseColorFactor":[
					0.07404732704162598,
					0.7546653747558594,
					0.8000000715255737,
					1
				],
				"metallicFactor":0,
				"roughnessFactor":0.5
			}
		},
		{
			"doubleSided":true,
			"name":"BlackMetal",
			"pbrMetallicRoughness":{
				"baseColorFactor":[
					0,
					0,
					0,
					1
				],
				"metallicFactor":0,
				"roughnessFactor":0.5
			}
		}
	],
	"meshes":[
		{
			"name":"Cube.001_Cube.002",
			"primitives":[
				{
					"attributes":{
						"POSITION":0,
						"NORMAL":1,
						"TEXCOORD_0":2,
						"TANGENT":3
					},
					"indices":4,
					"material":0
				}
			]
		},
		{
			"name":"Cube.002",
			"primitives":[
				{
					"attributes":{
						"POSITION":5,
						"NORMAL":6,
						"TEXCOORD_0":7,
						"TANGENT":8
					},
					"indices":9,
					"material":1
				},
				{
					"attributes":{
						"POSITION":10,
						"NORMAL":11,
						"TEXCOORD_0":12,
						"TANGENT":13
					},
					"indices":14,
					"material":2
				},
				{
					"attributes":{
						"POSITION":15,
						"NORMAL":16,
						"TEXCOORD_0":17,
						"TANGENT":18
					},
					"indices":19,
					"material":3
				}
			]
		},
		{
			"name":"Cube.004",
			"primitives":[
				{
					"attributes":{
						"POSITION":20,
						"NORMAL":21,
						"TEXCOORD_0":22,
						"TANGENT":23
					},
					"indices":24,
					"material":1
				},
				{
					"attributes":{
						"POSITION":25,
						"NORMAL":26,
						"TEXCOORD_0":27,
						"TANGENT":28
					},
					"indices":29,
					"material":2
				},
				{
					"attributes":{
						"POSITION":30,
						"NORMAL":31,
						"TEXCOORD_0":32,
						"TANGENT":33
					},
					"indices":34,
					"material":3
				},
				{
					"attributes":{
						"POSITION":35,
						"NORMAL":36,
						"TEXCOORD_0":37,
						"TANGENT":38
					},
					"indices":39,
					"material":4
				}
			]
		}
	],
	"accessors":[
		{
			"bufferView":0,
			"componentType":5126,
			"count":20,
			"max":[
				0.3515320122241974,
				0.15933699905872345,
				-0.006827999837696552
			],
			"min":[
				-0.3515320122241974,
				-0.15933699905872345,
				-1.793172001838684
			],
			"type":"VEC3"
		},
		{
			"bufferView":1,
			"componentType":5126,
			"count":20,
			"type":"VEC3"
		},
		{
			"bufferView":2,
			"componentType":5126,
			"count":20,
			"type":"VEC2"
		},
		{
			"bufferView":3,
			"componentType":5126,
			"count":20,
			"type":"VEC4"
		},
		{
			"bufferView":4,
			"componentType":5123,
			"count":30,
			"type":"SCALAR"
		},
		{
			"bufferView":5,
			"componentType":5126,
			"count":80,
			"max":[
				1.4446995258331299,
				0.16525131464004517,
				1.6106972694396973
			],
			"min":[
				-1.4446995258331299,
				-0.1276276409626007,
				-1.6106972694396973
			],
			"type":"VEC3"
		},
		{
			"bufferView":6,
			"componentType":5126,
			"count":80,
			"type":"VEC3"
		},
		{
			"bufferView":7,
			"componentType":5126,
			"count":80,
			"type":"VEC2"
		},
		{
			"bufferView":8,
			"componentType":5126,
			"count":80,
			"type":"VEC4"
		},
		{
			"bufferView":9,
			"componentType":5123,
			"count":168,
			"type":"SCALAR"
		},
		{
			"bufferView":10,
			"componentType":5126,
			"count":1910,
			"max":[
				1.2372456789016724,
				5.354094505310059,
				1.3847957849502563
			],
			"min":[
				-1.2372456789016724,
				0.06238769739866257,
				-1.3847957849502563
			],
			"type":"VEC3"
		},
		{
			"bufferView":11,
			"componentType":5126,
			"count":1910,
			"type":"VEC3"
		},
		{
			"bufferView":12,
			"componentType":5126,
			"count":1910,
			"type":"VEC2"
		},
		{
			"bufferView":13,
			"componentType":5126,
			"count":1910,
			"type":"VEC4"
		},
		{
			"bufferView":14,
			"componentType":5123,
			"count":4272,
			"type":"SCALAR"
		},
		{
			"bufferView":15,
			"componentType":5126,
			"count":48,
			"max":[
				1.2018193006515503,
				5.322793483734131,
				1.347132921218872
			],
			"min":[
				-1.2018193006515503,
				-0.09955129027366638,
				-1.347132921218872
			],
			"type":"VEC3"
		},
		{
			"bufferView":16,
			"componentType":5126,
			"count":48,
			"type":"VEC3"
		},
		{
			"bufferView":17,
			"componentType":5126,
			"count":48,
			"type":"VEC2"
		},
		{
			"bufferView":18,
			"componentType":5126,
			"count":48,
			"type":"VEC4"
		},
		{
			"bufferView":19,
			"componentType":5123,
			"count":72,
			"type":"SCALAR"
		},
		{
			"bufferView":20,
			"componentType":5126,
			"count":100,
			"max":[
				1.4446995258331299,
				0.16525131464004517,
				1.6106972694396973
			],
			"min":[
				-1.4446995258331299,
				-0.15351057052612305,
				-1.6106972694396973
			],
			"type":"VEC3"
		},
		{
			"bufferView":21,
			"componentType":5126,
			"count":100,
			"type":"VEC3"
		},
		{
			"bufferView":22,
			"componentType":5126,
			"count":100,
			"type":"VEC2"
		},
		{
			"bufferView":23,
			"componentType":5126,
			"count":100,
			"type":"VEC4"
		},
		{
			"bufferView":24,
			"componentType":5123,
			"count":216,
			"type":"SCALAR"
		},
		{
			"bufferView":25,
			"componentType":5126,
			"count":2218,
			"max":[
				1.2372456789016724,
				20.580554962158203,
				1.3847957849502563
			],
			"min":[
				-1.2372456789016724,
				-0.13665205240249634,
				-1.6075876951217651
			],
			"type":"VEC3"
		},
		{
			"bufferView":26,
			"componentType":5126,
			"count":2218,
			"type":"VEC3"
		},
		{
			"bufferView":27,
			"componentType":5126,
			"count":2218,
			"type":"VEC2"
		},
		{
			"bufferView":28,
			"componentType":5126,
			"count":2218,
			"type":"VEC4"
		},
		{
			"bufferView":29,
			"componentType":5123,
			"count":4974,
			"type":"SCALAR"
		},
		{
			"bufferView":30,
			"componentType":5126,
			"count":88,
			"max":[
				1.2202036380767822,
				20.54925537109375,
				1.347132921218872
			],
			"min":[
				-1.2202036380767822,
				-0.09955129027366638,
				-1.347132921218872
			],
			"type":"VEC3"
		},
		{
			"bufferView":31,
			"componentType":5126,
			"count":88,
			"type":"VEC3"
		},
		{
			"bufferView":32,
			"componentType":5126,
			"count":88,
			"type":"VEC2"
		},
		{
			"bufferView":33,
			"componentType":5126,
			"count":88,
			"type":"VEC4"
		},
		{
			"bufferView":34,
			"componentType":5123,
			"count":132,
			"type":"SCALAR"
		},
		{
			"bufferView":35,
			"componentType":5126,
			"count":240,
			"max":[
				1.0525281429290771,
				20.52457046508789,
				0.8009833097457886
			],
			"min":[
				-1.0525281429290771,
				-0.23317718505859375,
				-1.1569222211837769
			],
			"type":"VEC3"
		},
		{
			"bufferView":36,
			"componentType":5126,
			"count":240,
			"type":"VEC3"
		},
		{
			"bufferView":37,
			"componentType":5126,
			"count":240,
			"type":"VEC2"
		},
		{
			"bufferView":38,
			"componentType":5126,
			"count":240,
			"type":"VEC4"
		},
		{
			"bufferView":39,
			"componentType":5123,
			"count":360,
			"type":"SCALAR"
		}
	],
	"bufferViews":[
		{
			"buffer":0,
			"byteLength":240,
			"byteOffset":0,
			"target":34962
		},
		{
			"buffer":0,
			"byteLength":240,
			"byteOffset":240,
			"target":34962
		},
		{
			"buffer":0,
			"byteLength":160,
			"byteOffset":480,
			"target":34962
		},
		{
			"buffer":0,
			"byteLength":320,
			"byteOffset":640,
			"target":34962
		},
		{
			"buffer":0,
			"byteLength":60,
			"byteOffset":960,
			"target":34963
		},
		{
			"buffer":0,
			"byteLength":960,
			"byteOffset":1020,
			"target":34962
		},
		{
			"buffer":0,
			"byteLength":960,
			"byteOffset":1980,
			"target":34962
		},
		{
			"buffer":0,
			"byteLength":640,
			"byteOffset":2940,
			"target":34962
		},
		{
			"buffer":0,
			"byteLength":1280,
			"byteOffset":3580,
			"target":34962
		},
		{
			"buffer":0,
			"byteLength":336,
			"byteOffset":4860,
			"target":34963
		},
		{
			"buffer":0,
			"byteLength":22920,
			"byteOffset":5196,
			"target":34962
		},
		{
			"buffer":0,
			"byteLength":22920,
			"byteOffset":28116,
			"target":34962
		},
		{
			"buffer":0,
			"byteLength":15280,
			"byteOffset":51036,
			"target":34962
		},
		{
			"buffer":0,
			"byteLength":30560,
			"byteOffset":66316,
			"target":34962
		},
		{
			"buffer":0,
			"byteLength":8544,
			"byteOffset":96876,
			"target":34963
		},
		{
			"buffer":0,
			"byteLength":576,
			"byteOffset":105420,
			"target":34962
		},
		{
			"buffer":0,
			"byteLength":576,
			"byteOffset":105996,
			"target":34962
		},
		{
			"buffer":0,
			"byteLength":384,
			"byteOffset":106572,
			"target":34962
		},
		{
			"buffer":0,
			"byteLength":768,
			"byteOffset":106956,
			"target":34962
		},
		{
			"buffer":0,
			"byteLength":144,
			"byteOffset":107724,
			"target":34963
		},
		{
			"buffer":0,
			"byteLength":1200,
			"byteOffset":107868,
			"target":34962
		},
		{
			"buffer":0,
			"byteLength":1200,
			"byteOffset":109068,
			"target":34962
		},
		{
			"buffer":0,
			"byteLength":800,
			"byteOffset":110268,
			"target":34962
		},
		{
			"buffer":0,
			"byteLength":1600,
			"byteOffset":111068,
			"target":34962
		},
		{
			"buffer":0,
			"byteLength":432,
			"byteOffset":112668,
			"target":34963
		},
		{
			"buffer":0,
			"byteLength":26616,
			"byteOffset":113100,
			"target":34962
		},
		{
			"buffer":0,
			"byteLength":26616,
			"byteOffset":139716,
			"target":34962
		},
		{
			"buffer":0,
			"byteLength":17744,
			"byteOffset":166332,
			"target":34962
		},
		{
			"buffer":0,
			"byteLength":35488,
			"byteOffset":184076,
			"target":34962
		},
		{
			"buffer":0,
			"byteLength":9948,
			"byteOffset":219564,
			"target":34963
		},
		{
			"buffer":0,
			"byteLength":1056,
			"byteOffset":229512,
			"target":34962
		},
		{
			"buffer":0,
			"byteLength":1056,
			"byteOffset":230568,
			"target":34962
		},
		{
			"buffer":0,
			"byteLength":704,
			"byteOffset":231624,
			"target":34962
		},
		{
			"buffer":0,
			"byteLength":1408,
			"byteOffset":232328,
			"target":34962
		},
		{
			"buffer":0,
			"byteLength":264,
			"byteOffset":233736,
			"target":34963
		},
		{
			"buffer":0,
			"byteLength":2880,
			"byteOffset":234000,
			"target":34962
		},
		{
			"buffer":0,
			"byteLength":2880,
			"byteOffset":236880,
			"target":34962
		},
		{
			"buffer":0,
			"byteLength":1920,
			"byteOffset":239760,
			"target":34962
		},
		{
			"buffer":0,
			"byteLength":3840,
			"byteOffset":241680,
			"target":34962
		},
		{
			"buffer":0,
			"byteLength":720,
			"byteOffset":245520,
			"target":34963
		}
	],
	"buffers":[
		{
			"byteLength":246240,
			"uri":"Lift-Subway-816b82dee9c9d741f117812feebf406a.bin"
		}
	]
}
