{
	"asset":{
		"generator":"Khronos glTF Blender I/O v4.2.69",
		"version":"2.0"
	},
	"scene":0,
	"scenes":[
		{
			"name":"Scene",
			"nodes":[
				0,
				1,
				2
			]
		}
	],
	"nodes":[
		{
			"mesh":0,
			"name":"Cube"
		},
		{
			"mesh":1,
			"name":"Window"
		},
		{
			"mesh":2,
			"name":"WindowBackUp"
		}
	],
	"materials":[
		{
			"doubleSided":true,
			"name":"Walls",
			"pbrMetallicRoughness":{
				"baseColorFactor":[
					0.8000000715255737,
					0,
					0.008575117215514183,
					1
				],
				"metallicFactor":0,
				"roughnessFactor":0.5
			}
		},
		{
			"doubleSided":true,
			"name":"RoofTop",
			"pbrMetallicRoughness":{
				"baseColorFactor":[
					0.012217002920806408,
					0.012217002920806408,
					0.012217002920806408,
					1
				],
				"metallicFactor":0,
				"roughnessFactor":0.5
			}
		},
		{
			"doubleSided":true,
			"name":"Roof",
			"pbrMetallicRoughness":{
				"baseColorFactor":[
					0.0016381125897169113,
					0.0026801174972206354,
					0.04954942315816879,
					1
				],
				"metallicFactor":0,
				"roughnessFactor":0.5
			}
		},
		{
			"doubleSided":true,
			"name":"Glass",
			"pbrMetallicRoughness":{
				"baseColorFactor":[
					0.0007508835406042635,
					0,
					0.8000000715255737,
					1
				],
				"metallicFactor":0,
				"roughnessFactor":0.5
			}
		},
		{
			"doubleSided":true,
			"name":"FensterRahmen",
			"pbrMetallicRoughness":{
				"baseColorFactor":[
					0.5173344612121582,
					0.5173344612121582,
					0.5173344612121582,
					1
				],
				"metallicFactor":0,
				"roughnessFactor":0.5
			}
		}
	],
	"meshes":[
		{
			"name":"Cube.001",
			"primitives":[
				{
					"attributes":{
						"POSITION":0,
						"NORMAL":1,
						"TEXCOORD_0":2,
						"TANGENT":3
					},
					"indices":4,
					"material":0
				},
				{
					"attributes":{
						"POSITION":5,
						"NORMAL":6,
						"TEXCOORD_0":7,
						"TANGENT":8
					},
					"indices":9,
					"material":1
				},
				{
					"attributes":{
						"POSITION":10,
						"NORMAL":11,
						"TEXCOORD_0":12,
						"TANGENT":13
					},
					"indices":14,
					"material":2
				}
			]
		},
		{
			"name":"Plane",
			"primitives":[
				{
					"attributes":{
						"POSITION":15,
						"NORMAL":16,
						"TEXCOORD_0":17,
						"TANGENT":18
					},
					"indices":19,
					"material":3
				},
				{
					"attributes":{
						"POSITION":20,
						"NORMAL":21,
						"TEXCOORD_0":22,
						"TANGENT":23
					},
					"indices":24,
					"material":4
				}
			]
		},
		{
			"name":"Plane.001",
			"primitives":[
				{
					"attributes":{
						"POSITION":25,
						"NORMAL":26,
						"TEXCOORD_0":27,
						"TANGENT":28
					},
					"indices":29,
					"material":3
				},
				{
					"attributes":{
						"POSITION":30,
						"NORMAL":31,
						"TEXCOORD_0":32,
						"TANGENT":33
					},
					"indices":34,
					"material":4
				}
			]
		}
	],
	"accessors":[
		{
			"bufferView":0,
			"componentType":5126,
			"count":16,
			"max":[
				11,
				10,
				7
			],
			"min":[
				-11,
				-1.9340541362762451,
				-7
			],
			"type":"VEC3"
		},
		{
			"bufferView":1,
			"componentType":5126,
			"count":16,
			"type":"VEC3"
		},
		{
			"bufferView":2,
			"componentType":5126,
			"count":16,
			"type":"VEC2"
		},
		{
			"bufferView":3,
			"componentType":5126,
			"count":16,
			"type":"VEC4"
		},
		{
			"bufferView":4,
			"componentType":5123,
			"count":24,
			"type":"SCALAR"
		},
		{
			"bufferView":5,
			"componentType":5126,
			"count":4,
			"max":[
				11,
				11.356992721557617,
				7
			],
			"min":[
				-11,
				11.356992721557617,
				-7
			],
			"type":"VEC3"
		},
		{
			"bufferView":6,
			"componentType":5126,
			"count":4,
			"type":"VEC3"
		},
		{
			"bufferView":7,
			"componentType":5126,
			"count":4,
			"type":"VEC2"
		},
		{
			"bufferView":8,
			"componentType":5126,
			"count":4,
			"type":"VEC4"
		},
		{
			"bufferView":9,
			"componentType":5123,
			"count":6,
			"type":"SCALAR"
		},
		{
			"bufferView":10,
			"componentType":5126,
			"count":56,
			"max":[
				11.22110366821289,
				11.370630264282227,
				7.140702247619629
			],
			"min":[
				-11.22110366821289,
				9.98636245727539,
				-7.140702247619629
			],
			"type":"VEC3"
		},
		{
			"bufferView":11,
			"componentType":5126,
			"count":56,
			"type":"VEC3"
		},
		{
			"bufferView":12,
			"componentType":5126,
			"count":56,
			"type":"VEC2"
		},
		{
			"bufferView":13,
			"componentType":5126,
			"count":56,
			"type":"VEC4"
		},
		{
			"bufferView":14,
			"componentType":5123,
			"count":96,
			"type":"SCALAR"
		},
		{
			"bufferView":15,
			"componentType":5126,
			"count":1584,
			"max":[
				11.044025421142578,
				9.866676330566406,
				7.008012294769287
			],
			"min":[
				-11.044025421142578,
				0.8106805682182312,
				-7.008012294769287
			],
			"type":"VEC3"
		},
		{
			"bufferView":16,
			"componentType":5126,
			"count":1584,
			"type":"VEC3"
		},
		{
			"bufferView":17,
			"componentType":5126,
			"count":1584,
			"type":"VEC2"
		},
		{
			"bufferView":18,
			"componentType":5126,
			"count":1584,
			"type":"VEC4"
		},
		{
			"bufferView":19,
			"componentType":5123,
			"count":4224,
			"type":"SCALAR"
		},
		{
			"bufferView":20,
			"componentType":5126,
			"count":13376,
			"max":[
				11.09282398223877,
				9.866676330566406,
				7.05681037902832
			],
			"min":[
				-11.09282398223877,
				0.8106805682182312,
				-7.05681037902832
			],
			"type":"VEC3"
		},
		{
			"bufferView":21,
			"componentType":5126,
			"count":13376,
			"type":"VEC3"
		},
		{
			"bufferView":22,
			"componentType":5126,
			"count":13376,
			"type":"VEC2"
		},
		{
			"bufferView":23,
			"componentType":5126,
			"count":13376,
			"type":"VEC4"
		},
		{
			"bufferView":24,
			"componentType":5123,
			"count":33792,
			"type":"SCALAR"
		},
		{
			"bufferView":25,
			"componentType":5126,
			"count":16,
			"max":[
				0.34999990463256836,
				0.5,
				4.371138828673793e-08
			],
			"min":[
				-0.34999990463256836,
				-0.5,
				-4.371138828673793e-08
			],
			"type":"VEC3"
		},
		{
			"bufferView":26,
			"componentType":5126,
			"count":16,
			"type":"VEC3"
		},
		{
			"bufferView":27,
			"componentType":5126,
			"count":16,
			"type":"VEC2"
		},
		{
			"bufferView":28,
			"componentType":5126,
			"count":16,
			"type":"VEC4"
		},
		{
			"bufferView":29,
			"componentType":5123,
			"count":24,
			"type":"SCALAR"
		},
		{
			"bufferView":30,
			"componentType":5126,
			"count":76,
			"max":[
				0.34999990463256836,
				0.5,
				0.04322183132171631
			],
			"min":[
				-0.34999990463256836,
				-0.5,
				-0.031361088156700134
			],
			"type":"VEC3"
		},
		{
			"bufferView":31,
			"componentType":5126,
			"count":76,
			"type":"VEC3"
		},
		{
			"bufferView":32,
			"componentType":5126,
			"count":76,
			"type":"VEC2"
		},
		{
			"bufferView":33,
			"componentType":5126,
			"count":76,
			"type":"VEC4"
		},
		{
			"bufferView":34,
			"componentType":5123,
			"count":192,
			"type":"SCALAR"
		}
	],
	"bufferViews":[
		{
			"buffer":0,
			"byteLength":192,
			"byteOffset":0,
			"target":34962
		},
		{
			"buffer":0,
			"byteLength":192,
			"byteOffset":192,
			"target":34962
		},
		{
			"buffer":0,
			"byteLength":128,
			"byteOffset":384,
			"target":34962
		},
		{
			"buffer":0,
			"byteLength":256,
			"byteOffset":512,
			"target":34962
		},
		{
			"buffer":0,
			"byteLength":48,
			"byteOffset":768,
			"target":34963
		},
		{
			"buffer":0,
			"byteLength":48,
			"byteOffset":816,
			"target":34962
		},
		{
			"buffer":0,
			"byteLength":48,
			"byteOffset":864,
			"target":34962
		},
		{
			"buffer":0,
			"byteLength":32,
			"byteOffset":912,
			"target":34962
		},
		{
			"buffer":0,
			"byteLength":64,
			"byteOffset":944,
			"target":34962
		},
		{
			"buffer":0,
			"byteLength":12,
			"byteOffset":1008,
			"target":34963
		},
		{
			"buffer":0,
			"byteLength":672,
			"byteOffset":1020,
			"target":34962
		},
		{
			"buffer":0,
			"byteLength":672,
			"byteOffset":1692,
			"target":34962
		},
		{
			"buffer":0,
			"byteLength":448,
			"byteOffset":2364,
			"target":34962
		},
		{
			"buffer":0,
			"byteLength":896,
			"byteOffset":2812,
			"target":34962
		},
		{
			"buffer":0,
			"byteLength":192,
			"byteOffset":3708,
			"target":34963
		},
		{
			"buffer":0,
			"byteLength":19008,
			"byteOffset":3900,
			"target":34962
		},
		{
			"buffer":0,
			"byteLength":19008,
			"byteOffset":22908,
			"target":34962
		},
		{
			"buffer":0,
			"byteLength":12672,
			"byteOffset":41916,
			"target":34962
		},
		{
			"buffer":0,
			"byteLength":25344,
			"byteOffset":54588,
			"target":34962
		},
		{
			"buffer":0,
			"byteLength":8448,
			"byteOffset":79932,
			"target":34963
		},
		{
			"buffer":0,
			"byteLength":160512,
			"byteOffset":88380,
			"target":34962
		},
		{
			"buffer":0,
			"byteLength":160512,
			"byteOffset":248892,
			"target":34962
		},
		{
			"buffer":0,
			"byteLength":107008,
			"byteOffset":409404,
			"target":34962
		},
		{
			"buffer":0,
			"byteLength":214016,
			"byteOffset":516412,
			"target":34962
		},
		{
			"buffer":0,
			"byteLength":67584,
			"byteOffset":730428,
			"target":34963
		},
		{
			"buffer":0,
			"byteLength":192,
			"byteOffset":798012,
			"target":34962
		},
		{
			"buffer":0,
			"byteLength":192,
			"byteOffset":798204,
			"target":34962
		},
		{
			"buffer":0,
			"byteLength":128,
			"byteOffset":798396,
			"target":34962
		},
		{
			"buffer":0,
			"byteLength":256,
			"byteOffset":798524,
			"target":34962
		},
		{
			"buffer":0,
			"byteLength":48,
			"byteOffset":798780,
			"target":34963
		},
		{
			"buffer":0,
			"byteLength":912,
			"byteOffset":798828,
			"target":34962
		},
		{
			"buffer":0,
			"byteLength":912,
			"byteOffset":799740,
			"target":34962
		},
		{
			"buffer":0,
			"byteLength":608,
			"byteOffset":800652,
			"target":34962
		},
		{
			"buffer":0,
			"byteLength":1216,
			"byteOffset":801260,
			"target":34962
		},
		{
			"buffer":0,
			"byteLength":384,
			"byteOffset":802476,
			"target":34963
		}
	],
	"buffers":[
		{
			"byteLength":802860,
			"uri":"Office1-37d1b8a87cbc34690af5e4f4b07e799a.bin"
		}
	]
}
