{
	"asset":{
		"generator":"Khronos glTF Blender I/O v4.2.69",
		"version":"2.0"
	},
	"scene":0,
	"scenes":[
		{
			"name":"Scene",
			"nodes":[
				0
			]
		}
	],
	"nodes":[
		{
			"mesh":0,
			"name":"Cube",
			"scale":[
				0.6720088124275208,
				0.6720088124275208,
				0.6720088124275208
			],
			"translation":[
				0,
				1,
				0
			]
		}
	],
	"materials":[
		{
			"doubleSided":true,
			"name":"Glass",
			"pbrMetallicRoughness":{
				"baseColorFactor":[
					0.11002325266599655,
					0.10328326374292374,
					0.8000000715255737,
					1
				],
				"metallicFactor":0,
				"roughnessFactor":0.5
			}
		},
		{
			"doubleSided":true,
			"name":"Beton",
			"pbrMetallicRoughness":{
				"baseColorFactor":[
					0.800000011920929,
					0.800000011920929,
					0.800000011920929,
					1
				],
				"metallicFactor":0,
				"roughnessFactor":0.5
			}
		},
		{
			"doubleSided":true,
			"name":"Roof",
			"pbrMetallicRoughness":{
				"baseColorFactor":[
					0.05780274420976639,
					0.05780274420976639,
					0.05780274420976639,
					1
				],
				"metallicFactor":0,
				"roughnessFactor":0.5
			}
		}
	],
	"meshes":[
		{
			"name":"Cube.001",
			"primitives":[
				{
					"attributes":{
						"POSITION":0,
						"NORMAL":1,
						"TEXCOORD_0":2
					},
					"indices":3,
					"material":0
				},
				{
					"attributes":{
						"POSITION":4,
						"NORMAL":5,
						"TEXCOORD_0":6
					},
					"indices":7,
					"material":1
				},
				{
					"attributes":{
						"POSITION":8,
						"NORMAL":9,
						"TEXCOORD_0":10
					},
					"indices":11,
					"material":2
				}
			]
		}
	],
	"accessors":[
		{
			"bufferView":0,
			"componentType":5126,
			"count":480,
			"max":[
				14.75,
				15.600000381469727,
				24.75
			],
			"min":[
				-14.75,
				-0.6000000238418579,
				-24.75
			],
			"type":"VEC3"
		},
		{
			"bufferView":1,
			"componentType":5126,
			"count":480,
			"type":"VEC3"
		},
		{
			"bufferView":2,
			"componentType":5126,
			"count":480,
			"type":"VEC2"
		},
		{
			"bufferView":3,
			"componentType":5123,
			"count":720,
			"type":"SCALAR"
		},
		{
			"bufferView":4,
			"componentType":5126,
			"count":2716,
			"max":[
				15,
				16,
				25
			],
			"min":[
				-15,
				-5.913619518280029,
				-25
			],
			"type":"VEC3"
		},
		{
			"bufferView":5,
			"componentType":5126,
			"count":2716,
			"type":"VEC3"
		},
		{
			"bufferView":6,
			"componentType":5126,
			"count":2716,
			"type":"VEC2"
		},
		{
			"bufferView":7,
			"componentType":5123,
			"count":6288,
			"type":"SCALAR"
		},
		{
			"bufferView":8,
			"componentType":5126,
			"count":395,
			"max":[
				15.658220291137695,
				17.20647430419922,
				25.626415252685547
			],
			"min":[
				-15.658220291137695,
				16,
				-25.626415252685547
			],
			"type":"VEC3"
		},
		{
			"bufferView":9,
			"componentType":5126,
			"count":395,
			"type":"VEC3"
		},
		{
			"bufferView":10,
			"componentType":5126,
			"count":395,
			"type":"VEC2"
		},
		{
			"bufferView":11,
			"componentType":5123,
			"count":1140,
			"type":"SCALAR"
		}
	],
	"bufferViews":[
		{
			"buffer":0,
			"byteLength":5760,
			"byteOffset":0,
			"target":34962
		},
		{
			"buffer":0,
			"byteLength":5760,
			"byteOffset":5760,
			"target":34962
		},
		{
			"buffer":0,
			"byteLength":3840,
			"byteOffset":11520,
			"target":34962
		},
		{
			"buffer":0,
			"byteLength":1440,
			"byteOffset":15360,
			"target":34963
		},
		{
			"buffer":0,
			"byteLength":32592,
			"byteOffset":16800,
			"target":34962
		},
		{
			"buffer":0,
			"byteLength":32592,
			"byteOffset":49392,
			"target":34962
		},
		{
			"buffer":0,
			"byteLength":21728,
			"byteOffset":81984,
			"target":34962
		},
		{
			"buffer":0,
			"byteLength":12576,
			"byteOffset":103712,
			"target":34963
		},
		{
			"buffer":0,
			"byteLength":4740,
			"byteOffset":116288,
			"target":34962
		},
		{
			"buffer":0,
			"byteLength":4740,
			"byteOffset":121028,
			"target":34962
		},
		{
			"buffer":0,
			"byteLength":3160,
			"byteOffset":125768,
			"target":34962
		},
		{
			"buffer":0,
			"byteLength":2280,
			"byteOffset":128928,
			"target":34963
		}
	],
	"buffers":[
		{
			"byteLength":131208,
			"uri":"office3-6b565e5e995091b70203e0e2683780f6.bin"
		}
	]
}
