{
	"asset":{
		"generator":"Khronos glTF Blender I/O v4.2.69",
		"version":"2.0"
	},
	"scene":0,
	"scenes":[
		{
			"name":"Scene",
			"nodes":[
				0,
				1
			]
		}
	],
	"nodes":[
		{
			"mesh":0,
			"name":"Cube",
			"scale":[
				0.6720088124275208,
				0.6720088124275208,
				0.6720088124275208
			],
			"translation":[
				54,
				1,
				0
			]
		},
		{
			"mesh":1,
			"name":"Cube.001",
			"scale":[
				0.8759556412696838,
				0.8759556412696838,
				0.8759556412696838
			]
		}
	],
	"materials":[
		{
			"doubleSided":true,
			"name":"Glass",
			"pbrMetallicRoughness":{
				"baseColorFactor":[
					0.11002325266599655,
					0.10328326374292374,
					0.8000000715255737,
					1
				],
				"metallicFactor":0,
				"roughnessFactor":0.5
			}
		},
		{
			"doubleSided":true,
			"name":"Beton",
			"pbrMetallicRoughness":{
				"baseColorFactor":[
					0.800000011920929,
					0.800000011920929,
					0.800000011920929,
					1
				],
				"metallicFactor":0,
				"roughnessFactor":0.5
			}
		},
		{
			"doubleSided":true,
			"name":"Roof",
			"pbrMetallicRoughness":{
				"baseColorFactor":[
					0.05780274420976639,
					0.05780274420976639,
					0.05780274420976639,
					1
				],
				"metallicFactor":0,
				"roughnessFactor":0.5
			}
		},
		{
			"doubleSided":true,
			"name":"Material",
			"pbrMetallicRoughness":{
				"baseColorFactor":[
					0.800000011920929,
					0.800000011920929,
					0.800000011920929,
					1
				],
				"metallicFactor":0,
				"roughnessFactor":0.4000000059604645
			}
		}
	],
	"meshes":[
		{
			"name":"Cube.001",
			"primitives":[
				{
					"attributes":{
						"POSITION":0,
						"NORMAL":1,
						"TEXCOORD_0":2
					},
					"indices":3,
					"material":0
				},
				{
					"attributes":{
						"POSITION":4,
						"NORMAL":5,
						"TEXCOORD_0":6
					},
					"indices":7,
					"material":1
				},
				{
					"attributes":{
						"POSITION":8,
						"NORMAL":9,
						"TEXCOORD_0":10
					},
					"indices":11,
					"material":2
				}
			]
		},
		{
			"name":"Cube",
			"primitives":[
				{
					"attributes":{
						"POSITION":12,
						"NORMAL":13,
						"TEXCOORD_0":14,
						"TANGENT":15
					},
					"indices":16,
					"material":2
				},
				{
					"attributes":{
						"POSITION":17,
						"NORMAL":18,
						"TEXCOORD_0":19,
						"TANGENT":20
					},
					"indices":21,
					"material":3
				},
				{
					"attributes":{
						"POSITION":22,
						"NORMAL":23,
						"TEXCOORD_0":24,
						"TANGENT":25
					},
					"indices":26,
					"material":0
				}
			]
		}
	],
	"accessors":[
		{
			"bufferView":0,
			"componentType":5126,
			"count":480,
			"max":[
				14.75,
				15.600000381469727,
				24.75
			],
			"min":[
				-14.75,
				-0.6000000238418579,
				-24.75
			],
			"type":"VEC3"
		},
		{
			"bufferView":1,
			"componentType":5126,
			"count":480,
			"type":"VEC3"
		},
		{
			"bufferView":2,
			"componentType":5126,
			"count":480,
			"type":"VEC2"
		},
		{
			"bufferView":3,
			"componentType":5123,
			"count":720,
			"type":"SCALAR"
		},
		{
			"bufferView":4,
			"componentType":5126,
			"count":2716,
			"max":[
				15,
				16,
				25
			],
			"min":[
				-15,
				-5.913619518280029,
				-25
			],
			"type":"VEC3"
		},
		{
			"bufferView":5,
			"componentType":5126,
			"count":2716,
			"type":"VEC3"
		},
		{
			"bufferView":6,
			"componentType":5126,
			"count":2716,
			"type":"VEC2"
		},
		{
			"bufferView":7,
			"componentType":5123,
			"count":6288,
			"type":"SCALAR"
		},
		{
			"bufferView":8,
			"componentType":5126,
			"count":395,
			"max":[
				15.658220291137695,
				17.20647430419922,
				25.626415252685547
			],
			"min":[
				-15.658220291137695,
				16,
				-25.626415252685547
			],
			"type":"VEC3"
		},
		{
			"bufferView":9,
			"componentType":5126,
			"count":395,
			"type":"VEC3"
		},
		{
			"bufferView":10,
			"componentType":5126,
			"count":395,
			"type":"VEC2"
		},
		{
			"bufferView":11,
			"componentType":5123,
			"count":1140,
			"type":"SCALAR"
		},
		{
			"bufferView":12,
			"componentType":5126,
			"count":164,
			"max":[
				15.43867015838623,
				90,
				39.368507385253906
			],
			"min":[
				-15.43867015838623,
				85.33332824707031,
				-39.368507385253906
			],
			"type":"VEC3"
		},
		{
			"bufferView":13,
			"componentType":5126,
			"count":164,
			"type":"VEC3"
		},
		{
			"bufferView":14,
			"componentType":5126,
			"count":164,
			"type":"VEC2"
		},
		{
			"bufferView":15,
			"componentType":5126,
			"count":164,
			"type":"VEC4"
		},
		{
			"bufferView":16,
			"componentType":5123,
			"count":408,
			"type":"SCALAR"
		},
		{
			"bufferView":17,
			"componentType":5126,
			"count":3360,
			"max":[
				15.300737380981445,
				85.44387817382812,
				39.323184967041016
			],
			"min":[
				-15.300737380981445,
				-1,
				-39.323184967041016
			],
			"type":"VEC3"
		},
		{
			"bufferView":18,
			"componentType":5126,
			"count":3360,
			"type":"VEC3"
		},
		{
			"bufferView":19,
			"componentType":5126,
			"count":3360,
			"type":"VEC2"
		},
		{
			"bufferView":20,
			"componentType":5126,
			"count":3360,
			"type":"VEC4"
		},
		{
			"bufferView":21,
			"componentType":5123,
			"count":6336,
			"type":"SCALAR"
		},
		{
			"bufferView":22,
			"componentType":5126,
			"count":576,
			"max":[
				15,
				85.33332824707031,
				39
			],
			"min":[
				-15,
				3.666666030883789,
				-39
			],
			"type":"VEC3"
		},
		{
			"bufferView":23,
			"componentType":5126,
			"count":576,
			"type":"VEC3"
		},
		{
			"bufferView":24,
			"componentType":5126,
			"count":576,
			"type":"VEC2"
		},
		{
			"bufferView":25,
			"componentType":5126,
			"count":576,
			"type":"VEC4"
		},
		{
			"bufferView":26,
			"componentType":5123,
			"count":864,
			"type":"SCALAR"
		}
	],
	"bufferViews":[
		{
			"buffer":0,
			"byteLength":5760,
			"byteOffset":0,
			"target":34962
		},
		{
			"buffer":0,
			"byteLength":5760,
			"byteOffset":5760,
			"target":34962
		},
		{
			"buffer":0,
			"byteLength":3840,
			"byteOffset":11520,
			"target":34962
		},
		{
			"buffer":0,
			"byteLength":1440,
			"byteOffset":15360,
			"target":34963
		},
		{
			"buffer":0,
			"byteLength":32592,
			"byteOffset":16800,
			"target":34962
		},
		{
			"buffer":0,
			"byteLength":32592,
			"byteOffset":49392,
			"target":34962
		},
		{
			"buffer":0,
			"byteLength":21728,
			"byteOffset":81984,
			"target":34962
		},
		{
			"buffer":0,
			"byteLength":12576,
			"byteOffset":103712,
			"target":34963
		},
		{
			"buffer":0,
			"byteLength":4740,
			"byteOffset":116288,
			"target":34962
		},
		{
			"buffer":0,
			"byteLength":4740,
			"byteOffset":121028,
			"target":34962
		},
		{
			"buffer":0,
			"byteLength":3160,
			"byteOffset":125768,
			"target":34962
		},
		{
			"buffer":0,
			"byteLength":2280,
			"byteOffset":128928,
			"target":34963
		},
		{
			"buffer":0,
			"byteLength":1968,
			"byteOffset":131208,
			"target":34962
		},
		{
			"buffer":0,
			"byteLength":1968,
			"byteOffset":133176,
			"target":34962
		},
		{
			"buffer":0,
			"byteLength":1312,
			"byteOffset":135144,
			"target":34962
		},
		{
			"buffer":0,
			"byteLength":2624,
			"byteOffset":136456,
			"target":34962
		},
		{
			"buffer":0,
			"byteLength":816,
			"byteOffset":139080,
			"target":34963
		},
		{
			"buffer":0,
			"byteLength":40320,
			"byteOffset":139896,
			"target":34962
		},
		{
			"buffer":0,
			"byteLength":40320,
			"byteOffset":180216,
			"target":34962
		},
		{
			"buffer":0,
			"byteLength":26880,
			"byteOffset":220536,
			"target":34962
		},
		{
			"buffer":0,
			"byteLength":53760,
			"byteOffset":247416,
			"target":34962
		},
		{
			"buffer":0,
			"byteLength":12672,
			"byteOffset":301176,
			"target":34963
		},
		{
			"buffer":0,
			"byteLength":6912,
			"byteOffset":313848,
			"target":34962
		},
		{
			"buffer":0,
			"byteLength":6912,
			"byteOffset":320760,
			"target":34962
		},
		{
			"buffer":0,
			"byteLength":4608,
			"byteOffset":327672,
			"target":34962
		},
		{
			"buffer":0,
			"byteLength":9216,
			"byteOffset":332280,
			"target":34962
		},
		{
			"buffer":0,
			"byteLength":1728,
			"byteOffset":341496,
			"target":34963
		}
	],
	"buffers":[
		{
			"byteLength":343224,
			"uri":"office4-f5a5c43547b55bf3c4023eacdcbb0a1c.bin"
		}
	]
}
