{
	"asset":{
		"generator":"Khronos glTF Blender I/O v4.2.69",
		"version":"2.0"
	},
	"scene":0,
	"scenes":[
		{
			"name":"Scene",
			"nodes":[
				0,
				1,
				2
			]
		}
	],
	"nodes":[
		{
			"mesh":0,
			"name":"Cube",
			"scale":[
				0.6720088124275208,
				0.6720088124275208,
				0.6720088124275208
			],
			"translation":[
				54,
				1,
				0
			]
		},
		{
			"mesh":1,
			"name":"Cube.001",
			"scale":[
				0.8759556412696838,
				0.8759556412696838,
				0.8759556412696838
			],
			"translation":[
				-39.65577697753906,
				0,
				0
			]
		},
		{
			"mesh":2,
			"name":"Office6_1"
		}
	],
	"materials":[
		{
			"doubleSided":true,
			"name":"Glass"
		},
		{
			"doubleSided":true,
			"name":"Beton.001",
			"pbrMetallicRoughness":{
				"baseColorFactor":[
					0.800000011920929,
					0.800000011920929,
					0.800000011920929,
					1
				],
				"metallicFactor":0,
				"roughnessFactor":0.5
			}
		},
		{
			"doubleSided":true,
			"name":"Roof",
			"pbrMetallicRoughness":{
				"baseColorFactor":[
					0.05780274420976639,
					0.05780274420976639,
					0.05780274420976639,
					1
				],
				"metallicFactor":0,
				"roughnessFactor":0.5
			}
		},
		{
			"doubleSided":true,
			"name":"Beton",
			"pbrMetallicRoughness":{
				"baseColorFactor":[
					0.548852264881134,
					0.548852264881134,
					0.548852264881134,
					1
				],
				"metallicFactor":0,
				"roughnessFactor":0.4000000059604645
			}
		},
		{
			"doubleSided":true,
			"name":"RedPlastic",
			"pbrMetallicRoughness":{
				"baseColorFactor":[
					0.8000000715255737,
					0,
					0.005676119588315487,
					1
				],
				"metallicFactor":0,
				"roughnessFactor":0.5
			}
		},
		{
			"doubleSided":true,
			"name":"WhitePlastic",
			"pbrMetallicRoughness":{
				"baseColorFactor":[
					0.800000011920929,
					0.800000011920929,
					0.800000011920929,
					1
				],
				"metallicFactor":0,
				"roughnessFactor":0.5
			}
		}
	],
	"meshes":[
		{
			"name":"Cube.001",
			"primitives":[
				{
					"attributes":{
						"POSITION":0,
						"NORMAL":1,
						"TEXCOORD_0":2
					},
					"indices":3,
					"material":0
				},
				{
					"attributes":{
						"POSITION":4,
						"NORMAL":5,
						"TEXCOORD_0":6
					},
					"indices":7,
					"material":1
				},
				{
					"attributes":{
						"POSITION":8,
						"NORMAL":9,
						"TEXCOORD_0":10
					},
					"indices":11,
					"material":2
				}
			]
		},
		{
			"name":"Cube",
			"primitives":[
				{
					"attributes":{
						"POSITION":12,
						"NORMAL":13,
						"TEXCOORD_0":14,
						"TANGENT":15
					},
					"indices":16,
					"material":2
				},
				{
					"attributes":{
						"POSITION":17,
						"NORMAL":18,
						"TEXCOORD_0":19,
						"TANGENT":20
					},
					"indices":21,
					"material":3
				},
				{
					"attributes":{
						"POSITION":22,
						"NORMAL":23,
						"TEXCOORD_0":24,
						"TANGENT":25
					},
					"indices":26,
					"material":0
				}
			]
		},
		{
			"name":"Circle",
			"primitives":[
				{
					"attributes":{
						"POSITION":27,
						"NORMAL":28,
						"TEXCOORD_0":29
					},
					"indices":30,
					"material":3
				},
				{
					"attributes":{
						"POSITION":31,
						"NORMAL":32,
						"TEXCOORD_0":33
					},
					"indices":34,
					"material":4
				},
				{
					"attributes":{
						"POSITION":35,
						"NORMAL":36,
						"TEXCOORD_0":37
					},
					"indices":38,
					"material":5
				},
				{
					"attributes":{
						"POSITION":39,
						"NORMAL":40,
						"TEXCOORD_0":41
					},
					"indices":42,
					"material":0
				},
				{
					"attributes":{
						"POSITION":43,
						"NORMAL":44,
						"TEXCOORD_0":45
					},
					"indices":46,
					"material":2
				}
			]
		}
	],
	"accessors":[
		{
			"bufferView":0,
			"componentType":5126,
			"count":480,
			"max":[
				14.75,
				15.600000381469727,
				24.75
			],
			"min":[
				-14.75,
				-0.6000000238418579,
				-24.75
			],
			"type":"VEC3"
		},
		{
			"bufferView":1,
			"componentType":5126,
			"count":480,
			"type":"VEC3"
		},
		{
			"bufferView":2,
			"componentType":5126,
			"count":480,
			"type":"VEC2"
		},
		{
			"bufferView":3,
			"componentType":5123,
			"count":720,
			"type":"SCALAR"
		},
		{
			"bufferView":4,
			"componentType":5126,
			"count":2716,
			"max":[
				15,
				16,
				25
			],
			"min":[
				-15,
				-5.913619518280029,
				-25
			],
			"type":"VEC3"
		},
		{
			"bufferView":5,
			"componentType":5126,
			"count":2716,
			"type":"VEC3"
		},
		{
			"bufferView":6,
			"componentType":5126,
			"count":2716,
			"type":"VEC2"
		},
		{
			"bufferView":7,
			"componentType":5123,
			"count":6288,
			"type":"SCALAR"
		},
		{
			"bufferView":8,
			"componentType":5126,
			"count":395,
			"max":[
				15.658220291137695,
				17.20647430419922,
				25.626415252685547
			],
			"min":[
				-15.658220291137695,
				16,
				-25.626415252685547
			],
			"type":"VEC3"
		},
		{
			"bufferView":9,
			"componentType":5126,
			"count":395,
			"type":"VEC3"
		},
		{
			"bufferView":10,
			"componentType":5126,
			"count":395,
			"type":"VEC2"
		},
		{
			"bufferView":11,
			"componentType":5123,
			"count":1140,
			"type":"SCALAR"
		},
		{
			"bufferView":12,
			"componentType":5126,
			"count":164,
			"max":[
				15.43867015838623,
				90,
				39.368507385253906
			],
			"min":[
				-15.43867015838623,
				85.33332824707031,
				-39.368507385253906
			],
			"type":"VEC3"
		},
		{
			"bufferView":13,
			"componentType":5126,
			"count":164,
			"type":"VEC3"
		},
		{
			"bufferView":14,
			"componentType":5126,
			"count":164,
			"type":"VEC2"
		},
		{
			"bufferView":15,
			"componentType":5126,
			"count":164,
			"type":"VEC4"
		},
		{
			"bufferView":16,
			"componentType":5123,
			"count":408,
			"type":"SCALAR"
		},
		{
			"bufferView":17,
			"componentType":5126,
			"count":3360,
			"max":[
				15.300737380981445,
				85.44387817382812,
				39.323184967041016
			],
			"min":[
				-15.300737380981445,
				-1,
				-39.323184967041016
			],
			"type":"VEC3"
		},
		{
			"bufferView":18,
			"componentType":5126,
			"count":3360,
			"type":"VEC3"
		},
		{
			"bufferView":19,
			"componentType":5126,
			"count":3360,
			"type":"VEC2"
		},
		{
			"bufferView":20,
			"componentType":5126,
			"count":3360,
			"type":"VEC4"
		},
		{
			"bufferView":21,
			"componentType":5123,
			"count":6336,
			"type":"SCALAR"
		},
		{
			"bufferView":22,
			"componentType":5126,
			"count":576,
			"max":[
				15,
				85.33332824707031,
				39
			],
			"min":[
				-15,
				3.666666030883789,
				-39
			],
			"type":"VEC3"
		},
		{
			"bufferView":23,
			"componentType":5126,
			"count":576,
			"type":"VEC3"
		},
		{
			"bufferView":24,
			"componentType":5126,
			"count":576,
			"type":"VEC2"
		},
		{
			"bufferView":25,
			"componentType":5126,
			"count":576,
			"type":"VEC4"
		},
		{
			"bufferView":26,
			"componentType":5123,
			"count":864,
			"type":"SCALAR"
		},
		{
			"bufferView":27,
			"componentType":5126,
			"count":8578,
			"max":[
				19.667770385742188,
				157.96124267578125,
				19.64535140991211
			],
			"min":[
				-20.2530517578125,
				-1.5,
				-22.6189022064209
			],
			"type":"VEC3"
		},
		{
			"bufferView":28,
			"componentType":5126,
			"count":8578,
			"type":"VEC3"
		},
		{
			"bufferView":29,
			"componentType":5126,
			"count":8578,
			"type":"VEC2"
		},
		{
			"bufferView":30,
			"componentType":5123,
			"count":18228,
			"type":"SCALAR"
		},
		{
			"bufferView":31,
			"componentType":5126,
			"count":56,
			"max":[
				1,
				193.14910888671875,
				1
			],
			"min":[
				-1,
				140.13101196289062,
				-1
			],
			"type":"VEC3"
		},
		{
			"bufferView":32,
			"componentType":5126,
			"count":56,
			"type":"VEC3"
		},
		{
			"bufferView":33,
			"componentType":5126,
			"count":56,
			"type":"VEC2"
		},
		{
			"bufferView":34,
			"componentType":5123,
			"count":84,
			"type":"SCALAR"
		},
		{
			"bufferView":35,
			"componentType":5126,
			"count":32,
			"max":[
				0.47121310234069824,
				178.8013916015625,
				0.47121310234069824
			],
			"min":[
				-0.47121310234069824,
				157.96124267578125,
				-0.47121310234069824
			],
			"type":"VEC3"
		},
		{
			"bufferView":36,
			"componentType":5126,
			"count":32,
			"type":"VEC3"
		},
		{
			"bufferView":37,
			"componentType":5126,
			"count":32,
			"type":"VEC2"
		},
		{
			"bufferView":38,
			"componentType":5123,
			"count":48,
			"type":"SCALAR"
		},
		{
			"bufferView":39,
			"componentType":5126,
			"count":136,
			"max":[
				20.100000381469727,
				129.2118377685547,
				20.100000381469727
			],
			"min":[
				-20.2530517578125,
				0,
				-22.6189022064209
			],
			"type":"VEC3"
		},
		{
			"bufferView":40,
			"componentType":5126,
			"count":136,
			"type":"VEC3"
		},
		{
			"bufferView":41,
			"componentType":5126,
			"count":136,
			"type":"VEC2"
		},
		{
			"bufferView":42,
			"componentType":5123,
			"count":204,
			"type":"SCALAR"
		},
		{
			"bufferView":43,
			"componentType":5126,
			"count":214,
			"max":[
				20.44036865234375,
				130.33023071289062,
				20.463281631469727
			],
			"min":[
				-20.59722137451172,
				128.8048095703125,
				-22.982168197631836
			],
			"type":"VEC3"
		},
		{
			"bufferView":44,
			"componentType":5126,
			"count":214,
			"type":"VEC3"
		},
		{
			"bufferView":45,
			"componentType":5126,
			"count":214,
			"type":"VEC2"
		},
		{
			"bufferView":46,
			"componentType":5123,
			"count":456,
			"type":"SCALAR"
		}
	],
	"bufferViews":[
		{
			"buffer":0,
			"byteLength":5760,
			"byteOffset":0,
			"target":34962
		},
		{
			"buffer":0,
			"byteLength":5760,
			"byteOffset":5760,
			"target":34962
		},
		{
			"buffer":0,
			"byteLength":3840,
			"byteOffset":11520,
			"target":34962
		},
		{
			"buffer":0,
			"byteLength":1440,
			"byteOffset":15360,
			"target":34963
		},
		{
			"buffer":0,
			"byteLength":32592,
			"byteOffset":16800,
			"target":34962
		},
		{
			"buffer":0,
			"byteLength":32592,
			"byteOffset":49392,
			"target":34962
		},
		{
			"buffer":0,
			"byteLength":21728,
			"byteOffset":81984,
			"target":34962
		},
		{
			"buffer":0,
			"byteLength":12576,
			"byteOffset":103712,
			"target":34963
		},
		{
			"buffer":0,
			"byteLength":4740,
			"byteOffset":116288,
			"target":34962
		},
		{
			"buffer":0,
			"byteLength":4740,
			"byteOffset":121028,
			"target":34962
		},
		{
			"buffer":0,
			"byteLength":3160,
			"byteOffset":125768,
			"target":34962
		},
		{
			"buffer":0,
			"byteLength":2280,
			"byteOffset":128928,
			"target":34963
		},
		{
			"buffer":0,
			"byteLength":1968,
			"byteOffset":131208,
			"target":34962
		},
		{
			"buffer":0,
			"byteLength":1968,
			"byteOffset":133176,
			"target":34962
		},
		{
			"buffer":0,
			"byteLength":1312,
			"byteOffset":135144,
			"target":34962
		},
		{
			"buffer":0,
			"byteLength":2624,
			"byteOffset":136456,
			"target":34962
		},
		{
			"buffer":0,
			"byteLength":816,
			"byteOffset":139080,
			"target":34963
		},
		{
			"buffer":0,
			"byteLength":40320,
			"byteOffset":139896,
			"target":34962
		},
		{
			"buffer":0,
			"byteLength":40320,
			"byteOffset":180216,
			"target":34962
		},
		{
			"buffer":0,
			"byteLength":26880,
			"byteOffset":220536,
			"target":34962
		},
		{
			"buffer":0,
			"byteLength":53760,
			"byteOffset":247416,
			"target":34962
		},
		{
			"buffer":0,
			"byteLength":12672,
			"byteOffset":301176,
			"target":34963
		},
		{
			"buffer":0,
			"byteLength":6912,
			"byteOffset":313848,
			"target":34962
		},
		{
			"buffer":0,
			"byteLength":6912,
			"byteOffset":320760,
			"target":34962
		},
		{
			"buffer":0,
			"byteLength":4608,
			"byteOffset":327672,
			"target":34962
		},
		{
			"buffer":0,
			"byteLength":9216,
			"byteOffset":332280,
			"target":34962
		},
		{
			"buffer":0,
			"byteLength":1728,
			"byteOffset":341496,
			"target":34963
		},
		{
			"buffer":0,
			"byteLength":102936,
			"byteOffset":343224,
			"target":34962
		},
		{
			"buffer":0,
			"byteLength":102936,
			"byteOffset":446160,
			"target":34962
		},
		{
			"buffer":0,
			"byteLength":68624,
			"byteOffset":549096,
			"target":34962
		},
		{
			"buffer":0,
			"byteLength":36456,
			"byteOffset":617720,
			"target":34963
		},
		{
			"buffer":0,
			"byteLength":672,
			"byteOffset":654176,
			"target":34962
		},
		{
			"buffer":0,
			"byteLength":672,
			"byteOffset":654848,
			"target":34962
		},
		{
			"buffer":0,
			"byteLength":448,
			"byteOffset":655520,
			"target":34962
		},
		{
			"buffer":0,
			"byteLength":168,
			"byteOffset":655968,
			"target":34963
		},
		{
			"buffer":0,
			"byteLength":384,
			"byteOffset":656136,
			"target":34962
		},
		{
			"buffer":0,
			"byteLength":384,
			"byteOffset":656520,
			"target":34962
		},
		{
			"buffer":0,
			"byteLength":256,
			"byteOffset":656904,
			"target":34962
		},
		{
			"buffer":0,
			"byteLength":96,
			"byteOffset":657160,
			"target":34963
		},
		{
			"buffer":0,
			"byteLength":1632,
			"byteOffset":657256,
			"target":34962
		},
		{
			"buffer":0,
			"byteLength":1632,
			"byteOffset":658888,
			"target":34962
		},
		{
			"buffer":0,
			"byteLength":1088,
			"byteOffset":660520,
			"target":34962
		},
		{
			"buffer":0,
			"byteLength":408,
			"byteOffset":661608,
			"target":34963
		},
		{
			"buffer":0,
			"byteLength":2568,
			"byteOffset":662016,
			"target":34962
		},
		{
			"buffer":0,
			"byteLength":2568,
			"byteOffset":664584,
			"target":34962
		},
		{
			"buffer":0,
			"byteLength":1712,
			"byteOffset":667152,
			"target":34962
		},
		{
			"buffer":0,
			"byteLength":912,
			"byteOffset":668864,
			"target":34963
		}
	],
	"buffers":[
		{
			"byteLength":669776,
			"uri":"office5-19ba861f8ac00d930ae77d4d3ee13bc4.bin"
		}
	]
}
