{
	"asset":{
		"generator":"Khronos glTF Blender I/O v4.2.69",
		"version":"2.0"
	},
	"scene":0,
	"scenes":[
		{
			"name":"Scene",
			"nodes":[
				0,
				1
			]
		}
	],
	"nodes":[
		{
			"mesh":0,
			"name":"Cube"
		},
		{
			"mesh":1,
			"name":"Cube_Cube.001",
			"rotation":[
				0.7071068286895752,
				0,
				0,
				0.7071068286895752
			]
		}
	],
	"materials":[
		{
			"doubleSided":true,
			"name":"Pflasterstein",
			"pbrMetallicRoughness":{
				"baseColorFactor":[
					0.09850499778985977,
					0.09850499778985977,
					0.09850499778985977,
					1
				],
				"metallicFactor":0,
				"roughnessFactor":0.5
			}
		},
		{
			"doubleSided":true,
			"name":"Side",
			"pbrMetallicRoughness":{
				"baseColorFactor":[
					0.6151779890060425,
					0.6151779890060425,
					0.6151779890060425,
					1
				],
				"metallicFactor":0,
				"roughnessFactor":0.5
			}
		},
		{
			"doubleSided":true,
			"name":"Stripe",
			"pbrMetallicRoughness":{
				"baseColorFactor":[
					0.5490189790725708,
					0.6266630291938782,
					0,
					1
				],
				"metallicFactor":0,
				"roughnessFactor":0.5
			}
		}
	],
	"meshes":[
		{
			"name":"Cube.001",
			"primitives":[
				{
					"attributes":{
						"POSITION":0,
						"NORMAL":1,
						"TEXCOORD_0":2,
						"TANGENT":3
					},
					"indices":4,
					"material":0
				},
				{
					"attributes":{
						"POSITION":5,
						"NORMAL":6,
						"TEXCOORD_0":7,
						"TANGENT":8
					},
					"indices":9,
					"material":1
				}
			]
		},
		{
			"name":"Cube_Cube.001",
			"primitives":[
				{
					"attributes":{
						"POSITION":10,
						"NORMAL":11,
						"TEXCOORD_0":12,
						"TANGENT":13
					},
					"indices":14,
					"material":2
				},
				{
					"attributes":{
						"POSITION":15,
						"NORMAL":16,
						"TEXCOORD_0":17,
						"TANGENT":18
					},
					"indices":19,
					"material":0
				},
				{
					"attributes":{
						"POSITION":20,
						"NORMAL":21,
						"TEXCOORD_0":22,
						"TANGENT":23
					},
					"indices":24,
					"material":1
				}
			]
		}
	],
	"accessors":[
		{
			"bufferView":0,
			"componentType":5126,
			"count":16,
			"max":[
				5.2391557693481445,
				1.2035276889801025,
				4.426579475402832
			],
			"min":[
				-5.2391557693481445,
				1.2035276889801025,
				-4.426579475402832
			],
			"type":"VEC3"
		},
		{
			"bufferView":1,
			"componentType":5126,
			"count":16,
			"type":"VEC3"
		},
		{
			"bufferView":2,
			"componentType":5126,
			"count":16,
			"type":"VEC2"
		},
		{
			"bufferView":3,
			"componentType":5126,
			"count":16,
			"type":"VEC4"
		},
		{
			"bufferView":4,
			"componentType":5123,
			"count":24,
			"type":"SCALAR"
		},
		{
			"bufferView":5,
			"componentType":5126,
			"count":32,
			"max":[
				5.2391557693481445,
				1.2035276889801025,
				4.426579475402832
			],
			"min":[
				-5.2391557693481445,
				-1,
				-4.426579475402832
			],
			"type":"VEC3"
		},
		{
			"bufferView":6,
			"componentType":5126,
			"count":32,
			"type":"VEC3"
		},
		{
			"bufferView":7,
			"componentType":5126,
			"count":32,
			"type":"VEC2"
		},
		{
			"bufferView":8,
			"componentType":5126,
			"count":32,
			"type":"VEC4"
		},
		{
			"bufferView":9,
			"componentType":5123,
			"count":48,
			"type":"SCALAR"
		},
		{
			"bufferView":10,
			"componentType":5126,
			"count":8,
			"max":[
				5.25,
				3.668731927871704,
				-1.1929630041122437
			],
			"min":[
				-5.25,
				-3.668731927871704,
				-1.1929630041122437
			],
			"type":"VEC3"
		},
		{
			"bufferView":11,
			"componentType":5126,
			"count":8,
			"type":"VEC3"
		},
		{
			"bufferView":12,
			"componentType":5126,
			"count":8,
			"type":"VEC2"
		},
		{
			"bufferView":13,
			"componentType":5126,
			"count":8,
			"type":"VEC4"
		},
		{
			"bufferView":14,
			"componentType":5123,
			"count":12,
			"type":"SCALAR"
		},
		{
			"bufferView":15,
			"componentType":5126,
			"count":20,
			"max":[
				5.25,
				4.379676818847656,
				-1.151458978652954
			],
			"min":[
				-5.25,
				-4.379676818847656,
				-1.1929630041122437
			],
			"type":"VEC3"
		},
		{
			"bufferView":16,
			"componentType":5126,
			"count":20,
			"type":"VEC3"
		},
		{
			"bufferView":17,
			"componentType":5126,
			"count":20,
			"type":"VEC2"
		},
		{
			"bufferView":18,
			"componentType":5126,
			"count":20,
			"type":"VEC4"
		},
		{
			"bufferView":19,
			"componentType":5123,
			"count":30,
			"type":"SCALAR"
		},
		{
			"bufferView":20,
			"componentType":5126,
			"count":88,
			"max":[
				5.25,
				4.379676818847656,
				0.6070370078086853
			],
			"min":[
				-5.25,
				-4.379676818847656,
				-1.1929630041122437
			],
			"type":"VEC3"
		},
		{
			"bufferView":21,
			"componentType":5126,
			"count":88,
			"type":"VEC3"
		},
		{
			"bufferView":22,
			"componentType":5126,
			"count":88,
			"type":"VEC2"
		},
		{
			"bufferView":23,
			"componentType":5126,
			"count":88,
			"type":"VEC4"
		},
		{
			"bufferView":24,
			"componentType":5123,
			"count":288,
			"type":"SCALAR"
		}
	],
	"bufferViews":[
		{
			"buffer":0,
			"byteLength":192,
			"byteOffset":0,
			"target":34962
		},
		{
			"buffer":0,
			"byteLength":192,
			"byteOffset":192,
			"target":34962
		},
		{
			"buffer":0,
			"byteLength":128,
			"byteOffset":384,
			"target":34962
		},
		{
			"buffer":0,
			"byteLength":256,
			"byteOffset":512,
			"target":34962
		},
		{
			"buffer":0,
			"byteLength":48,
			"byteOffset":768,
			"target":34963
		},
		{
			"buffer":0,
			"byteLength":384,
			"byteOffset":816,
			"target":34962
		},
		{
			"buffer":0,
			"byteLength":384,
			"byteOffset":1200,
			"target":34962
		},
		{
			"buffer":0,
			"byteLength":256,
			"byteOffset":1584,
			"target":34962
		},
		{
			"buffer":0,
			"byteLength":512,
			"byteOffset":1840,
			"target":34962
		},
		{
			"buffer":0,
			"byteLength":96,
			"byteOffset":2352,
			"target":34963
		},
		{
			"buffer":0,
			"byteLength":96,
			"byteOffset":2448,
			"target":34962
		},
		{
			"buffer":0,
			"byteLength":96,
			"byteOffset":2544,
			"target":34962
		},
		{
			"buffer":0,
			"byteLength":64,
			"byteOffset":2640,
			"target":34962
		},
		{
			"buffer":0,
			"byteLength":128,
			"byteOffset":2704,
			"target":34962
		},
		{
			"buffer":0,
			"byteLength":24,
			"byteOffset":2832,
			"target":34963
		},
		{
			"buffer":0,
			"byteLength":240,
			"byteOffset":2856,
			"target":34962
		},
		{
			"buffer":0,
			"byteLength":240,
			"byteOffset":3096,
			"target":34962
		},
		{
			"buffer":0,
			"byteLength":160,
			"byteOffset":3336,
			"target":34962
		},
		{
			"buffer":0,
			"byteLength":320,
			"byteOffset":3496,
			"target":34962
		},
		{
			"buffer":0,
			"byteLength":60,
			"byteOffset":3816,
			"target":34963
		},
		{
			"buffer":0,
			"byteLength":1056,
			"byteOffset":3876,
			"target":34962
		},
		{
			"buffer":0,
			"byteLength":1056,
			"byteOffset":4932,
			"target":34962
		},
		{
			"buffer":0,
			"byteLength":704,
			"byteOffset":5988,
			"target":34962
		},
		{
			"buffer":0,
			"byteLength":1408,
			"byteOffset":6692,
			"target":34962
		},
		{
			"buffer":0,
			"byteLength":576,
			"byteOffset":8100,
			"target":34963
		}
	],
	"buffers":[
		{
			"byteLength":8676,
			"uri":"platform_cube-eedc66b07d15b0970ff396ae35c035c7.bin"
		}
	]
}
