{
	"asset":{
		"generator":"Khronos glTF Blender I/O v4.2.69",
		"version":"2.0"
	},
	"scene":0,
	"scenes":[
		{
			"name":"Scene",
			"nodes":[
				0,
				1,
				2
			]
		}
	],
	"nodes":[
		{
			"mesh":0,
			"name":"Light_double"
		},
		{
			"mesh":1,
			"name":"Cube_Cube.001",
			"rotation":[
				0.7071068286895752,
				0,
				0,
				0.7071068286895752
			]
		},
		{
			"mesh":2,
			"name":"Light_single"
		}
	],
	"materials":[
		{
			"doubleSided":true,
			"name":"Beton",
			"pbrMetallicRoughness":{
				"baseColorFactor":[
					0.1788620799779892,
					0.1788620799779892,
					0.1788620799779892,
					1
				],
				"metallicFactor":0,
				"roughnessFactor":0.5
			}
		},
		{
			"doubleSided":true,
			"name":"Plastic",
			"pbrMetallicRoughness":{
				"baseColorFactor":[
					0.800000011920929,
					0.800000011920929,
					0.800000011920929,
					1
				],
				"metallicFactor":0,
				"roughnessFactor":0.5
			}
		},
		{
			"doubleSided":true,
			"name":"LED",
			"pbrMetallicRoughness":{
				"baseColorFactor":[
					0.46614721417427063,
					0.8000000715255737,
					0.7771310806274414,
					1
				],
				"metallicFactor":0,
				"roughnessFactor":0.5
			}
		},
		{
			"doubleSided":true,
			"name":"Stripe",
			"pbrMetallicRoughness":{
				"baseColorFactor":[
					0.5490189790725708,
					0.6266630291938782,
					0,
					1
				],
				"metallicFactor":0,
				"roughnessFactor":0.5
			}
		},
		{
			"doubleSided":true,
			"name":"Pflasterstein",
			"pbrMetallicRoughness":{
				"baseColorFactor":[
					0.09850499778985977,
					0.09850499778985977,
					0.09850499778985977,
					1
				],
				"metallicFactor":0,
				"roughnessFactor":0.5
			}
		},
		{
			"doubleSided":true,
			"name":"Side",
			"pbrMetallicRoughness":{
				"baseColorFactor":[
					0.6151779890060425,
					0.6151779890060425,
					0.6151779890060425,
					1
				],
				"metallicFactor":0,
				"roughnessFactor":0.5
			}
		}
	],
	"meshes":[
		{
			"name":"Cube.001",
			"primitives":[
				{
					"attributes":{
						"POSITION":0,
						"NORMAL":1,
						"TEXCOORD_0":2,
						"TANGENT":3
					},
					"indices":4,
					"material":0
				},
				{
					"attributes":{
						"POSITION":5,
						"NORMAL":6,
						"TEXCOORD_0":7,
						"TANGENT":8
					},
					"indices":9,
					"material":1
				},
				{
					"attributes":{
						"POSITION":10,
						"NORMAL":11,
						"TEXCOORD_0":12,
						"TANGENT":13
					},
					"indices":14,
					"material":2
				}
			]
		},
		{
			"name":"Cube_Cube.001",
			"primitives":[
				{
					"attributes":{
						"POSITION":15,
						"NORMAL":16,
						"TEXCOORD_0":17,
						"TANGENT":18
					},
					"indices":19,
					"material":3
				},
				{
					"attributes":{
						"POSITION":20,
						"NORMAL":21,
						"TEXCOORD_0":22,
						"TANGENT":23
					},
					"indices":24,
					"material":4
				},
				{
					"attributes":{
						"POSITION":25,
						"NORMAL":26,
						"TEXCOORD_0":27,
						"TANGENT":28
					},
					"indices":29,
					"material":5
				}
			]
		},
		{
			"name":"Cube.002",
			"primitives":[
				{
					"attributes":{
						"POSITION":30,
						"NORMAL":31,
						"TEXCOORD_0":32,
						"TANGENT":33
					},
					"indices":34,
					"material":0
				},
				{
					"attributes":{
						"POSITION":35,
						"NORMAL":36,
						"TEXCOORD_0":37,
						"TANGENT":38
					},
					"indices":39,
					"material":1
				},
				{
					"attributes":{
						"POSITION":40,
						"NORMAL":41,
						"TEXCOORD_0":42,
						"TANGENT":43
					},
					"indices":44,
					"material":2
				}
			]
		}
	],
	"accessors":[
		{
			"bufferView":0,
			"componentType":5126,
			"count":48,
			"max":[
				0.10501384735107422,
				9.567317962646484,
				0.10336977988481522
			],
			"min":[
				-0.10501384735107422,
				-1.26694917678833,
				-0.10336977988481522
			],
			"type":"VEC3"
		},
		{
			"bufferView":1,
			"componentType":5126,
			"count":48,
			"type":"VEC3"
		},
		{
			"bufferView":2,
			"componentType":5126,
			"count":48,
			"type":"VEC2"
		},
		{
			"bufferView":3,
			"componentType":5126,
			"count":48,
			"type":"VEC4"
		},
		{
			"bufferView":4,
			"componentType":5123,
			"count":72,
			"type":"SCALAR"
		},
		{
			"bufferView":5,
			"componentType":5126,
			"count":112,
			"max":[
				0.20683661103248596,
				9.725870132446289,
				0.5039387345314026
			],
			"min":[
				-0.20683661103248596,
				9.545051574707031,
				-0.5039387345314026
			],
			"type":"VEC3"
		},
		{
			"bufferView":6,
			"componentType":5126,
			"count":112,
			"type":"VEC3"
		},
		{
			"bufferView":7,
			"componentType":5126,
			"count":112,
			"type":"VEC2"
		},
		{
			"bufferView":8,
			"componentType":5126,
			"count":112,
			"type":"VEC4"
		},
		{
			"bufferView":9,
			"componentType":5123,
			"count":168,
			"type":"SCALAR"
		},
		{
			"bufferView":10,
			"componentType":5126,
			"count":64,
			"max":[
				0.17907650768756866,
				9.660822868347168,
				0.4885198473930359
			],
			"min":[
				-0.17907650768756866,
				9.510985374450684,
				-0.4885198473930359
			],
			"type":"VEC3"
		},
		{
			"bufferView":11,
			"componentType":5126,
			"count":64,
			"type":"VEC3"
		},
		{
			"bufferView":12,
			"componentType":5126,
			"count":64,
			"type":"VEC2"
		},
		{
			"bufferView":13,
			"componentType":5126,
			"count":64,
			"type":"VEC4"
		},
		{
			"bufferView":14,
			"componentType":5123,
			"count":96,
			"type":"SCALAR"
		},
		{
			"bufferView":15,
			"componentType":5126,
			"count":8,
			"max":[
				5.25,
				3.668731927871704,
				-1.1929630041122437
			],
			"min":[
				-5.25,
				-3.668731927871704,
				-1.1929630041122437
			],
			"type":"VEC3"
		},
		{
			"bufferView":16,
			"componentType":5126,
			"count":8,
			"type":"VEC3"
		},
		{
			"bufferView":17,
			"componentType":5126,
			"count":8,
			"type":"VEC2"
		},
		{
			"bufferView":18,
			"componentType":5126,
			"count":8,
			"type":"VEC4"
		},
		{
			"bufferView":19,
			"componentType":5123,
			"count":12,
			"type":"SCALAR"
		},
		{
			"bufferView":20,
			"componentType":5126,
			"count":20,
			"max":[
				5.25,
				4.379676818847656,
				-1.151458978652954
			],
			"min":[
				-5.25,
				-4.379676818847656,
				-1.1929630041122437
			],
			"type":"VEC3"
		},
		{
			"bufferView":21,
			"componentType":5126,
			"count":20,
			"type":"VEC3"
		},
		{
			"bufferView":22,
			"componentType":5126,
			"count":20,
			"type":"VEC2"
		},
		{
			"bufferView":23,
			"componentType":5126,
			"count":20,
			"type":"VEC4"
		},
		{
			"bufferView":24,
			"componentType":5123,
			"count":30,
			"type":"SCALAR"
		},
		{
			"bufferView":25,
			"componentType":5126,
			"count":88,
			"max":[
				5.25,
				4.379676818847656,
				0.6070370078086853
			],
			"min":[
				-5.25,
				-4.379676818847656,
				-1.1929630041122437
			],
			"type":"VEC3"
		},
		{
			"bufferView":26,
			"componentType":5126,
			"count":88,
			"type":"VEC3"
		},
		{
			"bufferView":27,
			"componentType":5126,
			"count":88,
			"type":"VEC2"
		},
		{
			"bufferView":28,
			"componentType":5126,
			"count":88,
			"type":"VEC4"
		},
		{
			"bufferView":29,
			"componentType":5123,
			"count":288,
			"type":"SCALAR"
		},
		{
			"bufferView":30,
			"componentType":5126,
			"count":41,
			"max":[
				0.10501384735107422,
				9.567317962646484,
				0.10336977988481522
			],
			"min":[
				-0.10501384735107422,
				-1.26694917678833,
				-0.10336977988481522
			],
			"type":"VEC3"
		},
		{
			"bufferView":31,
			"componentType":5126,
			"count":41,
			"type":"VEC3"
		},
		{
			"bufferView":32,
			"componentType":5126,
			"count":41,
			"type":"VEC2"
		},
		{
			"bufferView":33,
			"componentType":5126,
			"count":41,
			"type":"VEC4"
		},
		{
			"bufferView":34,
			"componentType":5123,
			"count":72,
			"type":"SCALAR"
		},
		{
			"bufferView":35,
			"componentType":5126,
			"count":68,
			"max":[
				0.20683661103248596,
				9.725870132446289,
				0.15340231359004974
			],
			"min":[
				-0.20683661103248596,
				9.545051574707031,
				-0.5039387345314026
			],
			"type":"VEC3"
		},
		{
			"bufferView":36,
			"componentType":5126,
			"count":68,
			"type":"VEC3"
		},
		{
			"bufferView":37,
			"componentType":5126,
			"count":68,
			"type":"VEC2"
		},
		{
			"bufferView":38,
			"componentType":5126,
			"count":68,
			"type":"VEC4"
		},
		{
			"bufferView":39,
			"componentType":5123,
			"count":132,
			"type":"SCALAR"
		},
		{
			"bufferView":40,
			"componentType":5126,
			"count":26,
			"max":[
				0.17907650768756866,
				9.660822868347168,
				-0.18003594875335693
			],
			"min":[
				-0.17907650768756866,
				9.510985374450684,
				-0.4885198473930359
			],
			"type":"VEC3"
		},
		{
			"bufferView":41,
			"componentType":5126,
			"count":26,
			"type":"VEC3"
		},
		{
			"bufferView":42,
			"componentType":5126,
			"count":26,
			"type":"VEC2"
		},
		{
			"bufferView":43,
			"componentType":5126,
			"count":26,
			"type":"VEC4"
		},
		{
			"bufferView":44,
			"componentType":5123,
			"count":48,
			"type":"SCALAR"
		}
	],
	"bufferViews":[
		{
			"buffer":0,
			"byteLength":576,
			"byteOffset":0,
			"target":34962
		},
		{
			"buffer":0,
			"byteLength":576,
			"byteOffset":576,
			"target":34962
		},
		{
			"buffer":0,
			"byteLength":384,
			"byteOffset":1152,
			"target":34962
		},
		{
			"buffer":0,
			"byteLength":768,
			"byteOffset":1536,
			"target":34962
		},
		{
			"buffer":0,
			"byteLength":144,
			"byteOffset":2304,
			"target":34963
		},
		{
			"buffer":0,
			"byteLength":1344,
			"byteOffset":2448,
			"target":34962
		},
		{
			"buffer":0,
			"byteLength":1344,
			"byteOffset":3792,
			"target":34962
		},
		{
			"buffer":0,
			"byteLength":896,
			"byteOffset":5136,
			"target":34962
		},
		{
			"buffer":0,
			"byteLength":1792,
			"byteOffset":6032,
			"target":34962
		},
		{
			"buffer":0,
			"byteLength":336,
			"byteOffset":7824,
			"target":34963
		},
		{
			"buffer":0,
			"byteLength":768,
			"byteOffset":8160,
			"target":34962
		},
		{
			"buffer":0,
			"byteLength":768,
			"byteOffset":8928,
			"target":34962
		},
		{
			"buffer":0,
			"byteLength":512,
			"byteOffset":9696,
			"target":34962
		},
		{
			"buffer":0,
			"byteLength":1024,
			"byteOffset":10208,
			"target":34962
		},
		{
			"buffer":0,
			"byteLength":192,
			"byteOffset":11232,
			"target":34963
		},
		{
			"buffer":0,
			"byteLength":96,
			"byteOffset":11424,
			"target":34962
		},
		{
			"buffer":0,
			"byteLength":96,
			"byteOffset":11520,
			"target":34962
		},
		{
			"buffer":0,
			"byteLength":64,
			"byteOffset":11616,
			"target":34962
		},
		{
			"buffer":0,
			"byteLength":128,
			"byteOffset":11680,
			"target":34962
		},
		{
			"buffer":0,
			"byteLength":24,
			"byteOffset":11808,
			"target":34963
		},
		{
			"buffer":0,
			"byteLength":240,
			"byteOffset":11832,
			"target":34962
		},
		{
			"buffer":0,
			"byteLength":240,
			"byteOffset":12072,
			"target":34962
		},
		{
			"buffer":0,
			"byteLength":160,
			"byteOffset":12312,
			"target":34962
		},
		{
			"buffer":0,
			"byteLength":320,
			"byteOffset":12472,
			"target":34962
		},
		{
			"buffer":0,
			"byteLength":60,
			"byteOffset":12792,
			"target":34963
		},
		{
			"buffer":0,
			"byteLength":1056,
			"byteOffset":12852,
			"target":34962
		},
		{
			"buffer":0,
			"byteLength":1056,
			"byteOffset":13908,
			"target":34962
		},
		{
			"buffer":0,
			"byteLength":704,
			"byteOffset":14964,
			"target":34962
		},
		{
			"buffer":0,
			"byteLength":1408,
			"byteOffset":15668,
			"target":34962
		},
		{
			"buffer":0,
			"byteLength":576,
			"byteOffset":17076,
			"target":34963
		},
		{
			"buffer":0,
			"byteLength":492,
			"byteOffset":17652,
			"target":34962
		},
		{
			"buffer":0,
			"byteLength":492,
			"byteOffset":18144,
			"target":34962
		},
		{
			"buffer":0,
			"byteLength":328,
			"byteOffset":18636,
			"target":34962
		},
		{
			"buffer":0,
			"byteLength":656,
			"byteOffset":18964,
			"target":34962
		},
		{
			"buffer":0,
			"byteLength":144,
			"byteOffset":19620,
			"target":34963
		},
		{
			"buffer":0,
			"byteLength":816,
			"byteOffset":19764,
			"target":34962
		},
		{
			"buffer":0,
			"byteLength":816,
			"byteOffset":20580,
			"target":34962
		},
		{
			"buffer":0,
			"byteLength":544,
			"byteOffset":21396,
			"target":34962
		},
		{
			"buffer":0,
			"byteLength":1088,
			"byteOffset":21940,
			"target":34962
		},
		{
			"buffer":0,
			"byteLength":264,
			"byteOffset":23028,
			"target":34963
		},
		{
			"buffer":0,
			"byteLength":312,
			"byteOffset":23292,
			"target":34962
		},
		{
			"buffer":0,
			"byteLength":312,
			"byteOffset":23604,
			"target":34962
		},
		{
			"buffer":0,
			"byteLength":208,
			"byteOffset":23916,
			"target":34962
		},
		{
			"buffer":0,
			"byteLength":416,
			"byteOffset":24124,
			"target":34962
		},
		{
			"buffer":0,
			"byteLength":96,
			"byteOffset":24540,
			"target":34963
		}
	],
	"buffers":[
		{
			"byteLength":24636,
			"uri":"platform_light_1-486d86965af205b25be5af95959687f7.bin"
		}
	]
}
