{
	"asset":{
		"generator":"Khronos glTF Blender I/O v4.2.69",
		"version":"2.0"
	},
	"scene":0,
	"scenes":[
		{
			"name":"Scene",
			"nodes":[
				0,
				1
			]
		}
	],
	"nodes":[
		{
			"mesh":0,
			"name":"Cube"
		},
		{
			"mesh":1,
			"name":"Cylinder.001",
			"scale":[
				0.6671519875526428,
				0.6671519875526428,
				0.6671519875526428
			],
			"translation":[
				-4.006042003631592,
				0.7863756418228149,
				-1.4796619415283203
			]
		}
	],
	"materials":[
		{
			"doubleSided":true,
			"name":"Stripe",
			"pbrMetallicRoughness":{
				"baseColorFactor":[
					0.5490185022354126,
					0.6266627311706543,
					0,
					1
				],
				"metallicFactor":0,
				"roughnessFactor":0.5
			}
		},
		{
			"doubleSided":true,
			"name":"Pflasterstein",
			"pbrMetallicRoughness":{
				"baseColorFactor":[
					0.09850451350212097,
					0.09850451350212097,
					0.09850451350212097,
					1
				],
				"metallicFactor":0,
				"roughnessFactor":0.5
			}
		},
		{
			"doubleSided":true,
			"name":"Side",
			"pbrMetallicRoughness":{
				"baseColorFactor":[
					0.6151777505874634,
					0.6151777505874634,
					0.6151777505874634,
					1
				],
				"metallicFactor":0,
				"roughnessFactor":0.5
			}
		},
		{
			"doubleSided":true,
			"name":"Metal",
			"pbrMetallicRoughness":{
				"baseColorFactor":[
					0.334323912858963,
					0.334323912858963,
					0.334323912858963,
					1
				],
				"metallicFactor":0,
				"roughnessFactor":0.5
			}
		}
	],
	"meshes":[
		{
			"name":"Cube.001",
			"primitives":[
				{
					"attributes":{
						"POSITION":0,
						"NORMAL":1,
						"TEXCOORD_0":2,
						"TANGENT":3
					},
					"indices":4,
					"material":0
				},
				{
					"attributes":{
						"POSITION":5,
						"NORMAL":6,
						"TEXCOORD_0":7,
						"TANGENT":8
					},
					"indices":9,
					"material":1
				},
				{
					"attributes":{
						"POSITION":10,
						"NORMAL":11,
						"TEXCOORD_0":12,
						"TANGENT":13
					},
					"indices":14,
					"material":2
				}
			]
		},
		{
			"name":"Cylinder.001",
			"primitives":[
				{
					"attributes":{
						"POSITION":15,
						"NORMAL":16,
						"TEXCOORD_0":17
					},
					"indices":18,
					"material":3
				}
			]
		}
	],
	"accessors":[
		{
			"bufferView":0,
			"componentType":5126,
			"count":4,
			"max":[
				5.25,
				0.5362829566001892,
				1.1558893918991089
			],
			"min":[
				-5.25,
				0.5362829566001892,
				0.9981065988540649
			],
			"type":"VEC3"
		},
		{
			"bufferView":1,
			"componentType":5126,
			"count":4,
			"type":"VEC3"
		},
		{
			"bufferView":2,
			"componentType":5126,
			"count":4,
			"type":"VEC2"
		},
		{
			"bufferView":3,
			"componentType":5126,
			"count":4,
			"type":"VEC4"
		},
		{
			"bufferView":4,
			"componentType":5123,
			"count":6,
			"type":"SCALAR"
		},
		{
			"bufferView":5,
			"componentType":5126,
			"count":8,
			"max":[
				5.25,
				0.5362829566001892,
				1.8935645818710327
			],
			"min":[
				-5.25,
				0.5362829566001892,
				-1.5833178758621216
			],
			"type":"VEC3"
		},
		{
			"bufferView":6,
			"componentType":5126,
			"count":8,
			"type":"VEC3"
		},
		{
			"bufferView":7,
			"componentType":5126,
			"count":8,
			"type":"VEC2"
		},
		{
			"bufferView":8,
			"componentType":5126,
			"count":8,
			"type":"VEC4"
		},
		{
			"bufferView":9,
			"componentType":5123,
			"count":12,
			"type":"SCALAR"
		},
		{
			"bufferView":10,
			"componentType":5126,
			"count":52,
			"max":[
				5.25,
				0.5362829566001892,
				1.8935645818710327
			],
			"min":[
				-5.25,
				-1.2637169361114502,
				-1.5833178758621216
			],
			"type":"VEC3"
		},
		{
			"bufferView":11,
			"componentType":5126,
			"count":52,
			"type":"VEC3"
		},
		{
			"bufferView":12,
			"componentType":5126,
			"count":52,
			"type":"VEC2"
		},
		{
			"bufferView":13,
			"componentType":5126,
			"count":52,
			"type":"VEC4"
		},
		{
			"bufferView":14,
			"componentType":5123,
			"count":144,
			"type":"SCALAR"
		},
		{
			"bufferView":15,
			"componentType":5126,
			"count":300,
			"max":[
				13.577285766601562,
				0.672340452671051,
				0.10000000149011612
			],
			"min":[
				-1.5440216064453125,
				-0.6500000357627869,
				-0.10000000149011612
			],
			"type":"VEC3"
		},
		{
			"bufferView":16,
			"componentType":5126,
			"count":300,
			"type":"VEC3"
		},
		{
			"bufferView":17,
			"componentType":5126,
			"count":300,
			"type":"VEC2"
		},
		{
			"bufferView":18,
			"componentType":5123,
			"count":540,
			"type":"SCALAR"
		}
	],
	"bufferViews":[
		{
			"buffer":0,
			"byteLength":48,
			"byteOffset":0,
			"target":34962
		},
		{
			"buffer":0,
			"byteLength":48,
			"byteOffset":48,
			"target":34962
		},
		{
			"buffer":0,
			"byteLength":32,
			"byteOffset":96,
			"target":34962
		},
		{
			"buffer":0,
			"byteLength":64,
			"byteOffset":128,
			"target":34962
		},
		{
			"buffer":0,
			"byteLength":12,
			"byteOffset":192,
			"target":34963
		},
		{
			"buffer":0,
			"byteLength":96,
			"byteOffset":204,
			"target":34962
		},
		{
			"buffer":0,
			"byteLength":96,
			"byteOffset":300,
			"target":34962
		},
		{
			"buffer":0,
			"byteLength":64,
			"byteOffset":396,
			"target":34962
		},
		{
			"buffer":0,
			"byteLength":128,
			"byteOffset":460,
			"target":34962
		},
		{
			"buffer":0,
			"byteLength":24,
			"byteOffset":588,
			"target":34963
		},
		{
			"buffer":0,
			"byteLength":624,
			"byteOffset":612,
			"target":34962
		},
		{
			"buffer":0,
			"byteLength":624,
			"byteOffset":1236,
			"target":34962
		},
		{
			"buffer":0,
			"byteLength":416,
			"byteOffset":1860,
			"target":34962
		},
		{
			"buffer":0,
			"byteLength":832,
			"byteOffset":2276,
			"target":34962
		},
		{
			"buffer":0,
			"byteLength":288,
			"byteOffset":3108,
			"target":34963
		},
		{
			"buffer":0,
			"byteLength":3600,
			"byteOffset":3396,
			"target":34962
		},
		{
			"buffer":0,
			"byteLength":3600,
			"byteOffset":6996,
			"target":34962
		},
		{
			"buffer":0,
			"byteLength":2400,
			"byteOffset":10596,
			"target":34962
		},
		{
			"buffer":0,
			"byteLength":1080,
			"byteOffset":12996,
			"target":34963
		}
	],
	"buffers":[
		{
			"byteLength":14076,
			"uri":"Platform-637db474168f04e0d6a18538a5454414.bin"
		}
	]
}
