{
	"asset":{
		"generator":"Khronos glTF Blender I/O v4.2.69",
		"version":"2.0"
	},
	"scene":0,
	"scenes":[
		{
			"name":"Scene",
			"nodes":[
				0,
				1,
				2
			]
		}
	],
	"nodes":[
		{
			"mesh":0,
			"name":"Skizze_Oberleitungsmast_Beschriftung",
			"rotation":[
				0.7071068286895752,
				0,
				0,
				0.7071068286895752
			],
			"translation":[
				-3.8218626976013184,
				0.5,
				0
			]
		},
		{
			"mesh":1,
			"name":"Cube"
		},
		{
			"mesh":2,
			"name":"PoleRamp"
		}
	],
	"materials":[
		{
			"alphaMode":"BLEND",
			"doubleSided":true,
			"name":"Skizze_Oberleitungsmast_Beschriftung",
			"pbrMetallicRoughness":{
				"metallicFactor":0,
				"roughnessFactor":0.5
			}
		},
		{
			"doubleSided":true,
			"name":"Beton",
			"pbrMetallicRoughness":{
				"baseColorFactor":[
					0.2529434263706207,
					0.2529434263706207,
					0.2529434263706207,
					1
				],
				"metallicFactor":0,
				"roughnessFactor":0.5
			}
		},
		{
			"doubleSided":true,
			"name":"GreenMetal",
			"pbrMetallicRoughness":{
				"baseColorFactor":[
					0.009666722267866135,
					0.2395525425672531,
					0.01604270190000534,
					1
				],
				"metallicFactor":0,
				"roughnessFactor":0.5
			}
		},
		{
			"doubleSided":true,
			"name":"Metal",
			"pbrMetallicRoughness":{
				"baseColorFactor":[
					0.5925785303115845,
					0.5925785303115845,
					0.5925785303115845,
					1
				],
				"metallicFactor":0,
				"roughnessFactor":0.5
			}
		},
		{
			"doubleSided":true,
			"name":"Ceramic",
			"pbrMetallicRoughness":{
				"baseColorFactor":[
					0.3505558967590332,
					0.0791161060333252,
					0,
					1
				],
				"metallicFactor":0,
				"roughnessFactor":0.5
			}
		}
	],
	"meshes":[
		{
			"name":"Skizze_Oberleitungsmast_Beschriftung",
			"primitives":[
				{
					"attributes":{
						"POSITION":0,
						"NORMAL":1,
						"TEXCOORD_0":2,
						"TANGENT":3
					},
					"indices":4,
					"material":0
				}
			]
		},
		{
			"name":"Cube.001",
			"primitives":[
				{
					"attributes":{
						"POSITION":5,
						"NORMAL":6,
						"TEXCOORD_0":7
					},
					"indices":8,
					"material":1
				},
				{
					"attributes":{
						"POSITION":9,
						"NORMAL":10,
						"TEXCOORD_0":11
					},
					"indices":12,
					"material":2
				},
				{
					"attributes":{
						"POSITION":13,
						"NORMAL":14,
						"TEXCOORD_0":15
					},
					"indices":16,
					"material":3
				},
				{
					"attributes":{
						"POSITION":17,
						"NORMAL":18,
						"TEXCOORD_0":19
					},
					"indices":20,
					"material":4
				}
			]
		},
		{
			"name":"Cube.002",
			"primitives":[
				{
					"attributes":{
						"POSITION":21,
						"NORMAL":22,
						"TEXCOORD_0":23
					},
					"indices":24,
					"material":1
				},
				{
					"attributes":{
						"POSITION":25,
						"NORMAL":26,
						"TEXCOORD_0":27
					},
					"indices":12,
					"material":2
				},
				{
					"attributes":{
						"POSITION":28,
						"NORMAL":29,
						"TEXCOORD_0":30
					},
					"indices":16,
					"material":3
				},
				{
					"attributes":{
						"POSITION":31,
						"NORMAL":32,
						"TEXCOORD_0":33
					},
					"indices":20,
					"material":4
				}
			]
		}
	],
	"accessors":[
		{
			"bufferView":0,
			"componentType":5126,
			"count":4,
			"max":[
				4.094958782196045,
				-8.724737909915348e-08,
				0.49592888355255127
			],
			"min":[
				0.0009012222290039062,
				-1.540773411079499e-07,
				-7.5431928634643555
			],
			"type":"VEC3"
		},
		{
			"bufferView":1,
			"componentType":5126,
			"count":4,
			"type":"VEC3"
		},
		{
			"bufferView":2,
			"componentType":5126,
			"count":4,
			"type":"VEC2"
		},
		{
			"bufferView":3,
			"componentType":5126,
			"count":4,
			"type":"VEC4"
		},
		{
			"bufferView":4,
			"componentType":5123,
			"count":6,
			"type":"SCALAR"
		},
		{
			"bufferView":5,
			"componentType":5126,
			"count":20,
			"max":[
				-2.9484899044036865,
				0.5370061993598938,
				0.38154327869415283
			],
			"min":[
				-3.901376962661743,
				-0.6309366226196289,
				-0.38154321908950806
			],
			"type":"VEC3"
		},
		{
			"bufferView":6,
			"componentType":5126,
			"count":20,
			"type":"VEC3"
		},
		{
			"bufferView":7,
			"componentType":5126,
			"count":20,
			"type":"VEC2"
		},
		{
			"bufferView":8,
			"componentType":5123,
			"count":30,
			"type":"SCALAR"
		},
		{
			"bufferView":9,
			"componentType":5126,
			"count":264,
			"max":[
				-3.125767707824707,
				7.927439212799072,
				0.06490415334701538
			],
			"min":[
				-3.667067527770996,
				0.4837530255317688,
				-0.0649070143699646
			],
			"type":"VEC3"
		},
		{
			"bufferView":10,
			"componentType":5126,
			"count":264,
			"type":"VEC3"
		},
		{
			"bufferView":11,
			"componentType":5126,
			"count":264,
			"type":"VEC2"
		},
		{
			"bufferView":12,
			"componentType":5123,
			"count":396,
			"type":"SCALAR"
		},
		{
			"bufferView":13,
			"componentType":5126,
			"count":788,
			"max":[
				0.133558988571167,
				7.167235374450684,
				0.054990869015455246
			],
			"min":[
				-3.2760164737701416,
				4.927079677581787,
				-0.054450444877147675
			],
			"type":"VEC3"
		},
		{
			"bufferView":14,
			"componentType":5126,
			"count":788,
			"type":"VEC3"
		},
		{
			"bufferView":15,
			"componentType":5126,
			"count":788,
			"type":"VEC2"
		},
		{
			"bufferView":16,
			"componentType":5123,
			"count":1350,
			"type":"SCALAR"
		},
		{
			"bufferView":17,
			"componentType":5126,
			"count":1400,
			"max":[
				-2.66100811958313,
				7.210002899169922,
				0.10590240359306335
			],
			"min":[
				-3.1159322261810303,
				5.021843910217285,
				-0.1035403460264206
			],
			"type":"VEC3"
		},
		{
			"bufferView":18,
			"componentType":5126,
			"count":1400,
			"type":"VEC3"
		},
		{
			"bufferView":19,
			"componentType":5126,
			"count":1400,
			"type":"VEC2"
		},
		{
			"bufferView":20,
			"componentType":5123,
			"count":2136,
			"type":"SCALAR"
		},
		{
			"bufferView":21,
			"componentType":5126,
			"count":36,
			"max":[
				-2.9484899044036865,
				0.5370061993598938,
				0.38154327869415283
			],
			"min":[
				-3.901376962661743,
				-1.858736515045166,
				-0.38154321908950806
			],
			"type":"VEC3"
		},
		{
			"bufferView":22,
			"componentType":5126,
			"count":36,
			"type":"VEC3"
		},
		{
			"bufferView":23,
			"componentType":5126,
			"count":36,
			"type":"VEC2"
		},
		{
			"bufferView":24,
			"componentType":5123,
			"count":54,
			"type":"SCALAR"
		},
		{
			"bufferView":25,
			"componentType":5126,
			"count":264,
			"max":[
				-3.125767707824707,
				7.927439212799072,
				0.06490415334701538
			],
			"min":[
				-3.667067527770996,
				0.4837530255317688,
				-0.0649070143699646
			],
			"type":"VEC3"
		},
		{
			"bufferView":26,
			"componentType":5126,
			"count":264,
			"type":"VEC3"
		},
		{
			"bufferView":27,
			"componentType":5126,
			"count":264,
			"type":"VEC2"
		},
		{
			"bufferView":28,
			"componentType":5126,
			"count":788,
			"max":[
				0.133558988571167,
				7.167235374450684,
				0.054990869015455246
			],
			"min":[
				-3.2760164737701416,
				4.927079677581787,
				-0.054450444877147675
			],
			"type":"VEC3"
		},
		{
			"bufferView":29,
			"componentType":5126,
			"count":788,
			"type":"VEC3"
		},
		{
			"bufferView":30,
			"componentType":5126,
			"count":788,
			"type":"VEC2"
		},
		{
			"bufferView":31,
			"componentType":5126,
			"count":1400,
			"max":[
				-2.66100811958313,
				7.210002899169922,
				0.10590240359306335
			],
			"min":[
				-3.1159322261810303,
				5.021843910217285,
				-0.1035403460264206
			],
			"type":"VEC3"
		},
		{
			"bufferView":32,
			"componentType":5126,
			"count":1400,
			"type":"VEC3"
		},
		{
			"bufferView":33,
			"componentType":5126,
			"count":1400,
			"type":"VEC2"
		}
	],
	"bufferViews":[
		{
			"buffer":0,
			"byteLength":48,
			"byteOffset":0,
			"target":34962
		},
		{
			"buffer":0,
			"byteLength":48,
			"byteOffset":48,
			"target":34962
		},
		{
			"buffer":0,
			"byteLength":32,
			"byteOffset":96,
			"target":34962
		},
		{
			"buffer":0,
			"byteLength":64,
			"byteOffset":128,
			"target":34962
		},
		{
			"buffer":0,
			"byteLength":12,
			"byteOffset":192,
			"target":34963
		},
		{
			"buffer":0,
			"byteLength":240,
			"byteOffset":204,
			"target":34962
		},
		{
			"buffer":0,
			"byteLength":240,
			"byteOffset":444,
			"target":34962
		},
		{
			"buffer":0,
			"byteLength":160,
			"byteOffset":684,
			"target":34962
		},
		{
			"buffer":0,
			"byteLength":60,
			"byteOffset":844,
			"target":34963
		},
		{
			"buffer":0,
			"byteLength":3168,
			"byteOffset":904,
			"target":34962
		},
		{
			"buffer":0,
			"byteLength":3168,
			"byteOffset":4072,
			"target":34962
		},
		{
			"buffer":0,
			"byteLength":2112,
			"byteOffset":7240,
			"target":34962
		},
		{
			"buffer":0,
			"byteLength":792,
			"byteOffset":9352,
			"target":34963
		},
		{
			"buffer":0,
			"byteLength":9456,
			"byteOffset":10144,
			"target":34962
		},
		{
			"buffer":0,
			"byteLength":9456,
			"byteOffset":19600,
			"target":34962
		},
		{
			"buffer":0,
			"byteLength":6304,
			"byteOffset":29056,
			"target":34962
		},
		{
			"buffer":0,
			"byteLength":2700,
			"byteOffset":35360,
			"target":34963
		},
		{
			"buffer":0,
			"byteLength":16800,
			"byteOffset":38060,
			"target":34962
		},
		{
			"buffer":0,
			"byteLength":16800,
			"byteOffset":54860,
			"target":34962
		},
		{
			"buffer":0,
			"byteLength":11200,
			"byteOffset":71660,
			"target":34962
		},
		{
			"buffer":0,
			"byteLength":4272,
			"byteOffset":82860,
			"target":34963
		},
		{
			"buffer":0,
			"byteLength":432,
			"byteOffset":87132,
			"target":34962
		},
		{
			"buffer":0,
			"byteLength":432,
			"byteOffset":87564,
			"target":34962
		},
		{
			"buffer":0,
			"byteLength":288,
			"byteOffset":87996,
			"target":34962
		},
		{
			"buffer":0,
			"byteLength":108,
			"byteOffset":88284,
			"target":34963
		},
		{
			"buffer":0,
			"byteLength":3168,
			"byteOffset":88392,
			"target":34962
		},
		{
			"buffer":0,
			"byteLength":3168,
			"byteOffset":91560,
			"target":34962
		},
		{
			"buffer":0,
			"byteLength":2112,
			"byteOffset":94728,
			"target":34962
		},
		{
			"buffer":0,
			"byteLength":9456,
			"byteOffset":96840,
			"target":34962
		},
		{
			"buffer":0,
			"byteLength":9456,
			"byteOffset":106296,
			"target":34962
		},
		{
			"buffer":0,
			"byteLength":6304,
			"byteOffset":115752,
			"target":34962
		},
		{
			"buffer":0,
			"byteLength":16800,
			"byteOffset":122056,
			"target":34962
		},
		{
			"buffer":0,
			"byteLength":16800,
			"byteOffset":138856,
			"target":34962
		},
		{
			"buffer":0,
			"byteLength":11200,
			"byteOffset":155656,
			"target":34962
		}
	],
	"buffers":[
		{
			"byteLength":166856,
			"uri":"Pole1-46636a922a7b18bfdfbcfd68f45dabfd.bin"
		}
	]
}
