{
	"asset":{
		"generator":"Khronos glTF Blender I/O v4.2.69",
		"version":"2.0"
	},
	"scene":0,
	"scenes":[
		{
			"name":"Scene",
			"nodes":[
				0
			]
		}
	],
	"nodes":[
		{
			"mesh":0,
			"name":"Cube"
		}
	],
	"materials":[
		{
			"doubleSided":true,
			"name":"Plastic",
			"pbrMetallicRoughness":{
				"baseColorFactor":[
					0.8500000238418579,
					0.4304238557815552,
					0.02550002746284008,
					1
				],
				"metallicFactor":0
			}
		},
		{
			"doubleSided":true,
			"name":"Metal",
			"pbrMetallicRoughness":{
				"baseColorFactor":[
					0.20000000298023224,
					0.20000000298023224,
					0.20000000298023224,
					1
				],
				"roughnessFactor":0.5
			}
		},
		{
			"doubleSided":true,
			"name":"Metal2",
			"pbrMetallicRoughness":{
				"baseColorFactor":[
					0.042027655988931656,
					0.042027655988931656,
					0.042027655988931656,
					1
				],
				"roughnessFactor":0.10000000149011612
			}
		}
	],
	"meshes":[
		{
			"name":"Cube",
			"primitives":[
				{
					"attributes":{
						"POSITION":0,
						"NORMAL":1,
						"TEXCOORD_0":2
					},
					"indices":3,
					"material":0
				},
				{
					"attributes":{
						"POSITION":4,
						"NORMAL":5,
						"TEXCOORD_0":6
					},
					"indices":7,
					"material":1
				},
				{
					"attributes":{
						"POSITION":8,
						"NORMAL":9,
						"TEXCOORD_0":10
					},
					"indices":11,
					"material":2
				}
			]
		}
	],
	"accessors":[
		{
			"bufferView":0,
			"componentType":5126,
			"count":30,
			"max":[
				0.7259805202484131,
				0.035331398248672485,
				0.1485704779624939
			],
			"min":[
				-0.7259805202484131,
				0.03527865931391716,
				-0.1485704779624939
			],
			"type":"VEC3"
		},
		{
			"bufferView":1,
			"componentType":5126,
			"count":30,
			"type":"VEC3"
		},
		{
			"bufferView":2,
			"componentType":5126,
			"count":30,
			"type":"VEC2"
		},
		{
			"bufferView":3,
			"componentType":5123,
			"count":84,
			"type":"SCALAR"
		},
		{
			"bufferView":4,
			"componentType":5126,
			"count":848,
			"max":[
				0.7523989677429199,
				0.035810794681310654,
				0.2059784233570099
			],
			"min":[
				-0.7523989677429199,
				-0.45293110609054565,
				-0.2059784233570099
			],
			"type":"VEC3"
		},
		{
			"bufferView":5,
			"componentType":5126,
			"count":848,
			"type":"VEC3"
		},
		{
			"bufferView":6,
			"componentType":5126,
			"count":848,
			"type":"VEC2"
		},
		{
			"bufferView":7,
			"componentType":5123,
			"count":2136,
			"type":"SCALAR"
		},
		{
			"bufferView":8,
			"componentType":5126,
			"count":704,
			"max":[
				0.5605683922767639,
				-0.14354044198989868,
				0.1940234899520874
			],
			"min":[
				-0.5605683922767639,
				-0.1611180454492569,
				-0.19161610305309296
			],
			"type":"VEC3"
		},
		{
			"bufferView":9,
			"componentType":5126,
			"count":704,
			"type":"VEC3"
		},
		{
			"bufferView":10,
			"componentType":5126,
			"count":704,
			"type":"VEC2"
		},
		{
			"bufferView":11,
			"componentType":5123,
			"count":1248,
			"type":"SCALAR"
		}
	],
	"bufferViews":[
		{
			"buffer":0,
			"byteLength":360,
			"byteOffset":0,
			"target":34962
		},
		{
			"buffer":0,
			"byteLength":360,
			"byteOffset":360,
			"target":34962
		},
		{
			"buffer":0,
			"byteLength":240,
			"byteOffset":720,
			"target":34962
		},
		{
			"buffer":0,
			"byteLength":168,
			"byteOffset":960,
			"target":34963
		},
		{
			"buffer":0,
			"byteLength":10176,
			"byteOffset":1128,
			"target":34962
		},
		{
			"buffer":0,
			"byteLength":10176,
			"byteOffset":11304,
			"target":34962
		},
		{
			"buffer":0,
			"byteLength":6784,
			"byteOffset":21480,
			"target":34962
		},
		{
			"buffer":0,
			"byteLength":4272,
			"byteOffset":28264,
			"target":34963
		},
		{
			"buffer":0,
			"byteLength":8448,
			"byteOffset":32536,
			"target":34962
		},
		{
			"buffer":0,
			"byteLength":8448,
			"byteOffset":40984,
			"target":34962
		},
		{
			"buffer":0,
			"byteLength":5632,
			"byteOffset":49432,
			"target":34962
		},
		{
			"buffer":0,
			"byteLength":2496,
			"byteOffset":55064,
			"target":34963
		}
	],
	"buffers":[
		{
			"byteLength":57560,
			"uri":"pzb_magnet-425425f3c3fe1d9a7da616b831e3becf.bin"
		}
	]
}
