{
	"asset":{
		"generator":"Khronos glTF Blender I/O v4.2.69",
		"version":"2.0"
	},
	"scene":0,
	"scenes":[
		{
			"name":"Scene",
			"nodes":[
				0,
				1,
				2,
				3,
				4
			]
		}
	],
	"nodes":[
		{
			"mesh":0,
			"name":"Plane.001",
			"rotation":[
				0.7071068286895752,
				0,
				0,
				0.7071068286895752
			]
		},
		{
			"mesh":1,
			"name":"Plane.002",
			"translation":[
				0,
				0.01465033832937479,
				0
			]
		},
		{
			"mesh":2,
			"name":"Cube"
		},
		{
			"mesh":3,
			"name":"RailRamp_Plane.002",
			"rotation":[
				0.7071068286895752,
				0,
				0,
				0.7071068286895752
			]
		},
		{
			"mesh":4,
			"name":"Cube.001"
		}
	],
	"materials":[
		{
			"doubleSided":true,
			"name":"Schwelle",
			"pbrMetallicRoughness":{
				"baseColorFactor":[
					0.800000011920929,
					0.800000011920929,
					0.800000011920929,
					1
				],
				"metallicFactor":0,
				"roughnessFactor":0.5
			}
		},
		{
			"doubleSided":true,
			"name":"Beton",
			"pbrMetallicRoughness":{
				"baseColorFactor":[
					0.18446944653987885,
					0.18446944653987885,
					0.18446944653987885,
					1
				],
				"metallicFactor":0,
				"roughnessFactor":0.5
			}
		},
		{
			"doubleSided":true,
			"name":"Gravel",
			"pbrMetallicRoughness":{
				"baseColorFactor":[
					0.800000011920929,
					0.800000011920929,
					0.800000011920929,
					1
				],
				"metallicFactor":0,
				"roughnessFactor":0.5
			}
		},
		{
			"doubleSided":true,
			"name":"Grass.003",
			"pbrMetallicRoughness":{
				"baseColorFactor":[
					0.10354699939489365,
					0.39311501383781433,
					0.0775969997048378,
					1
				],
				"metallicFactor":0,
				"roughnessFactor":0.5
			}
		},
		{
			"doubleSided":true,
			"name":"Beton.001",
			"pbrMetallicRoughness":{
				"baseColorFactor":[
					0.13286399841308594,
					0.13286399841308594,
					0.13286399841308594,
					1
				],
				"metallicFactor":0,
				"roughnessFactor":0.5
			}
		}
	],
	"meshes":[
		{
			"name":"Plane.001",
			"primitives":[
				{
					"attributes":{
						"POSITION":0,
						"NORMAL":1,
						"TEXCOORD_0":2,
						"TANGENT":3
					},
					"indices":4,
					"material":0
				}
			]
		},
		{
			"name":"Plane.002",
			"primitives":[
				{
					"attributes":{
						"POSITION":5,
						"NORMAL":6,
						"TEXCOORD_0":7,
						"TANGENT":8
					},
					"indices":9
				}
			]
		},
		{
			"name":"Cube",
			"primitives":[
				{
					"attributes":{
						"POSITION":10,
						"NORMAL":11,
						"TEXCOORD_0":12,
						"TANGENT":13
					},
					"indices":14,
					"material":1
				},
				{
					"attributes":{
						"POSITION":15,
						"NORMAL":16,
						"TEXCOORD_0":17,
						"TANGENT":18
					},
					"indices":19,
					"material":2
				}
			]
		},
		{
			"name":"RailRamp_Plane.002",
			"primitives":[
				{
					"attributes":{
						"POSITION":20,
						"NORMAL":21,
						"TEXCOORD_0":22,
						"TANGENT":23
					},
					"indices":24,
					"material":3
				},
				{
					"attributes":{
						"POSITION":25,
						"NORMAL":26,
						"TEXCOORD_0":27,
						"TANGENT":28
					},
					"indices":29,
					"material":4
				}
			]
		},
		{
			"name":"Cube.001",
			"primitives":[
				{
					"attributes":{
						"POSITION":30,
						"NORMAL":31,
						"TEXCOORD_0":32,
						"TANGENT":33
					},
					"indices":34,
					"material":1
				}
			]
		}
	],
	"accessors":[
		{
			"bufferView":0,
			"componentType":5126,
			"count":98,
			"max":[
				0.993848979473114,
				1.1837069988250732,
				0.2535361349582672
			],
			"min":[
				-0.006151000037789345,
				-1.1837069988250732,
				0.0010580000234767795
			],
			"type":"VEC3"
		},
		{
			"bufferView":1,
			"componentType":5126,
			"count":98,
			"type":"VEC3"
		},
		{
			"bufferView":2,
			"componentType":5126,
			"count":98,
			"type":"VEC2"
		},
		{
			"bufferView":3,
			"componentType":5126,
			"count":98,
			"type":"VEC4"
		},
		{
			"bufferView":4,
			"componentType":5123,
			"count":156,
			"type":"SCALAR"
		},
		{
			"bufferView":5,
			"componentType":5126,
			"count":144,
			"max":[
				1.2503502368927002,
				-0.18555261194705963,
				1.861555814743042
			],
			"min":[
				-0.23906712234020233,
				-0.6811972856521606,
				-1.861555814743042
			],
			"type":"VEC3"
		},
		{
			"bufferView":6,
			"componentType":5126,
			"count":144,
			"type":"VEC3"
		},
		{
			"bufferView":7,
			"componentType":5126,
			"count":144,
			"type":"VEC2"
		},
		{
			"bufferView":8,
			"componentType":5126,
			"count":144,
			"type":"VEC4"
		},
		{
			"bufferView":9,
			"componentType":5123,
			"count":216,
			"type":"SCALAR"
		},
		{
			"bufferView":10,
			"componentType":5126,
			"count":68,
			"max":[
				1.2000000476837158,
				0.04422485828399658,
				4.33896541595459
			],
			"min":[
				-0.20000000298023224,
				-1.5710597038269043,
				-4.33896541595459
			],
			"type":"VEC3"
		},
		{
			"bufferView":11,
			"componentType":5126,
			"count":68,
			"type":"VEC3"
		},
		{
			"bufferView":12,
			"componentType":5126,
			"count":68,
			"type":"VEC2"
		},
		{
			"bufferView":13,
			"componentType":5126,
			"count":68,
			"type":"VEC4"
		},
		{
			"bufferView":14,
			"componentType":5123,
			"count":120,
			"type":"SCALAR"
		},
		{
			"bufferView":15,
			"componentType":5126,
			"count":8,
			"max":[
				1.2000000476837158,
				-0.5,
				3.3065006732940674
			],
			"min":[
				-0.20000000298023224,
				-0.5,
				-3.3065006732940674
			],
			"type":"VEC3"
		},
		{
			"bufferView":16,
			"componentType":5126,
			"count":8,
			"type":"VEC3"
		},
		{
			"bufferView":17,
			"componentType":5126,
			"count":8,
			"type":"VEC2"
		},
		{
			"bufferView":18,
			"componentType":5126,
			"count":8,
			"type":"VEC4"
		},
		{
			"bufferView":19,
			"componentType":5123,
			"count":12,
			"type":"SCALAR"
		},
		{
			"bufferView":20,
			"componentType":5126,
			"count":24,
			"max":[
				1.2999999523162842,
				3.88051700592041,
				0.699999988079071
			],
			"min":[
				-0.30000001192092896,
				-3.88051700592041,
				0.5
			],
			"type":"VEC3"
		},
		{
			"bufferView":21,
			"componentType":5126,
			"count":24,
			"type":"VEC3"
		},
		{
			"bufferView":22,
			"componentType":5126,
			"count":24,
			"type":"VEC2"
		},
		{
			"bufferView":23,
			"componentType":5126,
			"count":24,
			"type":"VEC4"
		},
		{
			"bufferView":24,
			"componentType":5123,
			"count":36,
			"type":"SCALAR"
		},
		{
			"bufferView":25,
			"componentType":5126,
			"count":88,
			"max":[
				1.2999999523162842,
				4.330814838409424,
				15.07736873626709
			],
			"min":[
				-0.30000001192092896,
				-4.330814838409424,
				0.17579500377178192
			],
			"type":"VEC3"
		},
		{
			"bufferView":26,
			"componentType":5126,
			"count":88,
			"type":"VEC3"
		},
		{
			"bufferView":27,
			"componentType":5126,
			"count":88,
			"type":"VEC2"
		},
		{
			"bufferView":28,
			"componentType":5126,
			"count":88,
			"type":"VEC4"
		},
		{
			"bufferView":29,
			"componentType":5123,
			"count":192,
			"type":"SCALAR"
		},
		{
			"bufferView":30,
			"componentType":5126,
			"count":120,
			"max":[
				1,
				-1.4543911218643188,
				3.0905613899230957
			],
			"min":[
				-1,
				-20.283740997314453,
				-3.0905613899230957
			],
			"type":"VEC3"
		},
		{
			"bufferView":31,
			"componentType":5126,
			"count":120,
			"type":"VEC3"
		},
		{
			"bufferView":32,
			"componentType":5126,
			"count":120,
			"type":"VEC2"
		},
		{
			"bufferView":33,
			"componentType":5126,
			"count":120,
			"type":"VEC4"
		},
		{
			"bufferView":34,
			"componentType":5123,
			"count":222,
			"type":"SCALAR"
		}
	],
	"bufferViews":[
		{
			"buffer":0,
			"byteLength":1176,
			"byteOffset":0,
			"target":34962
		},
		{
			"buffer":0,
			"byteLength":1176,
			"byteOffset":1176,
			"target":34962
		},
		{
			"buffer":0,
			"byteLength":784,
			"byteOffset":2352,
			"target":34962
		},
		{
			"buffer":0,
			"byteLength":1568,
			"byteOffset":3136,
			"target":34962
		},
		{
			"buffer":0,
			"byteLength":312,
			"byteOffset":4704,
			"target":34963
		},
		{
			"buffer":0,
			"byteLength":1728,
			"byteOffset":5016,
			"target":34962
		},
		{
			"buffer":0,
			"byteLength":1728,
			"byteOffset":6744,
			"target":34962
		},
		{
			"buffer":0,
			"byteLength":1152,
			"byteOffset":8472,
			"target":34962
		},
		{
			"buffer":0,
			"byteLength":2304,
			"byteOffset":9624,
			"target":34962
		},
		{
			"buffer":0,
			"byteLength":432,
			"byteOffset":11928,
			"target":34963
		},
		{
			"buffer":0,
			"byteLength":816,
			"byteOffset":12360,
			"target":34962
		},
		{
			"buffer":0,
			"byteLength":816,
			"byteOffset":13176,
			"target":34962
		},
		{
			"buffer":0,
			"byteLength":544,
			"byteOffset":13992,
			"target":34962
		},
		{
			"buffer":0,
			"byteLength":1088,
			"byteOffset":14536,
			"target":34962
		},
		{
			"buffer":0,
			"byteLength":240,
			"byteOffset":15624,
			"target":34963
		},
		{
			"buffer":0,
			"byteLength":96,
			"byteOffset":15864,
			"target":34962
		},
		{
			"buffer":0,
			"byteLength":96,
			"byteOffset":15960,
			"target":34962
		},
		{
			"buffer":0,
			"byteLength":64,
			"byteOffset":16056,
			"target":34962
		},
		{
			"buffer":0,
			"byteLength":128,
			"byteOffset":16120,
			"target":34962
		},
		{
			"buffer":0,
			"byteLength":24,
			"byteOffset":16248,
			"target":34963
		},
		{
			"buffer":0,
			"byteLength":288,
			"byteOffset":16272,
			"target":34962
		},
		{
			"buffer":0,
			"byteLength":288,
			"byteOffset":16560,
			"target":34962
		},
		{
			"buffer":0,
			"byteLength":192,
			"byteOffset":16848,
			"target":34962
		},
		{
			"buffer":0,
			"byteLength":384,
			"byteOffset":17040,
			"target":34962
		},
		{
			"buffer":0,
			"byteLength":72,
			"byteOffset":17424,
			"target":34963
		},
		{
			"buffer":0,
			"byteLength":1056,
			"byteOffset":17496,
			"target":34962
		},
		{
			"buffer":0,
			"byteLength":1056,
			"byteOffset":18552,
			"target":34962
		},
		{
			"buffer":0,
			"byteLength":704,
			"byteOffset":19608,
			"target":34962
		},
		{
			"buffer":0,
			"byteLength":1408,
			"byteOffset":20312,
			"target":34962
		},
		{
			"buffer":0,
			"byteLength":384,
			"byteOffset":21720,
			"target":34963
		},
		{
			"buffer":0,
			"byteLength":1440,
			"byteOffset":22104,
			"target":34962
		},
		{
			"buffer":0,
			"byteLength":1440,
			"byteOffset":23544,
			"target":34962
		},
		{
			"buffer":0,
			"byteLength":960,
			"byteOffset":24984,
			"target":34962
		},
		{
			"buffer":0,
			"byteLength":1920,
			"byteOffset":25944,
			"target":34962
		},
		{
			"buffer":0,
			"byteLength":444,
			"byteOffset":27864,
			"target":34963
		}
	],
	"buffers":[
		{
			"byteLength":28308,
			"uri":"RailBridge-08db5287ca29cffb384e97f88606e583.bin"
		}
	]
}
