{
	"asset":{
		"generator":"Khronos glTF Blender I/O v4.2.69",
		"version":"2.0"
	},
	"scene":0,
	"scenes":[
		{
			"name":"Scene",
			"nodes":[
				0,
				1,
				2,
				3,
				4
			]
		}
	],
	"nodes":[
		{
			"name":"Empty",
			"rotation":[
				0.5,
				0.5,
				-0.4999999403953552,
				0.5000000596046448
			],
			"scale":[
				0.3390752673149109,
				0.3390752673149109,
				0.3390752673149109
			],
			"translation":[
				0,
				0.02322724089026451,
				0.3102215826511383
			]
		},
		{
			"mesh":0,
			"name":"Plane"
		},
		{
			"mesh":1,
			"name":"Plane.001",
			"rotation":[
				0.7071068286895752,
				0,
				0,
				0.7071068286895752
			]
		},
		{
			"mesh":2,
			"name":"Plane.002",
			"translation":[
				0,
				0.01465033832937479,
				0
			]
		},
		{
			"mesh":3,
			"name":"Plane.003",
			"rotation":[
				0.7071068286895752,
				0,
				0,
				0.7071068286895752
			]
		}
	],
	"materials":[
		{
			"doubleSided":true,
			"name":"Schwelle",
			"pbrMetallicRoughness":{
				"baseColorFactor":[
					0.800000011920929,
					0.800000011920929,
					0.800000011920929,
					1
				],
				"metallicFactor":0,
				"roughnessFactor":0.5
			}
		}
	],
	"meshes":[
		{
			"name":"Plane",
			"primitives":[
				{
					"attributes":{
						"POSITION":0,
						"NORMAL":1,
						"TEXCOORD_0":2,
						"TANGENT":3
					},
					"indices":4
				}
			]
		},
		{
			"name":"Plane.001",
			"primitives":[
				{
					"attributes":{
						"POSITION":5,
						"NORMAL":6,
						"TEXCOORD_0":7,
						"TANGENT":8
					},
					"indices":9,
					"material":0
				}
			]
		},
		{
			"name":"Plane.002",
			"primitives":[
				{
					"attributes":{
						"POSITION":10,
						"NORMAL":11,
						"TEXCOORD_0":12,
						"TANGENT":13
					},
					"indices":14
				}
			]
		},
		{
			"name":"Plane.003",
			"primitives":[
				{
					"attributes":{
						"POSITION":15,
						"NORMAL":16,
						"TEXCOORD_0":17,
						"TANGENT":18
					},
					"indices":19,
					"material":0
				}
			]
		}
	],
	"accessors":[
		{
			"bufferView":0,
			"componentType":5126,
			"count":132,
			"max":[
				1.8076595067977905,
				0.2581094801425934,
				2.506711006164551
			],
			"min":[
				0.22066843509674072,
				-0.643484354019165,
				-2.506711006164551
			],
			"type":"VEC3"
		},
		{
			"bufferView":1,
			"componentType":5126,
			"count":132,
			"type":"VEC3"
		},
		{
			"bufferView":2,
			"componentType":5126,
			"count":132,
			"type":"VEC2"
		},
		{
			"bufferView":3,
			"componentType":5126,
			"count":132,
			"type":"VEC4"
		},
		{
			"bufferView":4,
			"componentType":5123,
			"count":198,
			"type":"SCALAR"
		},
		{
			"bufferView":5,
			"componentType":5126,
			"count":98,
			"max":[
				0.993848979473114,
				1.1837069988250732,
				0.2535361349582672
			],
			"min":[
				-0.006151000037789345,
				-1.1837069988250732,
				0.0010580000234767795
			],
			"type":"VEC3"
		},
		{
			"bufferView":6,
			"componentType":5126,
			"count":98,
			"type":"VEC3"
		},
		{
			"bufferView":7,
			"componentType":5126,
			"count":98,
			"type":"VEC2"
		},
		{
			"bufferView":8,
			"componentType":5126,
			"count":98,
			"type":"VEC4"
		},
		{
			"bufferView":9,
			"componentType":5123,
			"count":156,
			"type":"SCALAR"
		},
		{
			"bufferView":10,
			"componentType":5126,
			"count":144,
			"max":[
				1.2503502368927002,
				-0.18555261194705963,
				1.861555814743042
			],
			"min":[
				-0.23906712234020233,
				-0.6811972856521606,
				-1.861555814743042
			],
			"type":"VEC3"
		},
		{
			"bufferView":11,
			"componentType":5126,
			"count":144,
			"type":"VEC3"
		},
		{
			"bufferView":12,
			"componentType":5126,
			"count":144,
			"type":"VEC2"
		},
		{
			"bufferView":13,
			"componentType":5126,
			"count":144,
			"type":"VEC4"
		},
		{
			"bufferView":14,
			"componentType":5123,
			"count":216,
			"type":"SCALAR"
		},
		{
			"bufferView":15,
			"componentType":5126,
			"count":368,
			"max":[
				1.0263559818267822,
				2.143223285675049,
				0.9656149744987488
			],
			"min":[
				-0.1002660021185875,
				-2.136660099029541,
				0.20212647318840027
			],
			"type":"VEC3"
		},
		{
			"bufferView":16,
			"componentType":5126,
			"count":368,
			"type":"VEC3"
		},
		{
			"bufferView":17,
			"componentType":5126,
			"count":368,
			"type":"VEC2"
		},
		{
			"bufferView":18,
			"componentType":5126,
			"count":368,
			"type":"VEC4"
		},
		{
			"bufferView":19,
			"componentType":5123,
			"count":576,
			"type":"SCALAR"
		}
	],
	"bufferViews":[
		{
			"buffer":0,
			"byteLength":1584,
			"byteOffset":0,
			"target":34962
		},
		{
			"buffer":0,
			"byteLength":1584,
			"byteOffset":1584,
			"target":34962
		},
		{
			"buffer":0,
			"byteLength":1056,
			"byteOffset":3168,
			"target":34962
		},
		{
			"buffer":0,
			"byteLength":2112,
			"byteOffset":4224,
			"target":34962
		},
		{
			"buffer":0,
			"byteLength":396,
			"byteOffset":6336,
			"target":34963
		},
		{
			"buffer":0,
			"byteLength":1176,
			"byteOffset":6732,
			"target":34962
		},
		{
			"buffer":0,
			"byteLength":1176,
			"byteOffset":7908,
			"target":34962
		},
		{
			"buffer":0,
			"byteLength":784,
			"byteOffset":9084,
			"target":34962
		},
		{
			"buffer":0,
			"byteLength":1568,
			"byteOffset":9868,
			"target":34962
		},
		{
			"buffer":0,
			"byteLength":312,
			"byteOffset":11436,
			"target":34963
		},
		{
			"buffer":0,
			"byteLength":1728,
			"byteOffset":11748,
			"target":34962
		},
		{
			"buffer":0,
			"byteLength":1728,
			"byteOffset":13476,
			"target":34962
		},
		{
			"buffer":0,
			"byteLength":1152,
			"byteOffset":15204,
			"target":34962
		},
		{
			"buffer":0,
			"byteLength":2304,
			"byteOffset":16356,
			"target":34962
		},
		{
			"buffer":0,
			"byteLength":432,
			"byteOffset":18660,
			"target":34963
		},
		{
			"buffer":0,
			"byteLength":4416,
			"byteOffset":19092,
			"target":34962
		},
		{
			"buffer":0,
			"byteLength":4416,
			"byteOffset":23508,
			"target":34962
		},
		{
			"buffer":0,
			"byteLength":2944,
			"byteOffset":27924,
			"target":34962
		},
		{
			"buffer":0,
			"byteLength":5888,
			"byteOffset":30868,
			"target":34962
		},
		{
			"buffer":0,
			"byteLength":1152,
			"byteOffset":36756,
			"target":34963
		}
	],
	"buffers":[
		{
			"byteLength":37908,
			"uri":"Rail-c9c027cb511b66964dae14bae817078e.bin"
		}
	]
}
