{
	"asset":{
		"generator":"Khronos glTF Blender I/O v4.2.69",
		"version":"2.0"
	},
	"scene":0,
	"scenes":[
		{
			"name":"Scene",
			"nodes":[
				0,
				1,
				2,
				3,
				4,
				5,
				6,
				7
			]
		}
	],
	"nodes":[
		{
			"mesh":0,
			"name":"Plane"
		},
		{
			"mesh":1,
			"name":"Plane.001",
			"rotation":[
				0.7071068286895752,
				0,
				0,
				0.7071068286895752
			]
		},
		{
			"mesh":2,
			"name":"Plane.002",
			"translation":[
				0,
				0.01465033832937479,
				0
			]
		},
		{
			"mesh":3,
			"name":"Plane.003",
			"rotation":[
				0.7071068286895752,
				0,
				0,
				0.7071068286895752
			]
		},
		{
			"mesh":4,
			"name":"RailRamp"
		},
		{
			"mesh":5,
			"name":"RailRampEnd"
		},
		{
			"mesh":6,
			"name":"RailRampEnd2"
		},
		{
			"mesh":7,
			"name":"RailRamp_Plane.004",
			"rotation":[
				0.7071068286895752,
				0,
				0,
				0.7071068286895752
			]
		}
	],
	"materials":[
		{
			"doubleSided":true,
			"name":"Schwelle",
			"pbrMetallicRoughness":{
				"baseColorFactor":[
					0.800000011920929,
					0.800000011920929,
					0.800000011920929,
					1
				],
				"metallicFactor":0,
				"roughnessFactor":0.5
			}
		},
		{
			"doubleSided":true,
			"name":"Grass",
			"pbrMetallicRoughness":{
				"baseColorFactor":[
					0.10354654490947723,
					0.39311495423316956,
					0.07759709656238556,
					1
				],
				"metallicFactor":0,
				"roughnessFactor":0.5
			}
		},
		{
			"doubleSided":true,
			"name":"Beton",
			"pbrMetallicRoughness":{
				"baseColorFactor":[
					0.13286395370960236,
					0.13286395370960236,
					0.13286395370960236,
					1
				],
				"metallicFactor":0,
				"roughnessFactor":0.5
			}
		},
		{
			"doubleSided":true,
			"name":"Grass.001",
			"pbrMetallicRoughness":{
				"baseColorFactor":[
					0.10354699939489365,
					0.39311501383781433,
					0.0775969997048378,
					1
				],
				"metallicFactor":0,
				"roughnessFactor":0.5
			}
		}
	],
	"meshes":[
		{
			"name":"Plane",
			"primitives":[
				{
					"attributes":{
						"POSITION":0,
						"NORMAL":1,
						"TEXCOORD_0":2,
						"TANGENT":3
					},
					"indices":4
				}
			]
		},
		{
			"name":"Plane.001",
			"primitives":[
				{
					"attributes":{
						"POSITION":5,
						"NORMAL":6,
						"TEXCOORD_0":7,
						"TANGENT":8
					},
					"indices":9,
					"material":0
				}
			]
		},
		{
			"name":"Plane.002",
			"primitives":[
				{
					"attributes":{
						"POSITION":10,
						"NORMAL":11,
						"TEXCOORD_0":12,
						"TANGENT":13
					},
					"indices":14
				}
			]
		},
		{
			"name":"Plane.003",
			"primitives":[
				{
					"attributes":{
						"POSITION":15,
						"NORMAL":16,
						"TEXCOORD_0":17,
						"TANGENT":18
					},
					"indices":19,
					"material":0
				}
			]
		},
		{
			"name":"Plane.004",
			"primitives":[
				{
					"attributes":{
						"POSITION":20,
						"NORMAL":21,
						"TEXCOORD_0":22,
						"TANGENT":23
					},
					"indices":24,
					"material":1
				},
				{
					"attributes":{
						"POSITION":25,
						"NORMAL":26,
						"TEXCOORD_0":27,
						"TANGENT":28
					},
					"indices":29,
					"material":2
				}
			]
		},
		{
			"name":"Plane.005",
			"primitives":[
				{
					"attributes":{
						"POSITION":30,
						"NORMAL":31,
						"TEXCOORD_0":32,
						"TANGENT":33
					},
					"indices":34,
					"material":2
				}
			]
		},
		{
			"name":"Plane.006",
			"primitives":[
				{
					"attributes":{
						"POSITION":35,
						"NORMAL":36,
						"TEXCOORD_0":37,
						"TANGENT":38
					},
					"indices":39,
					"material":2
				}
			]
		},
		{
			"name":"RailRamp_Plane.004",
			"primitives":[
				{
					"attributes":{
						"POSITION":40,
						"NORMAL":41,
						"TEXCOORD_0":42,
						"TANGENT":43
					},
					"indices":44,
					"material":3
				}
			]
		}
	],
	"accessors":[
		{
			"bufferView":0,
			"componentType":5126,
			"count":132,
			"max":[
				1.8076595067977905,
				0.2581094801425934,
				2.506711006164551
			],
			"min":[
				0.22066843509674072,
				-0.643484354019165,
				-2.506711006164551
			],
			"type":"VEC3"
		},
		{
			"bufferView":1,
			"componentType":5126,
			"count":132,
			"type":"VEC3"
		},
		{
			"bufferView":2,
			"componentType":5126,
			"count":132,
			"type":"VEC2"
		},
		{
			"bufferView":3,
			"componentType":5126,
			"count":132,
			"type":"VEC4"
		},
		{
			"bufferView":4,
			"componentType":5123,
			"count":198,
			"type":"SCALAR"
		},
		{
			"bufferView":5,
			"componentType":5126,
			"count":98,
			"max":[
				0.993848979473114,
				1.1837069988250732,
				0.2535361349582672
			],
			"min":[
				-0.006151000037789345,
				-1.1837069988250732,
				0.0010580000234767795
			],
			"type":"VEC3"
		},
		{
			"bufferView":6,
			"componentType":5126,
			"count":98,
			"type":"VEC3"
		},
		{
			"bufferView":7,
			"componentType":5126,
			"count":98,
			"type":"VEC2"
		},
		{
			"bufferView":8,
			"componentType":5126,
			"count":98,
			"type":"VEC4"
		},
		{
			"bufferView":9,
			"componentType":5123,
			"count":156,
			"type":"SCALAR"
		},
		{
			"bufferView":10,
			"componentType":5126,
			"count":144,
			"max":[
				1.2503502368927002,
				-0.18555261194705963,
				1.861555814743042
			],
			"min":[
				-0.23906712234020233,
				-0.6811972856521606,
				-1.861555814743042
			],
			"type":"VEC3"
		},
		{
			"bufferView":11,
			"componentType":5126,
			"count":144,
			"type":"VEC3"
		},
		{
			"bufferView":12,
			"componentType":5126,
			"count":144,
			"type":"VEC2"
		},
		{
			"bufferView":13,
			"componentType":5126,
			"count":144,
			"type":"VEC4"
		},
		{
			"bufferView":14,
			"componentType":5123,
			"count":216,
			"type":"SCALAR"
		},
		{
			"bufferView":15,
			"componentType":5126,
			"count":368,
			"max":[
				1.0263559818267822,
				2.143223285675049,
				0.9656149744987488
			],
			"min":[
				-0.1002660021185875,
				-2.136660099029541,
				0.20212647318840027
			],
			"type":"VEC3"
		},
		{
			"bufferView":16,
			"componentType":5126,
			"count":368,
			"type":"VEC3"
		},
		{
			"bufferView":17,
			"componentType":5126,
			"count":368,
			"type":"VEC2"
		},
		{
			"bufferView":18,
			"componentType":5126,
			"count":368,
			"type":"VEC4"
		},
		{
			"bufferView":19,
			"componentType":5123,
			"count":576,
			"type":"SCALAR"
		},
		{
			"bufferView":20,
			"componentType":5126,
			"count":24,
			"max":[
				1.2999999523162842,
				-0.5,
				3.880516529083252
			],
			"min":[
				-0.30000001192092896,
				-0.699999988079071,
				-3.880516529083252
			],
			"type":"VEC3"
		},
		{
			"bufferView":21,
			"componentType":5126,
			"count":24,
			"type":"VEC3"
		},
		{
			"bufferView":22,
			"componentType":5126,
			"count":24,
			"type":"VEC2"
		},
		{
			"bufferView":23,
			"componentType":5126,
			"count":24,
			"type":"VEC4"
		},
		{
			"bufferView":24,
			"componentType":5123,
			"count":36,
			"type":"SCALAR"
		},
		{
			"bufferView":25,
			"componentType":5126,
			"count":90,
			"max":[
				1.2999999523162842,
				-0.1757945716381073,
				4.330815315246582
			],
			"min":[
				-0.30000001192092896,
				-15.07736873626709,
				-4.330815315246582
			],
			"type":"VEC3"
		},
		{
			"bufferView":26,
			"componentType":5126,
			"count":90,
			"type":"VEC3"
		},
		{
			"bufferView":27,
			"componentType":5126,
			"count":90,
			"type":"VEC2"
		},
		{
			"bufferView":28,
			"componentType":5126,
			"count":90,
			"type":"VEC4"
		},
		{
			"bufferView":29,
			"componentType":5123,
			"count":192,
			"type":"SCALAR"
		},
		{
			"bufferView":30,
			"componentType":5126,
			"count":112,
			"max":[
				0,
				-0.3555925488471985,
				23.74301528930664
			],
			"min":[
				-0.44031569361686707,
				-20.182022094726562,
				-23.74301528930664
			],
			"type":"VEC3"
		},
		{
			"bufferView":31,
			"componentType":5126,
			"count":112,
			"type":"VEC3"
		},
		{
			"bufferView":32,
			"componentType":5126,
			"count":112,
			"type":"VEC2"
		},
		{
			"bufferView":33,
			"componentType":5126,
			"count":112,
			"type":"VEC4"
		},
		{
			"bufferView":34,
			"componentType":5123,
			"count":204,
			"type":"SCALAR"
		},
		{
			"bufferView":35,
			"componentType":5126,
			"count":32,
			"max":[
				1.399999976158142,
				-0.26559773087501526,
				4.330815315246582
			],
			"min":[
				1,
				-14.877368927001953,
				-4.330815315246582
			],
			"type":"VEC3"
		},
		{
			"bufferView":36,
			"componentType":5126,
			"count":32,
			"type":"VEC3"
		},
		{
			"bufferView":37,
			"componentType":5126,
			"count":32,
			"type":"VEC2"
		},
		{
			"bufferView":38,
			"componentType":5126,
			"count":32,
			"type":"VEC4"
		},
		{
			"bufferView":39,
			"componentType":5123,
			"count":48,
			"type":"SCALAR"
		},
		{
			"bufferView":40,
			"componentType":5126,
			"count":96,
			"max":[
				1.2999999523162842,
				23.686391830444336,
				20.382022857666016
			],
			"min":[
				-0.30000001192092896,
				-23.686391830444336,
				0.5
			],
			"type":"VEC3"
		},
		{
			"bufferView":41,
			"componentType":5126,
			"count":96,
			"type":"VEC3"
		},
		{
			"bufferView":42,
			"componentType":5126,
			"count":96,
			"type":"VEC2"
		},
		{
			"bufferView":43,
			"componentType":5126,
			"count":96,
			"type":"VEC4"
		},
		{
			"bufferView":44,
			"componentType":5123,
			"count":144,
			"type":"SCALAR"
		}
	],
	"bufferViews":[
		{
			"buffer":0,
			"byteLength":1584,
			"byteOffset":0,
			"target":34962
		},
		{
			"buffer":0,
			"byteLength":1584,
			"byteOffset":1584,
			"target":34962
		},
		{
			"buffer":0,
			"byteLength":1056,
			"byteOffset":3168,
			"target":34962
		},
		{
			"buffer":0,
			"byteLength":2112,
			"byteOffset":4224,
			"target":34962
		},
		{
			"buffer":0,
			"byteLength":396,
			"byteOffset":6336,
			"target":34963
		},
		{
			"buffer":0,
			"byteLength":1176,
			"byteOffset":6732,
			"target":34962
		},
		{
			"buffer":0,
			"byteLength":1176,
			"byteOffset":7908,
			"target":34962
		},
		{
			"buffer":0,
			"byteLength":784,
			"byteOffset":9084,
			"target":34962
		},
		{
			"buffer":0,
			"byteLength":1568,
			"byteOffset":9868,
			"target":34962
		},
		{
			"buffer":0,
			"byteLength":312,
			"byteOffset":11436,
			"target":34963
		},
		{
			"buffer":0,
			"byteLength":1728,
			"byteOffset":11748,
			"target":34962
		},
		{
			"buffer":0,
			"byteLength":1728,
			"byteOffset":13476,
			"target":34962
		},
		{
			"buffer":0,
			"byteLength":1152,
			"byteOffset":15204,
			"target":34962
		},
		{
			"buffer":0,
			"byteLength":2304,
			"byteOffset":16356,
			"target":34962
		},
		{
			"buffer":0,
			"byteLength":432,
			"byteOffset":18660,
			"target":34963
		},
		{
			"buffer":0,
			"byteLength":4416,
			"byteOffset":19092,
			"target":34962
		},
		{
			"buffer":0,
			"byteLength":4416,
			"byteOffset":23508,
			"target":34962
		},
		{
			"buffer":0,
			"byteLength":2944,
			"byteOffset":27924,
			"target":34962
		},
		{
			"buffer":0,
			"byteLength":5888,
			"byteOffset":30868,
			"target":34962
		},
		{
			"buffer":0,
			"byteLength":1152,
			"byteOffset":36756,
			"target":34963
		},
		{
			"buffer":0,
			"byteLength":288,
			"byteOffset":37908,
			"target":34962
		},
		{
			"buffer":0,
			"byteLength":288,
			"byteOffset":38196,
			"target":34962
		},
		{
			"buffer":0,
			"byteLength":192,
			"byteOffset":38484,
			"target":34962
		},
		{
			"buffer":0,
			"byteLength":384,
			"byteOffset":38676,
			"target":34962
		},
		{
			"buffer":0,
			"byteLength":72,
			"byteOffset":39060,
			"target":34963
		},
		{
			"buffer":0,
			"byteLength":1080,
			"byteOffset":39132,
			"target":34962
		},
		{
			"buffer":0,
			"byteLength":1080,
			"byteOffset":40212,
			"target":34962
		},
		{
			"buffer":0,
			"byteLength":720,
			"byteOffset":41292,
			"target":34962
		},
		{
			"buffer":0,
			"byteLength":1440,
			"byteOffset":42012,
			"target":34962
		},
		{
			"buffer":0,
			"byteLength":384,
			"byteOffset":43452,
			"target":34963
		},
		{
			"buffer":0,
			"byteLength":1344,
			"byteOffset":43836,
			"target":34962
		},
		{
			"buffer":0,
			"byteLength":1344,
			"byteOffset":45180,
			"target":34962
		},
		{
			"buffer":0,
			"byteLength":896,
			"byteOffset":46524,
			"target":34962
		},
		{
			"buffer":0,
			"byteLength":1792,
			"byteOffset":47420,
			"target":34962
		},
		{
			"buffer":0,
			"byteLength":408,
			"byteOffset":49212,
			"target":34963
		},
		{
			"buffer":0,
			"byteLength":384,
			"byteOffset":49620,
			"target":34962
		},
		{
			"buffer":0,
			"byteLength":384,
			"byteOffset":50004,
			"target":34962
		},
		{
			"buffer":0,
			"byteLength":256,
			"byteOffset":50388,
			"target":34962
		},
		{
			"buffer":0,
			"byteLength":512,
			"byteOffset":50644,
			"target":34962
		},
		{
			"buffer":0,
			"byteLength":96,
			"byteOffset":51156,
			"target":34963
		},
		{
			"buffer":0,
			"byteLength":1152,
			"byteOffset":51252,
			"target":34962
		},
		{
			"buffer":0,
			"byteLength":1152,
			"byteOffset":52404,
			"target":34962
		},
		{
			"buffer":0,
			"byteLength":768,
			"byteOffset":53556,
			"target":34962
		},
		{
			"buffer":0,
			"byteLength":1536,
			"byteOffset":54324,
			"target":34962
		},
		{
			"buffer":0,
			"byteLength":288,
			"byteOffset":55860,
			"target":34963
		}
	],
	"buffers":[
		{
			"byteLength":56148,
			"uri":"RailRamp-64034a35a071cdc1bc058fe1002cc3c7.bin"
		}
	]
}
