{
	"asset":{
		"generator":"Khronos glTF Blender I/O v4.2.69",
		"version":"2.0"
	},
	"scene":0,
	"scenes":[
		{
			"name":"Scene",
			"nodes":[
				0,
				1,
				2,
				3,
				4
			]
		}
	],
	"nodes":[
		{
			"name":"Empty",
			"rotation":[
				0.5,
				0.5,
				-0.4999999403953552,
				0.5000000596046448
			],
			"scale":[
				0.3390752673149109,
				0.3390752673149109,
				0.3390752673149109
			],
			"translation":[
				0,
				0.02322724089026451,
				0.3102215826511383
			]
		},
		{
			"mesh":0,
			"name":"Plane"
		},
		{
			"mesh":1,
			"name":"Plane.001",
			"rotation":[
				0.7071068286895752,
				0,
				0,
				0.7071068286895752
			]
		},
		{
			"mesh":2,
			"name":"Plane.002",
			"translation":[
				0,
				0.01465033832937479,
				0
			]
		},
		{
			"mesh":3,
			"name":"Plane.003",
			"rotation":[
				0.7071068286895752,
				0,
				0,
				0.7071068286895752
			]
		}
	],
	"materials":[
		{
			"doubleSided":true,
			"name":"Wood",
			"pbrMetallicRoughness":{
				"baseColorFactor":[
					0.5772649049758911,
					0.6738486289978027,
					0.5220500230789185,
					1
				],
				"metallicFactor":0,
				"roughnessFactor":0.5
			}
		},
		{
			"doubleSided":true,
			"name":"Steel-Brown",
			"pbrMetallicRoughness":{
				"baseColorFactor":[
					0.06071966513991356,
					0.05048075690865517,
					0.03175380825996399,
					1
				],
				"metallicFactor":0,
				"roughnessFactor":0.5
			}
		},
		{
			"doubleSided":true,
			"name":"Steel-Shiny",
			"pbrMetallicRoughness":{
				"baseColorFactor":[
					0.3108133375644684,
					0.3108133375644684,
					0.3108133375644684,
					1
				],
				"metallicFactor":0,
				"roughnessFactor":0.5
			}
		},
		{
			"doubleSided":true,
			"name":"Gravel",
			"pbrMetallicRoughness":{
				"baseColorFactor":[
					0.12371030449867249,
					0.12371030449867249,
					0.12371030449867249,
					1
				],
				"metallicFactor":0,
				"roughnessFactor":0.5
			}
		},
		{
			"doubleSided":true,
			"name":"Schwelle",
			"pbrMetallicRoughness":{
				"baseColorFactor":[
					0.800000011920929,
					0.800000011920929,
					0.800000011920929,
					1
				],
				"metallicFactor":0,
				"roughnessFactor":0.5
			}
		}
	],
	"meshes":[
		{
			"name":"Plane",
			"primitives":[
				{
					"attributes":{
						"POSITION":0,
						"NORMAL":1,
						"TEXCOORD_0":2,
						"TANGENT":3
					},
					"indices":4
				}
			]
		},
		{
			"name":"Plane.001",
			"primitives":[
				{
					"attributes":{
						"POSITION":5,
						"NORMAL":6,
						"TEXCOORD_0":7,
						"TANGENT":8
					},
					"indices":9,
					"material":0
				},
				{
					"attributes":{
						"POSITION":10,
						"NORMAL":11,
						"TEXCOORD_0":12,
						"TANGENT":13
					},
					"indices":14,
					"material":1
				},
				{
					"attributes":{
						"POSITION":15,
						"NORMAL":16,
						"TEXCOORD_0":17,
						"TANGENT":18
					},
					"indices":19,
					"material":2
				}
			]
		},
		{
			"name":"Plane.002",
			"primitives":[
				{
					"attributes":{
						"POSITION":20,
						"NORMAL":21,
						"TEXCOORD_0":22,
						"TANGENT":23
					},
					"indices":24,
					"material":3
				}
			]
		},
		{
			"name":"Plane.003",
			"primitives":[
				{
					"attributes":{
						"POSITION":25,
						"NORMAL":26,
						"TEXCOORD_0":27,
						"TANGENT":28
					},
					"indices":29,
					"material":4
				}
			]
		}
	],
	"accessors":[
		{
			"bufferView":0,
			"componentType":5126,
			"count":132,
			"max":[
				1.8076595067977905,
				0.2581094801425934,
				2.506711006164551
			],
			"min":[
				0.22066843509674072,
				-0.643484354019165,
				-2.506711006164551
			],
			"type":"VEC3"
		},
		{
			"bufferView":1,
			"componentType":5126,
			"count":132,
			"type":"VEC3"
		},
		{
			"bufferView":2,
			"componentType":5126,
			"count":132,
			"type":"VEC2"
		},
		{
			"bufferView":3,
			"componentType":5126,
			"count":132,
			"type":"VEC4"
		},
		{
			"bufferView":4,
			"componentType":5123,
			"count":198,
			"type":"SCALAR"
		},
		{
			"bufferView":5,
			"componentType":5126,
			"count":20,
			"max":[
				0.6811969876289368,
				1.1837069988250732,
				0.2535361349582672
			],
			"min":[
				0.30650201439857483,
				-1.1837069988250732,
				0.1589091420173645
			],
			"type":"VEC3"
		},
		{
			"bufferView":6,
			"componentType":5126,
			"count":20,
			"type":"VEC3"
		},
		{
			"bufferView":7,
			"componentType":5126,
			"count":20,
			"type":"VEC2"
		},
		{
			"bufferView":8,
			"componentType":5126,
			"count":20,
			"type":"VEC4"
		},
		{
			"bufferView":9,
			"componentType":5123,
			"count":30,
			"type":"SCALAR"
		},
		{
			"bufferView":10,
			"componentType":5126,
			"count":64,
			"max":[
				0.993848979473114,
				0.8348010182380676,
				0.1638679951429367
			],
			"min":[
				-0.006151000037789345,
				-0.8348010182380676,
				0.0010580000234767795
			],
			"type":"VEC3"
		},
		{
			"bufferView":11,
			"componentType":5126,
			"count":64,
			"type":"VEC3"
		},
		{
			"bufferView":12,
			"componentType":5126,
			"count":64,
			"type":"VEC2"
		},
		{
			"bufferView":13,
			"componentType":5126,
			"count":64,
			"type":"VEC4"
		},
		{
			"bufferView":14,
			"componentType":5123,
			"count":96,
			"type":"SCALAR"
		},
		{
			"bufferView":15,
			"componentType":5126,
			"count":8,
			"max":[
				0.993848979473114,
				0.748308002948761,
				0.0023300000466406345
			],
			"min":[
				-0.006151000037789345,
				-0.748308002948761,
				0.0010580000234767795
			],
			"type":"VEC3"
		},
		{
			"bufferView":16,
			"componentType":5126,
			"count":8,
			"type":"VEC3"
		},
		{
			"bufferView":17,
			"componentType":5126,
			"count":8,
			"type":"VEC2"
		},
		{
			"bufferView":18,
			"componentType":5126,
			"count":8,
			"type":"VEC4"
		},
		{
			"bufferView":19,
			"componentType":5123,
			"count":12,
			"type":"SCALAR"
		},
		{
			"bufferView":20,
			"componentType":5126,
			"count":144,
			"max":[
				1.2503502368927002,
				-0.18555261194705963,
				2.161555767059326
			],
			"min":[
				-0.23906712234020233,
				-0.77748042345047,
				-2.161555767059326
			],
			"type":"VEC3"
		},
		{
			"bufferView":21,
			"componentType":5126,
			"count":144,
			"type":"VEC3"
		},
		{
			"bufferView":22,
			"componentType":5126,
			"count":144,
			"type":"VEC2"
		},
		{
			"bufferView":23,
			"componentType":5126,
			"count":144,
			"type":"VEC4"
		},
		{
			"bufferView":24,
			"componentType":5123,
			"count":216,
			"type":"SCALAR"
		},
		{
			"bufferView":25,
			"componentType":5126,
			"count":368,
			"max":[
				1.0263559818267822,
				2.143223285675049,
				0.9656149744987488
			],
			"min":[
				-0.1002660021185875,
				-2.136660099029541,
				0.20212647318840027
			],
			"type":"VEC3"
		},
		{
			"bufferView":26,
			"componentType":5126,
			"count":368,
			"type":"VEC3"
		},
		{
			"bufferView":27,
			"componentType":5126,
			"count":368,
			"type":"VEC2"
		},
		{
			"bufferView":28,
			"componentType":5126,
			"count":368,
			"type":"VEC4"
		},
		{
			"bufferView":29,
			"componentType":5123,
			"count":576,
			"type":"SCALAR"
		}
	],
	"bufferViews":[
		{
			"buffer":0,
			"byteLength":1584,
			"byteOffset":0,
			"target":34962
		},
		{
			"buffer":0,
			"byteLength":1584,
			"byteOffset":1584,
			"target":34962
		},
		{
			"buffer":0,
			"byteLength":1056,
			"byteOffset":3168,
			"target":34962
		},
		{
			"buffer":0,
			"byteLength":2112,
			"byteOffset":4224,
			"target":34962
		},
		{
			"buffer":0,
			"byteLength":396,
			"byteOffset":6336,
			"target":34963
		},
		{
			"buffer":0,
			"byteLength":240,
			"byteOffset":6732,
			"target":34962
		},
		{
			"buffer":0,
			"byteLength":240,
			"byteOffset":6972,
			"target":34962
		},
		{
			"buffer":0,
			"byteLength":160,
			"byteOffset":7212,
			"target":34962
		},
		{
			"buffer":0,
			"byteLength":320,
			"byteOffset":7372,
			"target":34962
		},
		{
			"buffer":0,
			"byteLength":60,
			"byteOffset":7692,
			"target":34963
		},
		{
			"buffer":0,
			"byteLength":768,
			"byteOffset":7752,
			"target":34962
		},
		{
			"buffer":0,
			"byteLength":768,
			"byteOffset":8520,
			"target":34962
		},
		{
			"buffer":0,
			"byteLength":512,
			"byteOffset":9288,
			"target":34962
		},
		{
			"buffer":0,
			"byteLength":1024,
			"byteOffset":9800,
			"target":34962
		},
		{
			"buffer":0,
			"byteLength":192,
			"byteOffset":10824,
			"target":34963
		},
		{
			"buffer":0,
			"byteLength":96,
			"byteOffset":11016,
			"target":34962
		},
		{
			"buffer":0,
			"byteLength":96,
			"byteOffset":11112,
			"target":34962
		},
		{
			"buffer":0,
			"byteLength":64,
			"byteOffset":11208,
			"target":34962
		},
		{
			"buffer":0,
			"byteLength":128,
			"byteOffset":11272,
			"target":34962
		},
		{
			"buffer":0,
			"byteLength":24,
			"byteOffset":11400,
			"target":34963
		},
		{
			"buffer":0,
			"byteLength":1728,
			"byteOffset":11424,
			"target":34962
		},
		{
			"buffer":0,
			"byteLength":1728,
			"byteOffset":13152,
			"target":34962
		},
		{
			"buffer":0,
			"byteLength":1152,
			"byteOffset":14880,
			"target":34962
		},
		{
			"buffer":0,
			"byteLength":2304,
			"byteOffset":16032,
			"target":34962
		},
		{
			"buffer":0,
			"byteLength":432,
			"byteOffset":18336,
			"target":34963
		},
		{
			"buffer":0,
			"byteLength":4416,
			"byteOffset":18768,
			"target":34962
		},
		{
			"buffer":0,
			"byteLength":4416,
			"byteOffset":23184,
			"target":34962
		},
		{
			"buffer":0,
			"byteLength":2944,
			"byteOffset":27600,
			"target":34962
		},
		{
			"buffer":0,
			"byteLength":5888,
			"byteOffset":30544,
			"target":34962
		},
		{
			"buffer":0,
			"byteLength":1152,
			"byteOffset":36432,
			"target":34963
		}
	],
	"buffers":[
		{
			"byteLength":37584,
			"uri":"Rail_Texturing-77e359e6f76316a0e4f9e52a916c8e51.bin"
		}
	]
}
