{
	"asset":{
		"generator":"Khronos glTF Blender I/O v4.2.69",
		"version":"2.0"
	},
	"scene":0,
	"scenes":[
		{
			"name":"Scene",
			"nodes":[
				0
			]
		}
	],
	"nodes":[
		{
			"mesh":0,
			"name":"Plane"
		}
	],
	"materials":[
		{
			"doubleSided":true,
			"name":"WhiteSripe",
			"pbrMetallicRoughness":{
				"baseColorFactor":[
					0.800000011920929,
					0.800000011920929,
					0.800000011920929,
					1
				],
				"metallicFactor":0,
				"roughnessFactor":0.5
			}
		},
		{
			"doubleSided":true,
			"name":"Asphalt",
			"pbrMetallicRoughness":{
				"baseColorFactor":[
					0.052218250930309296,
					0.052218250930309296,
					0.052218250930309296,
					1
				],
				"metallicFactor":0,
				"roughnessFactor":0.5
			}
		},
		{
			"doubleSided":true,
			"name":"Gravel",
			"pbrMetallicRoughness":{
				"baseColorFactor":[
					0.8000000715255737,
					0.6726384162902832,
					0.16427907347679138,
					1
				],
				"metallicFactor":0,
				"roughnessFactor":0.5
			}
		},
		{
			"doubleSided":true,
			"name":"Grass",
			"pbrMetallicRoughness":{
				"baseColorFactor":[
					0,
					0.08001197129487991,
					0.0012097550788894296,
					1
				],
				"metallicFactor":0,
				"roughnessFactor":0.5
			}
		}
	],
	"meshes":[
		{
			"name":"Plane",
			"primitives":[
				{
					"attributes":{
						"POSITION":0,
						"NORMAL":1,
						"TEXCOORD_0":2,
						"TANGENT":3
					},
					"indices":4,
					"material":0
				},
				{
					"attributes":{
						"POSITION":5,
						"NORMAL":6,
						"TEXCOORD_0":7,
						"TANGENT":8
					},
					"indices":9,
					"material":1
				},
				{
					"attributes":{
						"POSITION":10,
						"NORMAL":11,
						"TEXCOORD_0":12,
						"TANGENT":13
					},
					"indices":14,
					"material":2
				},
				{
					"attributes":{
						"POSITION":15,
						"NORMAL":16,
						"TEXCOORD_0":17,
						"TANGENT":18
					},
					"indices":19,
					"material":3
				}
			]
		}
	],
	"accessors":[
		{
			"bufferView":0,
			"componentType":5126,
			"count":8,
			"max":[
				-0.04034437611699104,
				0.07212810963392258,
				0.10527634620666504
			],
			"min":[
				-1.2721984386444092,
				0.040753528475761414,
				-0.10527634620666504
			],
			"type":"VEC3"
		},
		{
			"bufferView":1,
			"componentType":5126,
			"count":8,
			"type":"VEC3"
		},
		{
			"bufferView":2,
			"componentType":5126,
			"count":8,
			"type":"VEC2"
		},
		{
			"bufferView":3,
			"componentType":5126,
			"count":8,
			"type":"VEC4"
		},
		{
			"bufferView":4,
			"componentType":5123,
			"count":12,
			"type":"SCALAR"
		},
		{
			"bufferView":5,
			"componentType":5126,
			"count":22,
			"max":[
				1,
				0.07212810963392258,
				4.5
			],
			"min":[
				-1.2721984386444092,
				-0.02968716435134411,
				-4.5
			],
			"type":"VEC3"
		},
		{
			"bufferView":6,
			"componentType":5126,
			"count":22,
			"type":"VEC3"
		},
		{
			"bufferView":7,
			"componentType":5126,
			"count":22,
			"type":"VEC2"
		},
		{
			"bufferView":8,
			"componentType":5126,
			"count":22,
			"type":"VEC4"
		},
		{
			"bufferView":9,
			"componentType":5123,
			"count":30,
			"type":"SCALAR"
		},
		{
			"bufferView":10,
			"componentType":5126,
			"count":8,
			"max":[
				1,
				0,
				4.694573402404785
			],
			"min":[
				-1.2721984386444092,
				-0.12775544822216034,
				-4.694573402404785
			],
			"type":"VEC3"
		},
		{
			"bufferView":11,
			"componentType":5126,
			"count":8,
			"type":"VEC3"
		},
		{
			"bufferView":12,
			"componentType":5126,
			"count":8,
			"type":"VEC2"
		},
		{
			"bufferView":13,
			"componentType":5126,
			"count":8,
			"type":"VEC4"
		},
		{
			"bufferView":14,
			"componentType":5123,
			"count":12,
			"type":"SCALAR"
		},
		{
			"bufferView":15,
			"componentType":5126,
			"count":8,
			"max":[
				1,
				-0.09806828200817108,
				9.205578804016113
			],
			"min":[
				-1.2721984386444092,
				-2.2638745307922363,
				-9.205578804016113
			],
			"type":"VEC3"
		},
		{
			"bufferView":16,
			"componentType":5126,
			"count":8,
			"type":"VEC3"
		},
		{
			"bufferView":17,
			"componentType":5126,
			"count":8,
			"type":"VEC2"
		},
		{
			"bufferView":18,
			"componentType":5126,
			"count":8,
			"type":"VEC4"
		},
		{
			"bufferView":19,
			"componentType":5123,
			"count":12,
			"type":"SCALAR"
		}
	],
	"bufferViews":[
		{
			"buffer":0,
			"byteLength":96,
			"byteOffset":0,
			"target":34962
		},
		{
			"buffer":0,
			"byteLength":96,
			"byteOffset":96,
			"target":34962
		},
		{
			"buffer":0,
			"byteLength":64,
			"byteOffset":192,
			"target":34962
		},
		{
			"buffer":0,
			"byteLength":128,
			"byteOffset":256,
			"target":34962
		},
		{
			"buffer":0,
			"byteLength":24,
			"byteOffset":384,
			"target":34963
		},
		{
			"buffer":0,
			"byteLength":264,
			"byteOffset":408,
			"target":34962
		},
		{
			"buffer":0,
			"byteLength":264,
			"byteOffset":672,
			"target":34962
		},
		{
			"buffer":0,
			"byteLength":176,
			"byteOffset":936,
			"target":34962
		},
		{
			"buffer":0,
			"byteLength":352,
			"byteOffset":1112,
			"target":34962
		},
		{
			"buffer":0,
			"byteLength":60,
			"byteOffset":1464,
			"target":34963
		},
		{
			"buffer":0,
			"byteLength":96,
			"byteOffset":1524,
			"target":34962
		},
		{
			"buffer":0,
			"byteLength":96,
			"byteOffset":1620,
			"target":34962
		},
		{
			"buffer":0,
			"byteLength":64,
			"byteOffset":1716,
			"target":34962
		},
		{
			"buffer":0,
			"byteLength":128,
			"byteOffset":1780,
			"target":34962
		},
		{
			"buffer":0,
			"byteLength":24,
			"byteOffset":1908,
			"target":34963
		},
		{
			"buffer":0,
			"byteLength":96,
			"byteOffset":1932,
			"target":34962
		},
		{
			"buffer":0,
			"byteLength":96,
			"byteOffset":2028,
			"target":34962
		},
		{
			"buffer":0,
			"byteLength":64,
			"byteOffset":2124,
			"target":34962
		},
		{
			"buffer":0,
			"byteLength":128,
			"byteOffset":2188,
			"target":34962
		},
		{
			"buffer":0,
			"byteLength":24,
			"byteOffset":2316,
			"target":34963
		}
	],
	"buffers":[
		{
			"byteLength":2340,
			"uri":"Road-aaf9b2b9934fed2f2e0fa2d2d46358ab.bin"
		}
	]
}
