{
	"asset":{
		"generator":"Khronos glTF Blender I/O v4.2.69",
		"version":"2.0"
	},
	"scene":0,
	"scenes":[
		{
			"name":"Scene",
			"nodes":[
				0,
				1,
				2,
				3
			]
		}
	],
	"nodes":[
		{
			"mesh":0,
			"name":"Plane",
			"rotation":[
				0.7071068286895752,
				0,
				0,
				0.7071068286895752
			],
			"translation":[
				0,
				0,
				2.064385414123535
			]
		},
		{
			"mesh":1,
			"name":"Cube.001_Cube",
			"rotation":[
				0.7071068286895752,
				0,
				0,
				0.7071068286895752
			],
			"translation":[
				0,
				0,
				-7.84299373626709
			]
		},
		{
			"mesh":2,
			"name":"Windows_Plane.002",
			"rotation":[
				0.7071068286895752,
				0,
				0,
				0.7071068286895752
			],
			"translation":[
				0,
				0,
				-7.84299373626709
			]
		},
		{
			"mesh":3,
			"name":"Cube"
		}
	],
	"materials":[
		{
			"doubleSided":true,
			"name":"Schwelle",
			"pbrMetallicRoughness":{
				"baseColorFactor":[
					0.800000011920929,
					0.800000011920929,
					0.800000011920929,
					1
				],
				"metallicFactor":0,
				"roughnessFactor":0.5
			}
		},
		{
			"doubleSided":true,
			"name":"RoofTop",
			"pbrMetallicRoughness":{
				"baseColorFactor":[
					0.012217000126838684,
					0.012217000126838684,
					0.012217000126838684,
					1
				],
				"metallicFactor":0,
				"roughnessFactor":0.5
			}
		},
		{
			"doubleSided":true,
			"name":"Walls",
			"pbrMetallicRoughness":{
				"baseColorFactor":[
					0.800000011920929,
					0,
					0.008574999868869781,
					1
				],
				"metallicFactor":0,
				"roughnessFactor":0.5
			}
		},
		{
			"doubleSided":true,
			"name":"RoodWood",
			"pbrMetallicRoughness":{
				"baseColorFactor":[
					0.054969001561403275,
					0.030420999974012375,
					0,
					1
				],
				"metallicFactor":0,
				"roughnessFactor":0.5
			}
		},
		{
			"doubleSided":true,
			"name":"Glass",
			"pbrMetallicRoughness":{
				"baseColorFactor":[
					0.0007510000141337514,
					0,
					0.800000011920929,
					1
				],
				"metallicFactor":0,
				"roughnessFactor":0.5
			}
		},
		{
			"doubleSided":true,
			"name":"FensterRahmen",
			"pbrMetallicRoughness":{
				"baseColorFactor":[
					0.517333984375,
					0.517333984375,
					0.517333984375,
					1
				],
				"metallicFactor":0,
				"roughnessFactor":0.5
			}
		},
		{
			"doubleSided":true,
			"name":"Color1",
			"pbrMetallicRoughness":{
				"baseColorFactor":[
					0.03175349161028862,
					0.030957117676734924,
					0.3108135163784027,
					1
				],
				"metallicFactor":0,
				"roughnessFactor":0.5
			}
		},
		{
			"doubleSided":true,
			"name":"Color2",
			"pbrMetallicRoughness":{
				"baseColorFactor":[
					0.3757500946521759,
					0.3757500946521759,
					0.3757500946521759,
					1
				],
				"metallicFactor":0,
				"roughnessFactor":0.5
			}
		},
		{
			"doubleSided":true,
			"name":"Pfost",
			"pbrMetallicRoughness":{
				"baseColorFactor":[
					0.09462612122297287,
					0.09462612122297287,
					0.09462612122297287,
					1
				],
				"metallicFactor":0,
				"roughnessFactor":0.5
			}
		}
	],
	"meshes":[
		{
			"name":"Plane",
			"primitives":[
				{
					"attributes":{
						"POSITION":0,
						"NORMAL":1,
						"TEXCOORD_0":2,
						"TANGENT":3
					},
					"indices":4,
					"material":0
				}
			]
		},
		{
			"name":"Cube.001_Cube",
			"primitives":[
				{
					"attributes":{
						"POSITION":5,
						"NORMAL":6,
						"TEXCOORD_0":7,
						"TANGENT":8
					},
					"indices":9,
					"material":1
				},
				{
					"attributes":{
						"POSITION":10,
						"NORMAL":11,
						"TEXCOORD_0":12,
						"TANGENT":13
					},
					"indices":14,
					"material":2
				},
				{
					"attributes":{
						"POSITION":15,
						"NORMAL":16,
						"TEXCOORD_0":17,
						"TANGENT":18
					},
					"indices":19,
					"material":3
				}
			]
		},
		{
			"name":"Windows_Plane.002",
			"primitives":[
				{
					"attributes":{
						"POSITION":20,
						"NORMAL":21,
						"TEXCOORD_0":22,
						"TANGENT":23
					},
					"indices":24,
					"material":4
				},
				{
					"attributes":{
						"POSITION":25,
						"NORMAL":26,
						"TEXCOORD_0":27,
						"TANGENT":28
					},
					"indices":29,
					"material":5
				}
			]
		},
		{
			"name":"Cube.001",
			"primitives":[
				{
					"attributes":{
						"POSITION":30,
						"NORMAL":31,
						"TEXCOORD_0":32,
						"TANGENT":33
					},
					"indices":34,
					"material":6
				},
				{
					"attributes":{
						"POSITION":35,
						"NORMAL":36,
						"TEXCOORD_0":37,
						"TANGENT":38
					},
					"indices":39,
					"material":7
				},
				{
					"attributes":{
						"POSITION":40,
						"NORMAL":41,
						"TEXCOORD_0":42,
						"TANGENT":43
					},
					"indices":44,
					"material":8
				}
			]
		}
	],
	"accessors":[
		{
			"bufferView":0,
			"componentType":5126,
			"count":472,
			"max":[
				1.0263559818267822,
				2.2022900581359863,
				0.6960980296134949
			],
			"min":[
				-0.1002660021185875,
				-2.2022900581359863,
				0.0010580000234767795
			],
			"type":"VEC3"
		},
		{
			"bufferView":1,
			"componentType":5126,
			"count":472,
			"type":"VEC3"
		},
		{
			"bufferView":2,
			"componentType":5126,
			"count":472,
			"type":"VEC2"
		},
		{
			"bufferView":3,
			"componentType":5126,
			"count":472,
			"type":"VEC4"
		},
		{
			"bufferView":4,
			"componentType":5123,
			"count":732,
			"type":"SCALAR"
		},
		{
			"bufferView":5,
			"componentType":5126,
			"count":48,
			"max":[
				7.1728081703186035,
				5.410830974578857,
				-4.526885032653809
			],
			"min":[
				-7.1728081703186035,
				-5.410830974578857,
				-8.409725189208984
			],
			"type":"VEC3"
		},
		{
			"bufferView":6,
			"componentType":5126,
			"count":48,
			"type":"VEC3"
		},
		{
			"bufferView":7,
			"componentType":5126,
			"count":48,
			"type":"VEC2"
		},
		{
			"bufferView":8,
			"componentType":5126,
			"count":48,
			"type":"VEC4"
		},
		{
			"bufferView":9,
			"componentType":5123,
			"count":96,
			"type":"SCALAR"
		},
		{
			"bufferView":10,
			"componentType":5126,
			"count":36,
			"max":[
				6.5,
				5,
				1
			],
			"min":[
				-6.5,
				-5,
				-8.198055267333984
			],
			"type":"VEC3"
		},
		{
			"bufferView":11,
			"componentType":5126,
			"count":36,
			"type":"VEC3"
		},
		{
			"bufferView":12,
			"componentType":5126,
			"count":36,
			"type":"VEC2"
		},
		{
			"bufferView":13,
			"componentType":5126,
			"count":36,
			"type":"VEC4"
		},
		{
			"bufferView":14,
			"componentType":5123,
			"count":60,
			"type":"SCALAR"
		},
		{
			"bufferView":15,
			"componentType":5126,
			"count":104,
			"max":[
				7.1728081703186035,
				5.410830974578857,
				-4.315215110778809
			],
			"min":[
				-7.1728081703186035,
				-5.410830974578857,
				-8.409725189208984
			],
			"type":"VEC3"
		},
		{
			"bufferView":16,
			"componentType":5126,
			"count":104,
			"type":"VEC3"
		},
		{
			"bufferView":17,
			"componentType":5126,
			"count":104,
			"type":"VEC2"
		},
		{
			"bufferView":18,
			"componentType":5126,
			"count":104,
			"type":"VEC4"
		},
		{
			"bufferView":19,
			"componentType":5123,
			"count":216,
			"type":"SCALAR"
		},
		{
			"bufferView":20,
			"componentType":5126,
			"count":832,
			"max":[
				6.531901836395264,
				5.028803825378418,
				-0.7321529984474182
			],
			"min":[
				-6.512639045715332,
				-5.029170989990234,
				-6.5496602058410645
			],
			"type":"VEC3"
		},
		{
			"bufferView":21,
			"componentType":5126,
			"count":832,
			"type":"VEC3"
		},
		{
			"bufferView":22,
			"componentType":5126,
			"count":832,
			"type":"VEC2"
		},
		{
			"bufferView":23,
			"componentType":5126,
			"count":832,
			"type":"VEC4"
		},
		{
			"bufferView":24,
			"componentType":5123,
			"count":1248,
			"type":"SCALAR"
		},
		{
			"bufferView":25,
			"componentType":5126,
			"count":5408,
			"max":[
				6.563262939453125,
				5.060164928436279,
				-0.7321529984474182
			],
			"min":[
				-6.544000148773193,
				-5.060532093048096,
				-6.5496602058410645
			],
			"type":"VEC3"
		},
		{
			"bufferView":26,
			"componentType":5126,
			"count":5408,
			"type":"VEC3"
		},
		{
			"bufferView":27,
			"componentType":5126,
			"count":5408,
			"type":"VEC2"
		},
		{
			"bufferView":28,
			"componentType":5126,
			"count":5408,
			"type":"VEC4"
		},
		{
			"bufferView":29,
			"componentType":5123,
			"count":9984,
			"type":"SCALAR"
		},
		{
			"bufferView":30,
			"componentType":5126,
			"count":32,
			"max":[
				5,
				2.014404535293579,
				0.033633384853601456
			],
			"min":[
				0,
				-0.026229843497276306,
				-0.033633384853601456
			],
			"type":"VEC3"
		},
		{
			"bufferView":31,
			"componentType":5126,
			"count":32,
			"type":"VEC3"
		},
		{
			"bufferView":32,
			"componentType":5126,
			"count":32,
			"type":"VEC2"
		},
		{
			"bufferView":33,
			"componentType":5126,
			"count":32,
			"type":"VEC4"
		},
		{
			"bufferView":34,
			"componentType":5123,
			"count":48,
			"type":"SCALAR"
		},
		{
			"bufferView":35,
			"componentType":5126,
			"count":84,
			"max":[
				5,
				2.6946160793304443,
				0.06513327360153198
			],
			"min":[
				0,
				-0.7064414024353027,
				-0.06513327360153198
			],
			"type":"VEC3"
		},
		{
			"bufferView":36,
			"componentType":5126,
			"count":84,
			"type":"VEC3"
		},
		{
			"bufferView":37,
			"componentType":5126,
			"count":84,
			"type":"VEC2"
		},
		{
			"bufferView":38,
			"componentType":5126,
			"count":84,
			"type":"VEC4"
		},
		{
			"bufferView":39,
			"componentType":5123,
			"count":126,
			"type":"SCALAR"
		},
		{
			"bufferView":40,
			"componentType":5126,
			"count":24,
			"max":[
				0.12385058403015137,
				2.7394795417785645,
				0.12385058403015137
			],
			"min":[
				-0.12385058403015137,
				-0.7780196666717529,
				-0.12385058403015137
			],
			"type":"VEC3"
		},
		{
			"bufferView":41,
			"componentType":5126,
			"count":24,
			"type":"VEC3"
		},
		{
			"bufferView":42,
			"componentType":5126,
			"count":24,
			"type":"VEC2"
		},
		{
			"bufferView":43,
			"componentType":5126,
			"count":24,
			"type":"VEC4"
		},
		{
			"bufferView":44,
			"componentType":5123,
			"count":36,
			"type":"SCALAR"
		}
	],
	"bufferViews":[
		{
			"buffer":0,
			"byteLength":5664,
			"byteOffset":0,
			"target":34962
		},
		{
			"buffer":0,
			"byteLength":5664,
			"byteOffset":5664,
			"target":34962
		},
		{
			"buffer":0,
			"byteLength":3776,
			"byteOffset":11328,
			"target":34962
		},
		{
			"buffer":0,
			"byteLength":7552,
			"byteOffset":15104,
			"target":34962
		},
		{
			"buffer":0,
			"byteLength":1464,
			"byteOffset":22656,
			"target":34963
		},
		{
			"buffer":0,
			"byteLength":576,
			"byteOffset":24120,
			"target":34962
		},
		{
			"buffer":0,
			"byteLength":576,
			"byteOffset":24696,
			"target":34962
		},
		{
			"buffer":0,
			"byteLength":384,
			"byteOffset":25272,
			"target":34962
		},
		{
			"buffer":0,
			"byteLength":768,
			"byteOffset":25656,
			"target":34962
		},
		{
			"buffer":0,
			"byteLength":192,
			"byteOffset":26424,
			"target":34963
		},
		{
			"buffer":0,
			"byteLength":432,
			"byteOffset":26616,
			"target":34962
		},
		{
			"buffer":0,
			"byteLength":432,
			"byteOffset":27048,
			"target":34962
		},
		{
			"buffer":0,
			"byteLength":288,
			"byteOffset":27480,
			"target":34962
		},
		{
			"buffer":0,
			"byteLength":576,
			"byteOffset":27768,
			"target":34962
		},
		{
			"buffer":0,
			"byteLength":120,
			"byteOffset":28344,
			"target":34963
		},
		{
			"buffer":0,
			"byteLength":1248,
			"byteOffset":28464,
			"target":34962
		},
		{
			"buffer":0,
			"byteLength":1248,
			"byteOffset":29712,
			"target":34962
		},
		{
			"buffer":0,
			"byteLength":832,
			"byteOffset":30960,
			"target":34962
		},
		{
			"buffer":0,
			"byteLength":1664,
			"byteOffset":31792,
			"target":34962
		},
		{
			"buffer":0,
			"byteLength":432,
			"byteOffset":33456,
			"target":34963
		},
		{
			"buffer":0,
			"byteLength":9984,
			"byteOffset":33888,
			"target":34962
		},
		{
			"buffer":0,
			"byteLength":9984,
			"byteOffset":43872,
			"target":34962
		},
		{
			"buffer":0,
			"byteLength":6656,
			"byteOffset":53856,
			"target":34962
		},
		{
			"buffer":0,
			"byteLength":13312,
			"byteOffset":60512,
			"target":34962
		},
		{
			"buffer":0,
			"byteLength":2496,
			"byteOffset":73824,
			"target":34963
		},
		{
			"buffer":0,
			"byteLength":64896,
			"byteOffset":76320,
			"target":34962
		},
		{
			"buffer":0,
			"byteLength":64896,
			"byteOffset":141216,
			"target":34962
		},
		{
			"buffer":0,
			"byteLength":43264,
			"byteOffset":206112,
			"target":34962
		},
		{
			"buffer":0,
			"byteLength":86528,
			"byteOffset":249376,
			"target":34962
		},
		{
			"buffer":0,
			"byteLength":19968,
			"byteOffset":335904,
			"target":34963
		},
		{
			"buffer":0,
			"byteLength":384,
			"byteOffset":355872,
			"target":34962
		},
		{
			"buffer":0,
			"byteLength":384,
			"byteOffset":356256,
			"target":34962
		},
		{
			"buffer":0,
			"byteLength":256,
			"byteOffset":356640,
			"target":34962
		},
		{
			"buffer":0,
			"byteLength":512,
			"byteOffset":356896,
			"target":34962
		},
		{
			"buffer":0,
			"byteLength":96,
			"byteOffset":357408,
			"target":34963
		},
		{
			"buffer":0,
			"byteLength":1008,
			"byteOffset":357504,
			"target":34962
		},
		{
			"buffer":0,
			"byteLength":1008,
			"byteOffset":358512,
			"target":34962
		},
		{
			"buffer":0,
			"byteLength":672,
			"byteOffset":359520,
			"target":34962
		},
		{
			"buffer":0,
			"byteLength":1344,
			"byteOffset":360192,
			"target":34962
		},
		{
			"buffer":0,
			"byteLength":252,
			"byteOffset":361536,
			"target":34963
		},
		{
			"buffer":0,
			"byteLength":288,
			"byteOffset":361788,
			"target":34962
		},
		{
			"buffer":0,
			"byteLength":288,
			"byteOffset":362076,
			"target":34962
		},
		{
			"buffer":0,
			"byteLength":192,
			"byteOffset":362364,
			"target":34962
		},
		{
			"buffer":0,
			"byteLength":384,
			"byteOffset":362556,
			"target":34962
		},
		{
			"buffer":0,
			"byteLength":72,
			"byteOffset":362940,
			"target":34963
		}
	],
	"buffers":[
		{
			"byteLength":363012,
			"uri":"SoundSavingWall-8f95629ef9e87f41d51292c7d28342b7.bin"
		}
	]
}
