{
	"asset":{
		"generator":"Khronos glTF Blender I/O v4.2.69",
		"version":"2.0"
	},
	"scene":0,
	"scenes":[
		{
			"name":"Scene",
			"nodes":[
				0,
				1,
				2
			]
		}
	],
	"nodes":[
		{
			"mesh":0,
			"name":"Field"
		},
		{
			"mesh":1,
			"name":"Crops"
		},
		{
			"mesh":2,
			"name":"Crops.001"
		}
	],
	"materials":[
		{
			"doubleSided":true,
			"name":"Ground",
			"pbrMetallicRoughness":{
				"baseColorFactor":[
					0.07658004760742188,
					0.03121103160083294,
					0,
					1
				],
				"metallicFactor":0,
				"roughnessFactor":0.5
			}
		},
		{
			"doubleSided":true,
			"name":"Crops",
			"pbrMetallicRoughness":{
				"baseColorFactor":[
					0.0006018017884343863,
					0.8000000715255737,
					0.00019357068231329322,
					1
				],
				"metallicFactor":0,
				"roughnessFactor":0.5
			}
		}
	],
	"meshes":[
		{
			"name":"Plane",
			"primitives":[
				{
					"attributes":{
						"POSITION":0,
						"NORMAL":1,
						"TEXCOORD_0":2,
						"TANGENT":3
					},
					"indices":4,
					"material":0
				}
			]
		},
		{
			"name":"Plane.001",
			"primitives":[
				{
					"attributes":{
						"POSITION":5,
						"NORMAL":6,
						"TEXCOORD_0":7,
						"TANGENT":8
					},
					"indices":9,
					"material":1
				}
			]
		},
		{
			"name":"Plane.002",
			"primitives":[
				{
					"attributes":{
						"POSITION":10,
						"NORMAL":11,
						"TEXCOORD_0":12,
						"TANGENT":13
					},
					"indices":14,
					"material":1
				}
			]
		}
	],
	"accessors":[
		{
			"bufferView":0,
			"componentType":5126,
			"count":36,
			"max":[
				5,
				0,
				52
			],
			"min":[
				-3,
				-2,
				-52
			],
			"type":"VEC3"
		},
		{
			"bufferView":1,
			"componentType":5126,
			"count":36,
			"type":"VEC3"
		},
		{
			"bufferView":2,
			"componentType":5126,
			"count":36,
			"type":"VEC2"
		},
		{
			"bufferView":3,
			"componentType":5126,
			"count":36,
			"type":"VEC4"
		},
		{
			"bufferView":4,
			"componentType":5123,
			"count":54,
			"type":"SCALAR"
		},
		{
			"bufferView":5,
			"componentType":5126,
			"count":96,
			"max":[
				3.1190171241760254,
				1.0965309143066406,
				49.634708404541016
			],
			"min":[
				-1.0865559577941895,
				-0.36329585313796997,
				-49.634708404541016
			],
			"type":"VEC3"
		},
		{
			"bufferView":6,
			"componentType":5126,
			"count":96,
			"type":"VEC3"
		},
		{
			"bufferView":7,
			"componentType":5126,
			"count":96,
			"type":"VEC2"
		},
		{
			"bufferView":8,
			"componentType":5126,
			"count":96,
			"type":"VEC4"
		},
		{
			"bufferView":9,
			"componentType":5123,
			"count":144,
			"type":"SCALAR"
		},
		{
			"bufferView":10,
			"componentType":5126,
			"count":8,
			"max":[
				0.713186502456665,
				1.0802040100097656,
				0.713186502456665
			],
			"min":[
				-0.713186502456665,
				-0.3461690843105316,
				-0.713186502456665
			],
			"type":"VEC3"
		},
		{
			"bufferView":11,
			"componentType":5126,
			"count":8,
			"type":"VEC3"
		},
		{
			"bufferView":12,
			"componentType":5126,
			"count":8,
			"type":"VEC2"
		},
		{
			"bufferView":13,
			"componentType":5126,
			"count":8,
			"type":"VEC4"
		},
		{
			"bufferView":14,
			"componentType":5123,
			"count":12,
			"type":"SCALAR"
		}
	],
	"bufferViews":[
		{
			"buffer":0,
			"byteLength":432,
			"byteOffset":0,
			"target":34962
		},
		{
			"buffer":0,
			"byteLength":432,
			"byteOffset":432,
			"target":34962
		},
		{
			"buffer":0,
			"byteLength":288,
			"byteOffset":864,
			"target":34962
		},
		{
			"buffer":0,
			"byteLength":576,
			"byteOffset":1152,
			"target":34962
		},
		{
			"buffer":0,
			"byteLength":108,
			"byteOffset":1728,
			"target":34963
		},
		{
			"buffer":0,
			"byteLength":1152,
			"byteOffset":1836,
			"target":34962
		},
		{
			"buffer":0,
			"byteLength":1152,
			"byteOffset":2988,
			"target":34962
		},
		{
			"buffer":0,
			"byteLength":768,
			"byteOffset":4140,
			"target":34962
		},
		{
			"buffer":0,
			"byteLength":1536,
			"byteOffset":4908,
			"target":34962
		},
		{
			"buffer":0,
			"byteLength":288,
			"byteOffset":6444,
			"target":34963
		},
		{
			"buffer":0,
			"byteLength":96,
			"byteOffset":6732,
			"target":34962
		},
		{
			"buffer":0,
			"byteLength":96,
			"byteOffset":6828,
			"target":34962
		},
		{
			"buffer":0,
			"byteLength":64,
			"byteOffset":6924,
			"target":34962
		},
		{
			"buffer":0,
			"byteLength":128,
			"byteOffset":6988,
			"target":34962
		},
		{
			"buffer":0,
			"byteLength":24,
			"byteOffset":7116,
			"target":34963
		}
	],
	"buffers":[
		{
			"byteLength":7140,
			"uri":"SpecialGround-f518ea2a6771af0f4c2a62eb52b708eb.bin"
		}
	]
}
