{
	"asset":{
		"generator":"Khronos glTF Blender I/O v4.2.69",
		"version":"2.0"
	},
	"scene":0,
	"scenes":[
		{
			"name":"Scene",
			"nodes":[
				0,
				1
			]
		}
	],
	"nodes":[
		{
			"mesh":0,
			"name":"Plane",
			"translation":[
				0,
				3,
				23
			]
		},
		{
			"mesh":1,
			"name":"Plane.001"
		}
	],
	"materials":[
		{
			"doubleSided":true,
			"name":"Asphalt",
			"pbrMetallicRoughness":{
				"baseColorFactor":[
					0.08353149890899658,
					0.08353149890899658,
					0.08353149890899658,
					1
				],
				"metallicFactor":0,
				"roughnessFactor":0.5
			}
		},
		{
			"doubleSided":true,
			"name":"Metal1",
			"pbrMetallicRoughness":{
				"baseColorFactor":[
					0.710553765296936,
					0.6083463430404663,
					0.6700553894042969,
					1
				],
				"metallicFactor":0,
				"roughnessFactor":0.5
			}
		},
		{
			"doubleSided":true,
			"name":"Metal2",
			"pbrMetallicRoughness":{
				"baseColorFactor":[
					0.410938560962677,
					0.03669293224811554,
					0.05985452979803085,
					1
				],
				"metallicFactor":0,
				"roughnessFactor":0.5
			}
		},
		{
			"doubleSided":true,
			"name":"Beton2",
			"pbrMetallicRoughness":{
				"baseColorFactor":[
					0.4200241267681122,
					0.4200241267681122,
					0.4200241267681122,
					1
				],
				"metallicFactor":0,
				"roughnessFactor":0.5
			}
		},
		{
			"doubleSided":true,
			"name":"Beton1",
			"pbrMetallicRoughness":{
				"baseColorFactor":[
					0.5277187824249268,
					0.5277187824249268,
					0.5277187824249268,
					1
				],
				"metallicFactor":0,
				"roughnessFactor":0.5
			}
		},
		{
			"doubleSided":true,
			"name":"Grass",
			"pbrMetallicRoughness":{
				"baseColorFactor":[
					0.017174694687128067,
					0.0946258008480072,
					0.008192942477762699,
					1
				],
				"metallicFactor":0,
				"roughnessFactor":0.5
			}
		}
	],
	"meshes":[
		{
			"name":"Plane",
			"primitives":[
				{
					"attributes":{
						"POSITION":0,
						"NORMAL":1,
						"TEXCOORD_0":2,
						"TANGENT":3
					},
					"indices":4,
					"material":0
				},
				{
					"attributes":{
						"POSITION":5,
						"NORMAL":6,
						"TEXCOORD_0":7,
						"TANGENT":8
					},
					"indices":9,
					"material":1
				},
				{
					"attributes":{
						"POSITION":10,
						"NORMAL":11,
						"TEXCOORD_0":12,
						"TANGENT":13
					},
					"indices":14,
					"material":2
				},
				{
					"attributes":{
						"POSITION":15,
						"NORMAL":16,
						"TEXCOORD_0":17,
						"TANGENT":18
					},
					"indices":19,
					"material":3
				}
			]
		},
		{
			"name":"Plane.001",
			"primitives":[
				{
					"attributes":{
						"POSITION":20,
						"NORMAL":21,
						"TEXCOORD_0":22,
						"TANGENT":23
					},
					"indices":24,
					"material":0
				},
				{
					"attributes":{
						"POSITION":25,
						"NORMAL":26,
						"TEXCOORD_0":27,
						"TANGENT":28
					},
					"indices":29,
					"material":4
				},
				{
					"attributes":{
						"POSITION":30,
						"NORMAL":31,
						"TEXCOORD_0":32,
						"TANGENT":33
					},
					"indices":34,
					"material":5
				}
			]
		}
	],
	"accessors":[
		{
			"bufferView":0,
			"componentType":5126,
			"count":200,
			"max":[
				3.244995594024658,
				5.094161033630371,
				2
			],
			"min":[
				-3.244995594024658,
				5.036492347717285,
				-48
			],
			"type":"VEC3"
		},
		{
			"bufferView":1,
			"componentType":5126,
			"count":200,
			"type":"VEC3"
		},
		{
			"bufferView":2,
			"componentType":5126,
			"count":200,
			"type":"VEC2"
		},
		{
			"bufferView":3,
			"componentType":5126,
			"count":200,
			"type":"VEC4"
		},
		{
			"bufferView":4,
			"componentType":5123,
			"count":300,
			"type":"SCALAR"
		},
		{
			"bufferView":5,
			"componentType":5126,
			"count":5200,
			"max":[
				3.94877290725708,
				6.19843864440918,
				2
			],
			"min":[
				-3.94877290725708,
				5.254117965698242,
				-48
			],
			"type":"VEC3"
		},
		{
			"bufferView":6,
			"componentType":5126,
			"count":5200,
			"type":"VEC3"
		},
		{
			"bufferView":7,
			"componentType":5126,
			"count":5200,
			"type":"VEC2"
		},
		{
			"bufferView":8,
			"componentType":5126,
			"count":5200,
			"type":"VEC4"
		},
		{
			"bufferView":9,
			"componentType":5123,
			"count":7800,
			"type":"SCALAR"
		},
		{
			"bufferView":10,
			"componentType":5126,
			"count":400,
			"max":[
				3.9239354133605957,
				6.077646732330322,
				2
			],
			"min":[
				-3.9239354133605957,
				5.36991024017334,
				-48
			],
			"type":"VEC3"
		},
		{
			"bufferView":11,
			"componentType":5126,
			"count":400,
			"type":"VEC3"
		},
		{
			"bufferView":12,
			"componentType":5126,
			"count":400,
			"type":"VEC2"
		},
		{
			"bufferView":13,
			"componentType":5126,
			"count":400,
			"type":"VEC4"
		},
		{
			"bufferView":14,
			"componentType":5123,
			"count":600,
			"type":"SCALAR"
		},
		{
			"bufferView":15,
			"componentType":5126,
			"count":1400,
			"max":[
				4.0259904861450195,
				5.302189826965332,
				2
			],
			"min":[
				-4.0259904861450195,
				3.981229066848755,
				-48
			],
			"type":"VEC3"
		},
		{
			"bufferView":16,
			"componentType":5126,
			"count":1400,
			"type":"VEC3"
		},
		{
			"bufferView":17,
			"componentType":5126,
			"count":1400,
			"type":"VEC2"
		},
		{
			"bufferView":18,
			"componentType":5126,
			"count":1400,
			"type":"VEC4"
		},
		{
			"bufferView":19,
			"componentType":5123,
			"count":2100,
			"type":"SCALAR"
		},
		{
			"bufferView":20,
			"componentType":5126,
			"count":16,
			"max":[
				3.2502171993255615,
				8.10952377319336,
				170.0582733154297
			],
			"min":[
				-3.2502171993255615,
				-1.1047003269195557,
				-170.0582733154297
			],
			"type":"VEC3"
		},
		{
			"bufferView":21,
			"componentType":5126,
			"count":16,
			"type":"VEC3"
		},
		{
			"bufferView":22,
			"componentType":5126,
			"count":16,
			"type":"VEC2"
		},
		{
			"bufferView":23,
			"componentType":5126,
			"count":16,
			"type":"VEC4"
		},
		{
			"bufferView":24,
			"componentType":5123,
			"count":24,
			"type":"SCALAR"
		},
		{
			"bufferView":25,
			"componentType":5126,
			"count":32,
			"max":[
				2.5999090671539307,
				7.611993789672852,
				25.867944717407227
			],
			"min":[
				-2.5999090671539307,
				2.338120222091675,
				-25.867944717407227
			],
			"type":"VEC3"
		},
		{
			"bufferView":26,
			"componentType":5126,
			"count":32,
			"type":"VEC3"
		},
		{
			"bufferView":27,
			"componentType":5126,
			"count":32,
			"type":"VEC2"
		},
		{
			"bufferView":28,
			"componentType":5126,
			"count":32,
			"type":"VEC4"
		},
		{
			"bufferView":29,
			"componentType":5123,
			"count":48,
			"type":"SCALAR"
		},
		{
			"bufferView":30,
			"componentType":5126,
			"count":60,
			"max":[
				8.524259567260742,
				8.06956958770752,
				170.0582733154297
			],
			"min":[
				-8.524259567260742,
				-1.1047003269195557,
				-170.0582733154297
			],
			"type":"VEC3"
		},
		{
			"bufferView":31,
			"componentType":5126,
			"count":60,
			"type":"VEC3"
		},
		{
			"bufferView":32,
			"componentType":5126,
			"count":60,
			"type":"VEC2"
		},
		{
			"bufferView":33,
			"componentType":5126,
			"count":60,
			"type":"VEC4"
		},
		{
			"bufferView":34,
			"componentType":5123,
			"count":84,
			"type":"SCALAR"
		}
	],
	"bufferViews":[
		{
			"buffer":0,
			"byteLength":2400,
			"byteOffset":0,
			"target":34962
		},
		{
			"buffer":0,
			"byteLength":2400,
			"byteOffset":2400,
			"target":34962
		},
		{
			"buffer":0,
			"byteLength":1600,
			"byteOffset":4800,
			"target":34962
		},
		{
			"buffer":0,
			"byteLength":3200,
			"byteOffset":6400,
			"target":34962
		},
		{
			"buffer":0,
			"byteLength":600,
			"byteOffset":9600,
			"target":34963
		},
		{
			"buffer":0,
			"byteLength":62400,
			"byteOffset":10200,
			"target":34962
		},
		{
			"buffer":0,
			"byteLength":62400,
			"byteOffset":72600,
			"target":34962
		},
		{
			"buffer":0,
			"byteLength":41600,
			"byteOffset":135000,
			"target":34962
		},
		{
			"buffer":0,
			"byteLength":83200,
			"byteOffset":176600,
			"target":34962
		},
		{
			"buffer":0,
			"byteLength":15600,
			"byteOffset":259800,
			"target":34963
		},
		{
			"buffer":0,
			"byteLength":4800,
			"byteOffset":275400,
			"target":34962
		},
		{
			"buffer":0,
			"byteLength":4800,
			"byteOffset":280200,
			"target":34962
		},
		{
			"buffer":0,
			"byteLength":3200,
			"byteOffset":285000,
			"target":34962
		},
		{
			"buffer":0,
			"byteLength":6400,
			"byteOffset":288200,
			"target":34962
		},
		{
			"buffer":0,
			"byteLength":1200,
			"byteOffset":294600,
			"target":34963
		},
		{
			"buffer":0,
			"byteLength":16800,
			"byteOffset":295800,
			"target":34962
		},
		{
			"buffer":0,
			"byteLength":16800,
			"byteOffset":312600,
			"target":34962
		},
		{
			"buffer":0,
			"byteLength":11200,
			"byteOffset":329400,
			"target":34962
		},
		{
			"buffer":0,
			"byteLength":22400,
			"byteOffset":340600,
			"target":34962
		},
		{
			"buffer":0,
			"byteLength":4200,
			"byteOffset":363000,
			"target":34963
		},
		{
			"buffer":0,
			"byteLength":192,
			"byteOffset":367200,
			"target":34962
		},
		{
			"buffer":0,
			"byteLength":192,
			"byteOffset":367392,
			"target":34962
		},
		{
			"buffer":0,
			"byteLength":128,
			"byteOffset":367584,
			"target":34962
		},
		{
			"buffer":0,
			"byteLength":256,
			"byteOffset":367712,
			"target":34962
		},
		{
			"buffer":0,
			"byteLength":48,
			"byteOffset":367968,
			"target":34963
		},
		{
			"buffer":0,
			"byteLength":384,
			"byteOffset":368016,
			"target":34962
		},
		{
			"buffer":0,
			"byteLength":384,
			"byteOffset":368400,
			"target":34962
		},
		{
			"buffer":0,
			"byteLength":256,
			"byteOffset":368784,
			"target":34962
		},
		{
			"buffer":0,
			"byteLength":512,
			"byteOffset":369040,
			"target":34962
		},
		{
			"buffer":0,
			"byteLength":96,
			"byteOffset":369552,
			"target":34963
		},
		{
			"buffer":0,
			"byteLength":720,
			"byteOffset":369648,
			"target":34962
		},
		{
			"buffer":0,
			"byteLength":720,
			"byteOffset":370368,
			"target":34962
		},
		{
			"buffer":0,
			"byteLength":480,
			"byteOffset":371088,
			"target":34962
		},
		{
			"buffer":0,
			"byteLength":960,
			"byteOffset":371568,
			"target":34962
		},
		{
			"buffer":0,
			"byteLength":168,
			"byteOffset":372528,
			"target":34963
		}
	],
	"buffers":[
		{
			"byteLength":372696,
			"uri":"street_bridge-4d6fe2c6691393c32c2f0d1d28bcb042.bin"
		}
	]
}
