{
	"asset":{
		"generator":"Khronos glTF Blender I/O v4.2.69",
		"version":"2.0"
	},
	"scene":0,
	"scenes":[
		{
			"name":"Scene",
			"nodes":[
				0,
				1,
				2
			]
		}
	],
	"nodes":[
		{
			"mesh":0,
			"name":"Cube"
		},
		{
			"mesh":1,
			"name":"Cube.001"
		},
		{
			"mesh":2,
			"name":"Cube.002"
		}
	],
	"materials":[
		{
			"doubleSided":true,
			"name":"Beton",
			"pbrMetallicRoughness":{
				"baseColorFactor":[
					0.800000011920929,
					0.800000011920929,
					0.800000011920929,
					1
				],
				"metallicFactor":0,
				"roughnessFactor":0.5
			}
		},
		{
			"doubleSided":true,
			"name":"Floor",
			"pbrMetallicRoughness":{
				"baseColorFactor":[
					0.800000011920929,
					0.800000011920929,
					0.800000011920929,
					1
				],
				"metallicFactor":0,
				"roughnessFactor":0.5
			}
		}
	],
	"meshes":[
		{
			"name":"Cube.001",
			"primitives":[
				{
					"attributes":{
						"POSITION":0,
						"NORMAL":1,
						"TEXCOORD_0":2,
						"TANGENT":3
					},
					"indices":4,
					"material":0
				},
				{
					"attributes":{
						"POSITION":5,
						"NORMAL":6,
						"TEXCOORD_0":7,
						"TANGENT":8
					},
					"indices":9,
					"material":1
				}
			]
		},
		{
			"name":"Cube.003",
			"primitives":[
				{
					"attributes":{
						"POSITION":10,
						"NORMAL":11,
						"TEXCOORD_0":12,
						"TANGENT":13
					},
					"indices":14,
					"material":0
				},
				{
					"attributes":{
						"POSITION":15,
						"NORMAL":16,
						"TEXCOORD_0":17,
						"TANGENT":18
					},
					"indices":19,
					"material":1
				}
			]
		},
		{
			"name":"Cube.004",
			"primitives":[
				{
					"attributes":{
						"POSITION":20,
						"NORMAL":21,
						"TEXCOORD_0":22,
						"TANGENT":23
					},
					"indices":24,
					"material":0
				},
				{
					"attributes":{
						"POSITION":25,
						"NORMAL":26,
						"TEXCOORD_0":27,
						"TANGENT":28
					},
					"indices":9,
					"material":1
				}
			]
		}
	],
	"accessors":[
		{
			"bufferView":0,
			"componentType":5126,
			"count":92,
			"max":[
				5,
				0.875541090965271,
				5
			],
			"min":[
				-5,
				-0.5,
				-5
			],
			"type":"VEC3"
		},
		{
			"bufferView":1,
			"componentType":5126,
			"count":92,
			"type":"VEC3"
		},
		{
			"bufferView":2,
			"componentType":5126,
			"count":92,
			"type":"VEC2"
		},
		{
			"bufferView":3,
			"componentType":5126,
			"count":92,
			"type":"VEC4"
		},
		{
			"bufferView":4,
			"componentType":5123,
			"count":174,
			"type":"SCALAR"
		},
		{
			"bufferView":5,
			"componentType":5126,
			"count":4,
			"max":[
				5,
				0.09268444776535034,
				4.862394332885742
			],
			"min":[
				-5,
				0.09268444776535034,
				-4.862394332885742
			],
			"type":"VEC3"
		},
		{
			"bufferView":6,
			"componentType":5126,
			"count":4,
			"type":"VEC3"
		},
		{
			"bufferView":7,
			"componentType":5126,
			"count":4,
			"type":"VEC2"
		},
		{
			"bufferView":8,
			"componentType":5126,
			"count":4,
			"type":"VEC4"
		},
		{
			"bufferView":9,
			"componentType":5123,
			"count":6,
			"type":"SCALAR"
		},
		{
			"bufferView":10,
			"componentType":5126,
			"count":20,
			"max":[
				5,
				0.09357549250125885,
				5
			],
			"min":[
				-5,
				-0.5,
				-5
			],
			"type":"VEC3"
		},
		{
			"bufferView":11,
			"componentType":5126,
			"count":20,
			"type":"VEC3"
		},
		{
			"bufferView":12,
			"componentType":5126,
			"count":20,
			"type":"VEC2"
		},
		{
			"bufferView":13,
			"componentType":5126,
			"count":20,
			"type":"VEC4"
		},
		{
			"bufferView":14,
			"componentType":5123,
			"count":30,
			"type":"SCALAR"
		},
		{
			"bufferView":15,
			"componentType":5126,
			"count":4,
			"max":[
				5,
				0.09357549250125885,
				5
			],
			"min":[
				-5,
				0.09357549250125885,
				-5
			],
			"type":"VEC3"
		},
		{
			"bufferView":16,
			"componentType":5126,
			"count":4,
			"type":"VEC3"
		},
		{
			"bufferView":17,
			"componentType":5126,
			"count":4,
			"type":"VEC2"
		},
		{
			"bufferView":18,
			"componentType":5126,
			"count":4,
			"type":"VEC4"
		},
		{
			"bufferView":19,
			"componentType":5123,
			"count":6,
			"type":"SCALAR"
		},
		{
			"bufferView":20,
			"componentType":5126,
			"count":58,
			"max":[
				5,
				0.875541090965271,
				5.000000476837158
			],
			"min":[
				-5,
				-0.5,
				-5
			],
			"type":"VEC3"
		},
		{
			"bufferView":21,
			"componentType":5126,
			"count":58,
			"type":"VEC3"
		},
		{
			"bufferView":22,
			"componentType":5126,
			"count":58,
			"type":"VEC2"
		},
		{
			"bufferView":23,
			"componentType":5126,
			"count":58,
			"type":"VEC4"
		},
		{
			"bufferView":24,
			"componentType":5123,
			"count":102,
			"type":"SCALAR"
		},
		{
			"bufferView":25,
			"componentType":5126,
			"count":4,
			"max":[
				5,
				0.09268444776535034,
				5
			],
			"min":[
				-5,
				0.09268444776535034,
				-4.862394332885742
			],
			"type":"VEC3"
		},
		{
			"bufferView":26,
			"componentType":5126,
			"count":4,
			"type":"VEC3"
		},
		{
			"bufferView":27,
			"componentType":5126,
			"count":4,
			"type":"VEC2"
		},
		{
			"bufferView":28,
			"componentType":5126,
			"count":4,
			"type":"VEC4"
		}
	],
	"bufferViews":[
		{
			"buffer":0,
			"byteLength":1104,
			"byteOffset":0,
			"target":34962
		},
		{
			"buffer":0,
			"byteLength":1104,
			"byteOffset":1104,
			"target":34962
		},
		{
			"buffer":0,
			"byteLength":736,
			"byteOffset":2208,
			"target":34962
		},
		{
			"buffer":0,
			"byteLength":1472,
			"byteOffset":2944,
			"target":34962
		},
		{
			"buffer":0,
			"byteLength":348,
			"byteOffset":4416,
			"target":34963
		},
		{
			"buffer":0,
			"byteLength":48,
			"byteOffset":4764,
			"target":34962
		},
		{
			"buffer":0,
			"byteLength":48,
			"byteOffset":4812,
			"target":34962
		},
		{
			"buffer":0,
			"byteLength":32,
			"byteOffset":4860,
			"target":34962
		},
		{
			"buffer":0,
			"byteLength":64,
			"byteOffset":4892,
			"target":34962
		},
		{
			"buffer":0,
			"byteLength":12,
			"byteOffset":4956,
			"target":34963
		},
		{
			"buffer":0,
			"byteLength":240,
			"byteOffset":4968,
			"target":34962
		},
		{
			"buffer":0,
			"byteLength":240,
			"byteOffset":5208,
			"target":34962
		},
		{
			"buffer":0,
			"byteLength":160,
			"byteOffset":5448,
			"target":34962
		},
		{
			"buffer":0,
			"byteLength":320,
			"byteOffset":5608,
			"target":34962
		},
		{
			"buffer":0,
			"byteLength":60,
			"byteOffset":5928,
			"target":34963
		},
		{
			"buffer":0,
			"byteLength":48,
			"byteOffset":5988,
			"target":34962
		},
		{
			"buffer":0,
			"byteLength":48,
			"byteOffset":6036,
			"target":34962
		},
		{
			"buffer":0,
			"byteLength":32,
			"byteOffset":6084,
			"target":34962
		},
		{
			"buffer":0,
			"byteLength":64,
			"byteOffset":6116,
			"target":34962
		},
		{
			"buffer":0,
			"byteLength":12,
			"byteOffset":6180,
			"target":34963
		},
		{
			"buffer":0,
			"byteLength":696,
			"byteOffset":6192,
			"target":34962
		},
		{
			"buffer":0,
			"byteLength":696,
			"byteOffset":6888,
			"target":34962
		},
		{
			"buffer":0,
			"byteLength":464,
			"byteOffset":7584,
			"target":34962
		},
		{
			"buffer":0,
			"byteLength":928,
			"byteOffset":8048,
			"target":34962
		},
		{
			"buffer":0,
			"byteLength":204,
			"byteOffset":8976,
			"target":34963
		},
		{
			"buffer":0,
			"byteLength":48,
			"byteOffset":9180,
			"target":34962
		},
		{
			"buffer":0,
			"byteLength":48,
			"byteOffset":9228,
			"target":34962
		},
		{
			"buffer":0,
			"byteLength":32,
			"byteOffset":9276,
			"target":34962
		},
		{
			"buffer":0,
			"byteLength":64,
			"byteOffset":9308,
			"target":34962
		}
	],
	"buffers":[
		{
			"byteLength":9372,
			"uri":"Subway_Bridge_WithEdges-36a671181514bdc4e3dcd0d43b76d5b4.bin"
		}
	]
}
