{
	"asset":{
		"generator":"Khronos glTF Blender I/O v4.2.69",
		"version":"2.0"
	},
	"scene":0,
	"scenes":[
		{
			"name":"Scene",
			"nodes":[
				0,
				1
			]
		}
	],
	"nodes":[
		{
			"mesh":0,
			"name":"Plane",
			"rotation":[
				0,
				-0.7071068286895752,
				0,
				0.7071068286895752
			],
			"scale":[
				0.9100213050842285,
				1,
				1
			]
		},
		{
			"mesh":1,
			"name":"Plane.002",
			"rotation":[
				0,
				-0.7071068286895752,
				0,
				0.7071068286895752
			],
			"scale":[
				0.9100213050842285,
				1,
				1
			]
		}
	],
	"materials":[
		{
			"doubleSided":true,
			"name":"Wall",
			"pbrMetallicRoughness":{
				"baseColorFactor":[
					0.12370999902486801,
					0.12370999902486801,
					0.12370999902486801,
					1
				],
				"metallicFactor":0,
				"roughnessFactor":0.5
			}
		},
		{
			"doubleSided":true,
			"name":"Stairs",
			"pbrMetallicRoughness":{
				"baseColorFactor":[
					0.009018290787935257,
					0.009018290787935257,
					0.009018290787935257,
					1
				],
				"metallicFactor":0,
				"roughnessFactor":0.5
			}
		}
	],
	"meshes":[
		{
			"name":"Plane",
			"primitives":[
				{
					"attributes":{
						"POSITION":0,
						"NORMAL":1,
						"TEXCOORD_0":2,
						"TANGENT":3
					},
					"indices":4,
					"material":0
				}
			]
		},
		{
			"name":"Plane.003",
			"primitives":[
				{
					"attributes":{
						"POSITION":5,
						"NORMAL":6,
						"TEXCOORD_0":7,
						"TANGENT":8
					},
					"indices":9,
					"material":1
				}
			]
		}
	],
	"accessors":[
		{
			"bufferView":0,
			"componentType":5126,
			"count":72,
			"max":[
				3.870000123977661,
				6,
				2.1909124851226807
			],
			"min":[
				-3.870000123977661,
				-1.999999761581421,
				-10.190912246704102
			],
			"type":"VEC3"
		},
		{
			"bufferView":1,
			"componentType":5126,
			"count":72,
			"type":"VEC3"
		},
		{
			"bufferView":2,
			"componentType":5126,
			"count":72,
			"type":"VEC2"
		},
		{
			"bufferView":3,
			"componentType":5126,
			"count":72,
			"type":"VEC4"
		},
		{
			"bufferView":4,
			"componentType":5123,
			"count":138,
			"type":"SCALAR"
		},
		{
			"bufferView":5,
			"componentType":5126,
			"count":248,
			"max":[
				3.6000001430511475,
				6.00053596496582,
				1
			],
			"min":[
				-3.6000001430511475,
				0,
				-10.263370513916016
			],
			"type":"VEC3"
		},
		{
			"bufferView":6,
			"componentType":5126,
			"count":248,
			"type":"VEC3"
		},
		{
			"bufferView":7,
			"componentType":5126,
			"count":248,
			"type":"VEC2"
		},
		{
			"bufferView":8,
			"componentType":5126,
			"count":248,
			"type":"VEC4"
		},
		{
			"bufferView":9,
			"componentType":5123,
			"count":372,
			"type":"SCALAR"
		}
	],
	"bufferViews":[
		{
			"buffer":0,
			"byteLength":864,
			"byteOffset":0,
			"target":34962
		},
		{
			"buffer":0,
			"byteLength":864,
			"byteOffset":864,
			"target":34962
		},
		{
			"buffer":0,
			"byteLength":576,
			"byteOffset":1728,
			"target":34962
		},
		{
			"buffer":0,
			"byteLength":1152,
			"byteOffset":2304,
			"target":34962
		},
		{
			"buffer":0,
			"byteLength":276,
			"byteOffset":3456,
			"target":34963
		},
		{
			"buffer":0,
			"byteLength":2976,
			"byteOffset":3732,
			"target":34962
		},
		{
			"buffer":0,
			"byteLength":2976,
			"byteOffset":6708,
			"target":34962
		},
		{
			"buffer":0,
			"byteLength":1984,
			"byteOffset":9684,
			"target":34962
		},
		{
			"buffer":0,
			"byteLength":3968,
			"byteOffset":11668,
			"target":34962
		},
		{
			"buffer":0,
			"byteLength":744,
			"byteOffset":15636,
			"target":34963
		}
	],
	"buffers":[
		{
			"byteLength":16380,
			"uri":"Subway_Stairs_Simple-0aa431863401af392414d9735df5f5a8.bin"
		}
	]
}
