{
	"asset":{
		"generator":"Khronos glTF Blender I/O v4.2.69",
		"version":"2.0"
	},
	"scene":0,
	"scenes":[
		{
			"name":"Scene",
			"nodes":[
				0,
				1
			]
		}
	],
	"nodes":[
		{
			"mesh":0,
			"name":"Plane.002",
			"rotation":[
				0,
				-0.7071068286895752,
				0,
				0.7071068286895752
			],
			"scale":[
				0.9100213050842285,
				1,
				1
			]
		},
		{
			"mesh":1,
			"name":"Cube"
		}
	],
	"materials":[
		{
			"doubleSided":true,
			"name":"Stairs",
			"pbrMetallicRoughness":{
				"baseColorFactor":[
					0.009018290787935257,
					0.009018290787935257,
					0.009018290787935257,
					1
				],
				"metallicFactor":0,
				"roughnessFactor":0.5
			}
		},
		{
			"doubleSided":true,
			"name":"Color2",
			"pbrMetallicRoughness":{
				"baseColorFactor":[
					0.800000011920929,
					0.800000011920929,
					0.800000011920929,
					1
				],
				"metallicFactor":0,
				"roughnessFactor":0.5
			}
		},
		{
			"doubleSided":true,
			"name":"Beton",
			"pbrMetallicRoughness":{
				"baseColorFactor":[
					0.800000011920929,
					0.800000011920929,
					0.800000011920929,
					1
				],
				"metallicFactor":0,
				"roughnessFactor":0.5
			}
		}
	],
	"meshes":[
		{
			"name":"Plane.003",
			"primitives":[
				{
					"attributes":{
						"POSITION":0,
						"NORMAL":1,
						"TEXCOORD_0":2,
						"TANGENT":3
					},
					"indices":4,
					"material":0
				}
			]
		},
		{
			"name":"Cube",
			"primitives":[
				{
					"attributes":{
						"POSITION":5,
						"NORMAL":6,
						"TEXCOORD_0":7,
						"TANGENT":8
					},
					"indices":9,
					"material":1
				},
				{
					"attributes":{
						"POSITION":10,
						"NORMAL":11,
						"TEXCOORD_0":12,
						"TANGENT":13
					},
					"indices":14,
					"material":2
				}
			]
		}
	],
	"accessors":[
		{
			"bufferView":0,
			"componentType":5126,
			"count":416,
			"max":[
				3.6000001430511475,
				10.000117301940918,
				1
			],
			"min":[
				-3.6000001430511475,
				0,
				-20.060169219970703
			],
			"type":"VEC3"
		},
		{
			"bufferView":1,
			"componentType":5126,
			"count":416,
			"type":"VEC3"
		},
		{
			"bufferView":2,
			"componentType":5126,
			"count":416,
			"type":"VEC2"
		},
		{
			"bufferView":3,
			"componentType":5126,
			"count":416,
			"type":"VEC4"
		},
		{
			"bufferView":4,
			"componentType":5123,
			"count":624,
			"type":"SCALAR"
		},
		{
			"bufferView":5,
			"componentType":5126,
			"count":200,
			"max":[
				20.09083366394043,
				11.199999809265137,
				3.4732534885406494
			],
			"min":[
				-2.15435791015625,
				-2.519761562347412,
				-3.4732534885406494
			],
			"type":"VEC3"
		},
		{
			"bufferView":6,
			"componentType":5126,
			"count":200,
			"type":"VEC3"
		},
		{
			"bufferView":7,
			"componentType":5126,
			"count":200,
			"type":"VEC2"
		},
		{
			"bufferView":8,
			"componentType":5126,
			"count":200,
			"type":"VEC4"
		},
		{
			"bufferView":9,
			"componentType":5123,
			"count":420,
			"type":"SCALAR"
		},
		{
			"bufferView":10,
			"componentType":5126,
			"count":48,
			"max":[
				20.09083366394043,
				11.199999809265137,
				3.4732534885406494
			],
			"min":[
				-2.15435791015625,
				-2.519761562347412,
				-3.4732534885406494
			],
			"type":"VEC3"
		},
		{
			"bufferView":11,
			"componentType":5126,
			"count":48,
			"type":"VEC3"
		},
		{
			"bufferView":12,
			"componentType":5126,
			"count":48,
			"type":"VEC2"
		},
		{
			"bufferView":13,
			"componentType":5126,
			"count":48,
			"type":"VEC4"
		},
		{
			"bufferView":14,
			"componentType":5123,
			"count":132,
			"type":"SCALAR"
		}
	],
	"bufferViews":[
		{
			"buffer":0,
			"byteLength":4992,
			"byteOffset":0,
			"target":34962
		},
		{
			"buffer":0,
			"byteLength":4992,
			"byteOffset":4992,
			"target":34962
		},
		{
			"buffer":0,
			"byteLength":3328,
			"byteOffset":9984,
			"target":34962
		},
		{
			"buffer":0,
			"byteLength":6656,
			"byteOffset":13312,
			"target":34962
		},
		{
			"buffer":0,
			"byteLength":1248,
			"byteOffset":19968,
			"target":34963
		},
		{
			"buffer":0,
			"byteLength":2400,
			"byteOffset":21216,
			"target":34962
		},
		{
			"buffer":0,
			"byteLength":2400,
			"byteOffset":23616,
			"target":34962
		},
		{
			"buffer":0,
			"byteLength":1600,
			"byteOffset":26016,
			"target":34962
		},
		{
			"buffer":0,
			"byteLength":3200,
			"byteOffset":27616,
			"target":34962
		},
		{
			"buffer":0,
			"byteLength":840,
			"byteOffset":30816,
			"target":34963
		},
		{
			"buffer":0,
			"byteLength":576,
			"byteOffset":31656,
			"target":34962
		},
		{
			"buffer":0,
			"byteLength":576,
			"byteOffset":32232,
			"target":34962
		},
		{
			"buffer":0,
			"byteLength":384,
			"byteOffset":32808,
			"target":34962
		},
		{
			"buffer":0,
			"byteLength":768,
			"byteOffset":33192,
			"target":34962
		},
		{
			"buffer":0,
			"byteLength":264,
			"byteOffset":33960,
			"target":34963
		}
	],
	"buffers":[
		{
			"byteLength":34224,
			"uri":"Subway_Stairs_Long_10m-2fd4cd5df954722f83b3943918e03de7.bin"
		}
	]
}
