{
	"asset":{
		"generator":"Khronos glTF Blender I/O v4.2.69",
		"version":"2.0"
	},
	"scene":0,
	"scenes":[
		{
			"name":"Scene",
			"nodes":[
				0
			]
		}
	],
	"nodes":[
		{
			"mesh":0,
			"name":"Cylinder"
		}
	],
	"materials":[
		{
			"doubleSided":true,
			"name":"Plastic",
			"pbrMetallicRoughness":{
				"baseColorFactor":[
					0.761272668838501,
					0.761272668838501,
					0.761272668838501,
					1
				],
				"metallicFactor":0,
				"roughnessFactor":0.5
			}
		},
		{
			"doubleSided":true,
			"name":"Metal",
			"pbrMetallicRoughness":{
				"baseColorFactor":[
					0.02909952774643898,
					0.02909952774643898,
					0.02909952774643898,
					1
				],
				"metallicFactor":0,
				"roughnessFactor":0.5
			}
		},
		{
			"doubleSided":true,
			"name":"Plastic2",
			"pbrMetallicRoughness":{
				"baseColorFactor":[
					0.22025732696056366,
					0.22025732696056366,
					0.22025732696056366,
					1
				],
				"metallicFactor":0,
				"roughnessFactor":0.5
			}
		},
		{
			"doubleSided":true,
			"name":"Beton",
			"pbrMetallicRoughness":{
				"baseColorFactor":[
					0.08714012056589127,
					0.08714012056589127,
					0.08714012056589127,
					1
				],
				"metallicFactor":0,
				"roughnessFactor":0.5
			}
		}
	],
	"meshes":[
		{
			"name":"Cylinder",
			"primitives":[
				{
					"attributes":{
						"POSITION":0,
						"NORMAL":1,
						"TEXCOORD_0":2
					},
					"indices":3,
					"material":0
				},
				{
					"attributes":{
						"POSITION":4,
						"NORMAL":5,
						"TEXCOORD_0":6
					},
					"indices":7,
					"material":1
				},
				{
					"attributes":{
						"POSITION":8,
						"NORMAL":9,
						"TEXCOORD_0":10
					},
					"indices":11,
					"material":2
				},
				{
					"attributes":{
						"POSITION":12,
						"NORMAL":13,
						"TEXCOORD_0":14
					},
					"indices":15,
					"material":3
				}
			]
		}
	],
	"accessors":[
		{
			"bufferView":0,
			"componentType":5126,
			"count":328,
			"max":[
				0.6142590641975403,
				45.886722564697266,
				3.8489878177642822
			],
			"min":[
				-2.662116527557373,
				-0.44945573806762695,
				-0.6752915978431702
			],
			"type":"VEC3"
		},
		{
			"bufferView":1,
			"componentType":5126,
			"count":328,
			"type":"VEC3"
		},
		{
			"bufferView":2,
			"componentType":5126,
			"count":328,
			"type":"VEC2"
		},
		{
			"bufferView":3,
			"componentType":5123,
			"count":516,
			"type":"SCALAR"
		},
		{
			"bufferView":4,
			"componentType":5126,
			"count":264,
			"max":[
				0.4425303041934967,
				45.74917984008789,
				0.5483521223068237
			],
			"min":[
				-0.24332046508789062,
				40.11320114135742,
				-0.5280548334121704
			],
			"type":"VEC3"
		},
		{
			"bufferView":5,
			"componentType":5126,
			"count":264,
			"type":"VEC3"
		},
		{
			"bufferView":6,
			"componentType":5126,
			"count":264,
			"type":"VEC2"
		},
		{
			"bufferView":7,
			"componentType":5123,
			"count":396,
			"type":"SCALAR"
		},
		{
			"bufferView":8,
			"componentType":5126,
			"count":280,
			"max":[
				5.511124610900879,
				2.8538005352020264,
				3.92857027053833
			],
			"min":[
				2.670098304748535,
				-0.2704472541809082,
				1.139581322669983
			],
			"type":"VEC3"
		},
		{
			"bufferView":9,
			"componentType":5126,
			"count":280,
			"type":"VEC3"
		},
		{
			"bufferView":10,
			"componentType":5126,
			"count":280,
			"type":"VEC2"
		},
		{
			"bufferView":11,
			"componentType":5123,
			"count":588,
			"type":"SCALAR"
		},
		{
			"bufferView":12,
			"componentType":5126,
			"count":60,
			"max":[
				1,
				46,
				1
			],
			"min":[
				-1,
				-1,
				-1
			],
			"type":"VEC3"
		},
		{
			"bufferView":13,
			"componentType":5126,
			"count":60,
			"type":"VEC3"
		},
		{
			"bufferView":14,
			"componentType":5126,
			"count":60,
			"type":"VEC2"
		},
		{
			"bufferView":15,
			"componentType":5123,
			"count":102,
			"type":"SCALAR"
		}
	],
	"bufferViews":[
		{
			"buffer":0,
			"byteLength":3936,
			"byteOffset":0,
			"target":34962
		},
		{
			"buffer":0,
			"byteLength":3936,
			"byteOffset":3936,
			"target":34962
		},
		{
			"buffer":0,
			"byteLength":2624,
			"byteOffset":7872,
			"target":34962
		},
		{
			"buffer":0,
			"byteLength":1032,
			"byteOffset":10496,
			"target":34963
		},
		{
			"buffer":0,
			"byteLength":3168,
			"byteOffset":11528,
			"target":34962
		},
		{
			"buffer":0,
			"byteLength":3168,
			"byteOffset":14696,
			"target":34962
		},
		{
			"buffer":0,
			"byteLength":2112,
			"byteOffset":17864,
			"target":34962
		},
		{
			"buffer":0,
			"byteLength":792,
			"byteOffset":19976,
			"target":34963
		},
		{
			"buffer":0,
			"byteLength":3360,
			"byteOffset":20768,
			"target":34962
		},
		{
			"buffer":0,
			"byteLength":3360,
			"byteOffset":24128,
			"target":34962
		},
		{
			"buffer":0,
			"byteLength":2240,
			"byteOffset":27488,
			"target":34962
		},
		{
			"buffer":0,
			"byteLength":1176,
			"byteOffset":29728,
			"target":34963
		},
		{
			"buffer":0,
			"byteLength":720,
			"byteOffset":30904,
			"target":34962
		},
		{
			"buffer":0,
			"byteLength":720,
			"byteOffset":31624,
			"target":34962
		},
		{
			"buffer":0,
			"byteLength":480,
			"byteOffset":32344,
			"target":34962
		},
		{
			"buffer":0,
			"byteLength":204,
			"byteOffset":32824,
			"target":34963
		}
	],
	"buffers":[
		{
			"byteLength":33028,
			"uri":"transmission_tower-768c4fb3c41b468a7a07a21efe33200f.bin"
		}
	]
}
