{
	"asset":{
		"generator":"Khronos glTF Blender I/O v4.2.69",
		"version":"2.0"
	},
	"scene":0,
	"scenes":[
		{
			"name":"Scene",
			"nodes":[
				0,
				1
			]
		}
	],
	"nodes":[
		{
			"mesh":0,
			"name":"Cube_Cube.001",
			"rotation":[
				0.7071068286895752,
				0,
				0,
				0.7071068286895752
			]
		},
		{
			"mesh":1,
			"name":"Plane",
			"rotation":[
				0,
				0,
				0.4451649785041809,
				0.8954486846923828
			]
		}
	],
	"materials":[
		{
			"doubleSided":true,
			"name":"TreeBark",
			"pbrMetallicRoughness":{
				"baseColorFactor":[
					0.27383100986480713,
					0.04912500083446503,
					0,
					1
				],
				"metallicFactor":0,
				"roughnessFactor":0.5
			}
		},
		{
			"doubleSided":true,
			"name":"Leaves"
		}
	],
	"meshes":[
		{
			"name":"Cube_Cube.001",
			"primitives":[
				{
					"attributes":{
						"POSITION":0,
						"NORMAL":1,
						"TEXCOORD_0":2,
						"TANGENT":3
					},
					"indices":4,
					"material":0
				}
			]
		},
		{
			"name":"Plane",
			"primitives":[
				{
					"attributes":{
						"POSITION":5,
						"NORMAL":6,
						"TEXCOORD_0":7
					},
					"indices":8,
					"material":1
				}
			]
		}
	],
	"accessors":[
		{
			"bufferView":0,
			"componentType":5126,
			"count":842,
			"max":[
				2.966468095779419,
				2.816253900527954,
				0.5819190144538879
			],
			"min":[
				-3.217402935028076,
				-2.773247003555298,
				-8.094986915588379
			],
			"type":"VEC3"
		},
		{
			"bufferView":1,
			"componentType":5126,
			"count":842,
			"type":"VEC3"
		},
		{
			"bufferView":2,
			"componentType":5126,
			"count":842,
			"type":"VEC2"
		},
		{
			"bufferView":3,
			"componentType":5126,
			"count":842,
			"type":"VEC4"
		},
		{
			"bufferView":4,
			"componentType":5123,
			"count":1290,
			"type":"SCALAR"
		},
		{
			"bufferView":5,
			"componentType":5126,
			"count":69,
			"max":[
				10.71167278289795,
				7.818443775177002,
				4.460222244262695
			],
			"min":[
				-1.2687466144561768,
				-1.777553677558899,
				-3.878382921218872
			],
			"type":"VEC3"
		},
		{
			"bufferView":6,
			"componentType":5126,
			"count":69,
			"type":"VEC3"
		},
		{
			"bufferView":7,
			"componentType":5126,
			"count":69,
			"type":"VEC2"
		},
		{
			"bufferView":8,
			"componentType":5123,
			"count":99,
			"type":"SCALAR"
		}
	],
	"bufferViews":[
		{
			"buffer":0,
			"byteLength":10104,
			"byteOffset":0,
			"target":34962
		},
		{
			"buffer":0,
			"byteLength":10104,
			"byteOffset":10104,
			"target":34962
		},
		{
			"buffer":0,
			"byteLength":6736,
			"byteOffset":20208,
			"target":34962
		},
		{
			"buffer":0,
			"byteLength":13472,
			"byteOffset":26944,
			"target":34962
		},
		{
			"buffer":0,
			"byteLength":2580,
			"byteOffset":40416,
			"target":34963
		},
		{
			"buffer":0,
			"byteLength":828,
			"byteOffset":42996,
			"target":34962
		},
		{
			"buffer":0,
			"byteLength":828,
			"byteOffset":43824,
			"target":34962
		},
		{
			"buffer":0,
			"byteLength":552,
			"byteOffset":44652,
			"target":34962
		},
		{
			"buffer":0,
			"byteLength":198,
			"byteOffset":45204,
			"target":34963
		}
	],
	"buffers":[
		{
			"byteLength":45404,
			"uri":"Tree-_Verbesserung-2a03758f39279d6826c6ec1d9cc3ab7f.bin"
		}
	]
}
