{
	"asset":{
		"generator":"Khronos glTF Blender I/O v4.2.69",
		"version":"2.0"
	},
	"scene":0,
	"scenes":[
		{
			"name":"Scene",
			"nodes":[
				0
			]
		}
	],
	"nodes":[
		{
			"mesh":0,
			"name":"Cylinder"
		}
	],
	"materials":[
		{
			"doubleSided":true,
			"name":"Beton",
			"pbrMetallicRoughness":{
				"baseColorFactor":[
					0.800000011920929,
					0.800000011920929,
					0.800000011920929,
					1
				],
				"metallicFactor":0,
				"roughnessFactor":0.5
			}
		},
		{
			"doubleSided":true,
			"name":"Cable",
			"pbrMetallicRoughness":{
				"baseColorFactor":[
					0.052218127995729446,
					0.052218127995729446,
					0.052218127995729446,
					1
				],
				"metallicFactor":0,
				"roughnessFactor":0.5
			}
		}
	],
	"meshes":[
		{
			"name":"Cylinder",
			"primitives":[
				{
					"attributes":{
						"POSITION":0,
						"NORMAL":1,
						"TEXCOORD_0":2,
						"TANGENT":3
					},
					"indices":4,
					"material":0
				},
				{
					"attributes":{
						"POSITION":5,
						"NORMAL":6,
						"TEXCOORD_0":7,
						"TANGENT":8
					},
					"indices":9,
					"material":1
				}
			]
		}
	],
	"accessors":[
		{
			"bufferView":0,
			"componentType":5126,
			"count":76,
			"max":[
				1.000000238418579,
				5.853259086608887,
				2.9821219444274902
			],
			"min":[
				-1,
				-0.572125256061554,
				-2.9821207523345947
			],
			"type":"VEC3"
		},
		{
			"bufferView":1,
			"componentType":5126,
			"count":76,
			"type":"VEC3"
		},
		{
			"bufferView":2,
			"componentType":5126,
			"count":76,
			"type":"VEC2"
		},
		{
			"bufferView":3,
			"componentType":5126,
			"count":76,
			"type":"VEC4"
		},
		{
			"bufferView":4,
			"componentType":5123,
			"count":114,
			"type":"SCALAR"
		},
		{
			"bufferView":5,
			"componentType":5126,
			"count":192,
			"max":[
				1,
				3.614665985107422,
				2.6699185371398926
			],
			"min":[
				-1.0082266330718994,
				1.348240852355957,
				-2.9667210578918457
			],
			"type":"VEC3"
		},
		{
			"bufferView":6,
			"componentType":5126,
			"count":192,
			"type":"VEC3"
		},
		{
			"bufferView":7,
			"componentType":5126,
			"count":192,
			"type":"VEC2"
		},
		{
			"bufferView":8,
			"componentType":5126,
			"count":192,
			"type":"VEC4"
		},
		{
			"bufferView":9,
			"componentType":5123,
			"count":288,
			"type":"SCALAR"
		}
	],
	"bufferViews":[
		{
			"buffer":0,
			"byteLength":912,
			"byteOffset":0,
			"target":34962
		},
		{
			"buffer":0,
			"byteLength":912,
			"byteOffset":912,
			"target":34962
		},
		{
			"buffer":0,
			"byteLength":608,
			"byteOffset":1824,
			"target":34962
		},
		{
			"buffer":0,
			"byteLength":1216,
			"byteOffset":2432,
			"target":34962
		},
		{
			"buffer":0,
			"byteLength":228,
			"byteOffset":3648,
			"target":34963
		},
		{
			"buffer":0,
			"byteLength":2304,
			"byteOffset":3876,
			"target":34962
		},
		{
			"buffer":0,
			"byteLength":2304,
			"byteOffset":6180,
			"target":34962
		},
		{
			"buffer":0,
			"byteLength":1536,
			"byteOffset":8484,
			"target":34962
		},
		{
			"buffer":0,
			"byteLength":3072,
			"byteOffset":10020,
			"target":34962
		},
		{
			"buffer":0,
			"byteLength":576,
			"byteOffset":13092,
			"target":34963
		}
	],
	"buffers":[
		{
			"byteLength":13668,
			"uri":"TunnelRound1-3cb6510a9af5b7512e0f24c62812b5ff.bin"
		}
	]
}
