{
	"asset":{
		"generator":"Khronos glTF Blender I/O v4.2.69",
		"version":"2.0"
	},
	"scene":0,
	"scenes":[
		{
			"name":"Scene",
			"nodes":[
				0,
				1
			]
		}
	],
	"nodes":[
		{
			"mesh":0,
			"name":"Cylinder"
		},
		{
			"mesh":1,
			"name":"Cylinder.001"
		}
	],
	"materials":[
		{
			"doubleSided":true,
			"name":"Beton",
			"pbrMetallicRoughness":{
				"baseColorFactor":[
					0.800000011920929,
					0.800000011920929,
					0.800000011920929,
					1
				],
				"metallicFactor":0,
				"roughnessFactor":0.5
			}
		},
		{
			"doubleSided":true,
			"name":"Cable",
			"pbrMetallicRoughness":{
				"baseColorFactor":[
					0.052218127995729446,
					0.052218127995729446,
					0.052218127995729446,
					1
				],
				"metallicFactor":0,
				"roughnessFactor":0.5
			}
		}
	],
	"meshes":[
		{
			"name":"Cylinder",
			"primitives":[
				{
					"attributes":{
						"POSITION":0,
						"NORMAL":1,
						"TEXCOORD_0":2
					},
					"indices":3,
					"material":0
				},
				{
					"attributes":{
						"POSITION":4,
						"NORMAL":5,
						"TEXCOORD_0":6
					},
					"indices":7,
					"material":1
				}
			]
		},
		{
			"name":"Cylinder.001",
			"primitives":[
				{
					"attributes":{
						"POSITION":8,
						"NORMAL":9,
						"TEXCOORD_0":10,
						"TANGENT":11
					},
					"indices":12,
					"material":0
				},
				{
					"attributes":{
						"POSITION":13,
						"NORMAL":14,
						"TEXCOORD_0":15,
						"TANGENT":16
					},
					"indices":17,
					"material":1
				}
			]
		}
	],
	"accessors":[
		{
			"bufferView":0,
			"componentType":5126,
			"count":242,
			"max":[
				1.7881393432617188e-07,
				6.195139408111572,
				3.512587547302246
			],
			"min":[
				-0.20000000298023224,
				-1.4048612117767334,
				-3.487412452697754
			],
			"type":"VEC3"
		},
		{
			"bufferView":1,
			"componentType":5126,
			"count":242,
			"type":"VEC3"
		},
		{
			"bufferView":2,
			"componentType":5126,
			"count":242,
			"type":"VEC2"
		},
		{
			"bufferView":3,
			"componentType":5123,
			"count":540,
			"type":"SCALAR"
		},
		{
			"bufferView":4,
			"componentType":5126,
			"count":252,
			"max":[
				5.960464477539063e-08,
				3.61466646194458,
				2.6699185371398926
			],
			"min":[
				-0.20822663605213165,
				1.348240852355957,
				-2.9667210578918457
			],
			"type":"VEC3"
		},
		{
			"bufferView":5,
			"componentType":5126,
			"count":252,
			"type":"VEC3"
		},
		{
			"bufferView":6,
			"componentType":5126,
			"count":252,
			"type":"VEC2"
		},
		{
			"bufferView":7,
			"componentType":5123,
			"count":420,
			"type":"SCALAR"
		},
		{
			"bufferView":8,
			"componentType":5126,
			"count":76,
			"max":[
				2.000000238418579,
				5.853259086608887,
				2.9821219444274902
			],
			"min":[
				0,
				-0.572125256061554,
				-2.9821207523345947
			],
			"type":"VEC3"
		},
		{
			"bufferView":9,
			"componentType":5126,
			"count":76,
			"type":"VEC3"
		},
		{
			"bufferView":10,
			"componentType":5126,
			"count":76,
			"type":"VEC2"
		},
		{
			"bufferView":11,
			"componentType":5126,
			"count":76,
			"type":"VEC4"
		},
		{
			"bufferView":12,
			"componentType":5123,
			"count":114,
			"type":"SCALAR"
		},
		{
			"bufferView":13,
			"componentType":5126,
			"count":192,
			"max":[
				2,
				3.614665985107422,
				2.6699185371398926
			],
			"min":[
				-0.008226633071899414,
				1.348240852355957,
				-2.9667210578918457
			],
			"type":"VEC3"
		},
		{
			"bufferView":14,
			"componentType":5126,
			"count":192,
			"type":"VEC3"
		},
		{
			"bufferView":15,
			"componentType":5126,
			"count":192,
			"type":"VEC2"
		},
		{
			"bufferView":16,
			"componentType":5126,
			"count":192,
			"type":"VEC4"
		},
		{
			"bufferView":17,
			"componentType":5123,
			"count":288,
			"type":"SCALAR"
		}
	],
	"bufferViews":[
		{
			"buffer":0,
			"byteLength":2904,
			"byteOffset":0,
			"target":34962
		},
		{
			"buffer":0,
			"byteLength":2904,
			"byteOffset":2904,
			"target":34962
		},
		{
			"buffer":0,
			"byteLength":1936,
			"byteOffset":5808,
			"target":34962
		},
		{
			"buffer":0,
			"byteLength":1080,
			"byteOffset":7744,
			"target":34963
		},
		{
			"buffer":0,
			"byteLength":3024,
			"byteOffset":8824,
			"target":34962
		},
		{
			"buffer":0,
			"byteLength":3024,
			"byteOffset":11848,
			"target":34962
		},
		{
			"buffer":0,
			"byteLength":2016,
			"byteOffset":14872,
			"target":34962
		},
		{
			"buffer":0,
			"byteLength":840,
			"byteOffset":16888,
			"target":34963
		},
		{
			"buffer":0,
			"byteLength":912,
			"byteOffset":17728,
			"target":34962
		},
		{
			"buffer":0,
			"byteLength":912,
			"byteOffset":18640,
			"target":34962
		},
		{
			"buffer":0,
			"byteLength":608,
			"byteOffset":19552,
			"target":34962
		},
		{
			"buffer":0,
			"byteLength":1216,
			"byteOffset":20160,
			"target":34962
		},
		{
			"buffer":0,
			"byteLength":228,
			"byteOffset":21376,
			"target":34963
		},
		{
			"buffer":0,
			"byteLength":2304,
			"byteOffset":21604,
			"target":34962
		},
		{
			"buffer":0,
			"byteLength":2304,
			"byteOffset":23908,
			"target":34962
		},
		{
			"buffer":0,
			"byteLength":1536,
			"byteOffset":26212,
			"target":34962
		},
		{
			"buffer":0,
			"byteLength":3072,
			"byteOffset":27748,
			"target":34962
		},
		{
			"buffer":0,
			"byteLength":576,
			"byteOffset":30820,
			"target":34963
		}
	],
	"buffers":[
		{
			"byteLength":31396,
			"uri":"TunnelRound1Portal-4b909e723a2c8dd9eb243da8d3293209.bin"
		}
	]
}
