{
	"asset":{
		"generator":"Khronos glTF Blender I/O v4.2.69",
		"version":"2.0"
	},
	"extensionsUsed":[
		"KHR_materials_clearcoat",
		"KHR_materials_emissive_strength",
		"KHR_texture_transform"
	],
	"extensionsRequired":[
		"KHR_texture_transform"
	],
	"scene":0,
	"scenes":[
		{
			"extras":{
				"BakeLabProps":{
					"bake_mode":1,
					"compute_device":1,
					"image_size":0,
					"anti_alias":1,
					"show_map_settings":0,
					"bake_state":0,
					"baking_map_index":1,
					"baking_obj_index":1,
					"baking_map_count":1,
					"baking_obj_count":1,
					"baking_obj_name":"Wagon",
					"baking_map_type":"AO",
					"baking_map_name":"Wagon_ao.002",
					"baking_map_size":"4096x4096",
					"show_bake_settings":1,
					"bake_margin":128
				},
				"BakeLabMaps":[
					{
						"type":0,
						"width":4096,
						"height":4096,
						"image_scale":1.0,
						"float_depth":0,
						"file_format":0,
						"png_channels":1,
						"png_depth":0,
						"png_compression":15,
						"jpg_channels":1,
						"jpg_quality":90,
						"exr_channels":0,
						"exr_depth":1,
						"exr_codec_32":2,
						"exr_codec_16":2,
						"img_name":"*_albedo",
						"samples":4,
						"target_width":4096,
						"target_height":4096,
						"final_aa":1,
						"enabled":1
					},
					{
						"type":3,
						"width":4096,
						"height":4096,
						"image_scale":1.0,
						"float_depth":0,
						"file_format":0,
						"png_channels":1,
						"png_depth":0,
						"png_compression":15,
						"jpg_channels":1,
						"jpg_quality":90,
						"exr_channels":0,
						"exr_depth":1,
						"exr_codec_32":2,
						"exr_codec_16":2,
						"img_name":"*_rough",
						"samples":4,
						"color_space":1,
						"target_width":4096,
						"target_height":4096,
						"final_aa":1,
						"enabled":1
					},
					{
						"type":13,
						"width":4096,
						"height":4096,
						"image_scale":1.0,
						"float_depth":0,
						"file_format":0,
						"png_channels":1,
						"png_depth":0,
						"png_compression":15,
						"jpg_channels":1,
						"jpg_quality":90,
						"exr_channels":0,
						"exr_depth":1,
						"exr_codec_32":2,
						"exr_codec_16":2,
						"img_name":"*_metal",
						"samples":4,
						"color_space":1,
						"pass_name":"Metallic",
						"target_width":4096,
						"target_height":4096,
						"final_aa":1,
						"enabled":1
					},
					{
						"type":14,
						"width":4096,
						"height":4096,
						"image_scale":1.0,
						"float_depth":0,
						"file_format":0,
						"png_channels":1,
						"png_depth":0,
						"png_compression":15,
						"jpg_channels":1,
						"jpg_quality":90,
						"exr_channels":0,
						"exr_depth":1,
						"exr_codec_32":2,
						"exr_codec_16":2,
						"img_name":"*_ao",
						"samples":256,
						"color_space":1,
						"target_width":4096,
						"target_height":4096,
						"final_aa":1,
						"enabled":0
					}
				],
				"BakeLabMapIndex":3,
				"BakeLab_Data":[]
			},
			"name":"Scene",
			"nodes":[
				0,
				1
			]
		}
	],
	"nodes":[
		{
			"mesh":0,
			"name":"Wagon",
			"rotation":[
				0,
				0.7071068286895752,
				0,
				0.7071068286895752
			]
		},
		{
			"mesh":1,
			"name":"Wagon.001",
			"rotation":[
				0,
				0.7071068286895752,
				0,
				0.7071068286895752
			]
		}
	],
	"materials":[
		{
			"alphaMode":"BLEND",
			"doubleSided":true,
			"name":"Glass",
			"pbrMetallicRoughness":{
				"baseColorFactor":[
					0.4000000059604645,
					0.4000000059604645,
					0.49000000953674316,
					0.20999999344348907
				],
				"metallicFactor":0.12999999523162842,
				"roughnessFactor":0.10999999940395355
			}
		},
		{
			"doubleSided":true,
			"name":"Metal_White",
			"pbrMetallicRoughness":{
				"baseColorFactor":[
					1,
					1,
					0.949999988079071,
					1
				],
				"baseColorTexture":{
					"extensions":{
						"KHR_texture_transform":{
							"offset":[
								0,
								-9
							],
							"scale":[
								10,
								10
							]
						}
					},
					"index":0
				},
				"metallicFactor":0.5299999713897705,
				"roughnessFactor":0.8199999928474426
			}
		},
		{
			"doubleSided":true,
			"extensions":{
				"KHR_materials_clearcoat":{
					"clearcoatRoughnessFactor":0.10000000149011612
				}
			},
			"name":"Metal_Red",
			"pbrMetallicRoughness":{
				"baseColorFactor":[
					1,
					0,
					0,
					1
				],
				"baseColorTexture":{
					"extensions":{
						"KHR_texture_transform":{
							"offset":[
								0,
								-9
							],
							"scale":[
								10,
								10
							]
						}
					},
					"index":1
				},
				"metallicFactor":0.5400000214576721,
				"roughnessFactor":0.6800000071525574
			}
		},
		{
			"doubleSided":true,
			"name":"Blue_Plastic",
			"pbrMetallicRoughness":{
				"baseColorFactor":[
					0.7011022567749023,
					0.6653875112533569,
					1,
					1
				],
				"baseColorTexture":{
					"extensions":{
						"KHR_texture_transform":{
							"offset":[
								0,
								-2
							],
							"scale":[
								3,
								3
							]
						}
					},
					"index":2
				},
				"metallicFactor":0
			}
		},
		{
			"doubleSided":true,
			"name":"White_Plastic",
			"pbrMetallicRoughness":{
				"baseColorTexture":{
					"extensions":{
						"KHR_texture_transform":{
							"offset":[
								0,
								-7
							],
							"scale":[
								8,
								8
							]
						}
					},
					"index":3
				},
				"metallicFactor":0
			}
		},
		{
			"doubleSided":true,
			"name":"Metal_Black",
			"pbrMetallicRoughness":{
				"baseColorFactor":[
					0.04373504966497421,
					0.03560132905840874,
					0.03560132905840874,
					1
				],
				"baseColorTexture":{
					"index":4
				},
				"metallicFactor":0.7799999713897705,
				"roughnessFactor":0.7099999785423279
			}
		},
		{
			"doubleSided":true,
			"name":"Carpet_Blue",
			"pbrMetallicRoughness":{
				"baseColorFactor":[
					0,
					0.04231143742799759,
					0.46207696199417114,
					1
				],
				"baseColorTexture":{
					"extensions":{
						"KHR_texture_transform":{
							"offset":[
								0,
								-4
							],
							"scale":[
								5,
								5
							]
						}
					},
					"index":5
				},
				"metallicFactor":0.03999999910593033,
				"roughnessFactor":0.9599999785423279
			}
		},
		{
			"doubleSided":true,
			"emissiveFactor":[
				0.631118768558115,
				0.6662907370809343,
				1
			],
			"extensions":{
				"KHR_materials_emissive_strength":{
					"emissiveStrength":9.035388946533203
				}
			},
			"name":"Lamp",
			"pbrMetallicRoughness":{
				"baseColorFactor":[
					0.8000000715255737,
					0.5501393675804138,
					0,
					1
				],
				"metallicFactor":0
			}
		},
		{
			"doubleSided":true,
			"name":"Black_Plastic",
			"pbrMetallicRoughness":{
				"baseColorFactor":[
					0.015208522789180279,
					0.015208515338599682,
					0.015208518132567406,
					1
				],
				"baseColorTexture":{
					"extensions":{
						"KHR_texture_transform":{
							"offset":[
								0,
								-9
							],
							"scale":[
								10,
								10
							]
						}
					},
					"index":6
				},
				"metallicFactor":0
			}
		},
		{
			"doubleSided":true,
			"name":"Metal_Gray",
			"pbrMetallicRoughness":{
				"baseColorFactor":[
					0.05448029935359955,
					0.05126946419477463,
					0.052860669791698456,
					1
				],
				"baseColorTexture":{
					"extensions":{
						"KHR_texture_transform":{
							"offset":[
								0,
								-1
							],
							"scale":[
								2,
								2
							]
						}
					},
					"index":7
				},
				"metallicFactor":0.4099999964237213,
				"roughnessFactor":0.8199999928474426
			}
		},
		{
			"doubleSided":true,
			"name":"Red_Plastic",
			"pbrMetallicRoughness":{
				"baseColorFactor":[
					0.991102397441864,
					0.0630098432302475,
					0,
					1
				],
				"baseColorTexture":{
					"index":8
				},
				"metallicFactor":0
			}
		},
		{
			"doubleSided":true,
			"name":"FoldingBallows",
			"pbrMetallicRoughness":{
				"baseColorFactor":[
					0.4910208284854889,
					0.4910208284854889,
					0.4910207986831665,
					1
				],
				"baseColorTexture":{
					"extensions":{
						"KHR_texture_transform":{
							"offset":[
								0,
								-9
							],
							"scale":[
								10,
								10
							]
						}
					},
					"index":9
				},
				"metallicFactor":0.03999999910593033,
				"roughnessFactor":0.9599999785423279
			}
		},
		{
			"doubleSided":true,
			"name":"Wagon_BAKED"
		}
	],
	"meshes":[
		{
			"name":"Cube.001",
			"primitives":[
				{
					"attributes":{
						"POSITION":0,
						"NORMAL":1,
						"TEXCOORD_0":2
					},
					"indices":3,
					"material":0
				},
				{
					"attributes":{
						"POSITION":4,
						"NORMAL":5,
						"TEXCOORD_0":6
					},
					"indices":7,
					"material":1
				},
				{
					"attributes":{
						"POSITION":8,
						"NORMAL":9,
						"TEXCOORD_0":10
					},
					"indices":11,
					"material":2
				},
				{
					"attributes":{
						"POSITION":12,
						"NORMAL":13,
						"TEXCOORD_0":14
					},
					"indices":15,
					"material":3
				},
				{
					"attributes":{
						"POSITION":16,
						"NORMAL":17,
						"TEXCOORD_0":18
					},
					"indices":19,
					"material":4
				},
				{
					"attributes":{
						"POSITION":20,
						"NORMAL":21,
						"TEXCOORD_0":22
					},
					"indices":23,
					"material":5
				},
				{
					"attributes":{
						"POSITION":24,
						"NORMAL":25,
						"TEXCOORD_0":26
					},
					"indices":27,
					"material":6
				},
				{
					"attributes":{
						"POSITION":28,
						"NORMAL":29,
						"TEXCOORD_0":30
					},
					"indices":31,
					"material":7
				},
				{
					"attributes":{
						"POSITION":32,
						"NORMAL":33,
						"TEXCOORD_0":34
					},
					"indices":35,
					"material":8
				},
				{
					"attributes":{
						"POSITION":36,
						"NORMAL":37,
						"TEXCOORD_0":38
					},
					"indices":39,
					"material":9
				},
				{
					"attributes":{
						"POSITION":40,
						"NORMAL":41,
						"TEXCOORD_0":42
					},
					"indices":43,
					"material":10
				},
				{
					"attributes":{
						"POSITION":44,
						"NORMAL":45,
						"TEXCOORD_0":46
					},
					"indices":47,
					"material":11
				}
			]
		},
		{
			"name":"Cube.003",
			"primitives":[
				{
					"attributes":{
						"POSITION":48,
						"NORMAL":49,
						"TEXCOORD_0":50
					},
					"indices":3,
					"material":0
				},
				{
					"attributes":{
						"POSITION":51,
						"NORMAL":52,
						"TEXCOORD_0":53
					},
					"indices":31,
					"material":7
				},
				{
					"attributes":{
						"POSITION":54,
						"NORMAL":55,
						"TEXCOORD_0":56
					},
					"indices":57,
					"material":12
				}
			]
		}
	],
	"textures":[
		{
			"sampler":0,
			"source":0
		},
		{
			"sampler":0,
			"source":0
		},
		{
			"sampler":0,
			"source":1
		},
		{
			"sampler":0,
			"source":2
		},
		{
			"sampler":0,
			"source":3
		},
		{
			"sampler":0,
			"source":4
		},
		{
			"sampler":0,
			"source":2
		},
		{
			"sampler":0,
			"source":5
		},
		{
			"sampler":0,
			"source":2
		},
		{
			"sampler":0,
			"source":6
		}
	],
	"images":[
		{
			"mimeType":"image/png",
			"name":"LightBlue_Plastic.png",
			"uri":"../../Resources/Textures/LightBlue_Plastic.png"
		},
		{
			"mimeType":"image/png",
			"name":"Dark_Blue_Plastic.png",
			"uri":"../../Resources/Textures/Dark_Blue_Plastic.png"
		},
		{
			"mimeType":"image/png",
			"name":"White_Plastic.png",
			"uri":"../../Resources/Textures/White_Plastic.png"
		},
		{
			"mimeType":"image/png",
			"name":"Plastic.png",
			"uri":"../../Resources/Textures/Plastic.png"
		},
		{
			"mimeType":"image/png",
			"name":"Carpet.png",
			"uri":"../../Resources/Textures/Carpet.png"
		},
		{
			"mimeType":"image/png",
			"name":"Metal.png",
			"uri":"../../Resources/Textures/Metal.png"
		},
		{
			"mimeType":"image/png",
			"name":"Courrugated.png",
			"uri":"../../Resources/Textures/Courrugated.png"
		}
	],
	"accessors":[
		{
			"bufferView":0,
			"componentType":5126,
			"count":48,
			"max":[
				1.5228962898254395,
				2.8551158905029297,
				6.837854385375977
			],
			"min":[
				-1.5228962898254395,
				1.8663794994354248,
				-6.837854385375977
			],
			"type":"VEC3"
		},
		{
			"bufferView":1,
			"componentType":5126,
			"count":48,
			"type":"VEC3"
		},
		{
			"bufferView":2,
			"componentType":5126,
			"count":48,
			"type":"VEC2"
		},
		{
			"bufferView":3,
			"componentType":5123,
			"count":72,
			"type":"SCALAR"
		},
		{
			"bufferView":4,
			"componentType":5126,
			"count":309,
			"max":[
				1.5358152389526367,
				3.267089366912842,
				7.187290668487549
			],
			"min":[
				-1.5358152389526367,
				0.8157712817192078,
				-7.187290668487549
			],
			"type":"VEC3"
		},
		{
			"bufferView":5,
			"componentType":5126,
			"count":309,
			"type":"VEC3"
		},
		{
			"bufferView":6,
			"componentType":5126,
			"count":309,
			"type":"VEC2"
		},
		{
			"bufferView":7,
			"componentType":5123,
			"count":744,
			"type":"SCALAR"
		},
		{
			"bufferView":8,
			"componentType":5126,
			"count":677,
			"max":[
				1.5358152389526367,
				3.7065279483795166,
				7.187290668487549
			],
			"min":[
				-1.5358152389526367,
				1.1984738111495972,
				-7.187290668487549
			],
			"type":"VEC3"
		},
		{
			"bufferView":9,
			"componentType":5126,
			"count":677,
			"type":"VEC3"
		},
		{
			"bufferView":10,
			"componentType":5126,
			"count":677,
			"type":"VEC2"
		},
		{
			"bufferView":11,
			"componentType":5123,
			"count":1488,
			"type":"SCALAR"
		},
		{
			"bufferView":12,
			"componentType":5126,
			"count":61,
			"max":[
				1.5358152389526367,
				1.1984738111495972,
				6.837854385375977
			],
			"min":[
				-1.5358152389526367,
				1.1984738111495972,
				-6.837854385375977
			],
			"type":"VEC3"
		},
		{
			"bufferView":13,
			"componentType":5126,
			"count":61,
			"type":"VEC3"
		},
		{
			"bufferView":14,
			"componentType":5126,
			"count":61,
			"type":"VEC2"
		},
		{
			"bufferView":15,
			"componentType":5123,
			"count":192,
			"type":"SCALAR"
		},
		{
			"bufferView":16,
			"componentType":5126,
			"count":1460,
			"max":[
				1.5358152389526367,
				3.265505790710449,
				6.848297595977783
			],
			"min":[
				-1.5358152389526367,
				1.172203540802002,
				-6.848297595977783
			],
			"type":"VEC3"
		},
		{
			"bufferView":17,
			"componentType":5126,
			"count":1460,
			"type":"VEC3"
		},
		{
			"bufferView":18,
			"componentType":5126,
			"count":1460,
			"type":"VEC2"
		},
		{
			"bufferView":19,
			"componentType":5123,
			"count":2928,
			"type":"SCALAR"
		},
		{
			"bufferView":20,
			"componentType":5126,
			"count":17868,
			"max":[
				1.5288546085357666,
				3.301516056060791,
				6.890755653381348
			],
			"min":[
				-1.5288546085357666,
				-0.0170612633228302,
				-6.890755653381348
			],
			"type":"VEC3"
		},
		{
			"bufferView":21,
			"componentType":5126,
			"count":17868,
			"type":"VEC3"
		},
		{
			"bufferView":22,
			"componentType":5126,
			"count":17868,
			"type":"VEC2"
		},
		{
			"bufferView":23,
			"componentType":5123,
			"count":28020,
			"type":"SCALAR"
		},
		{
			"bufferView":24,
			"componentType":5126,
			"count":800,
			"max":[
				1.473197340965271,
				2.177320957183838,
				5.952232837677002
			],
			"min":[
				-1.473197340965271,
				1.6451393365859985,
				-5.952232837677002
			],
			"type":"VEC3"
		},
		{
			"bufferView":25,
			"componentType":5126,
			"count":800,
			"type":"VEC3"
		},
		{
			"bufferView":26,
			"componentType":5126,
			"count":800,
			"type":"VEC2"
		},
		{
			"bufferView":27,
			"componentType":5123,
			"count":1200,
			"type":"SCALAR"
		},
		{
			"bufferView":28,
			"componentType":5126,
			"count":48,
			"max":[
				0.06960701942443848,
				3.253035068511963,
				6.6214375495910645
			],
			"min":[
				-0.06960701942443848,
				3.253035068511963,
				-6.6214375495910645
			],
			"type":"VEC3"
		},
		{
			"bufferView":29,
			"componentType":5126,
			"count":48,
			"type":"VEC3"
		},
		{
			"bufferView":30,
			"componentType":5126,
			"count":48,
			"type":"VEC2"
		},
		{
			"bufferView":31,
			"componentType":5123,
			"count":96,
			"type":"SCALAR"
		},
		{
			"bufferView":32,
			"componentType":5126,
			"count":1632,
			"max":[
				0.48598840832710266,
				2.226656436920166,
				5.518754959106445
			],
			"min":[
				-0.48598840832710266,
				2.1542420387268066,
				-5.518754959106445
			],
			"type":"VEC3"
		},
		{
			"bufferView":33,
			"componentType":5126,
			"count":1632,
			"type":"VEC3"
		},
		{
			"bufferView":34,
			"componentType":5126,
			"count":1632,
			"type":"VEC2"
		},
		{
			"bufferView":35,
			"componentType":5123,
			"count":3264,
			"type":"SCALAR"
		},
		{
			"bufferView":36,
			"componentType":5126,
			"count":1233,
			"max":[
				0.820974588394165,
				3.8832907676696777,
				6.456995487213135
			],
			"min":[
				-0.820974588394165,
				3.6412699222564697,
				-6.456995487213135
			],
			"type":"VEC3"
		},
		{
			"bufferView":37,
			"componentType":5126,
			"count":1233,
			"type":"VEC3"
		},
		{
			"bufferView":38,
			"componentType":5126,
			"count":1233,
			"type":"VEC2"
		},
		{
			"bufferView":39,
			"componentType":5123,
			"count":2232,
			"type":"SCALAR"
		},
		{
			"bufferView":40,
			"componentType":5126,
			"count":1256,
			"max":[
				1.5003907680511475,
				2.5163326263427734,
				5.502142906188965
			],
			"min":[
				-1.5003907680511475,
				2.418388843536377,
				-5.502142906188965
			],
			"type":"VEC3"
		},
		{
			"bufferView":41,
			"componentType":5126,
			"count":1256,
			"type":"VEC3"
		},
		{
			"bufferView":42,
			"componentType":5126,
			"count":1256,
			"type":"VEC2"
		},
		{
			"bufferView":43,
			"componentType":5123,
			"count":2880,
			"type":"SCALAR"
		},
		{
			"bufferView":44,
			"componentType":5126,
			"count":52,
			"max":[
				0.8083734512329102,
				3.2343008518218994,
				7.835170269012451
			],
			"min":[
				-0.8083734512329102,
				1.1555793285369873,
				-7.835170269012451
			],
			"type":"VEC3"
		},
		{
			"bufferView":45,
			"componentType":5126,
			"count":52,
			"type":"VEC3"
		},
		{
			"bufferView":46,
			"componentType":5126,
			"count":52,
			"type":"VEC2"
		},
		{
			"bufferView":47,
			"componentType":5123,
			"count":96,
			"type":"SCALAR"
		},
		{
			"bufferView":48,
			"componentType":5126,
			"count":48,
			"max":[
				1.5228962898254395,
				2.8551158905029297,
				6.837854385375977
			],
			"min":[
				-1.5228962898254395,
				1.8663794994354248,
				-6.837854385375977
			],
			"type":"VEC3"
		},
		{
			"bufferView":49,
			"componentType":5126,
			"count":48,
			"type":"VEC3"
		},
		{
			"bufferView":50,
			"componentType":5126,
			"count":48,
			"type":"VEC2"
		},
		{
			"bufferView":51,
			"componentType":5126,
			"count":48,
			"max":[
				0.06960701942443848,
				3.253035068511963,
				6.6214375495910645
			],
			"min":[
				-0.06960701942443848,
				3.253035068511963,
				-6.6214375495910645
			],
			"type":"VEC3"
		},
		{
			"bufferView":52,
			"componentType":5126,
			"count":48,
			"type":"VEC3"
		},
		{
			"bufferView":53,
			"componentType":5126,
			"count":48,
			"type":"VEC2"
		},
		{
			"bufferView":54,
			"componentType":5126,
			"count":25286,
			"max":[
				1.5358152389526367,
				3.8832907676696777,
				7.835170269012451
			],
			"min":[
				-1.5358152389526367,
				-0.0170612633228302,
				-7.835170269012451
			],
			"type":"VEC3"
		},
		{
			"bufferView":55,
			"componentType":5126,
			"count":25286,
			"type":"VEC3"
		},
		{
			"bufferView":56,
			"componentType":5126,
			"count":25286,
			"type":"VEC2"
		},
		{
			"bufferView":57,
			"componentType":5123,
			"count":43044,
			"type":"SCALAR"
		}
	],
	"bufferViews":[
		{
			"buffer":0,
			"byteLength":576,
			"byteOffset":0,
			"target":34962
		},
		{
			"buffer":0,
			"byteLength":576,
			"byteOffset":576,
			"target":34962
		},
		{
			"buffer":0,
			"byteLength":384,
			"byteOffset":1152,
			"target":34962
		},
		{
			"buffer":0,
			"byteLength":144,
			"byteOffset":1536,
			"target":34963
		},
		{
			"buffer":0,
			"byteLength":3708,
			"byteOffset":1680,
			"target":34962
		},
		{
			"buffer":0,
			"byteLength":3708,
			"byteOffset":5388,
			"target":34962
		},
		{
			"buffer":0,
			"byteLength":2472,
			"byteOffset":9096,
			"target":34962
		},
		{
			"buffer":0,
			"byteLength":1488,
			"byteOffset":11568,
			"target":34963
		},
		{
			"buffer":0,
			"byteLength":8124,
			"byteOffset":13056,
			"target":34962
		},
		{
			"buffer":0,
			"byteLength":8124,
			"byteOffset":21180,
			"target":34962
		},
		{
			"buffer":0,
			"byteLength":5416,
			"byteOffset":29304,
			"target":34962
		},
		{
			"buffer":0,
			"byteLength":2976,
			"byteOffset":34720,
			"target":34963
		},
		{
			"buffer":0,
			"byteLength":732,
			"byteOffset":37696,
			"target":34962
		},
		{
			"buffer":0,
			"byteLength":732,
			"byteOffset":38428,
			"target":34962
		},
		{
			"buffer":0,
			"byteLength":488,
			"byteOffset":39160,
			"target":34962
		},
		{
			"buffer":0,
			"byteLength":384,
			"byteOffset":39648,
			"target":34963
		},
		{
			"buffer":0,
			"byteLength":17520,
			"byteOffset":40032,
			"target":34962
		},
		{
			"buffer":0,
			"byteLength":17520,
			"byteOffset":57552,
			"target":34962
		},
		{
			"buffer":0,
			"byteLength":11680,
			"byteOffset":75072,
			"target":34962
		},
		{
			"buffer":0,
			"byteLength":5856,
			"byteOffset":86752,
			"target":34963
		},
		{
			"buffer":0,
			"byteLength":214416,
			"byteOffset":92608,
			"target":34962
		},
		{
			"buffer":0,
			"byteLength":214416,
			"byteOffset":307024,
			"target":34962
		},
		{
			"buffer":0,
			"byteLength":142944,
			"byteOffset":521440,
			"target":34962
		},
		{
			"buffer":0,
			"byteLength":56040,
			"byteOffset":664384,
			"target":34963
		},
		{
			"buffer":0,
			"byteLength":9600,
			"byteOffset":720424,
			"target":34962
		},
		{
			"buffer":0,
			"byteLength":9600,
			"byteOffset":730024,
			"target":34962
		},
		{
			"buffer":0,
			"byteLength":6400,
			"byteOffset":739624,
			"target":34962
		},
		{
			"buffer":0,
			"byteLength":2400,
			"byteOffset":746024,
			"target":34963
		},
		{
			"buffer":0,
			"byteLength":576,
			"byteOffset":748424,
			"target":34962
		},
		{
			"buffer":0,
			"byteLength":576,
			"byteOffset":749000,
			"target":34962
		},
		{
			"buffer":0,
			"byteLength":384,
			"byteOffset":749576,
			"target":34962
		},
		{
			"buffer":0,
			"byteLength":192,
			"byteOffset":749960,
			"target":34963
		},
		{
			"buffer":0,
			"byteLength":19584,
			"byteOffset":750152,
			"target":34962
		},
		{
			"buffer":0,
			"byteLength":19584,
			"byteOffset":769736,
			"target":34962
		},
		{
			"buffer":0,
			"byteLength":13056,
			"byteOffset":789320,
			"target":34962
		},
		{
			"buffer":0,
			"byteLength":6528,
			"byteOffset":802376,
			"target":34963
		},
		{
			"buffer":0,
			"byteLength":14796,
			"byteOffset":808904,
			"target":34962
		},
		{
			"buffer":0,
			"byteLength":14796,
			"byteOffset":823700,
			"target":34962
		},
		{
			"buffer":0,
			"byteLength":9864,
			"byteOffset":838496,
			"target":34962
		},
		{
			"buffer":0,
			"byteLength":4464,
			"byteOffset":848360,
			"target":34963
		},
		{
			"buffer":0,
			"byteLength":15072,
			"byteOffset":852824,
			"target":34962
		},
		{
			"buffer":0,
			"byteLength":15072,
			"byteOffset":867896,
			"target":34962
		},
		{
			"buffer":0,
			"byteLength":10048,
			"byteOffset":882968,
			"target":34962
		},
		{
			"buffer":0,
			"byteLength":5760,
			"byteOffset":893016,
			"target":34963
		},
		{
			"buffer":0,
			"byteLength":624,
			"byteOffset":898776,
			"target":34962
		},
		{
			"buffer":0,
			"byteLength":624,
			"byteOffset":899400,
			"target":34962
		},
		{
			"buffer":0,
			"byteLength":416,
			"byteOffset":900024,
			"target":34962
		},
		{
			"buffer":0,
			"byteLength":192,
			"byteOffset":900440,
			"target":34963
		},
		{
			"buffer":0,
			"byteLength":576,
			"byteOffset":900632,
			"target":34962
		},
		{
			"buffer":0,
			"byteLength":576,
			"byteOffset":901208,
			"target":34962
		},
		{
			"buffer":0,
			"byteLength":384,
			"byteOffset":901784,
			"target":34962
		},
		{
			"buffer":0,
			"byteLength":576,
			"byteOffset":902168,
			"target":34962
		},
		{
			"buffer":0,
			"byteLength":576,
			"byteOffset":902744,
			"target":34962
		},
		{
			"buffer":0,
			"byteLength":384,
			"byteOffset":903320,
			"target":34962
		},
		{
			"buffer":0,
			"byteLength":303432,
			"byteOffset":903704,
			"target":34962
		},
		{
			"buffer":0,
			"byteLength":303432,
			"byteOffset":1207136,
			"target":34962
		},
		{
			"buffer":0,
			"byteLength":202288,
			"byteOffset":1510568,
			"target":34962
		},
		{
			"buffer":0,
			"byteLength":86088,
			"byteOffset":1712856,
			"target":34963
		}
	],
	"samplers":[
		{
			"magFilter":9729,
			"minFilter":9987
		}
	],
	"buffers":[
		{
			"byteLength":1798944,
			"uri":"Wagon_1-923688b412f7d0d4933b58b67c55493a.bin"
		}
	]
}
