{
	"asset":{
		"generator":"Khronos glTF Blender I/O v4.2.69",
		"version":"2.0"
	},
	"scene":0,
	"scenes":[
		{
			"name":"Scene",
			"nodes":[
				0
			]
		}
	],
	"nodes":[
		{
			"mesh":0,
			"name":"Cube"
		}
	],
	"materials":[
		{
			"doubleSided":true,
			"name":"Beton",
			"pbrMetallicRoughness":{
				"baseColorFactor":[
					0.800000011920929,
					0.800000011920929,
					0.800000011920929,
					1
				],
				"metallicFactor":0,
				"roughnessFactor":0.5
			}
		},
		{
			"doubleSided":true,
			"name":"Paint",
			"pbrMetallicRoughness":{
				"baseColorFactor":[
					0.8000000715255737,
					0.001864246092736721,
					0.0027574580162763596,
					1
				],
				"metallicFactor":0,
				"roughnessFactor":0.5
			}
		},
		{
			"doubleSided":true,
			"name":"Glass",
			"pbrMetallicRoughness":{
				"baseColorFactor":[
					0.06953227519989014,
					0.6070913672447205,
					0.8000000715255737,
					1
				],
				"metallicFactor":0,
				"roughnessFactor":0.5
			}
		}
	],
	"meshes":[
		{
			"name":"Cube.001",
			"primitives":[
				{
					"attributes":{
						"POSITION":0,
						"NORMAL":1,
						"TEXCOORD_0":2,
						"TANGENT":3
					},
					"indices":4,
					"material":0
				},
				{
					"attributes":{
						"POSITION":5,
						"NORMAL":6,
						"TEXCOORD_0":7,
						"TANGENT":8
					},
					"indices":9,
					"material":1
				},
				{
					"attributes":{
						"POSITION":10,
						"NORMAL":11,
						"TEXCOORD_0":12,
						"TANGENT":13
					},
					"indices":14,
					"material":2
				}
			]
		}
	],
	"accessors":[
		{
			"bufferView":0,
			"componentType":5126,
			"count":48,
			"max":[
				4,
				8,
				0.10000002384185791
			],
			"min":[
				-4,
				0,
				-0.10000002384185791
			],
			"type":"VEC3"
		},
		{
			"bufferView":1,
			"componentType":5126,
			"count":48,
			"type":"VEC3"
		},
		{
			"bufferView":2,
			"componentType":5126,
			"count":48,
			"type":"VEC2"
		},
		{
			"bufferView":3,
			"componentType":5126,
			"count":48,
			"type":"VEC4"
		},
		{
			"bufferView":4,
			"componentType":5123,
			"count":120,
			"type":"SCALAR"
		},
		{
			"bufferView":5,
			"componentType":5126,
			"count":32,
			"max":[
				4,
				8,
				0.10000002384185791
			],
			"min":[
				-4,
				0,
				-0.10000002384185791
			],
			"type":"VEC3"
		},
		{
			"bufferView":6,
			"componentType":5126,
			"count":32,
			"type":"VEC3"
		},
		{
			"bufferView":7,
			"componentType":5126,
			"count":32,
			"type":"VEC2"
		},
		{
			"bufferView":8,
			"componentType":5126,
			"count":32,
			"type":"VEC4"
		},
		{
			"bufferView":9,
			"componentType":5123,
			"count":72,
			"type":"SCALAR"
		},
		{
			"bufferView":10,
			"componentType":5126,
			"count":4,
			"max":[
				1.9260886907577515,
				7.094864845275879,
				-0.003985881805419922
			],
			"min":[
				-1.3632780313491821,
				3.805497884750366,
				-0.003985881805419922
			],
			"type":"VEC3"
		},
		{
			"bufferView":11,
			"componentType":5126,
			"count":4,
			"type":"VEC3"
		},
		{
			"bufferView":12,
			"componentType":5126,
			"count":4,
			"type":"VEC2"
		},
		{
			"bufferView":13,
			"componentType":5126,
			"count":4,
			"type":"VEC4"
		},
		{
			"bufferView":14,
			"componentType":5123,
			"count":6,
			"type":"SCALAR"
		}
	],
	"bufferViews":[
		{
			"buffer":0,
			"byteLength":576,
			"byteOffset":0,
			"target":34962
		},
		{
			"buffer":0,
			"byteLength":576,
			"byteOffset":576,
			"target":34962
		},
		{
			"buffer":0,
			"byteLength":384,
			"byteOffset":1152,
			"target":34962
		},
		{
			"buffer":0,
			"byteLength":768,
			"byteOffset":1536,
			"target":34962
		},
		{
			"buffer":0,
			"byteLength":240,
			"byteOffset":2304,
			"target":34963
		},
		{
			"buffer":0,
			"byteLength":384,
			"byteOffset":2544,
			"target":34962
		},
		{
			"buffer":0,
			"byteLength":384,
			"byteOffset":2928,
			"target":34962
		},
		{
			"buffer":0,
			"byteLength":256,
			"byteOffset":3312,
			"target":34962
		},
		{
			"buffer":0,
			"byteLength":512,
			"byteOffset":3568,
			"target":34962
		},
		{
			"buffer":0,
			"byteLength":144,
			"byteOffset":4080,
			"target":34963
		},
		{
			"buffer":0,
			"byteLength":48,
			"byteOffset":4224,
			"target":34962
		},
		{
			"buffer":0,
			"byteLength":48,
			"byteOffset":4272,
			"target":34962
		},
		{
			"buffer":0,
			"byteLength":32,
			"byteOffset":4320,
			"target":34962
		},
		{
			"buffer":0,
			"byteLength":64,
			"byteOffset":4352,
			"target":34962
		},
		{
			"buffer":0,
			"byteLength":12,
			"byteOffset":4416,
			"target":34963
		}
	],
	"buffers":[
		{
			"byteLength":4428,
			"uri":"WallForPaintingWithWindow-c3905f806c570764aeabb40576aa49e1.bin"
		}
	]
}
